<svg id="Layer_1" data-name="Layer 1" xmlns="http://www.w3.org/2000/svg" width="84.93" height="92.78" viewBox="0 0 84.93 92.78"><defs><style>.cls-1{fill:#c6c2c0;}.cls-2{fill:#b9b4af;}.cls-3{fill:#a39b93;}.cls-4{fill:#62432e;}.cls-5{fill:#896b57;}.cls-6{fill:#fff;}</style></defs><path class="cls-1" d="M.2,22.83c-.36-.14-.12-.66-.18-1C.38,21.82.12,22.55.2,22.83Z"/><path class="cls-2" d="M24.87,18.82c4.26,2.72,6.25,7.75,11,9.23,1.48.73-1,1.12,1.8,1.33-.17.83-.36.69-.17,1.39-.75.41.26.65.61.73,1.18-.34,3-2.13,3.76-1-.35.82.87-.15,1.2-.09.56.07.57-.66.8-.92C44.64,29,46.7,30,46,28.21c1.72.55,1.26-.36,2.43-.12,1.24.58,2.23,1.47,1.41-.42-1.19-.51,1-.14,1.45.17.62.58,1.07,1.27,2.16,1.16.41-.15.41-.85,1.05-.71,1-.17-.73-.43-1.07-.44-1.85-.28-3.23-1.26-5.24-1-1.94.74-1-1.16-1.77-.79-1.62-.13,1.27-.13,1.3-.61-.27-.37-1.2.18-1.4-.36,2.19-.14-2.82-1.54-3.84-1-1.16-.51-1.62,0-2.78-.1a9.83,9.83,0,0,1,3-.81c-.71-.63.34-.32.64-.78-.19.57.66.52,1,.31s.45,0,.34.22a4.53,4.53,0,0,0,3,.91c1.22-.28,1.7,1.31,2.76,1.2.57-.44,1.91.62,1.95-.27s-1.61-.61-1-1.2c.23-.4,1.57.4,1.31-.41-.25-.34.53-.48.36-1,.13-.71.59-.52.35-1.38.19-.18.57.54.59,0s1-.56,1.15-1.19c-.12-.7,1.22-.48,1-1-3.34,1-1.24-2.42.94-1.61.31.15.53-.13.69-.36.81-.5-.9,1.71.41,1.15.31-.07.2-.75.51-.22a1.8,1.8,0,0,0,2.29.58,1.71,1.71,0,0,0,1.84-1c1,0,.79-.21,1.16-.82s-1-.51-1.4-.63c-.83-.29,1.2-.91,1.54-.46.66.46.61-.73,1.27-.7.15,0,.47.05.41-.2s-1.19.36-.86-.35a6.59,6.59,0,0,1,4.91-2.62c.9-.7-3.28-.65-.9-1.69-.29,1.29.85.27,1.68.36.29-.9,1.41-.52,2.18-.8-.49-1-3,.21-1.48-1.45.41-.75,1.11-.6.24.12-.46.63.62.53.92.73.55.33,1.8.31,1.11,1.19.52-.12,1.52.12,1.53.68-.37-.33-1.23,0-1.54.33,0,1.62,2.69-1.3,2.78,1.78,1.94,1.23.5,1.26.64,3.12.13.69,0,.84-.7.65-.83-.18-1.44,1.5-.61,1.81.89,1.27,2.29,3.24,1.8,5.05-.15-.23-1.24-1.65-1-.64,0,.63.46,1.49.15,1.93-.55.2.13.91-.16,1.2-.24.08-.44-.43-.43-.67-.14-1-.4,2-1.38.64-.27-1.1-1.39-3.33-2.36-3.12a7.8,7.8,0,0,1,1.68,3.1c-.37.5.83.45.5,1.08a1.3,1.3,0,0,1-.31,1.63c-.14.31.22,1.23-.31,1.13-.71-.48-.52-.14-1.23-.08.18.32.61.31.58.78.13.63-.47-.09-.54.46-.28.59-.24.45-.76.28,0,2,.3,2.09-.65,3.56-.13.71-2-.33-2.18-1-1,.36.54,1.23.81,1.77.27.31.7.76.58,1.16-.54.17-.71-1-1.26-.79s.7,1.75-.3,1.48c-1-1.53-1-.83-1.2.4-.41-.36-.61-.14-.29.29-.84-.08-1.38,1.21-.17,1.11.55.42,1.36.37,1.49,1.2.14.15.12-.19.29-.12.12.4-.26.57-.12,1,1.33-.17,2.7-2.89,4.36-3.53.75-.28,1.26.37,1.52.9-.34-.07-1.6,1-.71,1s1.12.88,2,.91c.33.47-.54,1.82,0,1.57.17-.2.36,0,.38.17,0,.54-1.27,0-1.15.82s-1.37.33-1.1,1.17c-.44,1.33.38,1.22.82,2.39,0,.58.51-.08.73,0,.21.35,1.07-.35.84.38s-1.06,0-1.39.47c.07.59-.89.6-.71,1s.35.24.56,0a.63.63,0,0,1,.17.82c-.85,1.52,2.14,2.65.66,4.08-.27,1.2-2,2-1.08,3.31.09.19-.2.32-.23.08-.33-.56-.92.63-.81,1-.27.62-1.28.78-1.82,1.28-.18,0-.28.16-.09.34s-.4.39-.33.73-.15.34-.42.26c-.73-.17-.64,1.1-1.47.92-1.19-.46-1.48,1-2.53,1-.44.35.82.08.19.47-.55.18-1,.7-1.46.77-.45-.25-.47.51-.87.37-1.86-.51-3.42.89-5.22.72-.5-1.22-1.85.64-2.31-.42,1.25-.87-.37-.17-.85-.82-.35-.25-.66,0-.25.25.42,1.38-2.35-.23-2.66-.67-.18-.11-.07-.27.08-.19s.17-.42.5-.34c-.72-.37.46-.87-.32-1.16-.48-.82-1.61-.58-2.12.24-.38.18-.87-.39-1.34-.13-1-.22.31,1.24-1.95.4-.44-1.1.52-1.56.33-2.06-.61-.29-.73.6-1.13.57s-.89,0-1.39-.07c-.41.17-.28-.68-.74-.33-.88,1.26-2.41.69-.86,1.9-1.3-1.1-6.51,1.61-5.54-.24.62-.24,1.89-.79,1.77-1.46-.7,1-.4-.67-1.33.07-.22.36-.47,0-.72.07-.44,1.44-1.69,1-2.69,1.55.12.9-.55.16-1.13.5s-.31-.6-.65-.27c-.57.21-1.38-.52-1.91.32-.54.1-1.39-.4-2.06-.19-.29.22-.36-.54-.52,0s.3,1.19-.54.77-2.48-.5-.68-1c1.79-.11.39-1.73-.76-1.17-.24.18,0,.52-.38.5s0,.75-.47.87c-1.59.24-2.13-2.38-3.23-3.06-2.33-1.38-1.57-1-3-.16-.25-.47-1.43-.86-1.18-1.32.17-.15.13-.33-.07-.36A2.39,2.39,0,0,1,18.4,55.5c-1.38,1.09-1.28-1.58-2.48-1.83-.18-.34.66-.93.9-.52-.13-.26.36-.53-.08-.94.12-.4-.42-.31-.63-.49-.61-.34.22-2.06-.53-1.87-.59.23-.68-.93-1.22-1.2-.09-.46.29-1.1,0-1.65a3.82,3.82,0,0,1-1.47-3.36c.58-1.1.4.34.82.46.74.55,1-.56,1.59.06.42.54.22-.92-.38-1-.36-.48-1.53-.55-1.38-1.22.4-.95-1.17-1.34-1-2.11.23-1.71-1.28-.94-.81-2.57-.71-.8.12,2.52-.9,2-.86-.6.1-1.24-.41-1.81-.25-1.87-.6-.91-.27.31-.37-.2-.64-.81-.86-1.21,0,.22-.1.61-.4.49.42-1.25-1.1-.52-1.22.37-.8.64.09-1.22.61-1.26.56-.31-.55-.46-.46-.75,2.44-2-.09-1.62.63-2.67.62-.38.27-2.56,1.07-1.81-.36.34-.39,2.79-.15,2.47.77,0,0,2,.91,1.61-.22-.46,0-1-.2-1.54a3,3,0,0,1,.18-1.78c-.51-1-.32-2.39-.38-3.28.8-.61.63-2.77,1.53-1.88,0-1-.32-1.27.58-2,.79-2.11.46-4.16,1-6.13.38,0,1,.45,1-.29.11-.53.63.09.87.21.84-.91.48-.63-.75-1.57-.32.14-1-.07-.71-.5.11-.25-.41-.28-.08-.49.23-.05.48-.3.18-.42-.71-.61-.84-1.59.44-1-1.6.28.2.74.87,1,.28-.36.66.1,1,0,.41-.71,1,.11,1.79.07A23.64,23.64,0,0,1,24.87,18.82Zm32.4,30.94c-.31.6.51.82.75,1.21s0,.56-.28.23c-1.07.92.83.94.85,1.51-.19.6.14.64.65.52-.34,1.14,1.12.62,0,1.45,1.09.59-.12.86.56,1.75-.38.32-.17,1.07-.7,1s0,.39-.11.64c-.66,1.65.16,1.15.89,1.64.13.24.25-.3.41-.17,1.82.48.12,1.47.45,1.91a4.83,4.83,0,0,1,2.86.18c1.08-.39,1.42-2.35,2.72-1.56-.33-.62.51-.17.62-.75s-.34-1.3.56-1c.8.08-.8-.76.41-.64.12,0,.24-.07.18-.17,0-.72-.6-.77-.4-1.22.41-.73.08-.84.94-.48.6.06,0-.33.07-.52.67-.1.63-.21.72-.85.4-.59-.88-.51-.56-1.23,0-.46.69-.07.6-.73.69-.63.06-1.43.49-2.2.31-.37-.38-.81.27-1.06.35-.47-.74.05-.49-.49,1.45-.9,0-.46-.52-1.16-.1-.32.81-.33,1-.11.34.31.44-.44.8-.53-.36-.23-1.5.47-1-.32.16-.16.79-.15.43-.48-.42-.12-.45-.64-.7-.85-.32,0-.47-.14-.61-.37-.64-.38-.87-1.16-1.69-.7-1.72.37-5.75,1.17-6,3-.79,1.47-.69,0-.12-.7-2.65.17-.95.11-2.23,1.15-.8-.33-1.49.85-2.38.45a1.29,1.29,0,0,1-.79,1.16c-.46.68-1,.46-1,1.26,0,1,.86-1.38,1.37-1A.75.75,0,0,0,57.27,49.76ZM17.07,40c-.7.31.22.63-.13,1,0,.51-.79.52,0,.78,1,.21.88,1.19,1.36,1.75.21.53.2.85.73,1.24,1.37.43.44,1.18,1.61,1.47-.22,1-1.38-.58-2.22.15-.74,0-1.63-.37-.49.34-1.16,2.33.54,1.84.24,3.08-.12.54.18,1.66.64,1.8.71-.15.38.6.59.83.5.4.51,1.87,1.49,1.32.39-.32-1-1.18-.55-1.56.76.08.78,1.11,1.14,1.52,0,.29-.57,1.45.3,1.08.09.69,1.78,2.09,1.27.69.1,0,.18,0,.25,0,.73.09.45.41,1.38.26a4.35,4.35,0,0,1,2.58.74c1.24.4,0,1.69.65,2.27s.41.38,1.08.54c.22.08.32-.34.45-.46.66-.08,1.71,0,2.42-.05.34,0,.57.67.82.33.25-.68,1-.14,1.36-.57.44.18.09-.61.59-.41s1.35-.43,2,0c1.32-.16,0-1,0-1.49.63-.09.51-.44.94-1,.64,0,1-.69,1.5-1.08.87-.66.38-1.83,1.21-2.36,1.54-.34,1-.49,1.82-1.21.38-.29-.52-.17-.23-.45.64,0,.42-.47.68-.77.46,0-.17-.63.33-.61.55-.89,2.49-1,2.59-1.61-.08-.47-1.38-.27-.78-.84.38-.63-.26-.79.23-1.41.57.71,2.68-.39,2.1-1.19.37-.41,1.63-.11,1.21-1.07-.31-.4,1.4-.34.63-.87-.82-.21.28-.63-.11-1-.85-.7-.14-.62,0-1.51,1.56,3.33.69,1.48,2.26-.07.7-.51.61,1.08,1.28.46.47-.12,1-.61.36-.95-.47-.34.91-1.24.93.52.51.5.88-.1.75-.61.17-1.23,3.66,1.14,2.3-.61-.77-.6-1.59-.27-2.12-1,.43-.15,0-.5.38-.77s-.45-.42-.61-.68c-.05-.65,1.13-.17,1.49,0,.77-.13-.39-.49-.69-.53-1.26-.57.91-2.09-1.79-1.7-1.67.38-.11-.61-1.08-1s-1-1.63.23-.92a2.29,2.29,0,0,1,1.81.09c-1.27-1.69-1.15.74-4.59-1.83-1.21-.83-1.15-.18,0,.29.48,1.33-1.51-.53-2-.58s-1.44.8-.57,1c.21,0,.86.14.47.36-.82.36-.89-.91-1.45-.77a4.55,4.55,0,0,0-3.22,1.16,1.51,1.51,0,0,0-1.28.52c.85.94-1.74.3-1.94,1,.27.5,1-.42,1.09.36.6,1.05-1.08.71-1,1.44.24.52-.44.13-.64.4.14.16.49.25.34.49-.29.49-1-.65-1.46-.17.88,1.26,0,.11-.87.51a19.41,19.41,0,0,1-2.7-1.25c-.49-.22.48-.46,0-.75-.56-.68-3.78-1.5-3.28-1.91,1.5-.38,1.24.53,2.35.56.07-.19-.12-.22-.26-.25-.39-.19-.26-.78-.85-.79-.88-.21,0-.29-.4-.79a9.05,9.05,0,0,0-3.23-1.4c-.39-.34-.78.25-1.08-.05a5,5,0,0,1-1.12-1.2c-1.05-.18,0-1,.57-.48.51.35,1.16-.18,1.72-.18.36.32,1,.74,1.37.16-.13-.74-1.47-.59-1.58-1.46,0-.15-.27-.14-.24,0-.21.74-.48-.53-1-.21.27-.33.84-.79.39-1.1-3.08-1.85.2-1.57-1.21-2.94-.53-1.33-1.17-.29-1.89-.85a2.29,2.29,0,0,0-1.93-1.06c-.5-.63-1.17-.81-1.78-1.34-.58.47-.06-.46-.78.25-.07.19.21.22.19.39-1.88.08.18,1.12.15,2,.28.33.3.46-.19.49A10.86,10.86,0,0,0,19,20.07c-1.42-1.66,0,.95-1.21-.05-1.24-.16-.87,0-1,1-.63-.24-.78.15-1,.61-.87.68-.25-.77-1.95.4-.37,1.34.14.65.61,1.31.78,1.1,1.9.83.21,1.63-.52.34,1.18,2.27.74,1-.13-.06-.05-.32.09-.16,1.05,1.05-.8.81,1.48,1.7-.72.68-1.54-.81-2.44-.7-.7-1-.43.11-.31.69-.23.23-.06.39.21.26.52.48.21,1.5,1,1.94.41.73-.58-.14-.37,1-.35.19,2.64.54,1.55,1-.47.37.66.21.19.88-.08.51-.41.28-.66.08-2.19-.64-.27,1.18.32,2.1A23.81,23.81,0,0,0,17.07,40Zm49-15.59c0,1.86.67,1.59-1.09,2.36-.11.74.94.28.67,1s1.11,2,1.52,1.5c-.07-.54-1.11-.83-.77-1.37.14-.36-.44-.61.06-1,.14-1.1.14-.17.91-.49.42-.22-.06.71.44.41.23-.11.15.33.33.41.41.48.47-.58.88-.08.56-.32.66.29,1.08.21.24-.21-.28-.35-.14-.56s.44.49.57.06c.24-.66-.67-.92-.29-1.49.23.21.83-.06.68.41s.9.52,1.2.84c1.73.81-.1-1.63-1-1.73-.59-.58-1.14.34-1.71-.11A5.36,5.36,0,0,0,66.05,24.36ZM50,49.05c-2.13,2.85,1,1-3.25,2.35-.52-.14-.59.6-.61,1,.32-.25.51-.12.73.14.31-.37.49-.89,1.13-.7.42-.31.38.13.24.43-.81,2.74,2.78.63,3.9.42a1.7,1.7,0,0,0,1.06-.92c-.76,0-1.74,1-2.55.82.16-1.09,1.29-1.81,2-2.51C51.87,49.26,49.94,50.6,50,49.05ZM14.23,34.88a1.64,1.64,0,0,0-.15-2c-.15-.29-.33-2.35-.87-1.37.46.86-.28,2,.31,2.56-.29.07-.49.42-.28.62.33.84-1.07.36-.62,1,.42.45-.45.25-.25.64.23.61.28.31.47-.08.93.76.26,1.79,2.07,1.82-.05-.56.61-.72.18-1.47C15.52,36.12,14.62,34.65,14.23,34.88ZM64.94,17.15a.71.71,0,0,0,1.09.66c1.14-.15,1.6,1.72,2.65,1.69-.12-1.1-1.1-3.16-2.58-2.6-.38.26-.26-.28-.49-.33C65.2,16.62,64.86,16.6,64.94,17.15Zm4.26-1.31c1.49-.26-.19-1.65-1-1.66C65.91,14.05,68.2,15.69,69.2,15.84ZM67.79,30a12.27,12.27,0,0,1,2.6,2.47A2.14,2.14,0,0,0,67.79,30ZM43.57,51.83c-1.08.07-.72,1.88.39,1C45.18,52.72,45,50.44,43.57,51.83ZM60.44,28.21c2.1-.8-1.18-1-1.69-1.55C57.79,27.17,59.86,28.13,60.44,28.21ZM54.07,29c-.65.44,1,1.14,1.48,1.19C56.79,29.74,54.71,29,54.07,29Zm-1,11.66c-2.19,0,.89,1.67.45.57C53.54,40.9,53.41,40.64,53.05,40.66Zm-41.18-9c.35-.45,0-.71.16-1.15C11.27,29.21,11,31.2,11.87,31.65ZM49.09,44.2c.75.06,0-.63-.4-.52C48,44,48.57,44.5,49.09,44.2ZM17.22,46c.52-.21.06-1-.23-1.06C16.81,45.23,17.16,45.6,17.22,46ZM65.56,16.15c0-.23-.72-.07-.66.16S65.58,16.43,65.56,16.15ZM12,36.56c-.08-.14,0-.47-.22-.46S11.89,37.19,12,36.56Zm44.14,2.91c.2-.39-.56-.54-.58-.21S56,39.36,56.17,39.47ZM11.3,35.23c0,.24,0,.65.3.7C11.82,35.72,11.37,35.45,11.3,35.23Zm24.82-.3c.05-.16-.49-.52-.54-.3S36,35.07,36.12,34.93ZM52.82,51.2c-.15,0-.32.33-.06.31S53,51.22,52.82,51.2Zm5.76,9.19c0-.17-.25-.27-.25-.06S58.56,60.59,58.58,60.39ZM70.94,48c0-.15-.31-.09-.29.06S71,48.18,70.94,48ZM64,61.89c-.15,0-.2.32,0,.27S64.12,61.89,64,61.89ZM75.78,40.63c0-.13-.22-.17-.21,0S75.79,40.77,75.78,40.63ZM14.46,21.39c.06,0,.11,0,.12-.1C14.6,21,14.18,21.33,14.46,21.39Zm13,1.92c.24,0,0-.33-.1-.14A.13.13,0,0,0,27.45,23.31ZM11.5,34.66c0-.09-.09-.23-.14-.09S11.49,34.84,11.5,34.66ZM60,60.47c0,.06,0,.09,0,.11S60.05,60.49,60,60.47Zm-6.46-20c-.06,0-.11,0-.1,0S53.51,40.52,53.52,40.45Zm15.9,13.07c-.06,0-.09,0-.1,0S69.41,53.6,69.42,53.52Zm-20-9.93c.06,0,.09,0,.1,0S49.45,43.52,49.44,43.59ZM26.75,28c-.05,0-.11,0-.1,0S26.74,28.07,26.75,28ZM49,41.84c0,.06,0,.09,0,.1S49.1,41.85,49,41.84Zm10.6,19.1c-.07,0-.09,0-.11.05S59.6,61,59.62,60.94Z"/><path class="cls-3" d="M16.72,53c-1.06.11-1,.73-.07,1.15.44.43.32,1.26.85,1.45,1.51,0,.61.29,1.69,1.07s0,.6.48,1c.51.18,1.19,1.58,1.66.79-.18-1.32,2.63.07,3,.88.68.86,1.53,2.74,2.74,2.53.51-.12,0-.83.47-.87s.13-.33.38-.5c.67-.21,2,0,1.53.89-.27.53-2.17.2-1.47.84,3.53,1.22,1-.4,2.21-.42.34,0,.73.1,1.13.06.52-.36.78.53,1.16.16.55-.84,1.33-.12,1.91-.32.34-.33.22.58.65.27s.79,0,1.11,0c-.2-.65.93-1.18,1.37-.61.18-.64,1.33-.59,1.34-1.43.24,0,.5.3.72-.07.51-.61.73.28,1.1.35-.19.79-1.34.67-1.64,1.2,0,1.61,3.1-.83,4.4-.05.47-.26.85.13,1.24.13-.31-.72-1.5-.56,0-1.1,1-.47.54-1.25,1.69-.49,1.77.41,1.37-.44,2.47-.48.4.26-.59.75-.44,1.22,0,1,.49,1.08,1.39,1.06.18,0,.32-.1.25-.36,0-.78,1.39,0,1.76-.13a1.35,1.35,0,0,1,2.42.05c-.08.37-.5.54,0,.87-2.2.45,2.83,2.68,2.08,1.2-.8-.78,1.2.27,1.6.07-1.23,1.27.44.73,1.29.45,1.11,1.18,2.77-.11,4.16-.35a4.25,4.25,0,0,0,2.45-.27,4.53,4.53,0,0,0,1.63-1c-.13,0-.7,0-.36-.24,1,0,1.35-1.44,2.53-1,.83.17.73-1.11,1.47-.93s.59-1.33.84-1.33c.56-.48,1.52-.69,1.82-1.28.38-2.64,1.36.45.81-1.9.13-1.34,1.65-2.27,1.77-3.56C76,51.15,75,50.53,75,49.55c0-.27.54-1.52-.15-1.26,0,.54-.77-.27-.37-.33.75-.34.71-1.28,1.78-.86.18.36,0-.18.26-.35.43-.51-1-.34-1-.31-.64.61-.62-.85-1.15-1.08s-.35-.61-.14-1.08c-.15-.54-.06-.84.59-.9.73-.26.33-1.31,1.45-1.14.34,0,.14-.57-.14-.46s-.48,0-.29-.24c.53-.34.33-1.54-.23-1.41-.8-.1-.93-1-1.8-.8-.05-1.22,1.67-.46.43-1.78-1.62-1.43-6,6.08-5.21,2.46-.49.39-.37-.6-1-.71-.42-.3-2.09-.29-1.39-1.08.39-.69.81-.06.6-.86,1,.39.27-.43.59-1s.78.59,1,.79c.76.29.27-.82.2-1.14.07-1.15.93.67,1.36.45.35-1-2.62-2.27-1.39-2.93.36.92,1.28,1,2,1.28.32-.1-.12-.67.31-.52.17-.27.2-.81.49-1.05.54-.51-.5-1.77.09-2.31.65.76.46-.74,1-.45,1,1.63.23-.65-.42-1.05,1.08-.46,1.39.55,1.51-.15-.25-1,.94-1.54.34-2.53.33-.63-.87-.58-.5-1.08a7.8,7.8,0,0,0-1.68-3.1c.13-.42,1.23.58,1.32.91.66,1.2,1.67,4.16,2.26,1.35.31,0,.35,1.59.66.67-.28-.95.28-.89.14-1.83-.33-1.49-.38-2,.76-.44.44-1.45-.56-3.26-1.32-4.35-.22-.39-1.14-1.15-.85-1.55.07-1.51,2-.3,1.68-1.61-.25-.84.49-1.55.41-2.15-1.24-1.19-.9-.73-1.42-2.29-.92-.69-2.4.85-2.41-.46A1.43,1.43,0,0,1,75,10.47c0-.57-1-.79-1.53-.68.76-.93-1.11-1.18-1.73-1.31-1.28-.29,1.08-1.65.27-1.83.4-.69,1.21-.78,2-1,.81-.64,2.13-.28.32.28.12.29.21.52-.14.66-.26.74.66,0,.94,0,.25,1.29.24-.82,2.24-.76.3-.55-.17-1,.56-1.19s1.73.17,2.19-.22c-1.07-.5.78-.72.62-1.28.1-2.13,3-.32.7,2.05-.08.49.72-.24.91.26,1.08.59.1.77-.42,1.18-.45,0-.46.48,0,.45s.25.34,0,.53c-.31.43.18,1-.1,1.52C83,10.82,79.65,11.31,80.31,13c-.34,1,.52,1.18.88,1.74.38,1.65.34,2.89-1.23,3.66,0,1.67-1.75.45-1.63,1.82.18.41.77.61,1,1.19-.44,0-.39,1.85.28,1.47.55.2-1.45,1-.75,1.75,1.4.6,4.07-2.27,1.64,1.54-1,1.53-3.11,4.21-1.64,5.17,1.16,1.72,0,8.09,0,3.89-1.49.27.56.87-1,1-.74-.15-.18-1.23-.93-1.46.1-.2.4-.09.55-.29-.79-.28-.52.34-1,.67s0,1.08.17,1.38c-.26.64,1.2.52.91,1.62-.21.83,1.38.55,1,1.4-.67.79.7.13.83.52.26,1,1.43,2.33,1.16,3.54-.77.16-.66.57-.47,1.22,3.44,2-.28,5-.4,7.42-.32,0,0,.31,0,0,.62.19.22,1.4-.08,1.84-.89,1-1.23.12-1.22,1.71.36.13.65,0,.57.48,2.1-1.19-1,1.28-1.7,1.59-.16,0-.3,0-.3-.18-.16-.5-1.37.42-1.34.86s-1.95,1.33-.6,1c2-.74-.37.75-.84,1-2.09.87-3.47,2.72-5.37,4-.5.31-3.43.37-1.77.67.5.53-1.08.15-1.13.88-.78.66-2,.07-2.78.34.36.34.35.52-.31.42-3.43.2-6.17.38-1.14,1.49-.93.44-5.21-1.1-3.82,0-.39.23-1.72-.34-.86-.51a6.34,6.34,0,0,0-.52-1.15c-.38-.08-1.27-.39-.79.26A9.4,9.4,0,0,1,52,66.41a6.86,6.86,0,0,1,3.77,0c1.49,0-.94-.86-1.12-1.31-.13-.61-.92,0-1-.57,0-.44-1-.49-1.23-.22-.43,0-.62-.18-.89.27-1.18.65.82.55.77,1.23-1.46-.6-.58-.1-1.78.14s-1.76-1.24-3.17-.7c-.5.47-1,.2-1.74.16.05-.14.42-.52.05-.55-.63-.17-1.28,0-1.87-.31-.21-.09-.53-.08-.53.21-.43,1.23-1.55-1.22-2.3-.1-1,.57,1.24.16,1.26.7-.7-.12-5.38-.1-4.8-1a3.41,3.41,0,0,0,3.17-.68,11.71,11.71,0,0,0-6.43.21c-.26.22-1-.13-1.42,0-.67.08-.07-.58-.42-.69a10.17,10.17,0,0,1-6.52-.45c-1.44-.81.31.38-1.26,0-.46,0-2.05-1.47-2.1-.39s-1-1.21-1.58-.5c-.64-.07-1,0-1.4-.73-.6-.89-1.68-.82-2.09-2-.46-.48-.16.55-.53.26a7.44,7.44,0,0,1-2.06-2c0-.14-.28,0-.18.09-.11.67-.42,1.22.36,1.71,1.43,2.15-1.25-.16-2-.62-.25.83.5,1.76,1,2.22-.2-.87.14-.64.65-.08-.65,2.2-3.36-3.53-4.17-5.1C8.44,51.1,7.87,45.27,7,41.54a2.3,2.3,0,0,1,.42-2c.08-1.37-.27-3,1.48-3.33-.24,1.84.27-.52,1,1.4.34.28,0-1,0-1.27.5-.55.44,2.11.58,2.55,1.12,1.69.84-3.45,1.13-1.26-.31.83.48.56.66,1-.07.41.45.72.2,1.1-.16.77,1.4,1.16,1,2.11-.07.18-.11.34.17.45.63.52,2.19.88,1.74,2-.19-.41-.62-.73-1-.18-.27.24-.85-.12-1-.34s0-.64-.24-.63c-1.63,1.78,1.91,3.54,1.15,5.4.52.28.66,1.42,1.22,1.2.92,0-.16.85.3,1.18.14.43,0,.77.63.86C16.84,52,17.12,52.76,16.72,53ZM74.35,34.73c.2-.33.83-.86,0-.79-.65,0,.13-.61-.36-.72s-1.26-.18-1.36.36c-.35.73,1.19,2.38,1.53,1.89C74.19,35,75.07,35.07,74.35,34.73Zm.49-5.1c.82,2.15,1.52.39,2,.74.21.2.6.55.84.28C77.58,29.82,75.17,28,74.84,29.63ZM12.32,56.34A3.31,3.31,0,0,0,11.5,54C11.18,54.53,11.78,56,12.32,56.34ZM68.71,37.6c-.3-.67-1.67.51-.89.57C68.32,37.33,68.05,37.79,68.71,37.6Zm7.05,17.59c-.29-.09-.77-.07-.68.26S75.5,55.38,75.76,55.19ZM12.49,58.76c.16-.25,0-.74-.26-.66S12.33,58.55,12.49,58.76Zm1.88-2.27c.09.22-.06.5.12.58C14.82,57,14.74,56.59,14.37,56.49Zm62.31-9.72c.19.23.5.45.69.25C77.33,46.75,77,46.87,76.68,46.77Zm.94-15.94c0,.4,0,.4.31.51A1,1,0,0,0,77.62,30.83ZM13.14,58.19c.14.24.14.24.35.1A.48.48,0,0,0,13.14,58.19ZM77.74,5c0,.06,0,.11,0,.11S77.8,5,77.74,5ZM74,6.16c0,.06,0,.11,0,.1S74.09,6.17,74,6.16ZM76,42.49c-.06-.05-.09,0-.11,0S76,42.56,76,42.49Zm-1.32-5.08c0-.07,0-.08-.11,0S74.57,37.45,74.64,37.41Z"/><path class="cls-4" d="M1.18,18.93C1,18.18.59,17.08,1,16.35c.17-.4.93-.43.59-.93-.15-.71,1.45,0,1.55-.74.07-.39.4-.08.64-.13a5.19,5.19,0,0,0,.43-1.35c.31-.28.2-.9.7-.94-.13-.26-.58-.52-.15-.75,1.1,0-.39-2.17,0-2.77.45.2.6,1,.94,1.37,1.2,1.32-.79-3.34,1.46.24.36-.94,0-2.25.2-3.32.47.64,1.1,4.11,1.63,1.54.48-1.19.33,1.93,1.11.9,1.49-3,.06.47,1.33.31,1.93-.65,1.63,2.8,0,2.78-.32-.06-.82.25-.71.63a2.77,2.77,0,0,0-1.76.43c-.66-.46-.91.35-1.47.48s-1.5,0-1.7.69-1.23.92-1.36,1.76c-.18.35-.27,1.64.34.89C5.06,16.2,5.57,17,6.37,16a5.61,5.61,0,0,1,5.29,2.89,1.92,1.92,0,0,0-3.1.06c-.88.69-.12,1.24-1.7,1.35.5.24.29,1,1,1.22.41.1.23,1.16.94.89-.11-.28.46-.27.23-.49s-.2-.15,0-.17,0-.44.32-.45c.93-.67,2.72-.76,1.73.71a6.51,6.51,0,0,0-1.55,3.32c-.7-.39.11-1.72-.23-2.16-.53.22.08,1.41-.31,1.73a.82.82,0,0,0-.62.9c.06.21.5,0,.36.33-.1.79.36,1.1.7,1.74,0,.63-.42,3.39-1.27,2.31-1.52-1.47-2.85-2.37-2.75-4.53C4.64,24.6,6.68,24.58,4,24.22c.94-3-1.27-2.11-3.21-1.39-.73-.57.42-1.28.63-1.84.27.45.94,0,1.37-.28C2.37,20.05,1.21,19.93,1.18,18.93Zm1.56,0c-.22,0-.9.49-.48.63C2.46,19.62,3.06,19.12,2.74,19ZM8,17.69c-.17-.22-.56-.19-.53.1S7.85,17.87,8,17.69Z"/><path class="cls-5" d="M13.52,60c-.49,0-.68-1-.52-1.45.84.43,1.56,1.28,2.49,1.7-.13-1.18-1.48-1.56-.84-2.8-.08-.13.14-.23.18-.09.18.76,1.13.87,1.37,1.47,1.34,1.31.62-.29,1.22.25.52,1.34,1.77,1.23,2.35,2.43.88.77,1.69-.4,2.64,1.27.11-1.12.36-.88,1.3-.46.3-.06,1.63,1,1.57.37s.78.29,1,.31c.92,0,1.64.42,2.67.49,1.07.76,2.72-.76,3.53-.07.1,1.34,3.15-.19,4.24,0,2.55-.23,6.17.37,1.2,1.17-.29-.07-.51-.47-.51.13,0,.23.73.25,1,.27.48,0,4.6.72,3.61.17-2.41-.09-.27-1.5.59-.13.76.51.56-.82,1.23-.48.51.51,2.53-.2,1.82.86,1.17.35,1.82-.36,3-.24.7.35,1.49,1.23,2.4.61.41-.66.86.12,1.27,0,.07-.69-2-.56-.77-1.23.23-.38,2.06-.69,2.12,0s.86,0,1,.57a9,9,0,0,0,1.66,1.18c-3.83-.28-6.43.38-.65.79-.47-1,1.41-.13,1.16.66.52.27-.69.4.14.61,1.36.61,0-.47,1.37-.4.58.12,1.1.56.18.55.49.06.44.16,0,.3.49.29,1.17,0,1.51.24-2.91.4-2.9,1,.08,1.37-.19-.6-1.09-.65-1.47-1,.46.09,1.15-.18,1.47.11,0,.25.07.28.22.17s.55.23.78-.08.56.32.9.08c1.89,1.44-4.92,1.26-5.62.41-.54-.16-.09.36,0,.55a.54.54,0,0,0-.7.11c-.44-.71-.43-.09-.47.45-.18-.21-.05-.46-.2-.64-.51,1.2-.36,1.3-.41-.12-.46.35-.47,1.86-.94,1.34-.92.81-.17.21-.79.19,1.19-2,.07-1.68-1.35-1,.53-1,.21-.49-.25-.91.11-.19.11-.32-.16-.29-.84-.2.88-.6,1.12-1,.83-.21,1.14.92,1.88.76.55-.6-2.64-1.89-2.89-1.11,0,.38-.44-.45-.76-.27-1.89-.24,1.67-.42,2.42-.1,1.74-.64-5.28-1.36-5.9-1.49-1.68-.15-1.56-.79-3-.1a17.11,17.11,0,0,1-4.45-.8c-.93-.34-1.92.51-2.7-.18.78-.2.09-.53-.15-.69.42-.44-.38-.14-.62.09a12.79,12.79,0,0,0-4.33.33c-.84-.35-1.72,0-2.57-.35-.58-.31-.23.67-.71.38-.39-.06-.81-.58-1.18-.43-.57.4-1.32-.6-2,.08-.89,0-2.11-1.26-3-.91.39,2-3.66-1.73-4.28-1.2-.34.47,2.42,1.34,1,1-1.16.13-2.51-1.23-3.51-1.13C12.76,60.7,16.44,61.14,13.52,60Zm1.4.31c0,.46,1.1,1.61,1.27.84C16,60.62,15.31,60.61,14.92,60.29Z"/><path class="cls-1" d="M72,6.57c.36.68-2.2,1.81-1,2.19a1.75,1.75,0,0,1,1.67.36c-.21.31-1.18.23-1.64.28a2.86,2.86,0,0,1-2.27.87c.52-1.64-2.09.37,1,.74-.31.73-2.55.46-3.33,1.43A5.05,5.05,0,0,0,64.83,14s-.07.09,0,.14.22.05.46.09.46.08.5.21-.71,1.06-1.49,1a3.73,3.73,0,0,0-1.2-.2,1.55,1.55,0,0,0-.34.08s-.06-.05-.08,0-.07.22,0,.33.6-.08,1,.17a.59.59,0,0,1,.27.33.92.92,0,0,1-.38.94.68.68,0,0,1-.36.18c-.21,0-.31-.07-.41,0s-.07.27-.19.48a.76.76,0,0,1-.47.33,7.84,7.84,0,0,0-1.11.23,1.52,1.52,0,0,1-1,.14,1,1,0,0,1-.48,0,1.23,1.23,0,0,1-.57-.37,2.18,2.18,0,0,1-.35-.43.44.44,0,0,0-.32.06c-.08.06-.07.13-.16.2a.43.43,0,0,1-.31.11.43.43,0,0,1-.33-.22c0-.24,0-.54-.1-.63s-.16,0-.29,0a1.39,1.39,0,0,1-.71-.13c-.24-.07-.66,0-1.44.44,0,0-.51.44-.42.8s.73.64,1.53.4a.14.14,0,0,1,.07.1c0,.14-.23.28-.35.35s-.28.07-.4.16-.16.37-.37.63a1.07,1.07,0,0,1-.43.32,2.56,2.56,0,0,1-.27.23c-.17.13-.21.12-.27.19s0,.36-.16.42-.1,0-.22-.06c-.27-.16-.34-.18-.36-.16s.08.1.1.23a.31.31,0,0,1,0,.18.35.35,0,0,1,0,.2c0,.21-.21.24-.24.45s0,.13,0,.19a.28.28,0,0,1-.17.12c.18.47-.62.66-.36,1,.27.79-1.09,0-1.31.41a.38.38,0,0,0,.23.45.78.78,0,0,1,.68.25.68.68,0,0,1,.14.49.85.85,0,0,1-.19.45c-.27.29-1,.24-1.76-.17a1,1,0,0,1-.4.11c-.63,0-.8-.84-1.51-1.18s-1,.13-1.82,0a3.29,3.29,0,0,1-2-1.07c0-.09,0-.22,0-.25s-.23.14-.44.22a.9.9,0,0,1-.75-.1.16.16,0,0,1-.09,0c-.06-.06,0-.19-.06-.26a.15.15,0,0,0-.12,0c-.1.21-.21.32-.48.22,0,0-.11,0-.12.1s.17.2.16.33-.11.14-.16.18a.51.51,0,0,1-.34,0h-.27a5.58,5.58,0,0,0-2.26.72,2.94,2.94,0,0,1,.69-1.47,3.14,3.14,0,0,1,1.28-.84c.95-.42.95-1.4,2.25-1.57.48-.39,3-2.7,2.32-.88.42.09,1.95-1.28,2-.42.08.2,0,.77.28.63,1.09-.47.53-1.57,1.82-2,.63,0,1.88-.89,1,0,.72.15,6-2.07,2.49-1.23A4.79,4.79,0,0,1,56.86,15c.21-.08.21-.22,0-.4.34-.36,1.64-.69,1.71,0a7,7,0,0,1,4.65-.89c1.55-.64,2.36-2.55,4-3.4A19.18,19.18,0,0,0,72,6.57ZM44.3,21.86c1.67-.57,1,1.93,1.72.73,0-.24.32-.54.56-.33.72-.14-.73-.93-.94-1,0-.27,1.09-.91.3-1-.91.54-1.82.29-2.16,1a1.43,1.43,0,0,0-1.39.9c.33.2.72-.11,1.06-.08C43.69,21.54,44.44,23.18,44.3,21.86Z"/><path class="cls-5" d="M38.27,86.93c-2.54-1.22-6,1.35-8.25.4-.58-.08-.94.09-1.3,0-.23-.34-.39-.06-.45.23-.53.56-.57-.34-.54-.67-.24-.78,2-1,2.67-1,1.68-.14,3.13-.85,4.8-1.11.56-.18.87-.78,1.3-1s1.27,0,1.2-.51c.87-3.7,2.29-7.74,2.67-11.83.33.19.36.18.49-.16.43-1.61-1.46-.63-2.38-1.4.75-1.7,5.21-.62,7-.57-1.7,4.49-4.8,11.77.49,14.75,1.4,1,1.51,1.55-.24.67-.61-.06.22.46,0,.7-.5.16-1-.88-1.4-.42-.7,0-1.26-2-1.57-1,0,.42,0,.42-.36.59,0,.29.23.76-.21.84-.17.25.17.59-.38.64-.63.23.23.74,0,1.19-.6-.09-.35.5-.66.81-.77,0-.89.8-1.5,1.16.28.66-1.6.64-1.35-.19.59.11,1.91-.78,1-1.09.29-.14.35-1.16-.23-.94.44-1.28.3-.69.94-.4.48-.19.32-.6.6-.8.58-.14.41-.21.33-.56.31-.47-.09-.48-.31-.73.06-.14.26,0,.32-.18-1-.53-1.05,1-1.94.45-.42-.16-.27.77-.81.76C37.6,86,38.59,86.44,38.27,86.93ZM41,79.83c.8-.09.84-1,.63-1.57-.52-.08-.9.38-.77.71.26,1.49-.49-.27-1,.12s.37.61,0,1c-.12.16-.09.31.09.32.58.22,1,.71.49,1.19.18.08.25-.2.41-.09.41.54-.94.66-.48,1,.3.46-.7-.13-.73.21.39.19,2.16.87,2.08,0,.81.21.33-1.55.25-1.92C41.47,80.52,41.4,80,41,79.83Zm1.36-5.14c-.19,0-.33-.24-.45,0-.09.59-1.55-.63-1.18.12s-1,2,.65,2c.45.15.68-.39.25-.58C42.57,76,42,75.28,42.35,74.69Zm-.11-4.8c0-.25-.51-.27-.52,0C41.69,70.39,42.22,70.27,42.24,69.89ZM39.73,78.4c.37,0,.54.38.79.13C40.7,78.07,40,78.23,39.73,78.4Zm4.38,5.28c0,.36.45.25.42-.05S44.05,83.37,44.11,83.68Zm.7.27c-.21,0-.25.26-.08.31S45,84,44.81,84ZM39.65,69.46c-.15,0,.06.17.09.07S39.7,69.46,39.65,69.46Z"/><path class="cls-4" d="M45.45,69.28c-2.58-.35-5.59-.69-7.44.5-1-1-2.71-1.07-3.81-2.3-1.35-.76-2.59.12-3.91,0-.6-.57-1.36-.29-2.12-.55s-.81-.6-1.13,0c-.79-.11-1.93-.75-2.05.19-.6-.31-1.19-.92-1.87-.74.53.63,0,.47-.41.14a8.4,8.4,0,0,1-3.78-1.81c-.62-1-3.18-1.11-3.31-2.15,1.21.82,5.52,2,2.47.59-.77-1.42,3.39,1.51,4,1.47.52.15-.06-.34.16-.62.73-.21,1.92.53,2.68,1,.55-.07,1.19-.55,1.77-.06.36.35.66-.45,1,.06.07.14,1,.54,1,.19.41-.57,2.18,0,3,.09,1.23-.53,3-.19,4.52-.42.26-.4.76-.27.42.07.46,0,.79.51.16.62,1.82.43,4.16.18,6.16,1a7.09,7.09,0,0,0,1.72-.14c0-.46.3-.36.62-.19,1,.66,9,.94,7.57,1.9-.71-.31-4.35-.14-2.42.1.38-.17.77.78.76.15.82-.88,4.64,2,2.14,1-.77-1.19-1.63.15-2.54.2-1.36.17-1.67-.78-.24-1-.84-.48-.54.31-1.35,0,.43-1.36.65-.69,1.72-1-.74-.17-3.66-.71-3.74.06,0,.31.5.08.68.34.69.39-1.36.31-.26.65C48.62,69.27,45.22,67.69,45.45,69.28ZM19.72,64.06c0-.08-.06,0,0,0C19.93,64.27,20.09,64,19.72,64.06Zm26.74,3.32c-.44-1.31-4.57-.41-2.27-.22C44.91,67.21,45.73,67.77,46.46,67.38Zm-25.19-2a1.5,1.5,0,0,0,1.65.38A2.88,2.88,0,0,0,21.27,65.39Zm12.9.7a1.37,1.37,0,0,0,1.12.08A1.79,1.79,0,0,0,34.17,66.09ZM21,65.18c0-.07-.29-.2-.28,0S21,65.36,21,65.18Zm29.86,3.45s-.11,0-.1,0S50.86,68.69,50.87,68.63Z"/><path class="cls-4" d="M59,68.48c2.08.22,3.77-.45,5.72-.85-.55-1.15,1.44-.4,1.87-.87.48-.23,4.9-2,3.5-1-1.59,2.41-4.14,4.06-6.36,5.9-.72,5.41-.92,12.71,2.43,17.68,1.47,1.83,5.59,3.71.25,2.18-2.49-.34-3.85-2.68-4.89-4,.21-.35.79-.92,1.33-.78.84-.51-.34-1.71.63-2.38.48-.37-.31-.54-.06-1-.48-.7-.28-.67-.16-1.35.14-2.07-1.19-3.9-.37-5.51-1.3-2.4,2.34-5.14-2.91-3-.41-.43-1.2-.44-1.72-.78s-3.14-3.51-1.48-2.41c1.41,0,3.33,1.1,4.52.32.12-.43.62.11.76-.27.86-.52,0-.66-.49-.8a.26.26,0,0,0-.42,0c-.23.3-.49-.16-.78.08-.28-.43-2.2-.13-1.84-.46.47-.07,1.22.19,1.54-.2C59.76,68.65,58,69.13,59,68.48Z"/><path class="cls-5" d="M61.51,87.47c.7.14.7,1.09.59,1.41-1.25,0-1.52-.76-2.41-.75-.38.14-.85.23-1.23.34.45-.81-.93-1.26.26-1.61.24-1.35,2.3-.53.76-2.22,1.4-1.71.07-4.13.51-6.4.21-2.3-1.31-5.72,2.24-5.35,1.52-.77.16,1.9.33,2.73s-.07,1.1.16,1.93c.4.41-.54.6-.1.87.85,1.72.31,4,.8,5.33.47.63-1,1.36-.16,2.32C63.14,86.76,61.66,86.8,61.51,87.47Zm-.08-5.63a.71.71,0,0,0-.25-.8C61,81.19,61.15,81.7,61.43,81.84Z"/><path class="cls-3" d="M9,13.65c1.43-.4,3.85-.81,3.92,1,1.38,1.21,0,.57.43,1.49-.32.43.39.64.71.5.23,0,1.71,1.05,1.05,1.21-.38.81-1.08-.72-1.23.4-.05.2-.13.31-.33.16-.23,0-.79-.33-.66.13a5.67,5.67,0,0,0-.22,3.24c-.64.68-.38,1.75-.78,2.64-.88.78-.59,1-.58,2-.69-.72-.79.41-.91,1S9.23,28.54,9.87,29c.12,1.48.13,3,.15,4.41.32.41-.18.93.14,1.27.25.18-.05.46-.26.26-.46-.57.11-1.62-.77-1.61-.09-.83.57-2.22,0-2.73-.72,1.53.06-.79.37-1.38A4.43,4.43,0,0,0,9.3,27c-.84-.76,1.43-.77,1-1.89s1-2.3,1.46-3.31c.31-1.09.65-3.68-.8-4-1.81-1.77-3.52-1.66-5.69-2C5.62,14.55,8,14.61,9,13.65ZM9.6,30.43c.09,0,.16-.28,0-.24A.18.18,0,0,0,9.6,30.43Z"/><path class="cls-1" d="M47.13,28.43c-2.08-.58-.18,1.08-1.88.95-1.93-.48-1.16,1-3.18,1.4-.67.21.26-.78-1.19-.7-.27.4-.41.31-.89.44-.93.34-1.66,1.29-2.61.77-.7-.21.5-.53.06-.79,0-1,.47-1.4-1.19-1.27-.43-.08.63-1-.42-1.18a13,13,0,0,0-2.69-1.15c-1.82-1.34-2.74-3.27-4.53-4.67-.87-1.35,6.87,5.92,8,3.43,2.22-2,4.71-1.05,7.81-1.07C46.71,24.5,46.19,27.07,47.13,28.43Z"/><path class="cls-5" d="M70.43,65.47a17.58,17.58,0,0,0-3.85,1.29c-.33.46-2.31-.23-1.9.73-.28.46-1.51,0-1.94.8a10.56,10.56,0,0,1-4-.75c1-1,5-.05,4.4-1.06A6.74,6.74,0,0,0,67,65.55c.52,0,0-.52-.32-.28-.68-.57,1.75-.31,2.15-.68a47,47,0,0,1,7-5.06c.16-.45-.63,0-.83,0-1,.45-.12-.34.33-.49s.16-.92.69-1.07c1.2-1.11.71.79,2.2-.78C82.69,54.09,71.93,64.24,70.43,65.47ZM68,64.9s-.12.08,0,.1S68,65,68,64.9Z"/><path class="cls-2" d="M73,5.31c.38.23.47-.53.71-.22s.22.17.34,0c.46-.73,1.4-.67,1.74-1.32C77,3.25,78.2,1.55,79.43,1.33c1.4.08,5.52-2.56,5.12-.1,1.1.27-.56.62-.48.92-3,3.87-.48-.91-3.21.36.29,1.06-1.64,1.37-.72,1.93-.47.4-1.57-.13-2.19.22-.83.16-.08,1-.74,1.29-.44,0-.91-.24-1.14.25-.32.3-.88,1.35-.92.41-1.84.68-.44.09-.8-.68.84-.22,1-.31.88-.79C74.49,5.43,71.69,6.73,73,5.31Z"/><path class="cls-1" d="M39.66,23.94c2.5-.08,5.05-.22,7.53,1-1.8.27-.15.27.49.48,0,.48-2.93.48-1.3.61.75-.09,0,1,1.46,1.07.63-.05,2,.26,2.15.89-.14.38-.13.4.25.62-.74.66-1.71-1-2.75-.6-.05,1.22-.83-.43-1.64-.17-.52-.09,0-.25.18-.37-2.14-.42,1.23-.44-.3-1.18-1.91.24-2.18-.33-.2-.74-.84-.16-2-.13-.33-.78-1.5-.77-2.67.85-4,.78,0-.39,1.27-.27.83-.56-.57-.75-1.8.28-2.62.27C37.4,25,37.91,24.36,39.66,23.94Z"/><path class="cls-4" d="M58.12,87.33c.66.18.14,1.38.62,1.07a2.21,2.21,0,0,1,1.82-.11c-1.39,1-12.67,5.95-11.4,4.39,1.36-.63,3.19-1.06,3.74-2.56C54.89,89.24,56.25,88.34,58.12,87.33Z"/><path class="cls-5" d="M51.07,84.48c-.61-.6,2.13-.32,2.58-.3,1.66.93,4-.14,5.37.12.46,3.13-3.69,2-5.7,1.27,0-.8-.62-.14-.66-.71C52.67,84.45,51.24,84.27,51.07,84.48Zm5.92.36c-.26,0-.39.45-.08.47S57.29,84.88,57,84.84Z"/><path class="cls-2" d="M81.55,24.32c-.69-.46-1.09.08-1.71.4-1.73.58-1-1.25-.09-1.72-1.06-.2-.6-.37-.71-1.25.54-.57-.75-1,.22-1.26,1.74-.31-.33.89.37,1.62-.06.59,2.81-2.32,1.74-.06-.28.33.69.47,0,.76C80.91,23.33,82.19,23.76,81.55,24.32Z"/><path class="cls-5" d="M4.77,11.51c-.43.23,0,.5.15.75-1,.25-.44,2.64-1.64,2.2-.16,1.12-2.12.08-1.59,1.29-.2.19-.51.31-.68.6-.67-.24,1-1.91,1.05-2.66s1.09-.31,1-1C3.15,11.34,3.62,9.38,4.77,11.51Z"/><path class="cls-5" d="M79.24,39.94c-.34.17-1.2.17-.66-.33.1-.92-1.41-.76-1.09-2-.18-.77-1.15-.3-.87-1.17-.62-.4,0-2.26.85-1.9-.13.18-.84.17-.43.45.73,0,0,1.33.81,1.3,1.51-.15-.5-.75,1-1,.57,1.17-.95,2.54-.4,3.34A2.61,2.61,0,0,1,79.24,39.94Zm-1.1-3.49c-.62.33,0,.92.28.34C78.15,36.85,78.18,36.61,78.14,36.45Z"/><path class="cls-1" d="M81.81,23.79c-1.21-.67.15-1.2-.34-1.41-.59-.37,1.18-1.57-.61-1-.44.18-1.19,1.55-1.38.28-.09-.56,1.34-1.46-.22-1.16-1.53.6-1-1.42.26-1.08.89-.11,1.13,1.32,1.84,1.56C82.89,20.87,82.12,23,81.81,23.79Z"/><path class="cls-4" d="M39.68,86.13c-.56.21-1.16,2.12-1.26.45a.68.68,0,0,1-.21-1.09c.54,0,.39-.92.81-.76.89.52,1-1,1.94-.45-.56.26-.18.22.09.49,0,.47-.31.32.12.91C40.4,85.24,40.05,87.57,39.68,86.13Z"/><path class="cls-3" d="M36.24,83.84c-1,2.25-8.79,1.24-8.58,3.42-4.41,1.29-2,.11.59-1.22C30.85,85.24,33.89,85.06,36.24,83.84Z"/><path class="cls-4" d="M38.29,89.5c1.74.36,1-.25,2.18-1.16,0-.27.19-.23.35-.3.73.18.25-1,1-.84-2.75,3.4.09,5-1.58,4.93-1.4-.57-.21-2.19-1.31-2.37C38.47,89.88,38.31,90.17,38.29,89.5Z"/><path class="cls-1" d="M58.68,84.13c-2.13.8-4.51.18-6.55,0-.27-.34-2.59,0-1.73-.5,2,.72,11-.68,8.81,1.22-.58-.3,0-.73.15-1.14C59.07,83.79,58.73,83.74,58.68,84.13Z"/><path class="cls-5" d="M49.23,68.39c.82.34.49-.45,1.35,0-.44,0-.65.53-1.13.26.28.58.61.7.75,1.35a13,13,0,0,0-2.93-1.72c.67-.33,1.27-.43.06-.68-.74-1,3-.42,3.62-.23-.49.31-1.64-.32-1.51.71-.11.31-.46.17-.74.42C48.92,68.53,49.13,68.69,49.23,68.39Zm-1,.29s-.07.07,0,.11S48.33,68.71,48.25,68.68Z"/><path class="cls-1" d="M6.84,40.85c-.42,2.25-.27-4.15.35-5.41.45-.58,1.66-3.17,1.58-1.35.24.78-2,1.18-.4,1.74-1.27.86-.66,1.93-1.51,2.7C6.75,39.33,7.09,40,6.84,40.85Z"/><path class="cls-5" d="M36.14,83.4c-1.46-.28-3.87-3.81-1.25-1.87C36.27,82,39.14,82.88,36.14,83.4Z"/><path class="cls-1" d="M24.87,18.82a27.33,27.33,0,0,0-8.25-4C19.63,14.43,22.72,16.92,24.87,18.82Z"/><path class="cls-4" d="M25,88.18c1.6-.75,2-.94,3.32-.63.07-.29.21-.57.45-.23s1.46-.4,1.6.3C26.13,87.22,23.45,90.87,25,88.18Z"/><path class="cls-1" d="M57.52,86.51c4.86-2.25-3.36,3.12-4.69,3.45C52.06,89.48,57.58,87.46,57.52,86.51Z"/><path class="cls-5" d="M79.71,52.31c-.37-.81,1-2.7.33-1-.08.25-.15.44.13.63.6,1.27-.43,3.37-1.2,4.37.06-.47-.19-.34-.57-.48.42-.34-.38-1,.22-1.1C79.69,54.72,80.49,52.81,79.71,52.31Z"/><path class="cls-5" d="M12.82,11.94c-.85-.56.44-1.25-.38-1.95C12.05,8,15.72,10.1,12.82,11.94Z"/><path class="cls-5" d="M4,24.22c.33.31,1.63-.2,1.33.65C6.19,28.72,4.29,26.92,4,24.22Z"/><path class="cls-5" d="M1.47,19.63c.88,1,2.18.79.26,1.66-.16-.07-.23-.55-.38-.17-.17.55-1.27,1.16-.53,1.7C-1.1,22.93,1.26,20.46,1.47,19.63Z"/><path class="cls-5" d="M25.29,66.79c-.05-.91,2.13.77,1.84-.24.65,0,1.21.53,1.87.48s0,0,0,.3c-1.16-.55,0,.92-1.28-.11,0,.58,0,.42-.56.22C28,69.1,26,67.05,25.29,66.79Z"/><path class="cls-5" d="M9.42,28c.49,4-2.44,3.23-3.54,0C7.82,29.53,9,32.22,9.42,28Z"/><path class="cls-5" d="M52.41,90c2.05-.78,2.69-1,.37.2-.42,1.5-2.4,1.8-3.62,2.45C49.76,91.33,52.06,91.26,52.41,90Z"/><path class="cls-5" d="M29.32,67.19c.61-.46.88.6,1.33.23.69-.09,2-.3,2.16.53-1.19-.84-.48.35-1.43-.2C34,70.7,30.76,68.16,29.32,67.19Z"/><path class="cls-1" d="M13,14c-1.1-.48,1-.28,1.34.07-.25.29.36.51.51.11.61-.09.42.38,1.06.7.08.81-2.26-.22-2.85-.3C14,14.07,14,14.23,13,14Z"/><path class="cls-2" d="M36.33,82c-.68-.09-2.6-1-2.59-1.42.25.22,1.28.42.76-.13s3.6,1.48,1.92,1.12C35.89,81.2,35.89,81.86,36.33,82Zm-.77-.71c-.1-.08-.38,0-.33.12S35.57,81.44,35.56,81.3Zm-.31-.2c0-.11-.23-.11-.23,0S35.24,81.24,35.25,81.1Z"/><path class="cls-2" d="M82.19,9.94A3.46,3.46,0,0,1,82,7.63c.6-.55-.25-.39-.36-.72C82.66,6.21,83.05,9,82.19,9.94Z"/><path class="cls-4" d="M41.81,86.67c-.44-.06-.26-.73.1-.7s.05-.43.25-.6.26-.27.26-.46c-.19-.58.51-.37.32-1s1,.14.61.38c-.37.06-.43.57-.54,1C42.8,86.08,41.8,86,41.81,86.67Z"/><path class="cls-4" d="M44.31,85c.29-.57,1.37,1,1.41.22-.06-.19-.5-.58,0-.5C48.92,85.4,45.61,86.37,44.31,85Z"/><path class="cls-2" d="M7.2,42.77c.85.58.22,2.06.67,3C7.49,47.19,7.21,43.44,7.2,42.77Z"/><path class="cls-3" d="M59.48,84.64c-.19-.45.33-3.23.58-2.37C60,83.07,60.37,84.09,59.48,84.64Z"/><path class="cls-5" d="M38.44,90c.79-.77,1.05.21.91.77C40.14,92,38.38,90.82,38.44,90Z"/><path class="cls-3" d="M39.79,70.4c1.1-.89,1.64,1.3.58,1A2.15,2.15,0,0,0,39.79,70.4Z"/><path class="cls-4" d="M51.07,84.48c.14-.22,1.62,0,1.59.38C54.44,86.35,51.77,84.85,51.07,84.48Z"/><path class="cls-2" d="M81.16,14.53c-.8-.08-1-.86-.85-1.49C80.91,13.15,81.08,14,81.16,14.53Z"/><path class="cls-1" d="M1.47,19.63C1.4,20.19,1,20.92.4,21,.53,20.53,1.15,19.29,1.47,19.63Z"/><path class="cls-5" d="M21.08,66.07c.65.07,1.68.23,1.45.79C22,66.63,21.53,66.7,21.08,66.07Z"/><path class="cls-5" d="M36.29,69c.66,0,1.47.06,1.72.75A5.39,5.39,0,0,1,36.29,69Z"/><path class="cls-1" d="M36.24,83.49a1.28,1.28,0,0,0,1.2-.64C38.51,83.11,36.67,84.18,36.24,83.49Z"/><path class="cls-3" d="M50.13,83.85c.56-.08,1.07.25,1.57,0C51.37,84.36,50.33,84.69,50.13,83.85Z"/><path class="cls-1" d="M52.41,90c0,.57-1,1-1.55,1.27C51,90.76,51.88,90.27,52.41,90Z"/><path class="cls-5" d="M23.3,66.83c.23-.14,0-.28-.15-.38C23.46,65.61,24.6,68.09,23.3,66.83Z"/><path class="cls-3" d="M40.22,92.13c.36.17.83-.4,1,0C41.48,92.83,40.44,92.44,40.22,92.13Z"/><path class="cls-1" d="M83.16,5.94c.74.14,0,1.15-.54.52C83,6.31,83.1,6.39,83.16,5.94Z"/><path class="cls-2" d="M78.82,31.38c-.22-.19-.7-.31-.66-.67C78.54,30.37,78.85,31,78.82,31.38Z"/><path class="cls-1" d="M36.94,81.65c.32-.26,1.61.76.49.36C37.18,82.91,37.31,81.91,36.94,81.65Z"/><path class="cls-1" d="M39.2,88.73c-.2.2-1.19.47-.84,0C38.76,88.92,39.14,88,39.2,88.73Z"/><path class="cls-3" d="M38.8,87.29c.16-.13.76,0,.54.16C38.63,87.71,38.55,88.58,38.8,87.29Z"/><path class="cls-2" d="M83.14,6c0,.51-.6.57-1,.61C82.24,6.25,82.9,6.13,83.14,6Z"/><path class="cls-3" d="M39.2,88.73c-.14-.31.11-1.09.46-.61C39.62,88.35,39.34,88.53,39.2,88.73Z"/><path class="cls-1" d="M82.15,6.57c.2,0,.1.27.32.35C83,7.47,81.52,6.8,82.15,6.57Z"/><path class="cls-5" d="M18.23,64.14c.3.08.6.17.7.52A1.72,1.72,0,0,1,18.23,64.14Z"/><path class="cls-2" d="M14.86,14.16c-.19.28-.38.31-.57.07S14.69,14.15,14.86,14.16Z"/><path class="cls-1" d="M82.71,7.72c-.1,0-.21,0-.28-.08C82.08,7.2,83.29,7.41,82.71,7.72Z"/><path class="cls-4" d="M47.62,85.61c.33.31-.32.36-.4.08S47.48,85.63,47.62,85.61Z"/><path class="cls-2" d="M7,42.05c.39.07.4.1.13.46C6.94,42.39,7,42.2,7,42.05Z"/><path class="cls-3" d="M59.94,81a.79.79,0,0,1-.07.81A2.47,2.47,0,0,1,59.94,81Z"/><path class="cls-5" d="M.82,16.64a1.16,1.16,0,0,1,0,.78A1.1,1.1,0,0,1,.82,16.64Z"/><path class="cls-5" d="M20.12,65.63c.16.06.45-.17.49.08C20.42,65.85,20.25,65.87,20.12,65.63Z"/><path class="cls-5" d="M10.8,12.84c.08-.33.36-.25.58-.28A.81.81,0,0,1,10.8,12.84Z"/><path class="cls-5" d="M47.62,85.61c-.33,0-.37-.06-.32-.37A.65.65,0,0,1,47.62,85.61Z"/><path class="cls-5" d="M17.61,63.88c.24,0,.49,0,.61.26A1.94,1.94,0,0,1,17.61,63.88Z"/><path class="cls-3" d="M45.6,83.75a.39.39,0,0,1-.43-.36A1.07,1.07,0,0,1,45.6,83.75Z"/><path class="cls-3" d="M38.89,88.48c-.08.3-.32.23-.53.22C38.34,88.4,38.7,88.51,38.89,88.48Z"/><path class="cls-5" d="M19.6,65.19c.36,0,.36,0,.39.34A1.16,1.16,0,0,1,19.6,65.19Z"/><path class="cls-2" d="M57.52,86.57c.18,0,.14.11.08.21C57.4,87.1,57.29,86.75,57.52,86.57Z"/><path class="cls-3" d="M44.83,83.1c-.19,0-.26-.08-.27-.25A.47.47,0,0,1,44.83,83.1Z"/><path class="cls-1" d="M38.1,81.46c.1.16.08.21-.15.29A.22.22,0,0,1,38.1,81.46Z"/><path class="cls-5" d="M63.44,73.69c-.26-.1-.08-.18,0-.27A.32.32,0,0,1,63.44,73.69Z"/><path class="cls-1" d="M38.58,88.09c.23-.1.1.29,0,.23S38.52,88.15,38.58,88.09Z"/><path class="cls-5" d="M79.1,36.47c-.15-.18-.14-.34.08-.45C79.25,36.18,79.17,36.32,79.1,36.47Z"/><path class="cls-3" d="M39.41,87.47a.14.14,0,1,1,0,.27Z"/><path class="cls-1" d="M16.4,14.84h-.33C16.2,14.65,16.25,14.65,16.4,14.84Z"/><path class="cls-5" d="M47.4,85.86h.29C47.61,86,47.59,86,47.4,85.86Z"/><path class="cls-2" d="M12.65,13.64v.17C12.39,14,12.43,13.53,12.65,13.64Z"/><path class="cls-1" d="M72.54,6a.22.22,0,0,1-.17.27C72.37,6.17,72.37,6.05,72.54,6Z"/><path class="cls-5" d="M.89,17.69c.13.08.13.16,0,.26A.29.29,0,0,1,.89,17.69Z"/><path class="cls-5" d="M19,64.66c.12,0,.24,0,.24.18A.36.36,0,0,1,19,64.66Z"/><path class="cls-3" d="M28.73,67.33c.12,0,.4,0,.23.14A.19.19,0,0,1,28.73,67.33Z"/><path class="cls-3" d="M28.47,67.15c.13,0,.24,0,.26.18C28.62,67.25,28.43,67.27,28.47,67.15Z"/><path class="cls-5" d="M58.37,72.79a.22.22,0,0,1,.23.11A.23.23,0,0,1,58.37,72.79Z"/><path class="cls-5" d="M1.18,18.93a.28.28,0,0,1,.08.33A.41.41,0,0,1,1.18,18.93Z"/><path class="cls-1" d="M39.38,88l-.15.1C39.07,87.93,39.31,87.82,39.38,88Z"/><path class="cls-2" d="M6.82,41.72c.2-.06.24.13,0,.18C6.85,41.84,6.83,41.78,6.82,41.72Z"/><path class="cls-5" d="M47.21,68.65c.09,0,.18,0,.25,0A.42.42,0,0,1,47.21,68.65Z"/><path class="cls-5" d="M11.93,9.65a.12.12,0,0,1-.18.07A.16.16,0,0,1,11.93,9.65Z"/><path class="cls-5" d="M69.72,66c0-.1.08-.11.15-.1Z"/><path class="cls-5" d="M63.72,71.65c0-.08.08-.1.15-.09Z"/><path class="cls-5" d="M47.67,68.73a.18.18,0,0,1,.17,0A.15.15,0,0,1,47.67,68.73Z"/><path class="cls-5" d="M63.61,71.77a.13.13,0,0,1,.11-.11C63.72,71.73,63.68,71.76,63.61,71.77Z"/><path class="cls-3" d="M45.94,84c-.07,0-.14,0-.16-.09S45.92,83.94,45.94,84Z"/><path class="cls-3" d="M36.14,83.4a.12.12,0,0,1,.11.07A.14.14,0,0,1,36.14,83.4Z"/><path class="cls-5" d="M56.61,70.76s0,0,0,0A0,0,0,0,1,56.61,70.76Z"/><path class="cls-5" d="M19.4,65a.05.05,0,0,1,.06.06S19.4,65.07,19.4,65Z"/><path class="cls-5" d="M56.79,70.94s0,0,0,0S56.79,71,56.79,70.94Z"/><path class="cls-5" d="M56.87,71s.05,0,.05.06S56.87,71.07,56.87,71Z"/><path class="cls-3" d="M36.5,83.75s-.07.07-.12,0A.1.1,0,0,1,36.5,83.75Z"/><path class="cls-3" d="M45.78,83.92a.11.11,0,0,1-.08-.08S45.79,83.86,45.78,83.92Z"/><path class="cls-1" d="M82.89,7.45s0-.06,0,0S82.88,7.44,82.89,7.45Z"/><path class="cls-2" d="M82.71,7.72l.08-.09A.14.14,0,0,1,82.71,7.72Z"/><path class="cls-5" d="M58.25,72.71s.07,0,.08.06A.08.08,0,0,1,58.25,72.71Z"/><path class="cls-5" d="M11.41,12.54a.07.07,0,0,1,.09,0A.06.06,0,0,1,11.41,12.54Z"/><path class="cls-2" d="M81.2,14.87c0-.06,0,0,0,0S81.14,14.81,81.2,14.87Z"/><path class="cls-5" d="M1,18.24c.05,0,.06.05,0,.07S1,18.27,1,18.24Z"/><path class="cls-2" d="M34.3,80.31s0,0,0,0Z"/><path class="cls-5" d="M1.07,18.51s0,0,0,0S1.05,18.53,1.07,18.51Z"/><path class="cls-3" d="M79.25,39.78a.12.12,0,0,1-.08-.09C79.23,39.69,79.27,39.71,79.25,39.78Z"/><path class="cls-5" d="M1.09,18.59s.06.06,0,.07S1.07,18.62,1.09,18.59Z"/><path class="cls-3" d="M80.24,53.63a.09.09,0,0,1-.06-.11A.11.11,0,0,1,80.24,53.63Z"/><path class="cls-5" d="M4.08,23.79a.06.06,0,0,1,0,.07S4,23.8,4.08,23.79Z"/><path class="cls-5" d="M5.83,27.94s0,0,0,0S5.82,28,5.83,27.94Z"/><path class="cls-5" d="M56.7,70.85s0,0,0,0S56.7,70.88,56.7,70.85Z"/><path class="cls-5" d="M15.88,62.9s0,0,0,0S15.89,62.93,15.88,62.9Z"/><path class="cls-5" d="M15.63,62.73s0,0,0,0Z"/><path class="cls-5" d="M70.08,65.76s0,0,0,0S70.1,65.77,70.08,65.76Z"/><path class="cls-5" d="M20,65.55s.06,0,.07,0S20,65.59,20,65.55Z"/><path class="cls-5" d="M19.5,65.11s0,0,.05,0S19.5,65.14,19.5,65.11Z"/><path class="cls-5" d="M46.66,68.54s.07,0,.09,0Z"/><path class="cls-5" d="M38.18,69.8l.13,0C38.26,69.87,38.22,69.84,38.18,69.8Z"/><path class="cls-5" d="M56.5,70.67a.05.05,0,0,1,.06.06S56.5,70.72,56.5,70.67Z"/><path class="cls-5" d="M66.89,90.11c-.06,0-.08,0-.09-.08A.1.1,0,0,1,66.89,90.11Z"/><path class="cls-5" d="M63.53,71.89s0,0,0-.06A0,0,0,0,1,63.53,71.89Z"/><path class="cls-1" d="M17.07,40c-.76-2.65,0-5-2-7-.43-1,1.73.56,1.7-.28,0-.19.28-.69-.14-.57-.63-.19.5-.37.11-.6-.41-.6-1.65-.37-1.71-.75.12-.53-.19-.77.46-.63.15-.55-.88-.76-.75-1.34s-.14-1-.67-1c.26-.43-.48-2.19.42-1,.82-.06,1.44,1,2.13.86.84-.12-.45-.61-.77-.63-.49-.27.39-1.13-.52-1.28.46,1.9-2.07-1.41.39-1.23a9.86,9.86,0,0,0-1.81-1.5c-.46,0,0-.6-.2-.85,0-.31.59-.1.65-.49.77-.59,1,.76,1.52-.28,0-.87,1.4,0,.84-1.16-.11-.16,0-.3.19-.24.78-.28,1.84.81,1.14-.54.93.25,1.74,1.49,2.17,2.28,1.56.87-.66-1.61-.58-2.06,1.48-.36,0-.35,1-.93.17.51,0,.14.37.08.61.53,1.28.71,1.78,1.34.53.24.92-.27,1.31.5.37.25,1.35,1.42,1.48.45.61.35,1.59,1.18,1.41,1.92-2.13.9,2.37,1.91.44,3.08.68-.24.72,1,1.11.06.11.87,2.25,1,1.47,1.82-.45.19-.83-.18-1.13-.41-.56,0-1.2.54-1.72.18-.35-.37-1.43-.08-.87.4.6,0,.42.45.69.73,1.49,1,3.5.65,5,2,.44.5-.48.57.4.79.59,0,.46.6.85.79.25,0,.42.38.09.32-.6-.09-1-1.09-1.64-.67-.11.32-1.14-.22-.63.27a19.62,19.62,0,0,1,3.37,1.68c-.16,1.23,0,.38.78,1.34,1.09.28,2.21.62,3.22.81-.77-.75-.11-1,.66-.42,1,.31-.52-.92.51-.66.23,0,.25-.06.15-.3-.1-.79,1.07-.21,1-1.09,0-1.1-.78-.3-1.18-.7.34-.61,1.62-.33,2.24-.71-.65-.39-.09-.5.31-.75s1.2-.2,1.64-.83a5.2,5.2,0,0,1,2.25-.45c.58-.15.64,1.14,1.45.77.5-.44-.85-.19-.79-.61.48-1.94,2.17.56,3,.16.19-.49-.79-.73-1.17-.92.28-.43.8.06,1.11.27,3.44,2.57,3.27.12,4.59,1.82a2.25,2.25,0,0,0-1.81-.09c-1.23-.7-1.17.52-.23.92s-.55,1.4,1.08,1c1.56-.11,1.56,0,1.37,1.46.26.32,2,.48,1.11.77-.57-.42-2.28-.37-1,.33.63.15-.28.52,0,.88,0,.35-.5.08,0,.5.34.46,1.27.17,1.83.73,1.19,1.55-1.43-.15-2.13.34-.33.21,0,1.61-.91.88-.16-.74-.21-1.44-1.06-.82.22.6.86.93-.24,1.25-.68.62-.58-1-1.28-.46a2.15,2.15,0,0,0-.92,1.93c-.76.07-1-1.24-1.34-1.86-1,1.64.12.76,0,2-.75.66,1.31.69-.31,1.16-.53,0,.3,1.14-.7,1.08s-.18.6-.92,1a1.35,1.35,0,0,1-1.88.42c-.1.2-.07.51-.42.58.69.19.15.79.05,1.12,2.52.94-1,1.09-1.67,2.16-.5,0,.13.56-.33.61-.3.55,0,.53-.74.87.91.36-.29.26-.1.9-.11.49-1,.4-1.43.66s-.68.54-.5.93a3.49,3.49,0,0,1-1.55,2.21c-.43.27-1,.42-1.08,1,.06.44-.38,0-.52.26-.19.52.69.5.55,1.05-.11.73-.75.27-1.2.34s-.92.31-1.39.14-.15.58-.59.41c-.51.39-1.14,0-1.48.67-.36-.18-.82-.79-1.3-.38-1,.09-1.7-.31-2.27.46-.59-.18-.57.07-1.08-.54-.46-.14.1-.74-.21-1,.78-1-1.39-1.72-2.06-2-.79.36-1.65-.08-2.34-.22s.3.52-.23.56-2.34-1.88-1.56-2.16c0-.21-1.11-2.49-1.23-1.47,1.1,1.26.39,2.17-.38.85,0-.38-.35-.53-.5-.85s.11-1-.59-.83c-.51-.09-.71-1.3-.64-1.8.3-.45,0-.54-.27-.77-1.18-1.56,1-2.24-.55-2.64.54-.19,1.23.16,1.8-.27,2.13.81,1.42.63.71-.77,0-.61-.67-.15-.83-.59a2.05,2.05,0,0,1-.73-1.24c-.54-.24-.08-.81-.44-1.08-.39-.47-1.15-.56-1.3-1.1.35.35.61-.65.32-.82-.16-.69.13-.4.38,0C17.61,40.41,17.3,40,17.07,40Zm5.39,5.56c.48.39-.83-.81-.1-.62.69-.45.8-2.58-.07-1-.48.81,0-.62-.42-.57a2.21,2.21,0,0,1-1.82-.74c-.22-.13-.11-.67-.48-.44.07.36.27,1.29.69,1.53s-.4.52.1.69C21,45,20,45.58,20.88,46c.54.55.24-.53.63-.63S22.09,45.74,22.46,45.51ZM52.38,38.1c.59.46.88.2.62-.53s.41-.2.62-.37c0-.31-.64-.05-.63-.36.2-.43-.48-1.13.35-1.24.63-.18-.21-1.19-.51-.56-.08.16-.22.14-.33,0-.31-.59-.78-.69-1.25-1.1-.08-.47-.9-.26-.62.11.32.11.24.28,0,.42-1,.57-.29-.6-.44-1-.22-.84-2.06-1.72-2.28-.79s1.34,1.19,1.3,2.14c-.06.17-.08.33.21.27.67,1.19.07,1.15,0,2.48.85,0,1.53.87,2.4.94.46-.13.12-.86.49-.88S52.64,37.91,52.38,38.1Zm-18-.18c-1.21.1-.27.86.25,1.19.46.11,0-.38.26-.41a5.24,5.24,0,0,1,1.7-.2c.85,0-.13-1.1-.45-.6C35.58,37.81,35.06,38,34.4,37.92ZM37,37.11c.44.42.62-.24.2-.4-1.09-.09-2.29-.38-3.14.36.43.3,1.38.71,1.89.19C36.26,36.84,36.7,37.5,37,37.11ZM18.11,35.77c1.49-.7-.93-1.13-.28-2-.75-.57-1.73-.78-1,.37,0,.41.47,0,.61.17A5.82,5.82,0,0,0,18.11,35.77Zm9.27-9.85c-.22-.33-.4-.33-.43-.7-.21,0-.2.36-.44.15C25.05,24.78,26.7,26.69,27.38,25.92Zm-9,3.53c-.28.09.22.35-.1.47-.17.08,0,.3.12.21.39-.29.64,0,.93.23C19.9,30.07,18.57,29.63,18.34,29.45Zm23.44,4c-.15-.22,0-.49-.2-.64C41.1,33.09,40.94,33.78,41.78,33.47ZM21.16,42.7c-.33,0-.16.46.11.41S21.38,42.66,21.16,42.7Zm-3-8.92c-.14,0-.06.24.07.21S18.29,33.75,18.15,33.78Zm22.74.93c0-.06,0-.12-.14-.11S40.87,34.93,40.89,34.71Z"/><path class="cls-1" d="M60.79,48c1-.26.22-1.23,1.08-1.68,2-.83,4.55-2.6,6.44-1.91.39.56,3.1,1.94,1.62,2.29-.57,1,1.92-.44.54.82-.17.14-2.3-.49-.79.48,1.24.22.5.45,0,.82-.25.54.84,0,.49.49-.65.25,0,.69-.27,1.06s-.09,1.09-.09,1.55c-.44.32-.22,1.19-.82,1.13-.37.07,0,.5-.28.72.29.08,1,.44.66.76-.11.64,0,.76-.72.85,0,.19.53.58-.07.52-.25.08-.59-.5-.72-.11.11.45-.69.82,0,1.09.86,1.62-1.14.31-.11,1.44-1,.08-.71.05-.81,1.06-.13.45-.45.27-.72.46.22.36,0,.35-.32.14-1-.34-1.38,1.49-2.3,1.71a6.62,6.62,0,0,0-3-.23c1-.92.49-2.11-.7-1.69,0-.37-.15-.14-.27-.16-1.43.06-.45-1.15-.71-1.78-.46-.56.78-.1.57-.71.72-1.3-.29-.66.25-1.79.3-.53-.94-.42-.3-.86.85-.19-.57-.5-.18-1.22-.5.12-.85.08-.65-.52,0-.57-1.92-.59-.85-1.51.81.62.09-.68-.33-.79C56.51,49.69,60.08,48.26,60.79,48Z"/><path class="cls-1" d="M66.05,24.36a5.36,5.36,0,0,1,3.32.38c.57.45,1.12-.48,1.71.11.93.1,2.75,2.54,1,1.73-.3-.32-1.26-.24-1.2-.84s-.45-.2-.68-.41c-.38.57.53.83.29,1.49-.06.46-.67-.5-.56.1.09.12.29.25.13.4-.42.08-.52-.53-1.08-.21-.41-.5-.47.56-.88.08-.18-.08-.1-.52-.33-.41-.5.3,0-.63-.44-.41-.76.32-.78-.61-.91.49-.5.38.08.62-.06,1-.34.54.7.83.77,1.37-.41.54-1.79-.82-1.52-1.5s-.78-.25-.67-1C66.74,26,66,26.21,66.05,24.36ZM66,26.91c0,.07,0,.09,0,.11S66.06,26.93,66,26.91Z"/><path class="cls-3" d="M50,49.05c0,1.55,1.91.21,2.61,1-.66.7-1.8,1.42-2,2.51.81.21,1.79-.8,2.55-.82a1.7,1.7,0,0,1-1.06.92c-1.11.22-4.71,2.32-3.9-.42.14-.3.17-.74-.24-.42-.64-.2-.82.32-1.13.69-.21-.26-.42-.39-.73-.14,0-.39.09-1.13.61-1C50.9,50.08,47.84,51.9,50,49.05Z"/><path class="cls-1" d="M14.23,34.88c.4-.23,1.28,1.23.86,1.73.43.75-.23.91-.18,1.47-1.83,0-1.12-1-2.07-1.82-.19.39-.24.7-.47.08-.2-.39.67-.19.25-.64-.45-.64,1-.16.62-1-.22-.2,0-.55.28-.62-.59-.56.15-1.7-.31-2.56.55-1,.72,1.09.87,1.37A1.64,1.64,0,0,1,14.23,34.88Z"/><path class="cls-3" d="M60.79,48c-1.84.45-3.13,2.24-4.9,1.77-.19.23-1.12,1.69-1,.89,0-.8.51-.58,1-1.26a1.29,1.29,0,0,0,.79-1.16c.89.4,1.58-.78,2.38-.45.68.18.23-1.43,1-1C61.92,46.51,60.82,46.94,60.79,48Z"/><path class="cls-3" d="M49.32,27.41c-1.7-.54-1.65-.45.08-.53,1.9-.05,3.54,1.21,5.44,1.26C51.34,30.3,52.51,27.29,49.32,27.41Z"/><path class="cls-3" d="M64.94,17.15c-.08-.55.26-.53.67-.58.23.05.11.59.49.33,1.48-.56,2.46,1.5,2.58,2.6-1.05,0-1.51-1.84-2.65-1.69A.71.71,0,0,1,64.94,17.15Z"/><path class="cls-3" d="M69.2,15.84c-.72-.29-1.92-.59-2-1.5C67.9,13.53,71.1,15.33,69.2,15.84Z"/><path class="cls-3" d="M67.79,30c.46.1.46.1.58-.17.37.28.86.12,1.16.38.3.49,1.57,2.07.73,2.19A9,9,0,0,0,67.79,30Z"/><path class="cls-3" d="M43.57,51.83c1.45-1.39,1.61.89.39,1C42.85,53.71,42.49,51.9,43.57,51.83Z"/><path class="cls-1" d="M60.44,28.21c-.58-.07-2.66-1-1.69-1.55C59.26,27.2,62.54,27.41,60.44,28.21Z"/><path class="cls-3" d="M54.07,29c.64,0,2.72.74,1.48,1.2C55.05,30.14,53.42,29.44,54.07,29Z"/><path class="cls-1" d="M53.05,40.66c.36,0,.49.24.45.57C53.94,42.33,50.86,40.64,53.05,40.66Z"/><path class="cls-3" d="M11.87,31.65c-.87-.45-.6-2.44.16-1.15C11.91,31,12.22,31.2,11.87,31.65Z"/><path class="cls-1" d="M49.09,44.2c-.52.3-1.05-.25-.4-.52C49.13,43.57,49.84,44.26,49.09,44.2Z"/><path class="cls-1" d="M63.68,15c.17-.35.81-.36,1.18-.41C64.57,15.25,64.31,15.5,63.68,15Z"/><path class="cls-1" d="M17.22,46c-.06-.38-.41-.75-.23-1.06C17.28,45,17.74,45.77,17.22,46Z"/><path class="cls-1" d="M65.56,16.15c0,.28-.59.41-.66.16S65.55,15.92,65.56,16.15Z"/><path class="cls-1" d="M12,36.56c-.14.63-.55-.41-.22-.46S12,36.42,12,36.56Z"/><path class="cls-1" d="M56.17,39.47c-.19-.11-.53,0-.58-.21S56.37,39.08,56.17,39.47Z"/><path class="cls-1" d="M11.3,35.23c.07.22.52.49.3.7C11.33,35.88,11.29,35.47,11.3,35.23Z"/><path class="cls-1" d="M36.12,34.93c-.11.14-.56-.14-.54-.3S36.17,34.77,36.12,34.93Z"/><path class="cls-3" d="M40.66,60.26c0-.17,0-.51.23-.42S40.83,60.29,40.66,60.26Z"/><path class="cls-1" d="M65.28,14.5c-.06-.26.39-.36.42-.12S65.43,14.51,65.28,14.5Z"/><path class="cls-3" d="M52.82,51.2c.3.08,0,.49-.19.24S52.72,51.25,52.82,51.2Z"/><path class="cls-1" d="M58.58,60.39c0,.2-.29.12-.25-.06S58.59,60.22,58.58,60.39Z"/><path class="cls-1" d="M70.94,48c0,.18-.28.22-.29.06S70.91,47.85,70.94,48Z"/><path class="cls-1" d="M64,61.89c.17,0,.11.25,0,.27S63.8,61.9,64,61.89Z"/><path class="cls-3" d="M75.78,40.63c0,.14-.22.12-.21,0S75.76,40.5,75.78,40.63Z"/><path class="cls-1" d="M14.46,21.39c-.28-.06.14-.39.12-.1C14.57,21.36,14.52,21.38,14.46,21.39Z"/><path class="cls-1" d="M27.45,23.31a.13.13,0,0,1-.1-.14C27.43,23,27.69,23.34,27.45,23.31Z"/><path class="cls-1" d="M11.5,34.66c0,.18-.16,0-.14-.09S11.52,34.57,11.5,34.66Z"/><path class="cls-1" d="M60,60.47c.07,0,.09,0,0,.11S59.94,60.53,60,60.47Z"/><path class="cls-1" d="M53.52,40.45c0,.07-.06.09-.1,0S53.46,40.42,53.52,40.45Z"/><path class="cls-1" d="M69.42,53.52c0,.08,0,.09-.1,0S69.36,53.48,69.42,53.52Z"/><path class="cls-1" d="M49.44,43.59c0-.07,0-.08.1,0S49.5,43.64,49.44,43.59Z"/><path class="cls-1" d="M63,15.12c.06-.08.12-.09.19,0S63.08,15.24,63,15.12Z"/><path class="cls-1" d="M26.75,28c0,.07-.06.09-.1,0S26.7,28,26.75,28Z"/><path class="cls-3" d="M16.71,53c.07,0,.2.06.11.13S16.73,53.07,16.71,53Z"/><path class="cls-1" d="M49,41.84c.08,0,.09,0,0,.1S49,41.9,49,41.84Z"/><path class="cls-1" d="M59.62,61c0,.07,0,.08-.11,0S59.55,60.9,59.62,61Z"/><path class="cls-2" d="M74.35,34.73c.72.34-.16.28-.18.74-.34.49-1.88-1.16-1.53-1.89.1-.54,1-.57,1.36-.36s-.29.71.36.72C75.18,33.87,74.55,34.4,74.35,34.73Z"/><path class="cls-2" d="M74.84,29.63c.33-1.59,2.73.19,2.84,1-.46.51-.91-.86-1.26-.23C76,31.27,74.9,30.26,74.84,29.63Z"/><path class="cls-2" d="M12.32,56.34c-.54-.34-1.14-1.8-.82-2.31A3.31,3.31,0,0,1,12.32,56.34Z"/><path class="cls-2" d="M7,40a1.57,1.57,0,0,1,.35-2C7.64,38.43,7.58,39.76,7,40Z"/><path class="cls-2" d="M68.71,37.6c-.66.19-.39-.27-.89.57C67,38.11,68.41,36.93,68.71,37.6Z"/><path class="cls-2" d="M75.76,55.19c-.26.19-.44.54-.68.26S75.47,55.1,75.76,55.19Z"/><path class="cls-2" d="M12.49,58.76c-.16-.21-.55-.44-.26-.66S12.65,58.51,12.49,58.76Z"/><path class="cls-2" d="M13.72,60.08c.13.17.41.44.29.66C13.72,60.81,13.44,60.12,13.72,60.08Z"/><path class="cls-5" d="M14.37,56.49c.37.1.45.54.12.58C14.31,57,14.46,56.71,14.37,56.49Z"/><path class="cls-2" d="M73.17,30.5c.28-.06.33.32.32.53C73.23,31.27,73.15,30.67,73.17,30.5Z"/><path class="cls-2" d="M76.68,46.77c.27.1.65,0,.69.25C77.18,47.22,76.87,47,76.68,46.77Z"/><path class="cls-2" d="M6.84,40.85A1.05,1.05,0,0,1,7,40.12.77.77,0,0,1,6.84,40.85Z"/><path class="cls-2" d="M77.62,30.83a1,1,0,0,1,.31.51C77.65,31.23,77.65,31.23,77.62,30.83Z"/><path class="cls-2" d="M7,41.54c-.27,0-.13-.36-.15-.55C7.12,41.11,7,41.35,7,41.54Z"/><path class="cls-5" d="M61.08,68.44c-.25.18-.35.18-.56,0A.83.83,0,0,1,61.08,68.44Z"/><path class="cls-5" d="M13.14,58.19a.48.48,0,0,1,.35.1C13.28,58.43,13.28,58.43,13.14,58.19Z"/><path class="cls-2" d="M72,6.94c-.09-.24.14-.45.23-.14C72.26,6.94,72.13,6.92,72,6.94Z"/><path class="cls-2" d="M74,6.16c.06,0,.09.06,0,.1S74,6.22,74,6.16Z"/><path class="cls-2" d="M76,42.49c0,.07,0,.08-.11,0S75.9,42.44,76,42.49Z"/><path class="cls-2" d="M76.26,47.1c.07,0,.19.07.11.14S76.27,47.16,76.26,47.1Z"/><path class="cls-5" d="M79.7,52.31c0,.07-.06.2-.13.11S79.65,52.33,79.7,52.31Z"/><path class="cls-2" d="M74.64,37.41c-.07,0-.1,0-.11,0S74.62,37.34,74.64,37.41Z"/><path class="cls-2" d="M13.52,60c.08,0,.13,0,.1.1Z"/><path class="cls-5" d="M78.82,35.27l0,0S78.84,35.25,78.82,35.27Z"/><path class="cls-5" d="M11,17.79c1.45.3,1.11,2.9.8,4-.48,1-1.88,2-1.46,3.31.21.92-.78,1-1.12,1.41-.18.28-.19.28.11.48.36.57.33,1.09-.24.35-.48-.23-.16-.79-.32-1.19.13-.33-.66-.21-.35-.67,1.23-.9.34-1.48.92-2.29.34.44-.47,1.77.23,2.16.46-.71.23-2.09,1-2.7,1.68-1.19.64-2.59-1.15-1.33-.35,0,0,.41-.32.45s-.11.1,0,.17c.11.48-.88.74-.91,0,0-.53-.72-.55-.9-1s0-.42-.35-.6c1.68-.07,1-1.4,2.48-2,1-.08,1.74-.31,2.31.63C11.72,18.3,11.27,18.15,11,17.79Zm-.33,2.48c0-.42-.21-.8-.06-1.12,1-1.66-1.91-.15-2,.74C9.2,21.56,9.55,19.44,10.64,20.27Z"/><path class="cls-5" d="M5.23,15.49c0,.41.51.64.87.6.05.42-.61.75-1,.51C4.1,19.17,3.85,15.89,5.23,15.49Z"/><path class="cls-5" d="M9,13.65c-1.17.83-2.67,1-3.8,1.83a2.19,2.19,0,0,1,2.2-1.38C8.05,13.87,8.3,13.2,9,13.65Z"/><path class="cls-5" d="M10.56,13.17c0,.42-1.06.34-1.44.46C9.3,13.08,10.1,13.26,10.56,13.17Z"/><path class="cls-5" d="M2.74,19c.32.15-.28.65-.48.63C1.84,19.46,2.52,19,2.74,19Z"/><path class="cls-2" d="M8,17.69c-.11.18-.46.37-.53.1S7.79,17.47,8,17.69Z"/><path class="cls-5" d="M9.9,17c.36,0,.54.18.65.59C10.31,17.42,10,17.31,9.9,17Z"/><path class="cls-5" d="M6.29,16a.08.08,0,0,1,.08,0C6.35,16.08,6.33,16.09,6.29,16Z"/><path class="cls-5" d="M1.44,19.6q-.09,0-.06-.06Z"/><path class="cls-3" d="M58.41,69.34c.55.18,1.45.41,1.73,1C59.32,70.5,56.59,69.47,58.41,69.34Z"/><path class="cls-3" d="M14.92,60.29c.39.32,1.1.33,1.27.84C16,61.9,15,60.75,14.92,60.29Z"/><path class="cls-3" d="M59,68.51l-.4-.07C58.69,68.35,59,68.39,59,68.51Z"/><path class="cls-3" d="M13.62,60.08V60C13.74,60,13.74,60.11,13.62,60.08Z"/><path class="cls-2" d="M44.3,21.86c.13,1.32-.61-.32-.85.28-.34,0-.73.28-1.06.08a1.42,1.42,0,0,1,1.39-.9c.34-.72,1.25-.47,2.16-1,.79,0-.29.69-.3,1,.22.07,1.66.86.94,1-.24-.21-.55.09-.56.32C45.32,23.79,46,21.29,44.3,21.86Z"/><path class="cls-3" d="M41,79.83c.41.14.48.69,1,1,.08.37.56,2.13-.25,1.92.07.89-1.69.21-2.08,0,0-.33,1,.25.73-.21-.48-.34.52-.35.47-.67.19-.48-.08-.34-.4-.26.87-.87-.7-.92-.59-1.52.42-.36-.44-.61,0-1s1.22,1.37,1-.12c-.13-.34.25-.78.77-.71C41.83,78.8,41.79,79.74,41,79.83ZM40.92,81a.42.42,0,0,0,.52-.11C41.24,80.94,41.1,80.87,40.92,81Z"/><path class="cls-3" d="M42.35,74.69c-.32.59.22,1.32-.73,1.52.43.19.2.73-.25.58-1.67,0-.35-1.34-.65-2s1.09.47,1.18-.12C42,74.45,42.16,74.71,42.35,74.69Z"/><path class="cls-3" d="M42.24,69.89c0,.38-.55.5-.52,0C41.73,69.62,42.25,69.64,42.24,69.89Z"/><path class="cls-2" d="M37.38,82.39c.41-.76.83.69.06.46C37.43,82.69,37.61,82.52,37.38,82.39Z"/><path class="cls-3" d="M39.73,78.4c.31-.17,1-.33.79.13C40.27,78.78,40.1,78.38,39.73,78.4Z"/><path class="cls-3" d="M44.11,83.68c-.06-.31.44-.38.42-.05S44.12,84,44.11,83.68Z"/><path class="cls-3" d="M44.81,84c.16,0,.11.38-.08.31S44.6,83.9,44.81,84Z"/><path class="cls-3" d="M39.08,87.11c-.08-.22.39-.31.43,0Z"/><path class="cls-1" d="M39.08,87.11c.18,0,.62-.08.35.2C39.32,87.31,39,87.32,39.08,87.11Z"/><path class="cls-4" d="M39.65,69.46c.05,0,.09,0,.09.07S39.5,69.45,39.65,69.46Z"/><path class="cls-5" d="M46.46,67.38c-.73.39-1.55-.17-2.27-.23C41.88,67,46,66.07,46.46,67.38Z"/><path class="cls-5" d="M21.27,65.39a2.88,2.88,0,0,1,1.65.38A1.5,1.5,0,0,1,21.27,65.39Z"/><path class="cls-5" d="M34.17,66.09a1.79,1.79,0,0,1,1.12.08A1.37,1.37,0,0,1,34.17,66.09Z"/><path class="cls-5" d="M21,65.18c0,.18-.27.09-.28,0S21,65.11,21,65.18Z"/><path class="cls-5" d="M19.72,64.06H20C19.87,64.2,19.8,64.13,19.72,64.06Z"/><path class="cls-5" d="M50.87,68.63c0,.06-.06.09-.1,0S50.82,68.58,50.87,68.63Z"/><path class="cls-5" d="M19.72,64.06l0,0S19.7,64,19.72,64.06Z"/><path class="cls-3" d="M58.75,86.45c.28-.41.63-.9-.16-.58C59.51,83.64,61.06,85.83,58.75,86.45Zm.68-1.52s0,0,0,0Z"/><path class="cls-3" d="M55.68,88.45c.91-.13,2.85-2.44,3-1.59C57.76,87.32,57,88.5,55.68,88.45Z"/><path class="cls-3" d="M61.43,81.84c-.28-.14-.41-.65-.25-.8A.71.71,0,0,1,61.43,81.84Z"/><path class="cls-4" d="M61.51,87.47s0,0,0,0Z"/><path class="cls-2" d="M9.6,30.43c-.08-.08,0-.33.09-.22A.18.18,0,0,1,9.6,30.43Z"/><path class="cls-2" d="M9.55,29.17v-.09C9.61,29.11,9.62,29.15,9.55,29.17Z"/><path class="cls-3" d="M68,64.91S68,65,68,65,68,64.92,68,64.91Z"/><path class="cls-3" d="M54.62,89.32c-.16-.58,1.52-1,.72-.48C54.91,88.56,55,89.34,54.62,89.32Z"/><path class="cls-5" d="M55,88.85a.21.21,0,0,1,.3,0A.44.44,0,0,1,55,88.85Z"/><path class="cls-5" d="M55.39,88.84l.1-.06A.07.07,0,0,1,55.39,88.84Z"/><path class="cls-6" d="M58.68,84.13c0-.39.39-.34.68-.46A.55.55,0,0,1,58.68,84.13Z"/><path class="cls-3" d="M57,84.84c.3,0,.16.47-.08.47S56.73,84.82,57,84.84Z"/><path class="cls-3" d="M58.59,85.87c0,.13,0,.27-.2.24A.37.37,0,0,1,58.59,85.87Z"/><path class="cls-3" d="M78.14,36.45c0,.16,0,.4.28.34C78.15,37.37,77.52,36.78,78.14,36.45Z"/><path class="cls-5" d="M39.68,86.13s0,0,0,0Z"/><path class="cls-5" d="M27,87.27a2.35,2.35,0,0,1-.83.41A.69.69,0,0,1,27,87.27Z"/><path class="cls-4" d="M49.23,68.39c-.1.3-.31.14-.53.14C48.87,68.3,49.07,68.42,49.23,68.39Z"/><path class="cls-4" d="M48.25,68.68c.08,0,.06.13,0,.11S48.19,68.7,48.25,68.68Z"/><path class="cls-6" d="M36.94,81.65c.72.56-.48.43-.76.23C35.53,81.5,36.67,81.62,36.94,81.65Z"/><path class="cls-2" d="M36.57,82c.31,0,.63,0,.65.36C36.92,82.4,36.66,82.37,36.57,82Z"/><path class="cls-3" d="M37.14,83.16c-.11.25-.36.24-.57.3A.48.48,0,0,1,37.14,83.16Z"/><path class="cls-6" d="M28.47,67.15c0,.07-.06.16-.08.06S28.44,67.17,28.47,67.15Z"/><path class="cls-1" d="M36.42,81.58a.86.86,0,0,1-.45,0C36.13,81.4,36.21,81.4,36.42,81.58Z"/><path class="cls-6" d="M35.56,81.3c0,.14-.26.22-.32.12S35.46,81.22,35.56,81.3Z"/><path class="cls-6" d="M35.25,81.1c0,.14-.23.14-.23,0S35.24,81,35.25,81.1Z"/><path class="cls-6" d="M37.75,82.17c-.2.13-.67.07-.32-.17C37.58,81.94,37.73,82,37.75,82.17Z"/><path class="cls-2" d="M52.38,38.1c.25-.19.36-.39-.09-.43s0,.75-.49.88c-.88-.07-1.55-1-2.4-.94.06-1.33.65-1.29,0-2.48-.51-1.33-1.63-1.54-1.51-2.41s2.06,0,2.28.79c.15.4-.52,1.57.44,1,.29-.13.36-.32,0-.42-.28-.37.54-.58.62-.11.47.41.94.5,1.25,1.1.11.1.25.12.33,0,.3-.63,1.14.38.51.56-.83.12-.15.81-.35,1.24,0,.31.67,0,.63.36-.21.17-1-.29-.62.37S53,38.57,52.38,38.1Zm.77-2.81c.06.05.09,0,.1,0S53.16,35.22,53.15,35.29Z"/><path class="cls-2" d="M22.46,45.51c-.56.12-.81-.34-1.31.14.47.25-.16.82-.28.39,0-.13,0-.24-.22-.22-.47,0,0-.65,0-.93.17-.44-.7-.54-.29-.88.27,0-1.5-2.35-.46-1.8a2,2,0,0,0,2,1.12c.41,0-.06,1.39.42.57s.75-.68.64.15C22.22,45.34,21.93,44.57,22.46,45.51Zm-1-1.64c-.16,0-.14.31,0,.28S21.59,43.86,21.45,43.87Z"/><path class="cls-2" d="M34.4,37.92c.66.06,1.18-.11,1.76,0,.32-.5,1.3.65.45.6a5.24,5.24,0,0,0-1.7.2c-.3,0,.2.52-.26.41C34.13,38.78,33.19,38,34.4,37.92Z"/><path class="cls-2" d="M37,37.11c-.29.39-.74-.27-1.05.15-.51.52-1.46.11-1.89-.19.86-.74,2.05-.45,3.14-.36C37.61,36.87,37.43,37.53,37,37.11Z"/><path class="cls-2" d="M18.11,35.77a5.82,5.82,0,0,1-.66-1.47c-.14-.16-.63.24-.61-.17-.74-1.15.24-.94,1-.37C17.18,34.64,19.6,35.08,18.11,35.77Z"/><path class="cls-2" d="M27.38,25.92c-.68.77-2.33-1.14-.87-.55.24.21.23-.15.44-.15C27,25.59,27.16,25.59,27.38,25.92Z"/><path class="cls-2" d="M18.34,29.45c.23.17,1.56.62.95.91-.29-.22-.54-.52-.93-.23-.12.09-.29-.13-.12-.21C18.56,29.8,18.06,29.54,18.34,29.45Z"/><path class="cls-2" d="M41.78,33.47c-.84.31-.68-.38-.2-.64C41.75,33,41.63,33.25,41.78,33.47Z"/><path class="cls-2" d="M21.16,42.7c.22,0,.35.38.11.41S20.83,42.75,21.16,42.7Z"/><path class="cls-2" d="M17.07,40c.19,0,.44.28.31.47C17.07,40.61,17.05,40.15,17.07,40Z"/><path class="cls-2" d="M18.15,33.78c.14,0,.2.19.07.21S18,33.81,18.15,33.78Z"/><path class="cls-2" d="M40.89,34.71c0,.22-.33-.06-.14-.11S40.87,34.65,40.89,34.71Z"/><path class="cls-2" d="M22.46,45.51c.07,0,.19.07.1.14S22.47,45.58,22.46,45.51Z"/><path class="cls-2" d="M58.32,49.31a.46.46,0,0,1,.35-.27C58.67,49.28,58.52,49.32,58.32,49.31Z"/><path class="cls-2" d="M66,26.91c.07,0,.08,0,0,.11S65.94,27,66,26.91Z"/><path class="cls-3" d="M10.64,20.27c-1.09-.83-1.44,1.29-2.1-.38.13-.89,3-2.4,2-.74C10.43,19.47,10.61,19.85,10.64,20.27Z"/><path class="cls-5" d="M40.92,81c.18-.17.32-.1.52-.11A.42.42,0,0,1,40.92,81Z"/><path class="cls-5" d="M59.43,84.93s0,0,0,0Z"/><path class="cls-1" d="M53.15,35.29c0-.07,0-.08.1,0S53.21,35.34,53.15,35.29Z"/><path class="cls-1" d="M21.45,43.87c.14,0,.17.25,0,.28S21.29,43.91,21.45,43.87Z"/></svg>