<svg id="Layer_1" data-name="Layer 1" xmlns="http://www.w3.org/2000/svg" width="76.25" height="295.65" viewBox="0 0 76.25 295.65"><defs><style>.cls-1{fill:none;stroke:#000;stroke-miterlimit:10;stroke-width:2px;}</style></defs><rect x="-93.38" y="131.89" width="258.84" height="54.93" rx="13.61" transform="translate(-123.32 195.4) rotate(-90)"/><path d="M19.38,11.47c.36-.22.55-.37.55-.46s-.15-.13-.45-.15-.87,0-1.7,0H15.92v6.62a13,13,0,0,1,1.72,2.62,5.55,5.55,0,0,1,.64,2.27,1.52,1.52,0,0,1-.33,1,1.27,1.27,0,0,1-1,.41H11.55v-.3a1.19,1.19,0,0,0,.7-.23.69.69,0,0,0,.35-.6V14.75a29.29,29.29,0,0,0-2.48-1.65A15.76,15.76,0,0,1,8.43,12a1.42,1.42,0,0,1-.59-.86,1.47,1.47,0,0,1,0-.25c0-.76.49-1.36,1.48-1.83a11.76,11.76,0,0,1,4.53-.78c.36,0,.88,0,1.54,0a18.69,18.69,0,0,1,4.11.34,2.91,2.91,0,0,1,1.84,1,2.57,2.57,0,0,1,.3,1.38,10.63,10.63,0,0,1-.32,2.36l-.06.42-3-1.34C18.46,12.17,18.85,11.86,19.38,11.47Zm-8.14-.71-1.33,0a7,7,0,0,0-1.12.07c-.23,0-.34.14-.34.27s.29.54.87,1S11,13.32,12.6,14.44V10.8C12.25,10.8,11.8,10.79,11.24,10.76ZM18,22.28a4.61,4.61,0,0,0-.55-1.93A13.44,13.44,0,0,0,15.92,18v4.64a.69.69,0,0,0,.33.6,1.14,1.14,0,0,0,.69.23A1,1,0,0,0,18,22.28Z"/><path d="M29.64,23.22a1.19,1.19,0,0,0,.7.23v.3H24.93v-.3a1.19,1.19,0,0,0,.7-.23.69.69,0,0,0,.35-.6V11.47c0-.71,0-1.19,0-1.46a.89.89,0,0,0-.19-.55,1,1,0,0,0-.57-.22l3.44-1.13a.88.88,0,0,1,.54.72,7.05,7.05,0,0,1,.13,1.54V22.62A.68.68,0,0,0,29.64,23.22Z"/><path d="M48.85,23.22a1.19,1.19,0,0,0,.69.23v.3h-5.4v-.3a1.22,1.22,0,0,0,.7-.23.68.68,0,0,0,.34-.6V12.45c0-.12,0-.32,0-.59s0-.51,0-.7a3.75,3.75,0,0,1-1.25,1.38,9.24,9.24,0,0,0-2.11,1.94A3.49,3.49,0,0,0,41,16.65a3.3,3.3,0,0,0,.92,2.19,3.85,3.85,0,0,1,.91,2.57,4.13,4.13,0,0,1-.18,1.24,2.92,2.92,0,0,1-.5.93.89.89,0,0,1-.63.35c-.24,0-.46-.17-.67-.52a5.85,5.85,0,0,1-.57-1.87c-.15-.82-.3-1.94-.45-3.35s-.33-2.77-.49-3.76a12.28,12.28,0,0,0-.71-2.65,2.45,2.45,0,0,0-1.2-1.44V22.62a.68.68,0,0,0,.34.6,1.22,1.22,0,0,0,.7.23v.3h-5.4v-.3a1.24,1.24,0,0,0,.7-.23.7.7,0,0,0,.34-.6V10.26a.7.7,0,0,0-.34-.6,1.24,1.24,0,0,0-.7-.23v-.3h4.36a2.31,2.31,0,0,1,2.16,1.66,18.57,18.57,0,0,1,1.07,4.63A9.67,9.67,0,0,1,43.8,12a4,4,0,0,0,1.47-1.92,1.16,1.16,0,0,1,.58-1l3.44,1.13a1.06,1.06,0,0,0-.57.22.89.89,0,0,0-.19.55c0,.27,0,.75,0,1.46V22.62A.69.69,0,0,0,48.85,23.22Zm-6.74-1a2.77,2.77,0,0,0,.15-.94,3.11,3.11,0,0,0-.21-1.1,3.14,3.14,0,0,0-.63-1c-.19-.22-.33-.39-.41-.5.11,1,.22,1.83.33,2.47a9.3,9.3,0,0,0,.42,1.66A1,1,0,0,0,42.11,22.2Z"/><path d="M62.57,21.28a3.21,3.21,0,0,1,1.63.44L62.51,23.2a1.54,1.54,0,0,0-.74-.35,1.86,1.86,0,0,0-.68,0,12,12,0,0,0-1.3.27c-1,.22-1.85.39-2.61.52a13.28,13.28,0,0,1-2.08.19c-1.05,0-1.7-.23-2-.67a1.41,1.41,0,0,1-.19-.62c0-.23,0-.48,0-.76V10.26a.69.69,0,0,0-.35-.6,1.19,1.19,0,0,0-.7-.23v-.3h4.36a12.13,12.13,0,0,1,2.7.38,9.09,9.09,0,0,0,1.75.27,2.51,2.51,0,0,0,1.71-.65l1.82,1.65a5,5,0,0,1-2.26.5A6,6,0,0,1,60.09,11a14.18,14.18,0,0,1-1.9-.76l-.84-.34a1.7,1.7,0,0,0-.62-.16c-.28,0-.45.17-.51.52v6a5.59,5.59,0,0,1,2-1.09,7.66,7.66,0,0,1,2.54-.43,5.05,5.05,0,0,1,2.76.71l-1.4,1.42a3.44,3.44,0,0,0-1.42-.63A8.53,8.53,0,0,0,58.58,16a5.73,5.73,0,0,0-2.36.42v4.67a3,3,0,0,0,.35,1.61,1.07,1.07,0,0,0,1,.54,2.43,2.43,0,0,0,1.33-.5A6.93,6.93,0,0,1,62.57,21.28Z"/><rect class="cls-1" x="3.59" y="5.14" width="64.89" height="287.25"/></svg>