<svg id="Layer_1" data-name="Layer 1" xmlns="http://www.w3.org/2000/svg" width="160.44" height="77.1" viewBox="0 0 160.44 77.1"><defs><style>.cls-1{fill:#fff;stroke:#fff;stroke-miterlimit:10;stroke-width:6px;}</style></defs><path class="cls-1" d="M66.28,11A14.08,14.08,0,0,0,57.48,14a19.85,19.85,0,0,0-5.14,6.13,20.37,20.37,0,0,0-5.15-6.19,14.15,14.15,0,0,0-8.81-3c-9,0-15.81,7.38-15.81,17.15,0,10.57,8.48,17.81,21.32,28.74,2.18,1.86,4.65,4,7.26,6.22a1.91,1.91,0,0,0,1.23.46A1.87,1.87,0,0,0,53.6,63c2.58-2.25,5-4.36,7.27-6.22C73.65,45.9,82.1,38.67,82.1,28.1,82.1,18.32,75.3,11,66.28,11Z"/></svg>