<svg id="Layer_1" data-name="Layer 1" xmlns="http://www.w3.org/2000/svg" width="90.71" height="74.08" viewBox="0 0 90.71 74.08"><defs><style>.cls-1{fill:#fff;stroke:#fff;stroke-miterlimit:10;stroke-width:6px;}</style></defs><path class="cls-1" d="M56.8,10.81a14.12,14.12,0,0,0-8.8,3A20,20,0,0,0,42.86,20,20.26,20.26,0,0,0,37.7,13.8a14.1,14.1,0,0,0-8.8-3.05c-9,0-15.81,7.38-15.81,17.15,0,10.58,8.48,17.81,21.32,28.75l7.26,6.21a1.92,1.92,0,0,0,1.23.47,1.9,1.9,0,0,0,1.22-.47c2.57-2.25,5-4.36,7.26-6.21C64.16,45.77,72.62,38.54,72.62,28,72.62,18.19,65.82,10.81,56.8,10.81Z"/></svg>