<svg id="Layer_1" data-name="Layer 1" xmlns="http://www.w3.org/2000/svg" width="375.98" height="97.51" viewBox="0 0 375.98 97.51"><defs><style>.cls-1{fill:#fff;stroke:#fff;stroke-miterlimit:10;stroke-width:6px;}</style></defs><path class="cls-1" d="M73.66,24a14.15,14.15,0,0,0-8.81,3.05,20,20,0,0,0-5.14,6.13A20.37,20.37,0,0,0,54.56,27a14.14,14.14,0,0,0-8.8-3c-9,0-15.82,7.38-15.82,17.15,0,10.58,8.48,17.81,21.32,28.74,2.18,1.86,4.65,4,7.26,6.22a2,2,0,0,0,1.24.47A1.9,1.9,0,0,0,61,76.05c2.57-2.25,5-4.36,7.26-6.22C81,59,89.47,51.72,89.47,41.15,89.47,31.38,82.67,24,73.66,24Z"/><path class="cls-1" d="M195.94,24.06a14.06,14.06,0,0,0-8.8,3.05A19.85,19.85,0,0,0,182,33.24a20.26,20.26,0,0,0-5.16-6.19A14.1,14.1,0,0,0,168,24c-9,0-15.81,7.38-15.81,17.15,0,10.57,8.48,17.81,21.32,28.74l7.26,6.22a1.91,1.91,0,0,0,1.23.46,1.89,1.89,0,0,0,1.22-.46c2.57-2.25,5-4.36,7.26-6.22C203.3,59,211.76,51.78,211.76,41.21,211.76,31.44,205,24.06,195.94,24.06Z"/><path class="cls-1" d="M317.65,24.06a14.08,14.08,0,0,0-8.8,3.05,19.85,19.85,0,0,0-5.14,6.13,20.26,20.26,0,0,0-5.16-6.19,14.1,14.1,0,0,0-8.8-3.05c-9,0-15.81,7.38-15.81,17.15,0,10.57,8.48,17.81,21.32,28.74l7.26,6.22a1.91,1.91,0,0,0,1.23.46,1.87,1.87,0,0,0,1.22-.46c2.57-2.25,5-4.36,7.26-6.22C325,59,333.47,51.78,333.47,41.21,333.47,31.44,326.67,24.06,317.65,24.06Z"/></svg>