<svg id="Layer_1" data-name="Layer 1" xmlns="http://www.w3.org/2000/svg" width="250.58" height="77.67" viewBox="0 0 250.58 77.67"><defs><style>.cls-1{fill:#fff;stroke:#fff;stroke-miterlimit:10;stroke-width:6px;}</style></defs><path class="cls-1" d="M60.05,14a14.16,14.16,0,0,0-8.8,3,20.14,20.14,0,0,0-5.15,6.13A20.19,20.19,0,0,0,41,17a14.08,14.08,0,0,0-8.8-3c-9,0-15.82,7.37-15.82,17.15,0,10.57,8.48,17.8,21.32,28.74,2.18,1.86,4.65,4,7.26,6.22a1.94,1.94,0,0,0,1.24.46,1.89,1.89,0,0,0,1.22-.46c2.57-2.26,5-4.36,7.26-6.22C67.41,49,75.86,41.72,75.86,31.15,75.86,21.37,69.07,14,60.05,14Z"/><path class="cls-1" d="M182.33,14.05a14.14,14.14,0,0,0-8.8,3.05,20,20,0,0,0-5.14,6.13A20.38,20.38,0,0,0,163.23,17a14.16,14.16,0,0,0-8.8-3c-9,0-15.81,7.38-15.81,17.16,0,10.57,8.48,17.8,21.32,28.74l7.26,6.21a1.92,1.92,0,0,0,1.23.47,1.87,1.87,0,0,0,1.22-.47c2.57-2.25,5-4.35,7.27-6.21C189.7,49,198.15,41.78,198.15,31.2,198.15,21.43,191.35,14.05,182.33,14.05Z"/></svg>