<svg id="Layer_1" data-name="Layer 1" xmlns="http://www.w3.org/2000/svg" width="429.38" height="88.77" viewBox="0 0 429.38 88.77"><defs><style>.cls-1{fill:#4d89ae;}.cls-2{fill:#fcd7a2;}.cls-3{fill:none;stroke:#fcd7a2;stroke-miterlimit:10;stroke-width:0.5px;}</style></defs><rect class="cls-1" width="429.38" height="88.77"/><path class="cls-2" d="M66.92,39.39a16.06,16.06,0,0,1,4.34.59l-2.69,5.24A7.42,7.42,0,0,0,66,44a10.82,10.82,0,0,0-3.29-.53,5.15,5.15,0,0,0-3.69,1.15,5.09,5.09,0,0,0-1.55,4,10,10,0,0,0,.85,3.89l.75,1.69c.66,1.5,1.15,2.7,1.47,3.59A7.27,7.27,0,0,1,61,60a1.45,1.45,0,0,1-1.64,1.65H46.49V61a2.94,2.94,0,0,0,1.67-.55A1.64,1.64,0,0,0,49,59V29.47A1.64,1.64,0,0,0,48.16,28a2.94,2.94,0,0,0-1.67-.55v-.7H59.4v.7a2.94,2.94,0,0,0-1.67.55,1.64,1.64,0,0,0-.82,1.44v17a7.38,7.38,0,0,1,2.74-4.73A11,11,0,0,1,66.92,39.39Zm-10,10.36V59a1.65,1.65,0,0,0,.8,1.44,2.81,2.81,0,0,0,1.64.55c.56,0,.85-.33.85-1a16.73,16.73,0,0,0-1.65-5.08c-.2-.43-.46-1.08-.8-1.94A15.15,15.15,0,0,1,56.91,49.75ZM80,28a1.64,1.64,0,0,0-.82,1.44V59A1.64,1.64,0,0,0,80,60.41a3,3,0,0,0,1.67.55v.7H68.77V61a3,3,0,0,0,1.67-.55A1.67,1.67,0,0,0,71.26,59V29.47A1.67,1.67,0,0,0,70.44,28a3,3,0,0,0-1.67-.55v-.7h12.9v.7A3,3,0,0,0,80,28Z"/><path class="cls-2" d="M100.23,39.81a6.09,6.09,0,0,1,4.41-1.67,8,8,0,0,1,2.09.25,11.36,11.36,0,0,1,7.06,3.76,10.37,10.37,0,0,1,2.46,6.8,12,12,0,0,1-1.69,6.11,13,13,0,0,1-4.94,4.76A15.33,15.33,0,0,1,102,61.66a13.3,13.3,0,0,1-7-1.77,12,12,0,0,1-4.53-4.63,12.49,12.49,0,0,1-1.57-6.11,12.31,12.31,0,0,1,1.32-5.58,11.76,11.76,0,0,1,4-4.48,15,15,0,0,1,6.65-2.34l4.29.69a5.56,5.56,0,0,0-.8,0A6.39,6.39,0,0,0,99.93,39a9.73,9.73,0,0,0-2.69,4.33,18.57,18.57,0,0,0-.87,5.73,19.25,19.25,0,0,0,.8,5.58,10.69,10.69,0,0,0,2.26,4.24,4.58,4.58,0,0,0,3.47,1.59,4.51,4.51,0,0,0,3.54-1.77,12.14,12.14,0,0,0,2.29-4.53,20.56,20.56,0,0,0,.79-5.71,16.16,16.16,0,0,0-1-5.85,6,6,0,0,0-2.89-3.46,2.56,2.56,0,0,0-.9-.25,1.14,1.14,0,0,0-1.12.75,4.53,4.53,0,0,0-.32,1.84,4,4,0,0,0,0,.8l-4.84,1.89A5.88,5.88,0,0,1,100.23,39.81Z"/><path class="cls-2" d="M164.31,34.75a12.8,12.8,0,0,1,.87,5.08,34.23,34.23,0,0,1-1.64,9.87,26.33,26.33,0,0,1-4.39,8.89c-1.69,2-3.39,3.07-5.08,3.07s-3.41-1.16-4.73-3.46-2.16-5.61-2.5-9.89q-.94,6.57-3,9.89a6.7,6.7,0,0,1-5.61,3.46H127.06l.25-.7a4,4,0,0,0,1.52-.27,1,1,0,0,0,.67-.92,1.74,1.74,0,0,0-.09-.45L123,39.39a4,4,0,0,0-.77-1.42,1.83,1.83,0,0,0-1.43-.53l.25-.69h12.91l-.25.69A3.25,3.25,0,0,0,132,38a1.56,1.56,0,0,0-.8,1.52l6.13,19.18c.93,1.13,1.77,1.69,2.54,1.69q1.89,0,2.94-3.88a35,35,0,0,0,1-9.07q0-3.28-.09-4.56a3.56,3.56,0,0,0-.48-1.77,2.19,2.19,0,0,0-1.32-.7l8.22-3.78c.67.33,1.1,1.16,1.3,2.49a36.07,36.07,0,0,1,.3,5.18v3.19A32.24,32.24,0,0,0,153,56.78q1.15,3.28,2.74,3.28c1,0,2-.93,3-2.79a30.87,30.87,0,0,0,2.59-8.12,27.56,27.56,0,0,0,.55-5.28,11.24,11.24,0,0,0-1-5.21,3.38,3.38,0,0,0-3.29-1.91l4-4.34A3.65,3.65,0,0,1,164.31,34.75Z"/><path class="cls-2" d="M212,57.32a8.7,8.7,0,0,1-3.22,2.42,20,20,0,0,1-4.23,1.45,18,18,0,0,1-3.66.47,15.25,15.25,0,0,1-6.73-1.15,5.43,5.43,0,0,1-2.86-2.86,12.32,12.32,0,0,1-.63-4.21V39.83c-.89-.46-1.34-.94-1.34-1.44a1.77,1.77,0,0,1,.5-.92,4.39,4.39,0,0,1,.84-.87V34.8c0-1.69,0-2.85-.07-3.49a2.09,2.09,0,0,0-.45-1.32,2.49,2.49,0,0,0-1.37-.52L197,26.78a2.13,2.13,0,0,1,1.3,1.72,17.76,17.76,0,0,1,.3,3.66v7.28A14,14,0,0,0,203,38.37a2.76,2.76,0,0,0,1.86-2.27l3.89,5.68a14.94,14.94,0,0,1-4.33.45,50.6,50.6,0,0,1-5.88-.4v9.81a42.42,42.42,0,0,0,.37,6.66c.25,1.41.9,2.11,2,2.11a2.4,2.4,0,0,0,2.21-1.59,8.28,8.28,0,0,0,.78-3.69,12.65,12.65,0,0,0-.2-1.89ZM190.64,38.59v-1l-.64.75A2.73,2.73,0,0,0,190.64,38.59Z"/><path class="cls-2" d="M229.29,39.81a6.06,6.06,0,0,1,4.41-1.67,8,8,0,0,1,2.09.25,11.36,11.36,0,0,1,7.05,3.76A10.37,10.37,0,0,1,245.3,49a12,12,0,0,1-1.69,6.11,13,13,0,0,1-4.93,4.76A15.37,15.37,0,0,1,231,61.66a13.33,13.33,0,0,1-6.95-1.77,12.19,12.19,0,0,1-4.53-4.63A12.49,12.49,0,0,1,218,49.15a12.31,12.31,0,0,1,1.32-5.58,11.79,11.79,0,0,1,4-4.48A15,15,0,0,1,230,36.75l4.28.69a5.4,5.4,0,0,0-.79,0A6.38,6.38,0,0,0,229,39a9.64,9.64,0,0,0-2.69,4.33,18.28,18.28,0,0,0-.88,5.73,19.25,19.25,0,0,0,.8,5.58,10.7,10.7,0,0,0,2.27,4.24A4.56,4.56,0,0,0,232,60.51a4.51,4.51,0,0,0,3.54-1.77,12,12,0,0,0,2.29-4.53,20.56,20.56,0,0,0,.8-5.71,15.94,15.94,0,0,0-1-5.85,6,6,0,0,0-2.89-3.46,2.56,2.56,0,0,0-.9-.25,1.14,1.14,0,0,0-1.12.75,4.7,4.7,0,0,0-.32,1.84,5,5,0,0,0,.05.8l-4.83,1.89A5.84,5.84,0,0,1,229.29,39.81Z"/><path class="cls-2" d="M288.41,36.7a11,11,0,0,1,6.37,1.79,11.57,11.57,0,0,1,4,4.68,14.05,14.05,0,0,1,1.37,6.13,13.59,13.59,0,0,1-1.37,6,11.25,11.25,0,0,1-4.08,4.61,11.75,11.75,0,0,1-6.55,1.77,10.31,10.31,0,0,1-6.08-1.65,9.43,9.43,0,0,1-3.44-4.48v8c0,1.7,0,2.86.07,3.49a2.09,2.09,0,0,0,.45,1.32,2.49,2.49,0,0,0,1.37.52l-8.22,2.7A2.11,2.11,0,0,1,271,69.86a17.93,17.93,0,0,1-.3-3.67V44.77c0-1.7,0-2.86-.08-3.49a2.09,2.09,0,0,0-.45-1.32,2.46,2.46,0,0,0-1.37-.52L277,36.75c.93.33,1.47,1.61,1.6,3.83v.25a12.5,12.5,0,0,1,0,1.35c0,.4,0,.73,0,1v1.1a11,11,0,0,1,3-5.18,8.66,8.66,0,0,1,5.46-2.34A11.59,11.59,0,0,1,288.41,36.7Zm3.33,19.93a12.38,12.38,0,0,0,1.85-6.88,15.81,15.81,0,0,0-.85-5.18,9.92,9.92,0,0,0-2.47-4A5.34,5.34,0,0,0,286.46,39q-6.48,0-7.82,9.46v4.44a11.16,11.16,0,0,0,2.89,4.68,6.74,6.74,0,0,0,4.83,1.85A6,6,0,0,0,291.74,56.63Z"/><path class="cls-2" d="M318.08,60.41a2.91,2.91,0,0,0,1.66.55v.7h-12.9V61a3,3,0,0,0,1.67-.55,1.64,1.64,0,0,0,.82-1.44V35c0-.6,0-1.11,0-1.54s0-.78,0-1.05V31.26a8.63,8.63,0,0,0-.32-2.69,1.25,1.25,0,0,0-1.27-.89,8,8,0,0,0-3.69,1.64l-3.34-2.54,1.57-.07c1-.05,2.12-.08,3.51-.08q5.88,0,7.78.95,3.53,1.84,3.68,6.87V59A1.65,1.65,0,0,0,318.08,60.41Z"/><path class="cls-2" d="M353.55,57.12a2.1,2.1,0,0,0,.45,1.33,2.57,2.57,0,0,0,1.37.52l-8.22,2.69A2.14,2.14,0,0,1,345.88,60a14.48,14.48,0,0,1-.33-3.41,9.94,9.94,0,0,1-3.93,3.66,13.84,13.84,0,0,1-4.14,1.42,12.39,12.39,0,0,1-1.94.15,11.05,11.05,0,0,1-5-1.12,8.47,8.47,0,0,1-3.44-3.09,8.05,8.05,0,0,1-1.22-4.31,8.72,8.72,0,0,1,.35-2.44,8.39,8.39,0,0,1,3.36-4.59,19.61,19.61,0,0,1,6.23-2.94,25.78,25.78,0,0,1,6.9-1,15.71,15.71,0,0,1,2.84.25,29.71,29.71,0,0,0-.17-4c-.12-.74-.41-1.12-.87-1.12a3.82,3.82,0,0,0-1.95,1.1A10.81,10.81,0,0,1,335,42a10.07,10.07,0,0,1-4-1l3.54-3.24a3.89,3.89,0,0,0,2.49.8,9.63,9.63,0,0,0,2.42-.33c.85-.21,2-.53,3.41-1s2.6-.81,3.52-1A10.2,10.2,0,0,1,349,36,4.19,4.19,0,0,1,352.93,38a3.4,3.4,0,0,1,.47,1.47c.05.55.08,1.15.08,1.82V53.64C353.48,55.33,353.5,56.49,353.55,57.12Zm-21-4.38a6.25,6.25,0,0,0,1.92,4.73,6.41,6.41,0,0,0,4.61,1.85,7.39,7.39,0,0,0,3.41-.85,9.61,9.61,0,0,0,3.06-2.54V43.22c-.36,0-.88,0-1.54,0a13.79,13.79,0,0,0-6.55,1.52,8.75,8.75,0,0,0-4.06,4.21A9.72,9.72,0,0,0,332.55,52.74Z"/><path class="cls-2" d="M392.49,37.44a3,3,0,0,0-1.67.55,1.67,1.67,0,0,0-.82,1.45V61.66a19.09,19.09,0,0,1-.57,5,6.23,6.23,0,0,1-2.79,3.51q-2.22,1.44-6.8,1.44A7.94,7.94,0,0,1,376,70.55a6.29,6.29,0,0,1-2.86-3.26l4.63-5a17.68,17.68,0,0,0-.35,3.63,10.71,10.71,0,0,0,.55,3.67c.37,1,.95,1.47,1.75,1.47,1,0,1.67-.79,1.94-2.37a46.74,46.74,0,0,0,.4-7V55A11.93,11.93,0,0,1,377,60.26a14.21,14.21,0,0,1-7,1.9,9,9,0,0,1-5.48-1.62,5.51,5.51,0,0,1-2.24-4.61V44.77c0-1.7,0-2.86-.08-3.49a2.09,2.09,0,0,0-.45-1.32,2.46,2.46,0,0,0-1.37-.52l8.22-2.69a2.09,2.09,0,0,1,1.3,1.71,17.93,17.93,0,0,1,.3,3.67v13.5a4.44,4.44,0,0,0,1,3.16,3.34,3.34,0,0,0,2.59,1.08,6.74,6.74,0,0,0,3.31-1,9.87,9.87,0,0,0,3.06-2.74,10.77,10.77,0,0,0,1.9-4V47.76a12.32,12.32,0,0,0-1.17-2.52Q380.13,44,379,42.33c-.77-1.17-1.32-2-1.67-2.64a3.21,3.21,0,0,1-.52-1.55c0-.93.93-1.39,2.79-1.39h12.9Zm-10.41,2a1.7,1.7,0,0,0-.8-1.45,2.9,2.9,0,0,0-1.64-.55c-1.3,0-1.95.32-1.95,1a2.84,2.84,0,0,0,.5,1.37,23.84,23.84,0,0,0,1.5,2.12c1.09,1.53,1.89,2.72,2.39,3.58Z"/><path class="cls-2" d="M12.3,11.5V80.75H417.83V11.5ZM414.45,80.17H15.68V12.07H414.45Z"/><path class="cls-2" d="M27,40.16a4.22,4.22,0,1,0,4.21,4.22A4.22,4.22,0,0,0,27,40.16Zm2.23,6.45a3.17,3.17,0,0,1-2.23.93,3.16,3.16,0,1,1,2.23-.93Z"/><rect class="cls-3" x="19.99" y="15.45" width="390.36" height="61.19" rx="13.61"/><path class="cls-2" d="M399.68,46.13a4.22,4.22,0,1,0,4.22-4.22A4.22,4.22,0,0,0,399.68,46.13Zm1.07,0a3.14,3.14,0,1,1,.92,2.23A3.14,3.14,0,0,1,400.75,46.13Z"/></svg>