<svg id="Layer_1" data-name="Layer 1" xmlns="http://www.w3.org/2000/svg" width="457.84" height="120.57" viewBox="0 0 457.84 120.57"><defs><style>.cls-1,.cls-2,.cls-3{fill:none;stroke:#fff;stroke-miterlimit:10;}.cls-1{stroke-width:6px;}.cls-2{stroke-width:3px;}.cls-3{stroke-width:7px;}</style></defs><path class="cls-1" d="M125.06,34a14.08,14.08,0,0,0-8.8,3,19.93,19.93,0,0,0-5.14,6.12A20.45,20.45,0,0,0,106,37,14.09,14.09,0,0,0,97.16,34c-9,0-15.81,7.38-15.81,17.15,0,10.57,8.48,17.8,21.32,28.74,2.18,1.86,4.65,4,7.26,6.22a1.91,1.91,0,0,0,1.23.46,1.87,1.87,0,0,0,1.22-.46c2.57-2.25,5-4.36,7.27-6.22C132.43,69,140.88,61.75,140.88,51.18,140.88,41.4,134.08,34,125.06,34Z"/><path class="cls-1" d="M247.32,34a14,14,0,0,0-8.8,3,20.4,20.4,0,0,0-5.16,6.12,19.85,19.85,0,0,0-5.08-6.12,14.06,14.06,0,0,0-8.8-3c-9,0-15.82,7.37-15.82,17.15,0,10.57,8.48,17.8,21.32,28.74,2.18,1.86,4.65,4,7.26,6.21a1.84,1.84,0,0,0,1.22.47,2,2,0,0,0,1.24-.47c2.57-2.25,5-4.35,7.26-6.21C254.65,69,263.13,61.75,263.13,51.18,263.13,41.4,256.34,34,247.32,34Z"/><path class="cls-1" d="M369,34a14,14,0,0,0-8.8,3,20,20,0,0,0-5.16,6.12A20.07,20.07,0,0,0,349.93,37,14,14,0,0,0,341.12,34c-9,0-15.81,7.38-15.81,17.15,0,10.57,8.48,17.8,21.32,28.74,2.19,1.86,4.66,4,7.26,6.22a1.83,1.83,0,0,0,2.44,0c2.57-2.25,5-4.36,7.26-6.22,12.84-10.94,21.32-18.17,21.32-28.74C384.85,41.4,378.06,34,369,34Z"/><rect class="cls-2" x="42.26" y="22.77" width="381.74" height="75.03" rx="18.61"/><rect class="cls-3" x="31.5" y="14.73" width="403.26" height="91.11"/></svg>