<svg id="Layer_1" data-name="Layer 1" xmlns="http://www.w3.org/2000/svg" width="50.73" height="50.73" viewBox="0 0 50.73 50.73"><defs><style>.cls-1{fill:#848370;opacity:0.25;}.cls-2{fill:#e3dbc7;}</style></defs><path class="cls-1" d="M752.39,1612.38c-4.72,38-178.26,47.71-387.62,21.71S-10.49,1556.22-5.77,1518.22a14.58,14.58,0,0,1,3.08-7.13Q233.07,762,468.8,12.91A156,156,0,0,1,511.13.12c21-3.06,36.67-.22,57.9,3.63,9.88,1.79,15.94,3.66,27.07,7.09,6.19,1.91,8.1,2.71,10.21,4,10,6,16.94,18,21.24,27.36q61.83,780.14,123.68,1560.26l.24,3.09A14.12,14.12,0,0,1,752.39,1612.38Z"/><path class="cls-2" d="M11.32,32.37,1.93,41.76A5.5,5.5,0,0,1,0,37.7c0-3.38,3.43-6.12,7.65-6.12A8.6,8.6,0,0,1,11.32,32.37Z"/><path class="cls-2" d="M11.17,47.16,16.32,42C16,44.43,14,46.41,11.17,47.16Z"/><path class="cls-2" d="M30.81,12.88,15.3,14.61V28.39l-3.06,3.06V5.58A1.53,1.53,0,0,1,13.6,4.06L41.12,1a1.49,1.49,0,0,1,1.18.38Z"/><path class="cls-2" d="M43.88,14.45V38.32c0,3.38-3.42,6.13-7.63,6.13s-7.66-2.75-7.66-6.13S32,32.2,36.25,32.2a9.07,9.07,0,0,1,4.57,1.25V17.51Z"/><rect class="cls-2" x="-6.93" y="21.79" width="64.59" height="7.15" transform="translate(-10.51 25.36) rotate(-45)"/></svg>