<svg id="Layer_1" data-name="Layer 1" xmlns="http://www.w3.org/2000/svg" width="52.05" height="51.69" viewBox="0 0 52.05 51.69"><defs><style>.cls-1{fill:#e3dbc6;}</style></defs><path class="cls-1" d="M50.4,1.26A1.8,1.8,0,0,0,49,.81L16.86,4.39a1.78,1.78,0,0,0-1.59,1.77V38a10.43,10.43,0,0,0-5.36-1.46C5,36.54,1,39.74,1,43.68s4,7.15,8.94,7.15,8.93-3.2,8.93-7.15v-27l28.59-3.19V34.43A10.35,10.35,0,0,0,42.07,33c-4.93,0-8.94,3.21-8.94,7.15s4,7.15,8.94,7.15S51,44.05,51,40.11V2.59A1.78,1.78,0,0,0,50.4,1.26Z"/></svg>