<svg id="Layer_1" data-name="Layer 1" xmlns="http://www.w3.org/2000/svg" width="54.74" height="54.74" viewBox="0 0 54.74 54.74"><defs><style>.cls-1{fill:#4f89ae;}</style></defs><path class="cls-1" d="M12.22,34.93,2.09,45.07A6,6,0,0,1,0,40.68c0-3.64,3.7-6.6,8.26-6.6A9.34,9.34,0,0,1,12.22,34.93Z"/><path class="cls-1" d="M12.06,50.89l5.55-5.57C17.27,48,15.11,50.08,12.06,50.89Z"/><path class="cls-1" d="M33.25,13.9,16.51,15.77V30.64l-3.3,3.3V6a1.64,1.64,0,0,1,1.47-1.64L44.37,1.08a1.66,1.66,0,0,1,1.28.41Z"/><path class="cls-1" d="M47.35,15.6V41.35C47.35,45,43.66,48,39.12,48s-8.27-3-8.27-6.62,3.68-6.6,8.27-6.6a9.75,9.75,0,0,1,4.93,1.35V18.9Z"/><rect class="cls-1" x="-7.48" y="23.51" width="69.7" height="7.72" transform="translate(-11.34 27.37) rotate(-45)"/></svg>