<svg id="Layer_1" data-name="Layer 1" xmlns="http://www.w3.org/2000/svg" width="70.3" height="62.37" viewBox="0 0 70.3 62.37"><defs><style>.cls-1{fill:#e3dbc6;}</style></defs><path class="cls-1" d="M20,38.74,9.87,48.88a6,6,0,0,1-2.09-4.39c0-3.64,3.7-6.6,8.26-6.6A9.62,9.62,0,0,1,20,38.74Z"/><path class="cls-1" d="M19.84,54.7l5.55-5.57C25.05,51.81,22.89,53.89,19.84,54.7Z"/><path class="cls-1" d="M41,17.71,24.29,19.58V34.45L21,37.75V9.81a1.65,1.65,0,0,1,1.47-1.64L52.15,4.89a1.7,1.7,0,0,1,1.28.41Z"/><path class="cls-1" d="M55.13,19.41V45.16c0,3.65-3.69,6.65-8.23,6.65s-8.27-3-8.27-6.62,3.68-6.59,8.27-6.59a9.68,9.68,0,0,1,4.93,1.34V22.71Z"/><rect class="cls-1" x="0.3" y="27.32" width="69.7" height="7.72" transform="translate(-11.76 33.99) rotate(-45)"/></svg>