<svg id="Layer_1" data-name="Layer 1" xmlns="http://www.w3.org/2000/svg" width="72.85" height="295.65" viewBox="0 0 72.85 295.65"><defs><style>.cls-1{fill:none;stroke:#000;stroke-miterlimit:10;stroke-width:2px;}</style></defs><rect class="cls-1" x="-92.71" y="130.38" width="258.84" height="54.93" rx="13.61" transform="translate(-121.13 194.55) rotate(-90)"/><path d="M20.05,10c.36-.22.55-.38.55-.46s-.15-.14-.45-.16-.87,0-1.7,0H16.59v6.62a12.29,12.29,0,0,1,1.72,2.62A5.36,5.36,0,0,1,19,20.81a1.48,1.48,0,0,1-.33,1,1.24,1.24,0,0,1-1,.41h-5.4v-.29a1.32,1.32,0,0,0,.7-.23.71.71,0,0,0,.34-.61V13.24a27.73,27.73,0,0,0-2.48-1.65,14.46,14.46,0,0,1-1.68-1.12,1.41,1.41,0,0,1-.6-.87,1.38,1.38,0,0,1,0-.25C8.49,8.6,9,8,10,7.53a11.92,11.92,0,0,1,4.53-.79l1.55,0a18.54,18.54,0,0,1,4.1.35,2.84,2.84,0,0,1,1.84,1,2.55,2.55,0,0,1,.3,1.38A10.71,10.71,0,0,1,22,11.82l-.06.41L18.86,10.9C19.13,10.66,19.52,10.35,20.05,10Zm-8.14-.71-1.33,0a6,6,0,0,0-1.12.07c-.23,0-.34.14-.34.26s.29.54.87,1,1.68,1.25,3.28,2.36V9.29C12.92,9.29,12.47,9.28,11.91,9.25Zm6.77,11.52a4.61,4.61,0,0,0-.56-1.93,13.09,13.09,0,0,0-1.53-2.37V21.1a.7.7,0,0,0,.33.61,1.21,1.21,0,0,0,.69.23A1,1,0,0,0,18.68,20.77Z"/><path d="M30.31,21.71a1.29,1.29,0,0,0,.7.23v.29h-5.4v-.29a1.32,1.32,0,0,0,.7-.23.71.71,0,0,0,.34-.61V10c0-.71,0-1.2,0-1.46a.92.92,0,0,0-.19-.56,1.14,1.14,0,0,0-.57-.22L29.3,6.6a.88.88,0,0,1,.54.72A7,7,0,0,1,30,8.85V21.1A.69.69,0,0,0,30.31,21.71Z"/><path d="M49.52,21.71a1.27,1.27,0,0,0,.7.23v.29H44.81v-.29a1.27,1.27,0,0,0,.7-.23.69.69,0,0,0,.34-.61V10.94c0-.13,0-.32,0-.6s0-.5,0-.69A3.57,3.57,0,0,1,44.6,11,9.72,9.72,0,0,0,42.49,13a3.51,3.51,0,0,0-.81,2.17,3.31,3.31,0,0,0,.92,2.2,3.85,3.85,0,0,1,.92,2.56,4.2,4.2,0,0,1-.19,1.25,2.76,2.76,0,0,1-.5.92.87.87,0,0,1-.63.36c-.24,0-.46-.17-.67-.52A6.11,6.11,0,0,1,41,20c-.15-.83-.3-1.94-.45-3.35s-.33-2.77-.49-3.77a12.34,12.34,0,0,0-.71-2.64,2.42,2.42,0,0,0-1.2-1.44V21.1a.69.69,0,0,0,.34.61,1.29,1.29,0,0,0,.7.23v.29h-5.4v-.29a1.29,1.29,0,0,0,.7-.23.69.69,0,0,0,.34-.61V8.75a.71.71,0,0,0-.34-.61,1.29,1.29,0,0,0-.7-.23V7.62h4.36a2.3,2.3,0,0,1,2.16,1.66,18.15,18.15,0,0,1,1.07,4.62,9.69,9.69,0,0,1,3.14-3.4,4,4,0,0,0,1.46-1.92c.09-.53.29-.85.58-1L50,8.75a1,1,0,0,0-.57.22.89.89,0,0,0-.19.55c0,.26,0,.75,0,1.46V21.1A.7.7,0,0,0,49.52,21.71Zm-6.74-1a2.77,2.77,0,0,0,.15-.94,3.2,3.2,0,0,0-.21-1.11,3.36,3.36,0,0,0-.62-1,6.5,6.5,0,0,1-.42-.5c.11,1,.22,1.82.33,2.47a9.3,9.3,0,0,0,.42,1.66A1.06,1.06,0,0,0,42.78,20.69Z"/><path d="M63.24,19.77a3.12,3.12,0,0,1,1.63.44l-1.69,1.48a1.66,1.66,0,0,0-.74-.36,2.1,2.1,0,0,0-.68,0c-.21,0-.64.12-1.3.27-1,.23-1.85.4-2.6.53a13.42,13.42,0,0,1-2.09.18c-1.05,0-1.7-.22-2-.66a1.34,1.34,0,0,1-.2-.62c0-.23,0-.48,0-.76V8.75a.72.72,0,0,0-.35-.61,1.27,1.27,0,0,0-.7-.23V7.62H56.9A12.13,12.13,0,0,1,59.59,8a9.09,9.09,0,0,0,1.75.27,2.55,2.55,0,0,0,1.71-.65l1.82,1.65a5.1,5.1,0,0,1-2.26.5,6,6,0,0,1-1.85-.28,14.73,14.73,0,0,1-1.9-.76L58,8.38a1.87,1.87,0,0,0-.62-.15c-.28,0-.45.17-.5.52v6a5.46,5.46,0,0,1,2-1.1,7.91,7.91,0,0,1,2.54-.42,5,5,0,0,1,2.76.71l-1.4,1.41a3.45,3.45,0,0,0-1.42-.62,8.53,8.53,0,0,0-2.11-.25,5.65,5.65,0,0,0-2.35.42v4.67a3,3,0,0,0,.34,1.61,1.07,1.07,0,0,0,.95.54,2.57,2.57,0,0,0,1.34-.5A6.88,6.88,0,0,1,63.24,19.77Z"/><rect class="cls-1" x="4.26" y="3.63" width="64.89" height="287.25"/></svg>