<svg id="Layer_1" data-name="Layer 1" xmlns="http://www.w3.org/2000/svg" width="289.51" height="67.46" viewBox="0 0 289.51 67.46"><defs><style>.cls-1,.cls-2{fill:none;stroke:#000;stroke-miterlimit:10;}.cls-2{stroke-width:2px;}</style></defs><path d="M70.5,15.58a9.72,9.72,0,0,0-6.07,2.09,13.78,13.78,0,0,0-3.54,4.27,13.83,13.83,0,0,0-3.55-4.27,9.71,9.71,0,0,0-6.06-2.09c-6.21,0-10.89,5.08-10.89,11.81,0,7.27,5.84,12.25,14.68,19.79,1.5,1.28,3.21,2.73,5,4.27a1.28,1.28,0,0,0,.85.32,1.24,1.24,0,0,0,.84-.32c1.77-1.54,3.47-3,5-4.27,8.85-7.54,14.69-12.52,14.69-19.79C81.39,20.66,76.7,15.58,70.5,15.58Z"/><path class="cls-1" d="M238.48,15.58a9.71,9.71,0,0,0-6.06,2.09,14,14,0,0,0-3.55,4.27,13.78,13.78,0,0,0-3.54-4.27,9.72,9.72,0,0,0-6.07-2.09c-6.2,0-10.89,5.08-10.89,11.81,0,7.27,5.85,12.25,14.69,19.79,1.5,1.28,3.2,2.73,5,4.27a1.24,1.24,0,0,0,.84.32,1.28,1.28,0,0,0,.85-.32c1.77-1.54,3.47-3,5-4.27,8.84-7.54,14.68-12.52,14.68-19.79C249.37,20.66,244.69,15.58,238.48,15.58Z"/><rect class="cls-1" x="5.63" y="6.24" width="279.13" height="54.86" rx="13.61" transform="translate(290.38 67.35) rotate(180)"/><rect class="cls-2" x="112.51" y="-109.78" width="64.82" height="286.91" transform="translate(111.25 178.59) rotate(-90)"/><path class="cls-1" d="M154.68,15.58a9.72,9.72,0,0,0-6.07,2.09,13.78,13.78,0,0,0-3.54,4.27,14,14,0,0,0-3.55-4.27,9.71,9.71,0,0,0-6.06-2.09c-6.21,0-10.89,5.08-10.89,11.81,0,7.27,5.84,12.25,14.68,19.79,1.5,1.28,3.2,2.73,5,4.27a1.28,1.28,0,0,0,.85.32,1.24,1.24,0,0,0,.84-.32c1.77-1.54,3.47-3,5-4.27,8.84-7.54,14.68-12.52,14.68-19.79C165.56,20.66,160.88,15.58,154.68,15.58Z"/></svg>