<svg id="Layer_1" data-name="Layer 1" xmlns="http://www.w3.org/2000/svg" width="224.67" height="88.25" viewBox="0 0 224.67 88.25"><defs><style>.cls-1{fill:#4d89ae;}.cls-2{fill:#fcd7a2;}.cls-3{fill:none;stroke:#fcd7a2;stroke-miterlimit:10;stroke-width:0.5px;}</style></defs><rect class="cls-1" width="224.67" height="88.25"/><path class="cls-2" d="M60.36,40.49a8.64,8.64,0,0,1,1.35-2.88l-.61,1.48a12.76,12.76,0,0,0-.66,4.07,22.68,22.68,0,0,0,2.18,8.92,15.9,15.9,0,0,1,1.52,5.84,3.18,3.18,0,0,1-.41,1.71,1.47,1.47,0,0,1-1.32.63H51.76v-.57a2.46,2.46,0,0,0,1.38-.45,1.4,1.4,0,0,0,.68-1.2V38.1c0-1.39,0-2.35-.06-2.87a1.74,1.74,0,0,0-.37-1.09,2.11,2.11,0,0,0-1.13-.44L59,31.48a1.75,1.75,0,0,1,1.07,1.42,15.07,15.07,0,0,1,.25,3v4.57Zm0,6.95V58a1.41,1.41,0,0,0,.65,1.2,2.4,2.4,0,0,0,1.36.45.85.85,0,0,0,.8-.54,3.18,3.18,0,0,0,.27-1.44,10.17,10.17,0,0,0-.37-2.54,15.39,15.39,0,0,0-1-2.68A22.89,22.89,0,0,1,60.36,47.44Zm4.56-13.78A7.16,7.16,0,0,1,69,32.35a6.63,6.63,0,0,1,1.77.24A7,7,0,0,0,68.83,34q-4.9.49-7.12,3.62A9.84,9.84,0,0,1,64.92,33.66ZM82.46,48.14a10.56,10.56,0,0,1-3.69,4.19A10.08,10.08,0,0,1,73.84,54c-.35,0-.88.05-1.56.05-3.1,0-5.45-.68-7-2a7.56,7.56,0,0,1-2.69-5.43l5,2.06A3.74,3.74,0,0,0,67,50.44a2.32,2.32,0,0,0,.74,1.77,3.42,3.42,0,0,0,2.38.69,4.85,4.85,0,0,0,3.31-1.45A10.66,10.66,0,0,0,76,47.56a13.57,13.57,0,0,0,1-5.18,11.22,11.22,0,0,0-1.79-6.5,7.79,7.79,0,0,0-4.46-3.29,8.33,8.33,0,0,1,3.58-.82,9.51,9.51,0,0,1,8.12,4.67,10.25,10.25,0,0,1,1.37,5.36A13.93,13.93,0,0,1,82.46,48.14Z"/><path class="cls-2" d="M110.8,49l-.08,2c-.08,2.28-.14,3.69-.16,4.24a4.21,4.21,0,0,1-2.88,4.07,19.62,19.62,0,0,1-6.5.94h-12v-.57a2.51,2.51,0,0,0,1.38-.45,1.39,1.39,0,0,0,.67-1.2V38.1c0-1.39,0-2.35-.06-2.87a1.68,1.68,0,0,0-.37-1.09,2,2,0,0,0-1.13-.44l6.79-2.22a1.79,1.79,0,0,1,1.07,1.42,15.18,15.18,0,0,1,.24,3V58a1.4,1.4,0,0,0,.66,1.2,2.38,2.38,0,0,0,1.36.45,12.44,12.44,0,0,0,3-.33,2.09,2.09,0,0,0,1.35-1.09,6.23,6.23,0,0,0,.39-2.57c0-.79-.06-2.08-.2-3.86Z"/><path class="cls-2" d="M148.37,58.82a3.29,3.29,0,0,0,1.4.33l-.08.58H139l.08-.58a2.82,2.82,0,0,0,1.11-.2.75.75,0,0,0,.5-.74,2.2,2.2,0,0,0-.09-.41l-8-24.3A18.91,18.91,0,0,1,131,37.32a46.41,46.41,0,0,1-3,5.06c-1,1.53-1.83,2.67-2.38,3.41q-3.33,4.82-4.87,7.4a11.11,11.11,0,0,0-1.71,4.32,3.18,3.18,0,0,0,.1,1.4.62.62,0,0,0,.6.45,1.65,1.65,0,0,0,1.09-.62,5.09,5.09,0,0,0,1-1.6,5.2,5.2,0,0,0,.42-2.06V53.77a10.13,10.13,0,0,1,.1-1.61,2.78,2.78,0,0,1,.35-1,3.6,3.6,0,0,1,3.37-1.9,7.5,7.5,0,0,1,1.95.27c.67.18,1.52.43,2.53.76s1.67.53,2.2.68a5.59,5.59,0,0,0,1.5.23,2,2,0,0,0,1.4-.46l3.12,2.92a8.21,8.21,0,0,1-2.46.46,5.31,5.31,0,0,1-2.45-.6,12.34,12.34,0,0,1-2.61-1.91,3.56,3.56,0,0,0-1.6-1q-.58,0-.72,1a27.1,27.1,0,0,0-.15,3.49,5.37,5.37,0,0,1-1,3,6.37,6.37,0,0,1-2.43,2,7,7,0,0,1-3,.68,5.27,5.27,0,0,1-3.48-1.19,4.29,4.29,0,0,1-1.41-3.46,7.26,7.26,0,0,1,.12-1.31,9.71,9.71,0,0,1,1.79-4.09,53.28,53.28,0,0,1,4.09-4.84c.16-.16.68-.72,1.54-1.68s1.64-1.89,2.32-2.8a54.88,54.88,0,0,0,3.33-5.3,14,14,0,0,0,1.57-3.54,2.13,2.13,0,0,0-1.85-1.06l.08-.58H141.1l-.09.58a2.28,2.28,0,0,0-1.35.43,1.15,1.15,0,0,0-.46,1.25l8.23,24.59A1.72,1.72,0,0,0,148.37,58.82Z"/><path class="cls-2" d="M175.21,41a25.06,25.06,0,0,1-3,6.48A8.66,8.66,0,0,1,169,50.64V58a1.4,1.4,0,0,0,.68,1.2,2.46,2.46,0,0,0,1.38.45v.57H160.39v-.57a2.46,2.46,0,0,0,1.37-.45,1.38,1.38,0,0,0,.68-1.2V50.68l-9.54-17a5.16,5.16,0,0,0-.88-1.19,1.7,1.7,0,0,0-1.21-.41l.08-.58h10.65l-.08.58a2.29,2.29,0,0,0-1.36.43,1.14,1.14,0,0,0-.45,1.26l7.56,13.6c.58,1,1.19,1.53,1.85,1.53a2.3,2.3,0,0,0,1.75-1.16,10.75,10.75,0,0,0,1.46-3,18.14,18.14,0,0,0,.82-3.74,17.46,17.46,0,0,0,.21-2.47,9.71,9.71,0,0,0-1-4.6,4.66,4.66,0,0,0-2.9-2.43l5.72-3.16a4.64,4.64,0,0,1,1,1.75,9.41,9.41,0,0,1,.33,2.81A26.42,26.42,0,0,1,175.21,41Z"/><path class="cls-2" d="M25.88,41a4.2,4.2,0,1,0,4.19,4.2A4.2,4.2,0,0,0,25.88,41Zm2.21,6.41A3.13,3.13,0,1,1,29,45.18,3.11,3.11,0,0,1,28.09,47.39Z"/><path class="cls-2" d="M198.51,39.93a4.2,4.2,0,1,0,4.2,4.19A4.2,4.2,0,0,0,198.51,39.93Zm2.22,6.41a3.13,3.13,0,1,1,.92-2.22A3.12,3.12,0,0,1,200.73,46.34Z"/><path class="cls-2" d="M12.33,9.29V81.06h200V9.29ZM210.68,80.46H14V9.89H210.68Z"/><rect class="cls-3" x="19.27" y="13.71" width="186.26" height="63.12" rx="13.61"/></svg>