<svg id="Layer_1" data-name="Layer 1" xmlns="http://www.w3.org/2000/svg" width="420.66" height="104.31" viewBox="0 0 420.66 104.31"><defs><style>.cls-1,.cls-3{fill:none;stroke:#fff;stroke-miterlimit:10;}.cls-1{stroke-width:3px;}.cls-2{fill:#fff;}.cls-3{stroke-width:7px;}</style></defs><rect class="cls-1" x="18.5" y="19.63" width="382.11" height="66.9" rx="13.61"/><path class="cls-2" d="M63.4,53.39a10,10,0,0,1-3.47,3.94A10.16,10.16,0,0,1,55.23,59c-.93.08-1.79.12-2.57.12q-5.19,0-7.7-2A7,7,0,0,1,42.17,52l5.73,2.18a3.09,3.09,0,0,0-.76,1,2.46,2.46,0,0,0-.29,1.09,1.55,1.55,0,0,0,.6,1.27,3.05,3.05,0,0,0,1.93.48,4.55,4.55,0,0,0,3.15-1.4A10,10,0,0,0,55,52.88,12.88,12.88,0,0,0,55.91,48a11.26,11.26,0,0,0-1.08-5.07A8.43,8.43,0,0,0,52,39.6a6.78,6.78,0,0,0-3.73-1.15A6.86,6.86,0,0,0,44,40.07a10.6,10.6,0,0,0-3.14,4.78,12.37,12.37,0,0,0-.62,3.86,21.6,21.6,0,0,0,2.06,8.51,15,15,0,0,1,1.44,5.54,3,3,0,0,1-.39,1.62,1.36,1.36,0,0,1-1.25.61H29.61v-.55A2.21,2.21,0,0,0,30.92,64a1.3,1.3,0,0,0,.61-1.18V43.91q0-2-.06-2.73a1.6,1.6,0,0,0-.35-1,2.07,2.07,0,0,0-1.07-.41l8.77-2.1a1.68,1.68,0,0,1,1,1.34,14.56,14.56,0,0,1,.23,2.87v2.53a9.91,9.91,0,0,1,4-5.48,14,14,0,0,1,8-2h1.45a14.08,14.08,0,0,1,5.2,1.41,11.34,11.34,0,0,1,4.29,3.57,9.08,9.08,0,0,1,1.7,5.51A12.8,12.8,0,0,1,63.4,53.39Zm-23.3-.51v10A1.31,1.31,0,0,0,40.73,64a2.12,2.12,0,0,0,1.28.43.79.79,0,0,0,.76-.51A3,3,0,0,0,43,62.57a10.48,10.48,0,0,0-.35-2.42,16.31,16.31,0,0,0-.9-2.54A24.4,24.4,0,0,1,40.1,52.88Z"/><path class="cls-2" d="M73.13,44.11a12.6,12.6,0,0,1,4.72-4.78,13,13,0,0,1,6.48-1.69l4,.93a5.79,5.79,0,0,0-3.93,1.65,11.74,11.74,0,0,0-2.87,4.59,17.8,17.8,0,0,0-1.14,6.41,48.5,48.5,0,0,0,.45,7.23,9,9,0,0,0,1.69,4.3A4.13,4.13,0,0,0,86,64.27a4,4,0,0,0,3.38-1.52A9.16,9.16,0,0,0,91,58.44a51.15,51.15,0,0,0,.39-7.22A56.91,56.91,0,0,0,91,44.57c-.26-2.17-.65-3.26-1.17-3.26s-.89.93-1.41,2.77L82.69,45.8a9.52,9.52,0,0,1,3.06-5,7.38,7.38,0,0,1,4.7-1.69,8.49,8.49,0,0,1,4.68,1.46,10.84,10.84,0,0,1,3.63,4.23,14.24,14.24,0,0,1,1.4,6.48,12.42,12.42,0,0,1-2.09,7,14.59,14.59,0,0,1-5.38,4.91A14.3,14.3,0,0,1,86,65a14.8,14.8,0,0,1-7-1.67,14.15,14.15,0,0,1-5.44-4.86,12.58,12.58,0,0,1-2.09-7.25A14.14,14.14,0,0,1,73.13,44.11Z"/><path class="cls-2" d="M116.4,64a2.21,2.21,0,0,0,1.31.43v.55H105.27v-.55a2.21,2.21,0,0,0,1.31-.43,1.29,1.29,0,0,0,.64-1.13V42q0-2-.06-2.73a1.6,1.6,0,0,0-.35-1,2,2,0,0,0-1.07-.41l8.79-2.14a1.71,1.71,0,0,1,1,1.35,14.56,14.56,0,0,1,.23,2.87V62.83A1.29,1.29,0,0,0,116.4,64Z"/><path class="cls-2" d="M123.72,61.56a23.5,23.5,0,0,0,.46-4.89q.12-3.75.12-13.34v-4.6c0-.25,0-.5,0-.76a.42.42,0,0,1,.2-.33h12.63v.58a2.07,2.07,0,0,0-1,.29.94.94,0,0,0-.49.84,1.45,1.45,0,0,0,.08.47Q138.6,45.4,144.46,57q1.44,2.88,2.32,4.58A12.18,12.18,0,0,0,148,63.63a2.24,2.24,0,0,0,.83.6c0-1.66,0-3.23-.11-4.71a52.3,52.3,0,0,0-.9-8.27c-.49-2.45-1.14-5.07-1.95-7.88-.26-.94-.49-1.81-.68-2.61a8.48,8.48,0,0,1-.3-1.88,1.15,1.15,0,0,1,.67-1.2l6,2.1a1.56,1.56,0,0,0-1.28,1.27,23,23,0,0,0-.47,4.89q-.12,3.75-.12,13.34v4.6a3.73,3.73,0,0,1-.06.82.33.33,0,0,1-.25.28h-12.6v-.55a1.94,1.94,0,0,0,1.17-.35.93.93,0,0,0,.35-1L126.53,39.7a2.9,2.9,0,0,0-1.36-1.32c0,1.66,0,3.23.12,4.72a50.78,50.78,0,0,0,.89,8.26c.5,2.45,1.15,5.07,1.95,7.88q.39,1.41.69,2.61a9.3,9.3,0,0,1,.29,1.88,1.16,1.16,0,0,1-.66,1.21l-6-2.11A1.56,1.56,0,0,0,123.72,61.56Z"/><path class="cls-2" d="M179,42.59l.84-.27c.37-.13.65-.24.82-.32s.25-.14.25-.19c0-.29-2.39-.44-7.18-.47v14a27.49,27.49,0,0,1,2.91,4.27A7.64,7.64,0,0,1,177.73,63c0,1.22-.67,1.87-2,2H163.26v-.55a2.21,2.21,0,0,0,1.31-.43,1.29,1.29,0,0,0,.64-1.13V48.13q-2.27-1.65-4.68-3.08A28.53,28.53,0,0,1,157.39,43a2.65,2.65,0,0,1-1.11-1.62,2.81,2.81,0,0,1,0-.58q0-2.31,2.75-4c1.83-1.11,4.82-1.74,8.95-1.89,1-.06,2.43-.08,4.25-.08q10.72,0,12.48,2.81a3.69,3.69,0,0,1,.39,1.87,20.63,20.63,0,0,1-1.17,5.77,7.21,7.21,0,0,0-.23,1l-8-2.49A26.11,26.11,0,0,1,179,42.59ZM162.4,41q-2-.12-3.15-.12a6.48,6.48,0,0,0-1.39.12q-.45.12-.45.39c0,.31.52.86,1.54,1.66s3.12,2.28,6.26,4.46V41.22L162.4,41Zm14.86,21.88a6.29,6.29,0,0,0-.93-2.81,25.89,25.89,0,0,0-2.58-3.74v6.47a1.31,1.31,0,0,0,.63,1.13,2.12,2.12,0,0,0,1.28.43c1.07-.08,1.6-.57,1.6-1.48Z"/><path class="cls-2" d="M203.37,45.57c.8.48,1.84,1.06,3.14,1.74q2.79,1.45,5.42,3.16a13.89,13.89,0,0,1,3.6,3.53,8.22,8.22,0,0,1,1.52,4.93,4.3,4.3,0,0,1-2.4,4.07,13.92,13.92,0,0,1-5.53,1.62c-2.1.21-4.61.32-7.55.32a12,12,0,0,1-4.43-.78,10.29,10.29,0,0,1-3.76-2.66V58a4.81,4.81,0,0,1,1.4-3.49,5.32,5.32,0,0,1,3.89-1.32,15.93,15.93,0,0,1,7,2l-9,1.91a1.64,1.64,0,0,0-.57-.63,1.58,1.58,0,0,0-.84-.27,1.12,1.12,0,0,0-.89.45,2.41,2.41,0,0,0-.4,1.42,4.79,4.79,0,0,0,1.08,2.44A9.1,9.1,0,0,0,197.76,63a6.6,6.6,0,0,0,3.59,1,10,10,0,0,0,3.74-.64,5.71,5.71,0,0,0,2.44-1.76,3.86,3.86,0,0,0,.86-2.44,4.68,4.68,0,0,0-1-3,9.16,9.16,0,0,0-2.5-2.18c-1-.6-2.31-1.31-4-2.15s-2.83-1.42-3.8-2a11.37,11.37,0,0,1-2.58-2,5.09,5.09,0,0,1-1.38-2.69,8.71,8.71,0,0,1-.16-1.36,5.49,5.49,0,0,1,2.83-4.86,14.14,14.14,0,0,1,7.51-1.7,28.89,28.89,0,0,1,5,.47c3.95.72,6.68,1.74,8.19,3l-9.32,2a3.08,3.08,0,0,0,.54-1.8,2.32,2.32,0,0,0-.7-1.73,3.07,3.07,0,0,0-2.18-.68,6.07,6.07,0,0,0-3.55.85,2.64,2.64,0,0,0-1.17,2.19,3.17,3.17,0,0,0,.33,1.36,4.22,4.22,0,0,0,1,1.29A12.24,12.24,0,0,0,203.37,45.57Z"/><path class="cls-2" d="M222.19,47.07,226,43.22,229.83,47,226,50.87Zm0,15.21L226,58.46l3.82,3.82L226,66.11Z"/><rect class="cls-3" x="9.18" y="8.06" width="401.64" height="88.89"/></svg>