<svg id="Layer_1" data-name="Layer 1" xmlns="http://www.w3.org/2000/svg" width="289.38" height="68.5" viewBox="0 0 289.38 68.5"><defs><style>.cls-1,.cls-3{fill:none;stroke:#e3dbc7;stroke-miterlimit:10;}.cls-1{stroke-width:0.5px;}.cls-2{fill:#e3dbc7;}</style></defs><rect class="cls-1" x="6.26" y="7.02" width="277.69" height="54.58" rx="13.61" transform="translate(290.2 68.62) rotate(180)"/><path class="cls-2" d="M27.73,30.83a5,5,0,0,1,.83-1.76l-.38.9a7.84,7.84,0,0,0-.4,2.5,14,14,0,0,0,1.33,5.46A9.73,9.73,0,0,1,30,41.51a1.86,1.86,0,0,1-.25,1,.9.9,0,0,1-.81.39H22.46v-.35a1.49,1.49,0,0,0,.85-.28.84.84,0,0,0,.41-.73V29.37c0-.86,0-1.44,0-1.76a1.05,1.05,0,0,0-.22-.67,1.24,1.24,0,0,0-.7-.27l4.16-1.36a1.08,1.08,0,0,1,.65.87A9.06,9.06,0,0,1,27.73,28v2.8Zm0,4.26v6.49a.83.83,0,0,0,.4.73,1.41,1.41,0,0,0,.83.28.52.52,0,0,0,.49-.33,2,2,0,0,0,.16-.88,6.4,6.4,0,0,0-.22-1.56,9.89,9.89,0,0,0-.58-1.64A13.43,13.43,0,0,1,27.73,35.09Zm2.79-8.44A4.34,4.34,0,0,1,33,25.84,4,4,0,0,1,34.1,26a4.55,4.55,0,0,0-1.19.86,5.7,5.7,0,0,0-4.35,2.22A6,6,0,0,1,30.52,26.65Zm10.74,8.86A6.37,6.37,0,0,1,39,38.08a6.21,6.21,0,0,1-3,1q-.33,0-1,0a6.58,6.58,0,0,1-4.32-1.24,4.66,4.66,0,0,1-1.65-3.32l3.05,1.26a2.32,2.32,0,0,0-.3,1.11A1.44,1.44,0,0,0,32.26,38a2.1,2.1,0,0,0,1.46.43,3,3,0,0,0,2-.9,6.5,6.5,0,0,0,1.57-2.38A8.4,8.4,0,0,0,37.93,32a6.84,6.84,0,0,0-1.1-4,4.76,4.76,0,0,0-2.73-2,5.08,5.08,0,0,1,2.19-.5,5.82,5.82,0,0,1,5,2.86,6.18,6.18,0,0,1,.85,3.29A8.33,8.33,0,0,1,41.26,35.51Z"/><path class="cls-2" d="M47.54,29.5a8.16,8.16,0,0,1,3.05-3.09,8.29,8.29,0,0,1,4.18-1.1l1.09.61A3.73,3.73,0,0,0,53.31,27,7.52,7.52,0,0,0,51.42,30a11.5,11.5,0,0,0-.7,4.1,14.72,14.72,0,0,0,1.07,6.26,3.47,3.47,0,0,0,6.46,0,14.9,14.9,0,0,0,1.06-6.26,21.22,21.22,0,0,0-.24-3.22,10.16,10.16,0,0,0-.67-2.54c-.29-.66-.6-1-1-1s-1,.67-1.48,2L52.28,30.4a7.33,7.33,0,0,1,2.18-3.23,4.56,4.56,0,0,1,2.91-1.07,5,5,0,0,1,2.94,1A7.27,7.27,0,0,1,62.61,30a9.57,9.57,0,0,1,.88,4.15,8.9,8.9,0,0,1-1.17,4.56,8.47,8.47,0,0,1-3.11,3.15A8.35,8.35,0,0,1,55,43a8.55,8.55,0,0,1-4.34-1.07,8.06,8.06,0,0,1-3.12-3.12,9.31,9.31,0,0,1-1.16-4.68A9.17,9.17,0,0,1,47.54,29.5Z"/><path class="cls-2" d="M72.47,42.31a1.43,1.43,0,0,0,.84.28v.35H66.79v-.35a1.48,1.48,0,0,0,.84-.28.83.83,0,0,0,.42-.73V28.14c0-.86,0-1.45,0-1.77a1.08,1.08,0,0,0-.23-.67,1.29,1.29,0,0,0-.69-.26l4.16-1.36a1.08,1.08,0,0,1,.65.87,9.09,9.09,0,0,1,.15,1.85V41.58A.83.83,0,0,0,72.47,42.31Z"/><path class="cls-2" d="M77.19,40.77a15.41,15.41,0,0,0,.3-3.17q.08-2.41.08-8.61l0-2.16c0-.22,0-.49,0-.81s0-.38,0-.49a.29.29,0,0,1,.13-.22h6.67v.36a1.26,1.26,0,0,0-.67.19.58.58,0,0,0-.31.54.85.85,0,0,0,0,.3q1.86,3.6,5.64,11.08c.62,1.24,1.12,2.23,1.5,3a9.23,9.23,0,0,0,.78,1.34,1.57,1.57,0,0,0,.54.39c0-1.08,0-2.09-.07-3a48.69,48.69,0,0,0-.43-5c-.22-1.53-.5-3.1-.83-4.71-.14-.67-.25-1.3-.34-1.87a9.66,9.66,0,0,1-.14-1.38c0-.62.17-1,.5-1.11l3.1,1.36a1,1,0,0,0-.83.82,15.37,15.37,0,0,0-.3,3.16q-.07,2.43-.08,8.62l0,2.19c0,.2,0,.46,0,.78a2.2,2.2,0,0,1,0,.53.19.19,0,0,1-.16.17H85.68v-.35a1.3,1.3,0,0,0,.75-.22.61.61,0,0,0,.23-.69L79,26.65a1.92,1.92,0,0,0-.88-.86c0,1.08,0,2.09.07,3.05a48.69,48.69,0,0,0,.43,5c.22,1.53.5,3.1.83,4.71.14.67.25,1.29.34,1.87A9.66,9.66,0,0,1,80,41.84c0,.62-.17,1-.5,1.1l-3.1-1.36A1,1,0,0,0,77.19,40.77Z"/><path class="cls-2" d="M110.66,28.14c.44-.27.65-.46.65-.56s-.18-.16-.54-.19-1,0-2,0h-2.24v8a15.49,15.49,0,0,1,2.08,3.16,6.59,6.59,0,0,1,.76,2.73,1.82,1.82,0,0,1-.39,1.22,1.5,1.5,0,0,1-1.19.49h-6.53v-.35a1.49,1.49,0,0,0,.85-.28.82.82,0,0,0,.41-.73V32.09a35.6,35.6,0,0,0-3-2,17.5,17.5,0,0,1-2-1.35,1.71,1.71,0,0,1-.72-1,1.24,1.24,0,0,1,0-.3c0-.91.59-1.65,1.79-2.21a14.27,14.27,0,0,1,5.46-.94q.66,0,1.86,0a22.21,22.21,0,0,1,5,.42A3.44,3.44,0,0,1,113,25.87a3.08,3.08,0,0,1,.35,1.66,13,13,0,0,1-.37,2.85l-.08.5-3.68-1.61C109.54,29,110,28.61,110.66,28.14Zm-9.82-.86-1.61,0a7.09,7.09,0,0,0-1.35.09c-.28.06-.42.17-.42.32s.36.65,1.06,1.21,2,1.5,4,2.84V27.33C102.05,27.33,101.51,27.31,100.84,27.28ZM109,41.18a5.65,5.65,0,0,0-.67-2.33A16,16,0,0,0,106.48,36v5.59a.83.83,0,0,0,.4.73,1.43,1.43,0,0,0,.83.28A1.24,1.24,0,0,0,109,41.18Z"/><path class="cls-2" d="M123.4,30.77c.61.39,1.45.87,2.55,1.45a32.5,32.5,0,0,1,3.23,1.87,8.42,8.42,0,0,1,2.13,2.08,4.84,4.84,0,0,1,.88,2.9c0,1.42-.82,2.43-2.47,3a18.48,18.48,0,0,1-6,.86,7.69,7.69,0,0,1-2.85-.5,6.68,6.68,0,0,1-2.43-1.71V38.49a3.24,3.24,0,0,1,.83-2.26,3,3,0,0,1,2.36-.87A10.08,10.08,0,0,1,126,36.65l-4.29,1.23A1.87,1.87,0,0,0,121,37a1.61,1.61,0,0,0-.93-.32,1.26,1.26,0,0,0-1,.44,1.87,1.87,0,0,0-.36,1.33,2.86,2.86,0,0,0,.67,1.56,6,6,0,0,0,1.76,1.61,4.38,4.38,0,0,0,2.33.68,6.42,6.42,0,0,0,2.42-.42,3.64,3.64,0,0,0,1.58-1.13,2.52,2.52,0,0,0,.56-1.57,3,3,0,0,0-.66-1.92,6,6,0,0,0-1.61-1.41c-.64-.38-1.5-.85-2.59-1.38s-1.83-.92-2.46-1.29a7.39,7.39,0,0,1-1.66-1.31,3.33,3.33,0,0,1-.9-1.73,4.92,4.92,0,0,1-.07-.84,3.29,3.29,0,0,1,.78-2.15,5,5,0,0,1,2.23-1.47,10,10,0,0,1,3.41-.53,18.87,18.87,0,0,1,1.94.12,12.79,12.79,0,0,1,2.95.65,7,7,0,0,1,2.34,1.32l-4.51,1.26a1.94,1.94,0,0,0,.13-.66,2.06,2.06,0,0,0-.58-1.44,2.26,2.26,0,0,0-1.74-.62,4.42,4.42,0,0,0-2.62.65,2,2,0,0,0-.88,1.64A2.42,2.42,0,0,0,122,29.5,4.8,4.8,0,0,0,123.4,30.77Z"/><path class="cls-2" d="M135.89,31.51l2-2,2,2-2,2Zm0,9.92,2-2,2,2-2,2Z"/><rect class="cls-3" x="112.59" y="-108.4" width="64.48" height="285.43" transform="translate(110.52 179.14) rotate(-90)"/></svg>