<svg id="Layer_1" data-name="Layer 1" xmlns="http://www.w3.org/2000/svg" width="287.86" height="66.76" viewBox="0 0 287.86 66.76"><defs><style>.cls-1,.cls-2{fill:none;stroke:#000;stroke-miterlimit:10;}.cls-2{stroke-width:2px;}</style></defs><rect class="cls-1" x="5.3" y="6.17" width="277.69" height="54.58" rx="13.61" transform="translate(288.29 66.91) rotate(180)"/><path d="M26.77,30a5.36,5.36,0,0,1,.83-1.76l-.38.91a7.73,7.73,0,0,0-.4,2.49,14,14,0,0,0,1.34,5.47,9.68,9.68,0,0,1,.93,3.57,2,2,0,0,1-.25,1.05.9.9,0,0,1-.81.39H21.51v-.35a1.56,1.56,0,0,0,.84-.28.85.85,0,0,0,.42-.73V28.51c0-.85,0-1.44,0-1.76a1.08,1.08,0,0,0-.23-.67,1.29,1.29,0,0,0-.69-.26L26,24.46a1.07,1.07,0,0,1,.66.87,9.09,9.09,0,0,1,.15,1.85V30Zm0,4.26v6.5a.85.85,0,0,0,.4.73,1.5,1.5,0,0,0,.83.28.51.51,0,0,0,.49-.33,2,2,0,0,0,.17-.88A6.33,6.33,0,0,0,28.43,39a8.8,8.8,0,0,0-.58-1.64A14.52,14.52,0,0,1,26.77,34.23Zm2.8-8.44a4.38,4.38,0,0,1,2.49-.8,3.91,3.91,0,0,1,1.08.15A4.29,4.29,0,0,0,32,26a5.75,5.75,0,0,0-4.36,2.21A6,6,0,0,1,29.57,25.79Zm10.74,8.87a6.53,6.53,0,0,1-2.26,2.57,6.16,6.16,0,0,1-3,1q-.33,0-1,0A6.62,6.62,0,0,1,29.75,37a4.64,4.64,0,0,1-1.64-3.33l3,1.26a2.32,2.32,0,0,0-.3,1.11,1.41,1.41,0,0,0,.45,1.08,2.07,2.07,0,0,0,1.46.43,3,3,0,0,0,2-.89,6.61,6.61,0,0,0,1.58-2.38,8.41,8.41,0,0,0,.6-3.18,6.79,6.79,0,0,0-1.1-4,4.75,4.75,0,0,0-2.73-2,5,5,0,0,1,2.19-.5,5.84,5.84,0,0,1,5,2.85,6.29,6.29,0,0,1,.84,3.29A8.5,8.5,0,0,1,40.31,34.66Z"/><path d="M46.59,28.64a8.09,8.09,0,0,1,3-3.09,8.25,8.25,0,0,1,4.18-1.09l1.08.6a3.67,3.67,0,0,0-2.54,1.09,7.48,7.48,0,0,0-1.89,2.94,11.55,11.55,0,0,0-.71,4.11,14.75,14.75,0,0,0,1.07,6.26,3.45,3.45,0,0,0,3.24,2.2,3.41,3.41,0,0,0,3.22-2.2,14.77,14.77,0,0,0,1.06-6.26A21.35,21.35,0,0,0,58.11,30a10.78,10.78,0,0,0-.66-2.54c-.29-.65-.61-1-1-1s-1,.66-1.49,2l-3.68,1.11a7.48,7.48,0,0,1,2.18-3.24,4.61,4.61,0,0,1,2.91-1.07,5,5,0,0,1,3,1,7.29,7.29,0,0,1,2.29,2.84,9.48,9.48,0,0,1,.88,4.16,9,9,0,0,1-1.17,4.56A8.62,8.62,0,0,1,58.25,41a8.32,8.32,0,0,1-4.18,1.15A8.51,8.51,0,0,1,49.74,41a8.06,8.06,0,0,1-3.12-3.12,9.17,9.17,0,0,1-1.16-4.67A9.11,9.11,0,0,1,46.59,28.64Z"/><path d="M71.51,41.46a1.56,1.56,0,0,0,.84.28v.35H65.83v-.35a1.56,1.56,0,0,0,.85-.28.86.86,0,0,0,.41-.73V27.28c0-.86,0-1.44,0-1.76a1.08,1.08,0,0,0-.22-.67,1.32,1.32,0,0,0-.7-.27l4.16-1.36a1.08,1.08,0,0,1,.65.87,9.06,9.06,0,0,1,.16,1.85V40.73A.84.84,0,0,0,71.51,41.46Z"/><path d="M76.23,39.91a14.36,14.36,0,0,0,.31-3.16q.08-2.41.07-8.61l0-2.17q0-.33,0-.81a3,3,0,0,1,0-.49.25.25,0,0,1,.12-.21h6.68v.35a1.24,1.24,0,0,0-.67.19.61.61,0,0,0-.32.54.85.85,0,0,0,0,.3q1.88,3.61,5.65,11.09c.62,1.24,1.12,2.22,1.49,3a7.65,7.65,0,0,0,.79,1.34,1.57,1.57,0,0,0,.54.39c0-1.07,0-2.09-.08-3a48.25,48.25,0,0,0-.43-5c-.21-1.53-.49-3.1-.83-4.71-.13-.68-.25-1.3-.34-1.88a9.68,9.68,0,0,1-.14-1.37q0-.93.51-1.11l3.09,1.36c-.4.05-.67.32-.83.82a15.28,15.28,0,0,0-.3,3.16q-.07,2.42-.07,8.61l0,2.19q0,.3,0,.78a2.8,2.8,0,0,1,0,.53.23.23,0,0,1-.16.18H84.72v-.35a1.31,1.31,0,0,0,.76-.23.59.59,0,0,0,.22-.68l-7.63-15a1.9,1.9,0,0,0-.88-.85c0,1.07,0,2.09.08,3a45.86,45.86,0,0,0,.43,5c.21,1.53.49,3.1.83,4.71.13.67.24,1.3.34,1.88A9.27,9.27,0,0,1,79,41c0,.62-.16,1-.5,1.11l-3.1-1.36A1,1,0,0,0,76.23,39.91Z"/><path d="M109.7,27.28c.44-.27.66-.45.66-.55s-.18-.17-.54-.19-1,0-2.06,0h-2.24v8a15,15,0,0,1,2.08,3.16,6.62,6.62,0,0,1,.77,2.74A1.84,1.84,0,0,1,108,41.6a1.56,1.56,0,0,1-1.2.49h-6.52v-.35a1.53,1.53,0,0,0,.84-.28.85.85,0,0,0,.42-.73v-9.5c-.71-.53-1.71-1.2-3-2a20.3,20.3,0,0,1-2-1.34,1.78,1.78,0,0,1-.71-1,1.15,1.15,0,0,1,0-.3c0-.91.6-1.64,1.79-2.2a14.23,14.23,0,0,1,5.46-1c.44,0,1.06,0,1.87,0a22.32,22.32,0,0,1,4.95.41A3.56,3.56,0,0,1,112.05,25a3.21,3.21,0,0,1,.35,1.66,13,13,0,0,1-.38,2.85L112,30l-3.68-1.61C108.59,28.13,109.07,27.75,109.7,27.28Zm-9.82-.86-1.61,0a7.16,7.16,0,0,0-1.35.09c-.27.06-.41.16-.41.31s.35.66,1.06,1.21,2,1.5,4,2.85V26.47C101.1,26.47,100.55,26.46,99.88,26.42ZM108,40.33a5.47,5.47,0,0,0-.67-2.33,15.12,15.12,0,0,0-1.85-2.86v5.59a.86.86,0,0,0,.41.73,1.48,1.48,0,0,0,.83.28A1.24,1.24,0,0,0,108,40.33Z"/><path d="M122.45,29.91c.6.4,1.45.88,2.54,1.45a31.51,31.51,0,0,1,3.24,1.88,8.38,8.38,0,0,1,2.13,2.07,4.93,4.93,0,0,1,.88,2.9c0,1.43-.83,2.43-2.47,3a18.23,18.23,0,0,1-6,.87,7.74,7.74,0,0,1-2.86-.51,6.61,6.61,0,0,1-2.43-1.71V37.63a3.27,3.27,0,0,1,.83-2.25,3.08,3.08,0,0,1,2.37-.87A10.19,10.19,0,0,1,125,35.79L120.76,37a1.91,1.91,0,0,0-.68-.85,1.6,1.6,0,0,0-.93-.31,1.22,1.22,0,0,0-1,.44,1.88,1.88,0,0,0-.37,1.32,2.86,2.86,0,0,0,.67,1.56,6,6,0,0,0,1.76,1.61,4.29,4.29,0,0,0,2.33.68,6.39,6.39,0,0,0,2.42-.41,3.78,3.78,0,0,0,1.59-1.13,2.53,2.53,0,0,0,.55-1.58,3,3,0,0,0-.65-1.91A5.81,5.81,0,0,0,124.86,35c-.63-.39-1.5-.85-2.59-1.39s-1.83-.91-2.45-1.28a7.74,7.74,0,0,1-1.67-1.31,3.38,3.38,0,0,1-.89-1.74,4.85,4.85,0,0,1-.08-.83,3.25,3.25,0,0,1,.78-2.15,5.08,5.08,0,0,1,2.23-1.48,10.07,10.07,0,0,1,3.42-.53,19,19,0,0,1,1.93.13,12.08,12.08,0,0,1,3,.64,7.25,7.25,0,0,1,2.34,1.32l-4.51,1.26a1.68,1.68,0,0,0,.13-.65,2,2,0,0,0-.58-1.45,2.26,2.26,0,0,0-1.74-.62,4.36,4.36,0,0,0-2.62.66,2,2,0,0,0-.88,1.63,2.36,2.36,0,0,0,.46,1.39A4.54,4.54,0,0,0,122.45,29.91Z"/><path d="M134.94,30.65l2-2,2,2-2,2Zm0,9.93,2-2,2,2-2,2Z"/><rect class="cls-2" x="111.64" y="-109.26" width="64.48" height="285.43" transform="translate(110.42 177.33) rotate(-90)"/></svg>