<svg id="Layer_1" data-name="Layer 1" xmlns="http://www.w3.org/2000/svg" width="674.55" height="674.55" viewBox="0 0 674.55 674.55"><defs><style>.cls-1{fill:#4d89ae;}.cls-2{fill:#fcd7a2;}</style></defs><rect class="cls-1" x="1.17" y="0.57" width="674.55" height="674.55"/><path class="cls-2" d="M111.61,338c-.28.38-.56.73-.84,1.09l-.08.1a45.84,45.84,0,0,0-3.06,4.16,26.32,26.32,0,0,1-2.49,3.17,93,93,0,0,1-7.41,7.58c-1.5,1.44-3.36,3.23-5.85,5.65a18.92,18.92,0,0,1-9.3,5.4,26.77,26.77,0,0,0-2.9,1.57c-.49.29-.88.54-1.23.76a8.17,8.17,0,0,1-2.32,1.17,7.29,7.29,0,0,1-3.38.13c-1,.84-2.12,1.66-3.21,2.45A87.13,87.13,0,0,1,62,376c-.83.47-1.5.82-2.24,1.18-.38.18-1.68.8-2.7,1.17-1.61.58-5.38,1.94-7.52.09h0a4.64,4.64,0,0,1-1.36-2.59,8.23,8.23,0,0,1,.18-3.82,20.87,20.87,0,0,1,1.12-3.71,91.14,91.14,0,0,1,4.27-8.85h0c1.79-3.15,3.71-6.31,5.71-9.41-.11-1.05-.18-2.13-.19-3.19a35.81,35.81,0,0,1,1.28-9.77A28.54,28.54,0,0,1,61.85,333a29.46,29.46,0,0,1,3.3-6,39.79,39.79,0,0,1,8.67-9.5,36.41,36.41,0,0,1,8.57-5,33.89,33.89,0,0,1,12.45-2.58,20.9,20.9,0,0,1,2.5.1,92.64,92.64,0,0,1,10.84-7.93,67.15,67.15,0,0,1,6.86-3.65,36.3,36.3,0,0,1,4.44-1.64,7.31,7.31,0,0,1,2.13-.35,5.52,5.52,0,0,1,3.17.77,4.63,4.63,0,0,1,1.51,1.54,5.2,5.2,0,0,1,.48,3.31,9.32,9.32,0,0,1-.58,1.95c-.37,1.05-.76,2.12-1.17,3.17l-2.41,5.47a44.61,44.61,0,0,1-2.18,4.24,42.68,42.68,0,0,1-3.34,4.86,8.74,8.74,0,0,1,.14,2.6,10.76,10.76,0,0,1-1.24,3.57s-.46,1-2.06,3.8a6.81,6.81,0,0,1-.2,1c-.18.83-.31,1.42-.4,1.75A10.26,10.26,0,0,1,111.61,338Zm-3.68,3.33c.46-.63,1.1-1.48,2.06-2.69l.08-.11a11.08,11.08,0,0,0,2.38-4.21c.16-.59.44-2,.56-2.55l-.09-.07.2-.35c1.59-2.81,2-3.76,2-3.77a9.63,9.63,0,0,0,1.15-3.29,7.27,7.27,0,0,0-.16-2.5l-.06-.22.14-.17a40.75,40.75,0,0,0,3.42-4.92,39.5,39.5,0,0,0,2.14-4.14l2.41-5.47c.4-1,.79-2.09,1.16-3.13a9,9,0,0,0,.53-1.77,4.19,4.19,0,0,0-.37-2.74,3.74,3.74,0,0,0-1.21-1.23,4.56,4.56,0,0,0-2.67-.63,6.31,6.31,0,0,0-1.88.34,32.24,32.24,0,0,0-4.31,1.6,66.58,66.58,0,0,0-6.78,3.6,91.68,91.68,0,0,0-10.88,8l-.14.12h-.19c-.86-.07-1.74-.11-2.61-.11a33.11,33.11,0,0,0-12.11,2.51,35.53,35.53,0,0,0-8.36,4.88,38.9,38.9,0,0,0-8.48,9.3,28.41,28.41,0,0,0-3.21,5.81,28,28,0,0,0-1.23,4,35,35,0,0,0-1.25,9.54,32.23,32.23,0,0,0,.2,3.26v.16l-.09.14c-2,3.12-4,6.31-5.77,9.49a92.74,92.74,0,0,0-4.22,8.76,19.34,19.34,0,0,0-1.07,3.55A7.2,7.2,0,0,0,49,375.7a3.83,3.83,0,0,0,1.08,2.12h0c1.74,1.51,5.29.23,6.63-.26a27.78,27.78,0,0,0,2.61-1.13c.72-.35,1.38-.69,2.19-1.15,3.7-2.1,7.06-4.51,7.43-4.78,1.12-.82,2.24-1.67,3.33-2.55l.16-.13h.21a6.5,6.5,0,0,0,3.16-.07,8,8,0,0,0,2.09-1.07c.35-.22.75-.48,1.25-.78,1-.58,2-1.13,3-1.62h.09a18,18,0,0,0,8.93-5.18c2.49-2.42,4.36-4.22,5.86-5.66a91.55,91.55,0,0,0,7.35-7.52,24.77,24.77,0,0,0,2.41-3.08c.29-.4.58-.83,1.11-1.55Z"/><path class="cls-2" d="M118.38,320c-.47.64-.95,1.28-1.45,1.9l-.32.4-.67-.71a5.65,5.65,0,0,0-1.58-.19,6.91,6.91,0,0,0-3.19,1c-2.78,1.4-4,2.17-4,2.18l-.51.33c-1.55,1-2.78,1.78-4.63,3.21a123.11,123.11,0,0,0-10.86,9.67,110.33,110.33,0,0,0-10.84,12.23c-3.76,5-5.16,7.8-6.1,10.09a37.09,37.09,0,0,0-1.92,6l.21,1.23a1.62,1.62,0,0,0,.42.55l.39.35-.63.51c-.49.39-1.15.93-1.93,1.51-.29.2-.58.42-.88.64a61.17,61.17,0,0,1-7.38,4.88,50.09,50.09,0,0,1-5.6,2.63,11,11,0,0,1-2.74.79c-1.52.23-3.06.47-4.21-.52a3.76,3.76,0,0,1-1.11-1.9,4.56,4.56,0,0,1-.06-2.14c1.09-5.83,6.37-14.37,6.59-14.73.93-1.51,2-3.16,2.94-4.65,0,0,1.44-2.22,2.78-4.18,6.52-9.55,18.76-22.37,18.88-22.5,4.06-4.24,8.32-8.2,16.82-16.08a113.31,113.31,0,0,1,13-10.2c1.22-.79,2.64-1.62,4.24-2.46a43.37,43.37,0,0,1,6.23-2.56,8.91,8.91,0,0,1,2.57-.47,4.47,4.47,0,0,1,1.88.29h.06a4.59,4.59,0,0,1,1.83,2.31c.53,1.41.11,3-.4,4.58a48,48,0,0,1-2.12,5.45,59.4,59.4,0,0,1-3,6.18c-1.09,1.88-1.71,2.85-1.91,3.14S118.67,319.64,118.38,320Zm-1.83.93c.68-.86,1.33-1.74,1.94-2.63.2-.29.92-1.38,1.87-3.08s1.6-3.15,2.91-6.11a48.2,48.2,0,0,0,2.09-5.35c.55-1.75.8-3,.41-4a3.72,3.72,0,0,0-1.43-1.82h0a3.4,3.4,0,0,0-1.48-.21,7.72,7.72,0,0,0-2.29.42,43.45,43.45,0,0,0-6.12,2.51,46.32,46.32,0,0,0-4.16,2.41A112.72,112.72,0,0,0,97.4,313.2c-8.49,7.87-12.79,11.82-16.79,16-.12.13-12.31,12.9-18.79,22.38l-2.76,4.16c-1,1.49-2,3.14-2.93,4.64-.06.09-5.42,8.76-6.48,14.42a3.79,3.79,0,0,0,.05,1.74,2.79,2.79,0,0,0,.83,1.46h0c.83.72,2.11.52,3.46.32a10.94,10.94,0,0,0,2.55-.74A51.26,51.26,0,0,0,62.06,375a62.39,62.39,0,0,0,7.28-4.82l.88-.65c.69-.51,1.27-1,1.75-1.36a2.26,2.26,0,0,1-.31-.49h0l-.26-1.54v-.09a39.08,39.08,0,0,1,2-6.24,44.46,44.46,0,0,1,6.21-10.33A112,112,0,0,1,90.53,337.2a124.18,124.18,0,0,1,11-9.75c1.88-1.45,3.12-2.25,4.69-3.26l.52-.33c.05,0,1.27-.8,4.09-2.23a8,8,0,0,1,3.57-1.1,6.47,6.47,0,0,1,2,.26h.12Z"/><path class="cls-2" d="M65.61,343.25,61,349.5l-.17-3.41,4-6.41Zm-4.26,5,3.78-5.08-.5-2.3-3.39,5.36Z"/><path class="cls-2" d="M72.41,335.2,66,342.84l-.84-3.62L70.64,332Zm-6.15,6.67,5.61-6.72-1.26-2.37-4.92,6.55Z"/><path class="cls-2" d="M83,323.76,73,334.45l-1.94-3,.11-.13c1.07-1.25,2.18-2.5,3.3-3.71,1.7-1.84,3.49-3.65,5.31-5.38l.11-.11Zm-9.91,10,9.18-9.83L80,322.72c-1.77,1.69-3.51,3.45-5.18,5.24-1.07,1.17-2.14,2.37-3.17,3.57Z"/><path class="cls-2" d="M90.19,317l-6.58,6.25L80,322l6.55-5.52Zm-6.69,5.74,5.71-5.43L86.72,317l-5.79,4.89Z"/><path class="cls-2" d="M96,312l-5.29,4.6-4.14-.11,6.09-4Zm-5.43,4.15,4-3.49-1.69.24L88.09,316Z"/><path class="cls-2" d="M110.91,339.34c-2,2.67-4,5.27-6.18,7.75a127.53,127.53,0,0,1-9.18,9.42c-2,1.84-4,3.63-6.11,5.33A18.53,18.53,0,0,1,86,363.92a18.85,18.85,0,0,1-3.48,1.2h-.15a2.45,2.45,0,0,1-1.77-.86h0c-.56-.75-.39-1.77.06-3.15a18.71,18.71,0,0,1,1.91-4.2,58.45,58.45,0,0,1,3.78-5.24c3.47-4.1,5-5.93,5.74-6.81s.7-.84.94-1.09a110.42,110.42,0,0,1,10.75-10.1,36.61,36.61,0,0,1,4.83-3.23,8,8,0,0,1,3.4-.9,2,2,0,0,1,1.54.51,2.37,2.37,0,0,1,.52,1.3,5.23,5.23,0,0,1,0,.56,12.77,12.77,0,0,1-.83,3.5,15.54,15.54,0,0,1-1.7,3.1A10.06,10.06,0,0,0,110.91,339.34ZM82.39,364.23a17.68,17.68,0,0,0,3.23-1.13,17.08,17.08,0,0,0,3.26-2c2.05-1.68,4.09-3.47,6.06-5.29a121.82,121.82,0,0,0,9.11-9.35c2.36-2.71,4.63-5.58,6.73-8.53a15.37,15.37,0,0,0,1.61-2.92,12.29,12.29,0,0,0,.76-3.22,2.41,2.41,0,0,0,0-.38,1.37,1.37,0,0,0-.29-.8c-.15-.16-.41-.23-.88-.23a7.11,7.11,0,0,0-3,.78,34.44,34.44,0,0,0-4.66,3.17,110.81,110.81,0,0,0-10.66,10c-.22.24-.24.25-.91,1.06S90.48,348.1,87,352.2a58.5,58.5,0,0,0-3.72,5.15,18.43,18.43,0,0,0-1.8,4c-.49,1.5-.43,2-.2,2.34h0a1.5,1.5,0,0,0,1.1.54Z"/><path class="cls-2" d="M109,341.2h0c-2.52,3.27-5.2,6.44-8,9.43-5.14,5.53-8.24,7.9-10.37,9.34-.71.48-1.44.95-2.17,1.39h-.07c-.47.19-1.15.38-1.55,0-.72-.73.21-2.39,2.42-5.63.48-.7,1.28-1.82,2.73-3.59,1.06-1.29,1.94-2.28,3.41-3.89,0-.05,4.16-4.57,8.27-8.48A15.32,15.32,0,0,1,105.8,338a6.15,6.15,0,0,1,1-.57,13.22,13.22,0,0,0,1.27-.71,6.38,6.38,0,0,1,1.27-.59c.55-.19,1.23-.43,1.63,0a1,1,0,0,1,.11,1,16.74,16.74,0,0,1-2.14,4ZM88,360.58c.71-.43,1.41-.88,2.1-1.34A59.12,59.12,0,0,0,100.27,350c2.75-3,5.41-6.11,7.91-9.36a15.19,15.19,0,0,0,2-3.75v-.11a2.36,2.36,0,0,0-.62.19,6,6,0,0,0-1.09.5,11.74,11.74,0,0,1-1.34.75,6.29,6.29,0,0,0-.91.52,14.57,14.57,0,0,0-2,1.66c-4.09,3.89-8.19,8.39-8.23,8.43-1.46,1.6-2.33,2.59-3.38,3.86-1.43,1.74-2.21,2.85-2.68,3.53-.64.94-2.56,3.74-2.51,4.46a1.74,1.74,0,0,0,.59-.13Z"/><path class="cls-2" d="M103.43,345.73l-.09.12a50,50,0,0,1-6,6.43,46.24,46.24,0,0,1-4,3.26,8.08,8.08,0,0,1-3.23,1.62,6.93,6.93,0,0,1-1,.16l-.93.08.52-.78c.61-.91,1.26-1.82,1.93-2.71a79.82,79.82,0,0,1,5.71-6.63c1.63-1.75,3.32-3.5,5-5.21l3.45-3.26,1.38-1,1.25-.7-.09.86c0,.3-.08.6-.14.9a8.56,8.56,0,0,1-.83,2.14A45.82,45.82,0,0,1,103.43,345.73ZM90,356.26a7.45,7.45,0,0,0,2.8-1.43c2.81-2.15,3.9-3.18,3.91-3.19a52.31,52.31,0,0,0,5.94-6.33,44.53,44.53,0,0,0,2.9-4.72,7.12,7.12,0,0,0,.7-1.74l-.94.67-3.36,3.19c-1.69,1.7-3.37,3.44-5,5.18a74.86,74.86,0,0,0-5.65,6.56C90.84,355.05,90.4,355.65,90,356.26Z"/><path class="cls-2" d="M63.33,369.11a5.38,5.38,0,0,1-.77.81A4.19,4.19,0,0,1,60.24,371a3,3,0,0,1-2.9-.92h0a2.55,2.55,0,0,1-.59-1.71A3.45,3.45,0,0,1,58,365.92a4.23,4.23,0,0,1,3.1-1.35,3,3,0,0,1,2.23.88,2.82,2.82,0,0,1,.55,2.44A3.07,3.07,0,0,1,63.33,369.11Zm-5.3.44a2.21,2.21,0,0,0,2.11.6,3.28,3.28,0,0,0,1.83-.9,2.73,2.73,0,0,0,1-1.54,2,2,0,0,0-.33-1.67,2.11,2.11,0,0,0-1.58-.57,3.29,3.29,0,0,0-2.45,1.09,2.61,2.61,0,0,0-1,1.85,1.74,1.74,0,0,0,.39,1.14Z"/><path class="cls-2" d="M71.85,354.31a5.38,5.38,0,0,1-.77.81,4.22,4.22,0,0,1-2.33,1.12,3,3,0,0,1-2.9-.91h0a2.68,2.68,0,0,1-.59-1.72,3.51,3.51,0,0,1,1.25-2.49,4.22,4.22,0,0,1,3.1-1.34,3,3,0,0,1,2.24.87,2.83,2.83,0,0,1,.54,2.44A3.19,3.19,0,0,1,71.85,354.31Zm-5.31.44a2.21,2.21,0,0,0,2.11.6,3.28,3.28,0,0,0,1.83-.9,2.79,2.79,0,0,0,1-1.53,2,2,0,0,0-.34-1.68,2.1,2.1,0,0,0-1.58-.57,3.35,3.35,0,0,0-2.45,1.09,2.61,2.61,0,0,0-1,1.85,1.67,1.67,0,0,0,.38,1.14Z"/><path class="cls-2" d="M103.25,320.94l-.15.2a3.59,3.59,0,0,1-1.94,1.44,2.75,2.75,0,0,1-2.47-.39,2.92,2.92,0,0,1-1-2.17,4.17,4.17,0,0,1,1.15-3.18,3.51,3.51,0,0,1,2.4-1.41,2.67,2.67,0,0,1,1.75.48h0a3.09,3.09,0,0,1,1.1,2.84A4.05,4.05,0,0,1,103.25,320.94Zm-4-3.2a3.14,3.14,0,0,0-.68,2.2,2,2,0,0,0,.67,1.54,1.91,1.91,0,0,0,1.69.23,2.78,2.78,0,0,0,1.47-1.12,3.41,3.41,0,0,0,.77-1.89,2.2,2.2,0,0,0-.73-2.06h0a1.72,1.72,0,0,0-1.16-.31,2.59,2.59,0,0,0-1.78,1.1A2.42,2.42,0,0,0,99.25,317.74Z"/><path class="cls-2" d="M118.91,311.88l-.15.2a3.65,3.65,0,0,1-2,1.44,2.79,2.79,0,0,1-2.47-.38,2.93,2.93,0,0,1-1-2.18,4.21,4.21,0,0,1,1.14-3.18,3.59,3.59,0,0,1,2.41-1.41,2.67,2.67,0,0,1,1.75.48h0a3.08,3.08,0,0,1,1.09,2.84A4.11,4.11,0,0,1,118.91,311.88Zm-4-3.19a3.1,3.1,0,0,0-.68,2.19,2,2,0,0,0,.67,1.54,1.91,1.91,0,0,0,1.69.23,2.73,2.73,0,0,0,1.47-1.12,3.35,3.35,0,0,0,.78-1.88,2.22,2.22,0,0,0-.73-2.07h0a1.75,1.75,0,0,0-1.17-.31,2.66,2.66,0,0,0-1.78,1.1Z"/><path class="cls-2" d="M86.94,336.14a4.71,4.71,0,0,1-1.64,1.37,3.59,3.59,0,0,1-2.65.49,3.3,3.3,0,0,1-1.83-1.27,2.68,2.68,0,0,1-.41-.91h0a3.26,3.26,0,0,1,.4-2.28,4.83,4.83,0,0,1,1.92-2.06,3.75,3.75,0,0,1,2.49-.56,3,3,0,0,1,1.8.95,3.23,3.23,0,0,1,.53,2.95A3.71,3.71,0,0,1,86.94,336.14Zm-5.66-.54a1.54,1.54,0,0,0,.29.62,2.28,2.28,0,0,0,1.3.91,2.72,2.72,0,0,0,2-.41,3.35,3.35,0,0,0,1.8-2.11,2.42,2.42,0,0,0-.34-2.15,2.07,2.07,0,0,0-1.27-.66,2.9,2.9,0,0,0-1.9.47,3.79,3.79,0,0,0-1.55,1.67,2.43,2.43,0,0,0-.34,1.66Z"/><path class="cls-2" d="M62.61,369.76a3.76,3.76,0,0,1-1.31,1,3.6,3.6,0,0,1-2.5.23,2.7,2.7,0,0,1-1.68-1.13,2.64,2.64,0,0,1-.33-1.94,3.32,3.32,0,0,1,1.34-2.08l.58.68a2,2,0,0,0-.55,1.5,1.75,1.75,0,0,0,.63,1.15,2.38,2.38,0,0,0,2,.52,2.61,2.61,0,0,0,1.23-.56Z"/><path class="cls-2" d="M119.14,311.63a4.81,4.81,0,0,1-.42.48l-.68-.58a2.7,2.7,0,0,0,.48-1.26,2.46,2.46,0,0,0-.64-1.94,1.86,1.86,0,0,0-1.19-.55,2,2,0,0,0-1.46.65l-.72-.54a3.31,3.31,0,0,1,2-1.47,2.73,2.73,0,0,1,2,.21,2.79,2.79,0,0,1,1.24,1.6,3.64,3.64,0,0,1-.07,2.5A3.91,3.91,0,0,1,119.14,311.63Z"/><path class="cls-2" d="M353.68,96.28l-1.36.12h-.13c-3.27.25-4.35.42-5.14.55a25.58,25.58,0,0,1-4,.32,93.7,93.7,0,0,1-10.6-.33l-8.12-.49a20.13,20.13,0,0,1-7.75-1.78,17.27,17.27,0,0,1-2.52-1.41c-1-.4-2.06-.76-3.11-1.08l-1.4-.39a8.05,8.05,0,0,1-2.42-.91,7.31,7.31,0,0,1-2.39-2.4c-1.33-.2-2.66-.44-4-.71a88.44,88.44,0,0,1-8.64-2.26c-.91-.29-1.62-.55-2.39-.85-.39-.16-1.72-.7-2.68-1.2-1.52-.79-5.08-2.65-5.16-5.47h0a4.7,4.7,0,0,1,1-2.76,8.4,8.4,0,0,1,2.94-2.45,22.41,22.41,0,0,1,3.49-1.68,96,96,0,0,1,9.4-2.85h0c3.54-.81,7.17-1.54,10.8-2.16.7-.8,1.44-1.57,2.22-2.3a36.49,36.49,0,0,1,8-5.67,30.45,30.45,0,0,1,3.91-1.86,29.67,29.67,0,0,1,6.64-1.61,39.92,39.92,0,0,1,12.86,0,37.59,37.59,0,0,1,9.48,2.92A33.93,33.93,0,0,1,362.93,65c.56.61,1.11,1.25,1.62,1.9a95.44,95.44,0,0,1,13.18,2.62,68.35,68.35,0,0,1,7.32,2.58,35.69,35.69,0,0,1,4.22,2.16,7.78,7.78,0,0,1,1.72,1.3,5.45,5.45,0,0,1,1.62,2.92,4.56,4.56,0,0,1-.12,2.14,5,5,0,0,1-2.11,2.59,8.81,8.81,0,0,1-1.82.9c-1,.44-2.08.87-3.13,1.28l-5.68,1.94a46,46,0,0,1-4.6,1.26,42.76,42.76,0,0,1-5.84.83,8.15,8.15,0,0,1-1.81,1.85A10.58,10.58,0,0,1,364,92.74s-1,.32-4.18,1.06c-.18.12-.47.29-.91.55-.73.43-1.25.73-1.56.89A10.19,10.19,0,0,1,353.68,96.28Zm-4.93-.46c.77-.09,1.83-.19,3.37-.31h.13A11,11,0,0,0,357,94.42c.55-.29,1.75-1,2.27-1.32V93l.38-.09c3.15-.73,4.15-1,4.16-1A9.73,9.73,0,0,0,367,90.52a7.44,7.44,0,0,0,1.73-1.81l.12-.19h.22a41.75,41.75,0,0,0,10.43-2.06l5.66-1.93c1-.4,2.07-.83,3.09-1.26a8,8,0,0,0,1.66-.82,4,4,0,0,0,1.77-2.12,3.46,3.46,0,0,0,.08-1.72,4.56,4.56,0,0,0-1.33-2.39,6.92,6.92,0,0,0-1.54-1.16A33.5,33.5,0,0,0,384.78,73a66.11,66.11,0,0,0-7.24-2.55,91.59,91.59,0,0,0-13.23-2.62h-.18l-.12-.15c-.53-.69-1.09-1.36-1.68-2a32.78,32.78,0,0,0-10-7.23,36.07,36.07,0,0,0-9.25-2.85,39,39,0,0,0-12.58,0,28.51,28.51,0,0,0-6.45,1.56,30.76,30.76,0,0,0-3.8,1.81,35.68,35.68,0,0,0-7.87,5.53c-.79.75-1.55,1.54-2.26,2.36L310,67h-.16c-3.67.62-7.34,1.35-10.91,2.17a94,94,0,0,0-9.3,2.82,21.29,21.29,0,0,0-3.33,1.61,7.35,7.35,0,0,0-2.71,2.14,3.8,3.8,0,0,0-.83,2.23h0c.06,2.3,3.41,4,4.67,4.71.92.48,2.23,1,2.6,1.15.75.3,1.45.55,2.34.83a85.71,85.71,0,0,0,8.54,2.24c1.36.28,2.75.53,4.13.73h.21l.11.18a6.46,6.46,0,0,0,2.19,2.28,7.43,7.43,0,0,0,2.19.82l1.43.39c1.09.33,2.18.71,3.23,1.12l.08,0a17,17,0,0,0,2.43,1.37,19.18,19.18,0,0,0,7.42,1.69l8.14.49a92.12,92.12,0,0,0,10.51.33,23.22,23.22,0,0,0,3.9-.31c.44,0,1-.12,1.85-.22Z"/><path class="cls-2" d="M371.48,89.14c-.79.09-1.59.16-2.38.21h-.52l.08-1a5.94,5.94,0,0,0-.93-1.3,7,7,0,0,0-2.9-1.66c-2.92-1.1-4.31-1.48-4.33-1.49l-.59-.15c-1.81-.5-3.65-.91-5.5-1.23a123.34,123.34,0,0,0-14.47-1.46,111.26,111.26,0,0,0-16.33.38,43.74,43.74,0,0,0-11.55,2.33,38.54,38.54,0,0,0-5.72,2.65l-.77,1a2,2,0,0,0-.11.68v.53l-.85-.19c-.62-.09-1.46-.22-2.42-.41l-1.06-.2a62,62,0,0,1-8.59-2.14,46.74,46.74,0,0,1-5.72-2.35,10.46,10.46,0,0,1-2.44-1.48c-1.2-1-2.41-1.93-2.46-3.45a3.74,3.74,0,0,1,.64-2.1,4.8,4.8,0,0,1,1.54-1.5c5-3.14,14.89-5,15.31-5.11l5.41-1s2.61-.44,5-.78c11.44-1.66,29.16-1.33,29.34-1.32,5.87.12,11.67.58,23.22,1.5a113.67,113.67,0,0,1,16.28,2.66q2.37.61,4.68,1.45a43.4,43.4,0,0,1,6.1,2.86,8.72,8.72,0,0,1,2.09,1.58,4.54,4.54,0,0,1,1.06,1.57v.06a4.71,4.71,0,0,1-.43,3c-.68,1.34-2.11,2.09-3.65,2.8a46.74,46.74,0,0,1-5.44,2.12,65.87,65.87,0,0,1-6.55,2c-1.93.47-3.25.67-3.61.72S372,89.09,371.48,89.14Zm-1.87-.7c1.09-.08,2.18-.2,3.24-.36.35,0,1.64-.25,3.53-.7a66.67,66.67,0,0,0,6.48-2,48.92,48.92,0,0,0,5.35-2.08c1.66-.77,2.72-1.42,3.22-2.4a3.77,3.77,0,0,0,.37-2.29h0a3.4,3.4,0,0,0-.85-1.23,7.27,7.27,0,0,0-1.86-1.4,43.08,43.08,0,0,0-6-2.81c-1.67-.6-3.22-1.08-4.6-1.43a114.26,114.26,0,0,0-16.12-2.63c-11.55-.92-17.34-1.39-23.18-1.5-.18,0-17.83-.34-29.19,1.31-2.34.34-4.91.77-4.94.77-1.74.3-3.66.65-5.4,1-.1,0-10.11,1.94-15,5a3.78,3.78,0,0,0-1.25,1.2,3,3,0,0,0-.51,1.6h0c0,1.11,1,1.91,2.11,2.77a9.91,9.91,0,0,0,2.27,1.38A48.23,48.23,0,0,0,292.91,85a61.42,61.42,0,0,0,8.48,2.1l1.07.21c.85.17,1.58.28,2.18.37a2.66,2.66,0,0,1,.16-.55V87l1-1.23h.08A39.94,39.94,0,0,1,311.81,83a45.49,45.49,0,0,1,11.78-2.38,113,113,0,0,1,16.46-.3,127.1,127.1,0,0,1,14.56,1.36c2.34.4,3.77.78,5.58,1.25l.59.16a46.42,46.42,0,0,1,4.41,1.5,8,8,0,0,1,3.23,1.88,6.92,6.92,0,0,1,1.15,1.64l.05.11Z"/><path class="cls-2" d="M318.7,66l-7.75.8,2.39-2.43L320.8,63Zm-6.56.22,6.31-.65,1.35-1.92-6.19,1.13Z"/><path class="cls-2" d="M329.2,65.56l-9.94.46L321.35,63l9-.9Zm-9.07,0,8.75-.41.87-2.56-8.15.81Z"/><path class="cls-2" d="M344.82,65.64l-14.62-.11.89-3.45h.17c1.65-.06,3.32-.09,5-.08,2.51,0,5,.1,7.55.27H344Zm-14-.56,13.45.11-.65-2.49c-2.44-.17-4.91-.25-7.36-.26-1.58,0-3.19,0-4.77.07Z"/><path class="cls-2" d="M354.61,66.36l-9.06-.61-1.49-3.49,8.5,1.08Zm-8.75-1,7.86.53L352.3,63.8l-7.52-.95Z"/><path class="cls-2" d="M362.31,67.22l-7-.79-2.66-3.12,7,1.8ZM355.61,66l5.28.59-1.33-1.08L354,64.09Z"/><path class="cls-2" d="M352.2,96.7c-3.28.37-6.6.61-9.88.69A122.73,122.73,0,0,1,329.17,97c-2.69-.22-5.41-.52-8.06-.9A17.79,17.79,0,0,1,317.25,95,18.08,18.08,0,0,1,314,93.24H314l-.05-.06a2.41,2.41,0,0,1-.56-1.89h0c.18-.92,1-1.48,2.36-2.09a19.28,19.28,0,0,1,4.39-1.43A59.93,59.93,0,0,1,326.5,87l8.9-.38c1.05,0,1.09,0,1.44,0a109.81,109.81,0,0,1,14.71,1.08A36.36,36.36,0,0,1,357.19,89a8.37,8.37,0,0,1,3,1.9,2,2,0,0,1,.67,1.47,2.33,2.33,0,0,1-.61,1.27,3.68,3.68,0,0,1-.4.39,12.28,12.28,0,0,1-3.14,1.76,15.08,15.08,0,0,1-3.43.84Zm-37.59-4.16a17,17,0,0,0,3,1.62,18.43,18.43,0,0,0,3.65,1.07c2.62.37,5.32.67,8,.88a128.11,128.11,0,0,0,13,.39c3.6-.1,7.24-.38,10.84-.82a14.52,14.52,0,0,0,3.23-.79,11.58,11.58,0,0,0,2.89-1.62,1.72,1.72,0,0,0,.27-.27,1.48,1.48,0,0,0,.4-.75,1.21,1.21,0,0,0-.43-.8,7.22,7.22,0,0,0-2.57-1.65,35.87,35.87,0,0,0-5.49-1.29,110.92,110.92,0,0,0-14.56-1.07c-.33,0-.35,0-1.4,0l-8.9.38a60.67,60.67,0,0,0-6.31.75A18.18,18.18,0,0,0,316.08,90c-1.44.66-1.78,1-1.85,1.44h0A1.53,1.53,0,0,0,314.61,92.54Z"/><path class="cls-2" d="M349.52,96.52h0c-4.11.36-8.26.54-12.34.51a57,57,0,0,1-13.89-1.31c-.83-.2-1.67-.42-2.49-.66h-.07c-.46-.22-1.06-.59-1-1.17,0-1,1.91-1.46,5.79-2,.83-.12,2.2-.29,4.49-.42,1.66-.09,3-.11,5.17-.12.06,0,6.18,0,11.84.36a15.18,15.18,0,0,1,2.76.4,8.77,8.77,0,0,1,1.1.35,11.16,11.16,0,0,0,1.38.46,7.61,7.61,0,0,1,1.29.53c.52.27,1.16.62,1.11,1.2s-.49.68-.68.78a16.4,16.4,0,0,1-4.4,1.14Zm-28.45-2.31c.79.23,1.6.45,2.41.64a58.79,58.79,0,0,0,13.69,1.28c4,0,8.16-.14,12.24-.5a15.13,15.13,0,0,0,4.13-1.06h.09a6.16,6.16,0,0,0-.55-.33,6.67,6.67,0,0,0-1.11-.46,11.88,11.88,0,0,1-1.46-.48,7.26,7.26,0,0,0-1-.32,15.38,15.38,0,0,0-2.6-.38c-5.63-.38-11.72-.35-11.78-.35-2.16,0-3.48,0-5.12.12-2.25.12-3.6.29-4.41.41-1.13.17-4.49.65-5,1.17a1.45,1.45,0,0,0,.47.26Z"/><path class="cls-2" d="M342.43,95.52h-.14a52,52,0,0,1-8.82-.09c-.06,0-1.55-.11-5.1-.74A8.15,8.15,0,0,1,325,93.41a6.58,6.58,0,0,1-.82-.66l-.69-.63.92-.14c1.09-.17,2.2-.31,3.3-.42a85.27,85.27,0,0,1,8.76-.28c2.38,0,4.81.07,7.22.18l4.74.32,1.65.35,1.37.45-.69.52c-.25.18-.51.35-.77.5a8.29,8.29,0,0,1-2.13.84A45.74,45.74,0,0,1,342.43,95.52Zm-16.82-2.78a7.42,7.42,0,0,0,2.95,1.09c3.49.62,5,.72,5,.72a50.32,50.32,0,0,0,8.68.09,40.19,40.19,0,0,0,5.43-1,7.48,7.48,0,0,0,1.76-.66l-1.13-.24-4.63-.32c-2.39-.1-4.81-.16-7.18-.17a78.22,78.22,0,0,0-8.66.28A19.44,19.44,0,0,0,325.61,92.74Z"/><path class="cls-2" d="M298.09,81.81a5.24,5.24,0,0,1-1.12,0,4.17,4.17,0,0,1-2.39-1,3.05,3.05,0,0,1-1.29-2.76h0a2.64,2.64,0,0,1,.86-1.59,3.55,3.55,0,0,1,2.68-.77,4.25,4.25,0,0,1,3.09,1.38,3,3,0,0,1,.87,2.23,2.81,2.81,0,0,1-1.43,2.05A2.76,2.76,0,0,1,298.09,81.81Zm-3.91-3.61a2.22,2.22,0,0,0,1,2,3.27,3.27,0,0,0,1.89.74,2.77,2.77,0,0,0,1.83-.28,2,2,0,0,0,1-1.38,2.08,2.08,0,0,0-.66-1.55,3.34,3.34,0,0,0-2.45-1.07,2.65,2.65,0,0,0-2,.53,1.74,1.74,0,0,0-.58,1Z"/><path class="cls-2" d="M314.75,78.07a5.24,5.24,0,0,1-1.12,0,4.13,4.13,0,0,1-2.39-1A3,3,0,0,1,310,74.31h0a2.62,2.62,0,0,1,.86-1.59,3.46,3.46,0,0,1,2.68-.77,4.18,4.18,0,0,1,3.09,1.38,3,3,0,0,1,.87,2.23,2.82,2.82,0,0,1-1.43,2A3,3,0,0,1,314.75,78.07Zm-3.91-3.63a2.17,2.17,0,0,0,1,2,3.3,3.3,0,0,0,1.9.74,2.72,2.72,0,0,0,1.83-.29,1.93,1.93,0,0,0,1-1.38,2.11,2.11,0,0,0-.65-1.55,3.41,3.41,0,0,0-2.45-1.06,2.7,2.7,0,0,0-2,.52,1.73,1.73,0,0,0-.58,1.06Z"/><path class="cls-2" d="M360.61,78.62h-.25a3.51,3.51,0,0,1-2.37-.46,2.74,2.74,0,0,1-1.39-2.08,2.89,2.89,0,0,1,.91-2.21,4.18,4.18,0,0,1,3.12-1.31,3.48,3.48,0,0,1,2.66.81,2.68,2.68,0,0,1,.83,1.62h0a3,3,0,0,1-1.34,2.72A4.08,4.08,0,0,1,360.61,78.62Zm-.35-5.12a3.16,3.16,0,0,0-2.08,1A2,2,0,0,0,357.5,76a2,2,0,0,0,1,1.41,2.74,2.74,0,0,0,1.82.32,3.35,3.35,0,0,0,1.91-.71,2.19,2.19,0,0,0,1-1.93h0a1.83,1.83,0,0,0-.56-1.07,2.69,2.69,0,0,0-2-.57Z"/><path class="cls-2" d="M377.83,84h-.24a3.59,3.59,0,0,1-2.38-.46,2.76,2.76,0,0,1-1.39-2.08,3,3,0,0,1,.91-2.22A4.21,4.21,0,0,1,377.85,78a3.6,3.6,0,0,1,2.67.82,2.79,2.79,0,0,1,.83,1.61h0A3.07,3.07,0,0,1,380,83.11,4.08,4.08,0,0,1,377.83,84Zm-.35-5.12a3.16,3.16,0,0,0-2.08,1,2,2,0,0,0-.68,1.53,2,2,0,0,0,1,1.4,2.68,2.68,0,0,0,1.82.32,3.21,3.21,0,0,0,1.92-.7,2.19,2.19,0,0,0,1-1.93h0a1.73,1.73,0,0,0-.56-1.07,2.68,2.68,0,0,0-2-.57Z"/><path class="cls-2" d="M338.34,76.88a4.63,4.63,0,0,1-2.12-.27A3.58,3.58,0,0,1,334.07,75a3.26,3.26,0,0,1-.3-2.21,2.58,2.58,0,0,1,.39-.92h0a3.29,3.29,0,0,1,2-1.24,4.65,4.65,0,0,1,2.81,0,3.64,3.64,0,0,1,2.1,1.44,3,3,0,0,1,.52,2,3.28,3.28,0,0,1-1.81,2.38A3.55,3.55,0,0,1,338.34,76.88Zm-3.43-4.52a1.65,1.65,0,0,0-.26.63,2.31,2.31,0,0,0,.21,1.57,2.71,2.71,0,0,0,1.66,1.2,3.28,3.28,0,0,0,2.77-.1A2.37,2.37,0,0,0,340.65,74a2.18,2.18,0,0,0-.38-1.38,2.89,2.89,0,0,0-1.63-1.08,3.85,3.85,0,0,0-2.28,0,2.4,2.4,0,0,0-1.45.88Z"/><path class="cls-2" d="M297.14,81.73a3.74,3.74,0,0,1-1.62-.3,3.53,3.53,0,0,1-1.85-1.68,2.52,2.52,0,0,1,.89-3.55,3.31,3.31,0,0,1,2.44-.42l-.11.89a1.93,1.93,0,0,0-1.47.61,1.78,1.78,0,0,0-.43,1.23,2.42,2.42,0,0,0,1,1.81,2.57,2.57,0,0,0,1.25.52Z"/><path class="cls-2" d="M378.18,84a3.42,3.42,0,0,1-.64,0v-.9a2.61,2.61,0,0,0,1.25-.49,2.42,2.42,0,0,0,1-1.79,1.9,1.9,0,0,0-.4-1.24,1.94,1.94,0,0,0-1.46-.64l-.09-.89a3.35,3.35,0,0,1,2.43.46,2.76,2.76,0,0,1,1.17,1.59,2.8,2.8,0,0,1-.35,2,3.87,3.87,0,0,1-2.91,1.9Z"/><path class="cls-2" d="M171.43,290a15.83,15.83,0,0,1,4.27.59l-2.65,5.16a7.63,7.63,0,0,0-2.5-1.25,10.51,10.51,0,0,0-3.24-.52,5.14,5.14,0,0,0-3.64,1.13,5,5,0,0,0-1.52,3.93,9.91,9.91,0,0,0,.83,3.83l.74,1.67c.66,1.47,1.14,2.65,1.45,3.53a7.29,7.29,0,0,1,.47,2.26,1.43,1.43,0,0,1-1.21,1.62,1.41,1.41,0,0,1-.41,0H151.3v-.69a2.92,2.92,0,0,0,1.64-.54,1.64,1.64,0,0,0,.81-1.42V280.26a1.66,1.66,0,0,0-.81-1.42,2.92,2.92,0,0,0-1.64-.54v-.69H164v.69a2.93,2.93,0,0,0-1.65.54,1.62,1.62,0,0,0-.81,1.42v16.79a7.24,7.24,0,0,1,2.7-4.66A10.87,10.87,0,0,1,171.43,290Zm-9.82,10.22v9.08a1.62,1.62,0,0,0,.79,1.42,2.76,2.76,0,0,0,1.62.54c.55,0,.83-.32.83-1a16.65,16.65,0,0,0-1.62-5c-.2-.42-.46-1.06-.78-1.91A14.2,14.2,0,0,1,161.61,300.25Zm22.76-21.41a1.62,1.62,0,0,0-.81,1.42v29.07a1.6,1.6,0,0,0,.81,1.42,2.92,2.92,0,0,0,1.64.54V312H173.25v-.69a2.92,2.92,0,0,0,1.64-.54,1.64,1.64,0,0,0,.81-1.42V280.26a1.66,1.66,0,0,0-.81-1.42,2.92,2.92,0,0,0-1.64-.54v-.69H186v.69a2.92,2.92,0,0,0-1.64.54Z"/><path class="cls-2" d="M197.21,300a16.45,16.45,0,0,0,.91,5.48,10.21,10.21,0,0,0,2.67,4.27,5.95,5.95,0,0,0,8.74-.47,24.9,24.9,0,0,0,2.92-3.78l1.11-1.87v5.65a10.41,10.41,0,0,1-4.72,2.28,25.1,25.1,0,0,1-5.79.67c-.49,0-1.33-.05-2.5-.15a14.32,14.32,0,0,1-6.53-2.36A12.22,12.22,0,0,1,190,294a11.45,11.45,0,0,1,4.06-4.4,14.34,14.34,0,0,1,6.53-2.16,20.33,20.33,0,0,1,2.21-.15,12.87,12.87,0,0,1,6,1.33,9.55,9.55,0,0,1,3.81,3.46,8.76,8.76,0,0,1,1.27,4.54h-16.3A14.88,14.88,0,0,0,197.21,300Zm9.35-9.13a3.38,3.38,0,0,0-3.36-1.82,4.12,4.12,0,0,0-3.37,1.92,12.53,12.53,0,0,0-2,4.51h9.52a9,9,0,0,0-.74-4.61Z"/><path class="cls-2" d="M226.54,310.75a3,3,0,0,0,1.65.54V312H215.47v-.69a3,3,0,0,0,1.65-.54,1.64,1.64,0,0,0,.81-1.42V285.71a12.85,12.85,0,0,1,0-1.52v-2.13a8.79,8.79,0,0,0-.32-2.65,1.24,1.24,0,0,0-1.25-.89,8,8,0,0,0-3.64,1.62l-3.29-2.5,1.55-.07c.93-.05,2.09-.08,3.46-.08,3.86,0,6.42.31,7.66.94,2.32,1.22,3.53,3.47,3.63,6.77v24.16A1.63,1.63,0,0,0,226.54,310.75Z"/><path class="cls-2" d="M248,287.38a11,11,0,0,1,6.28,1.77,11.46,11.46,0,0,1,4,4.62,14,14,0,0,1,1.35,6,13.6,13.6,0,0,1-1.35,6,11.12,11.12,0,0,1-4,4.54A11.62,11.62,0,0,1,247.8,312a10.18,10.18,0,0,1-6-1.62,9.22,9.22,0,0,1-3.39-4.42v7.86c0,1.67,0,2.81.08,3.43a2,2,0,0,0,.44,1.3,2.35,2.35,0,0,0,1.35.52l-8.1,2.65A2,2,0,0,1,230.9,320a16.82,16.82,0,0,1-.3-3.61V295.34c0-1.67,0-2.82-.07-3.44a2.1,2.1,0,0,0-.44-1.3,2.56,2.56,0,0,0-1.35-.52l8.1-2.65c.92.33,1.44,1.59,1.57,3.78v3.63a10.77,10.77,0,0,1,2.92-5.11,8.66,8.66,0,0,1,5.28-2.29C246.94,287.44,247.39,287.38,248,287.38ZM251.26,307a12.15,12.15,0,0,0,1.82-6.77,15.59,15.59,0,0,0-.83-5.11,9.92,9.92,0,0,0-2.43-3.93,5.35,5.35,0,0,0-3.76-1.52c-4.26,0-6.82,3.11-7.71,9.33v4.42a11,11,0,0,0,2.85,4.61,6.57,6.57,0,0,0,4.76,1.82,5.91,5.91,0,0,0,5.3-2.85Z"/><path class="cls-2" d="M296.68,307.71a8.69,8.69,0,0,1-3.16,2.38,19.45,19.45,0,0,1-4.18,1.42,16.39,16.39,0,0,1-3.61.47,14.89,14.89,0,0,1-6.63-1.13,5.33,5.33,0,0,1-2.82-2.82,12.18,12.18,0,0,1-.61-4.15V290.44c-.89-.46-1.33-.94-1.33-1.43a1.81,1.81,0,0,1,.49-.91,4.56,4.56,0,0,1,.84-.86v-1.76c0-1.67,0-2.82-.08-3.44a2,2,0,0,0-.44-1.3,2.4,2.4,0,0,0-1.35-.52l8.1-2.65a2.09,2.09,0,0,1,1.28,1.7,17.44,17.44,0,0,1,.29,3.6V290a13.42,13.42,0,0,0,4.4-1.05,2.74,2.74,0,0,0,1.84-2.24l3.83,5.6a15,15,0,0,1-4.27.44,46.82,46.82,0,0,1-5.8-.39v9.67a41.11,41.11,0,0,0,.37,6.56c.25,1.39.89,2.08,1.94,2.08a2.38,2.38,0,0,0,2.19-1.57,8.42,8.42,0,0,0,.76-3.63,13,13,0,0,0-.2-1.87Zm-21-18.46v-1L275,289a2.35,2.35,0,0,0,.63.27Z"/><path class="cls-2" d="M327.05,307.56a2,2,0,0,0,.44,1.3,2.35,2.35,0,0,0,1.35.52l-8.1,2.65a2,2,0,0,1-1.27-1.69,16.82,16.82,0,0,1-.3-3.61V291.6a4.08,4.08,0,0,0-.79-2.72,2.63,2.63,0,0,0-2.11-.91,6.69,6.69,0,0,0-3.51,1.2,12.28,12.28,0,0,0-3.38,3.32,11.59,11.59,0,0,0-2,4.61V301a10.5,10.5,0,0,0,1.18,3.05,38.67,38.67,0,0,0,2.11,3.33c.59.89,1,1.58,1.32,2.09a2.76,2.76,0,0,1,.44,1.3c0,.79-.86,1.18-2.6,1.18H297.12v-.69a3,3,0,0,0,1.65-.54,1.64,1.64,0,0,0,.81-1.42V285.52c0-1.67,0-2.82-.07-3.44a2,2,0,0,0-.45-1.3,2.4,2.4,0,0,0-1.35-.52l8.11-2.65a2.08,2.08,0,0,1,1.27,1.7,18.11,18.11,0,0,1,.3,3.6v11.35a12.52,12.52,0,0,1,3.21-4.6,15.2,15.2,0,0,1,4.74-2.94,13.8,13.8,0,0,1,5-1,7.43,7.43,0,0,1,4.79,1.48,5.18,5.18,0,0,1,1.84,4.27v12.66C327,305.79,327,306.94,327.05,307.56Zm-15.69,2.95a2.83,2.83,0,0,0-.41-1.16c-.28-.5-.62-1.05-1-1.64a27,27,0,0,1-2.55-4.42v6a1.6,1.6,0,0,0,.81,1.42,2.92,2.92,0,0,0,1.64.54C310.86,311.29,311.36,311,311.36,310.51Z"/><path class="cls-2" d="M338.91,300a16.45,16.45,0,0,0,.91,5.48,10.28,10.28,0,0,0,2.67,4.27,6,6,0,0,0,8.74-.52,23.82,23.82,0,0,0,2.92-3.78l1.11-1.87v5.65a10.32,10.32,0,0,1-4.71,2.28,25.18,25.18,0,0,1-5.8.67c-.49,0-1.32-.05-2.5-.15a14.32,14.32,0,0,1-6.53-2.36,12,12,0,0,1-5.4-10.11,11.87,11.87,0,0,1,1.35-5.57,11.42,11.42,0,0,1,4.05-4.4,14.34,14.34,0,0,1,6.53-2.16,20.33,20.33,0,0,1,2.21-.15,12.87,12.87,0,0,1,6,1.33,9.28,9.28,0,0,1,3.81,3.46,8.76,8.76,0,0,1,1.27,4.54h-16.3A14.88,14.88,0,0,0,338.91,300Zm9.35-9.13a3.38,3.38,0,0,0-3.36-1.82,4.16,4.16,0,0,0-3.36,1.92,12.53,12.53,0,0,0-2,4.51h9.52a8.93,8.93,0,0,0-.8-4.61Z"/><path class="cls-2" d="M385,292.29a15,15,0,0,1-5.94-1.32v18.36a1.6,1.6,0,0,0,.81,1.42,3,3,0,0,0,1.65.54V312H368.81v-.69a3,3,0,0,0,1.65-.54,1.64,1.64,0,0,0,.81-1.42V285.44q0-5.19,3.63-7.07c1.24-.63,3.8-.94,7.66-.94,1.37,0,2.53,0,3.46.08l1.55.07-3.29,2.5a8.06,8.06,0,0,0-3.64-1.62,1.22,1.22,0,0,0-1.25.89,8.2,8.2,0,0,0-.32,2.65v8a8.72,8.72,0,0,0,1.62.15,5,5,0,0,0,3.12-.81,3.47,3.47,0,0,0,1.35-1.84l3.14,4.07A7.37,7.37,0,0,1,385,292.29Z"/><path class="cls-2" d="M415.68,307.51a2,2,0,0,0,.44,1.3,2.35,2.35,0,0,0,1.35.52l-8.1,2.65a2.08,2.08,0,0,1-1.25-1.64,14.11,14.11,0,0,1-.32-3.37,9.77,9.77,0,0,1-3.88,3.61,13.25,13.25,0,0,1-4.08,1.4,12.2,12.2,0,0,1-1.91.15A10.7,10.7,0,0,1,393,311a8.1,8.1,0,0,1-3.38-3,7.7,7.7,0,0,1-1.21-4.25,8.5,8.5,0,0,1,.35-2.4,8.1,8.1,0,0,1,3.31-4.52,19,19,0,0,1,6.14-2.9,25.25,25.25,0,0,1,6.8-1,15.51,15.51,0,0,1,2.8.25,28.43,28.43,0,0,0-.18-3.91c-.11-.73-.4-1.1-.85-1.1a3.73,3.73,0,0,0-1.92,1.08,10.64,10.64,0,0,1-7.41,3.39,9.86,9.86,0,0,1-4-.94l3.49-3.19a3.79,3.79,0,0,0,2.45.79,9.61,9.61,0,0,0,2.38-.32c.84-.21,2-.53,3.37-1a33.17,33.17,0,0,1,3.46-1,10.6,10.6,0,0,1,2.57-.34,4.11,4.11,0,0,1,3.88,2.06,3.54,3.54,0,0,1,.47,1.45c0,.54.07,1.13.07,1.79v12.13C415.61,305.75,415.61,306.89,415.68,307.51ZM395,303.19a6.16,6.16,0,0,0,1.89,4.67,6.3,6.3,0,0,0,4.54,1.81,7.33,7.33,0,0,0,3.37-.83,9.54,9.54,0,0,0,3-2.51V293.81h-1.52a13.63,13.63,0,0,0-6.46,1.49,8.58,8.58,0,0,0-4,4.15A9.64,9.64,0,0,0,395,303.19Z"/><path class="cls-2" d="M431.78,289.89a8.15,8.15,0,0,1,4.25-1.23,6.3,6.3,0,0,1,2.5.49v7.61a11.3,11.3,0,0,0-3.31-3,6.92,6.92,0,0,0-3.36-1,3.35,3.35,0,0,0-2.24.74,2.74,2.74,0,0,0-.91,2.11v13.8a1.6,1.6,0,0,0,.81,1.42,3,3,0,0,0,1.65.54v.69H418.45v-.69a3,3,0,0,0,1.65-.54,1.64,1.64,0,0,0,.81-1.42v-14c0-1.67,0-2.82-.08-3.44a2,2,0,0,0-.44-1.3,2.56,2.56,0,0,0-1.35-.52l8.1-2.65a2.21,2.21,0,0,1,1.3,1.82,17.15,17.15,0,0,1,.27,3.78A8.1,8.1,0,0,1,431.78,289.89Z"/><path class="cls-2" d="M489.77,307.66a2,2,0,0,0,.44,1.3,2.35,2.35,0,0,0,1.35.52l-8.1,2.65a2.07,2.07,0,0,1-1.28-1.7,17.38,17.38,0,0,1-.29-3.6V291.6a4.08,4.08,0,0,0-.79-2.72A2.66,2.66,0,0,0,479,288a6.39,6.39,0,0,0-3.12,1,13.32,13.32,0,0,0-5.52,6.58v8.69c0,1.67,0,2.82.07,3.44a2,2,0,0,0,.44,1.3,2.41,2.41,0,0,0,1.36.52l-8.11,2.65a2.06,2.06,0,0,1-1.27-1.7,16.68,16.68,0,0,1-.3-3.6V291.6a4.14,4.14,0,0,0-.78-2.72,2.66,2.66,0,0,0-2.11-.91,6.71,6.71,0,0,0-3.34,1.08,13,13,0,0,0-5.55,7.22v5.65a26,26,0,0,0,2.85,4.86,29.18,29.18,0,0,1,1.59,2.45,3.18,3.18,0,0,1,.52,1.52c0,.82-.84,1.23-2.51,1.23H440.5v-.69a3,3,0,0,0,1.64-.54,1.64,1.64,0,0,0,.81-1.42v-14c0-1.67,0-2.82-.07-3.44a2.1,2.1,0,0,0-.44-1.3,2.56,2.56,0,0,0-1.35-.52l8.1-2.65a2.31,2.31,0,0,1,1.37,2.06,30.4,30.4,0,0,1,.2,4.57,13,13,0,0,1,3.24-4.59,14.52,14.52,0,0,1,4.64-2.92,13.43,13.43,0,0,1,4.93-1,7.54,7.54,0,0,1,4.86,1.53,5.26,5.26,0,0,1,1.92,4.37v2.16a12.72,12.72,0,0,1,3.26-4.3,15.33,15.33,0,0,1,4.55-2.72,13.36,13.36,0,0,1,4.76-.94,7.66,7.66,0,0,1,4.86,1.5,5.13,5.13,0,0,1,1.91,4.3V304.2C489.69,305.89,489.72,307,489.77,307.66Zm-34.59,2.7a2.61,2.61,0,0,0-.47-1.23c-.31-.49-.79-1.18-1.45-2.06a38,38,0,0,1-2.5-3.78v6a1.62,1.62,0,0,0,.81,1.42,2.92,2.92,0,0,0,1.64.54c1.31,0,2-.27,2-.89Z"/><path class="cls-2" d="M502.12,300a16.7,16.7,0,0,0,.9,5.48,10.4,10.4,0,0,0,2.68,4.27,6,6,0,0,0,8.48-.23c.09-.09.17-.19.26-.29a24.9,24.9,0,0,0,2.92-3.78l1.11-1.87v5.65a10.41,10.41,0,0,1-4.72,2.28,25.1,25.1,0,0,1-5.79.67c-.49,0-1.33-.05-2.51-.15a14.56,14.56,0,0,1-6.53-2.36,12,12,0,0,1-5.4-10.11,11.87,11.87,0,0,1,1.35-5.57,11.44,11.44,0,0,1,4-4.4,14.45,14.45,0,0,1,6.53-2.16,20.33,20.33,0,0,1,2.21-.15,12.9,12.9,0,0,1,6,1.33,9.55,9.55,0,0,1,3.81,3.46,8.76,8.76,0,0,1,1.27,4.54h-16.3A14.88,14.88,0,0,0,502.12,300Zm9.35-9.13a3.38,3.38,0,0,0-3.36-1.82,4.12,4.12,0,0,0-3.37,1.92,12.53,12.53,0,0,0-2,4.51h9.53A8.93,8.93,0,0,0,511.47,290.87Z"/><path class="cls-2" d="M534.06,289.89a8.14,8.14,0,0,1,4.24-1.23,6.38,6.38,0,0,1,2.51.49v7.61a11.46,11.46,0,0,0-3.32-3,6.79,6.79,0,0,0-3.36-1,3.32,3.32,0,0,0-2.23.74,2.74,2.74,0,0,0-.91,2.11v13.8a1.6,1.6,0,0,0,.81,1.42,2.92,2.92,0,0,0,1.64.54v.69H520.73v-.69a2.92,2.92,0,0,0,1.64-.54,1.64,1.64,0,0,0,.81-1.42v-14c0-1.67,0-2.82-.07-3.44a2,2,0,0,0-.45-1.3,2.4,2.4,0,0,0-1.35-.52l8.11-2.65a2.26,2.26,0,0,1,1.3,1.82,17.15,17.15,0,0,1,.27,3.78A8,8,0,0,1,534.06,289.89Z"/><path class="cls-2" d="M189.79,348.81a8.15,8.15,0,0,1,4.25-1.23,6.38,6.38,0,0,1,2.51.49v7.61a11.46,11.46,0,0,0-3.32-3,6.79,6.79,0,0,0-3.36-1,3.37,3.37,0,0,0-2.24.74,2.77,2.77,0,0,0-.9,2.11v13.8a1.6,1.6,0,0,0,.81,1.42,2.92,2.92,0,0,0,1.64.54V371H176.46v-.69a3,3,0,0,0,1.65-.54,1.64,1.64,0,0,0,.81-1.42v-14c0-1.67,0-2.82-.07-3.44a2,2,0,0,0-.45-1.3,2.4,2.4,0,0,0-1.35-.52l8.1-2.65a2.24,2.24,0,0,1,1.31,1.82,17.15,17.15,0,0,1,.27,3.78A8.14,8.14,0,0,1,189.79,348.81Z"/><path class="cls-2" d="M208,358.92a16.7,16.7,0,0,0,.9,5.48,10.4,10.4,0,0,0,2.68,4.27,6,6,0,0,0,8.48-.23c.09-.09.17-.19.26-.29a24.9,24.9,0,0,0,2.92-3.78l1.11-1.87v5.65a10.56,10.56,0,0,1-4.73,2.29,25.1,25.1,0,0,1-5.79.67c-.49,0-1.33-.05-2.51-.15a14.56,14.56,0,0,1-6.53-2.36,12,12,0,0,1-5.4-10.11,11.87,11.87,0,0,1,1.35-5.57,11.44,11.44,0,0,1,4-4.4,14.45,14.45,0,0,1,6.53-2.16,20.33,20.33,0,0,1,2.21-.15,12.9,12.9,0,0,1,6,1.33,9.46,9.46,0,0,1,3.8,3.46,8.77,8.77,0,0,1,1.28,4.54h-16.3A15.37,15.37,0,0,0,208,358.92Zm9.35-9.13A3.38,3.38,0,0,0,214,348a4.12,4.12,0,0,0-3.37,1.92,12.53,12.53,0,0,0-2,4.51h9.53A8.93,8.93,0,0,0,217.34,349.79Z"/><path class="cls-2" d="M243.24,346.2a23,23,0,0,1,5.6.67,9.12,9.12,0,0,1,4.27,2.28l-6.5,2.11a3.13,3.13,0,0,0,.39-1.47c0-1-.82-1.52-2.46-1.52a6.24,6.24,0,0,0-4.27,1.54,9.39,9.39,0,0,0-2.65,4.05,16.64,16.64,0,0,0,0,10.71,9.33,9.33,0,0,0,2.65,4.05,6.24,6.24,0,0,0,4.27,1.54,7,7,0,0,0,3.56-1,12.12,12.12,0,0,0,3.1-2.52,7.78,7.78,0,0,0,1.64-2.68v4.22q-2.25,2.82-12.71,2.8a12.26,12.26,0,0,1-6.51-1.64,10.69,10.69,0,0,1-4.05-4.33,12.27,12.27,0,0,1-1.38-5.76,13.23,13.23,0,0,1,1.38-5.92,12.39,12.39,0,0,1,4.05-4.72,13.09,13.09,0,0,1,6.51-2.23A26.9,26.9,0,0,1,243.24,346.2Z"/><path class="cls-2" d="M266.24,349.37a6,6,0,0,1,4.35-1.64,9,9,0,0,1,2.06.24,11.16,11.16,0,0,1,7,3.71,10.21,10.21,0,0,1,2.43,6.7,11.82,11.82,0,0,1-1.67,6,12.92,12.92,0,0,1-4.86,4.68,15,15,0,0,1-7.56,1.82,13.05,13.05,0,0,1-6.85-1.74,12,12,0,0,1-4.47-4.57,12.22,12.22,0,0,1-1.55-6,12.09,12.09,0,0,1,1.3-5.5,11.5,11.5,0,0,1,4-4.42,14.77,14.77,0,0,1,6.55-2.31l4.23.69a7,7,0,0,0-.79,0A6.33,6.33,0,0,0,266,348.6a9.5,9.5,0,0,0-2.65,4.27,17.77,17.77,0,0,0-.86,5.65,19,19,0,0,0,.78,5.5,10.44,10.44,0,0,0,2.24,4.17,4.42,4.42,0,0,0,6.89-.17,11.89,11.89,0,0,0,2.26-4.47,20.13,20.13,0,0,0,.79-5.62,16.23,16.23,0,0,0-1-5.77,5.9,5.9,0,0,0-2.85-3.41,2.52,2.52,0,0,0-.89-.25,1.12,1.12,0,0,0-1.1.74,5.48,5.48,0,0,0-.27,2.6l-4.76,1.87A5.76,5.76,0,0,1,266.24,349.37Z"/><path class="cls-2" d="M310.78,345.44a9.23,9.23,0,0,1,.9,4.35,25.93,25.93,0,0,1-1.86,9,29.92,29.92,0,0,1-4.76,8.44c-1.94,2.34-3.88,3.58-5.85,3.71h-11l.25-.69A3.87,3.87,0,0,0,290,370a.92.92,0,0,0,.66-.91,1.65,1.65,0,0,0-.1-.44L284.19,349a4.15,4.15,0,0,0-.76-1.4,1.84,1.84,0,0,0-1.4-.51l.24-.69H295l-.25.69a3.23,3.23,0,0,0-1.71.51,1.55,1.55,0,0,0-.79,1.5l6,18.9a3.09,3.09,0,0,0,2.31,1.33c1.18,0,2.31-.83,3.41-2.5a22.14,22.14,0,0,0,2.68-6.24,27.24,27.24,0,0,0,1-7.07,10.91,10.91,0,0,0-1.06-5.15,3.45,3.45,0,0,0-3.22-2l4.57-3A3.84,3.84,0,0,1,310.78,345.44Z"/><path class="cls-2" d="M323.27,358.92a16.45,16.45,0,0,0,.91,5.48,10.28,10.28,0,0,0,2.67,4.27,6,6,0,0,0,8.74-.52,25,25,0,0,0,2.93-3.78l1.1-1.87v5.65a10.44,10.44,0,0,1-4.71,2.29,25.18,25.18,0,0,1-5.8.67c-.49,0-1.32-.05-2.5-.15a14.56,14.56,0,0,1-6.53-2.36,12,12,0,0,1-5.4-10.11,11.87,11.87,0,0,1,1.35-5.57,11.42,11.42,0,0,1,4.05-4.4,14.45,14.45,0,0,1,6.53-2.16,20.33,20.33,0,0,1,2.21-.15,12.87,12.87,0,0,1,6,1.33,9.28,9.28,0,0,1,3.81,3.46,8.77,8.77,0,0,1,1.28,4.54h-16.3A15.39,15.39,0,0,0,323.27,358.92Zm9.35-9.13a3.38,3.38,0,0,0-3.36-1.82,4.16,4.16,0,0,0-3.36,1.92,12.53,12.53,0,0,0-2,4.51h9.52a9,9,0,0,0-.81-4.61Z"/><path class="cls-2" d="M355.21,348.81a8.15,8.15,0,0,1,4.25-1.23,6.3,6.3,0,0,1,2.5.49v7.61a11.42,11.42,0,0,0-3.31-3,6.93,6.93,0,0,0-3.37-1,3.32,3.32,0,0,0-2.23.74,2.74,2.74,0,0,0-.91,2.11v13.8a1.6,1.6,0,0,0,.81,1.42,3,3,0,0,0,1.65.54V371H341.88v-.69a2.92,2.92,0,0,0,1.64-.54,1.64,1.64,0,0,0,.81-1.42v-14c0-1.67,0-2.82-.07-3.44a2.1,2.1,0,0,0-.44-1.3,2.56,2.56,0,0,0-1.35-.52l8.1-2.65a2.24,2.24,0,0,1,1.3,1.82,17.15,17.15,0,0,1,.27,3.78A8.1,8.1,0,0,1,355.21,348.81Z"/><path class="cls-2" d="M403.61,366.44a2,2,0,0,0,.44,1.3,2.35,2.35,0,0,0,1.35.52l-8.1,2.65a2.08,2.08,0,0,1-1.25-1.64,14.16,14.16,0,0,1-.32-3.37,9.77,9.77,0,0,1-3.88,3.61,13.46,13.46,0,0,1-4.07,1.4,12.42,12.42,0,0,1-1.92.15,10.66,10.66,0,0,1-4.93-1.11,8.13,8.13,0,0,1-3.39-3,7.88,7.88,0,0,1-1.2-4.25,8.27,8.27,0,0,1,3.66-6.92,19.09,19.09,0,0,1,6.13-2.9,25.65,25.65,0,0,1,6.8-1,15.51,15.51,0,0,1,2.8.25,32,32,0,0,0-.17-3.91c-.12-.73-.4-1.1-.86-1.1a3.74,3.74,0,0,0-1.91,1.08,10.67,10.67,0,0,1-7.42,3.39,9.86,9.86,0,0,1-4-.94l3.48-3.19a3.82,3.82,0,0,0,2.46.79,9.61,9.61,0,0,0,2.38-.32c.83-.2,1.95-.54,3.36-1s2.56-.8,3.46-1a10.69,10.69,0,0,1,2.58-.35,4.14,4.14,0,0,1,3.88,2.07,3.4,3.4,0,0,1,.47,1.45c0,.54.07,1.13.07,1.79V363A28.6,28.6,0,0,0,403.61,366.44Zm-20.69-4.32a6.16,6.16,0,0,0,1.89,4.67,6.3,6.3,0,0,0,4.54,1.81,7.29,7.29,0,0,0,3.36-.83,9.54,9.54,0,0,0,3-2.51V352.73h-1.52a13.63,13.63,0,0,0-6.46,1.49,8.66,8.66,0,0,0-4,4.15,9.5,9.5,0,0,0-.85,3.74Z"/><path class="cls-2" d="M417.07,369.67a3,3,0,0,0,1.65.54v.69H406v-.69a3,3,0,0,0,1.65-.54,1.64,1.64,0,0,0,.81-1.42V341a8.49,8.49,0,0,0-.32-2.65,1.24,1.24,0,0,0-1.25-.89,8,8,0,0,0-3.64,1.62l-3.29-2.5,1.55-.07c.93,0,2.09-.08,3.46-.08,3.86,0,6.42.31,7.66.94,2.32,1.21,3.54,3.47,3.63,6.77v24.16A1.63,1.63,0,0,0,417.07,369.67Z"/><path class="cls-2" d="M431.41,369.67a3,3,0,0,0,1.65.54v.69H420.34v-.69a2.92,2.92,0,0,0,1.64-.54,1.64,1.64,0,0,0,.81-1.42V341a8.2,8.2,0,0,0-.32-2.65,1.24,1.24,0,0,0-1.25-.89,8.08,8.08,0,0,0-3.63,1.62l-3.29-2.5,1.55-.07c.93,0,2.08-.08,3.46-.08,3.86,0,6.41.32,7.66.94q3.48,1.81,3.63,6.77v24.16A1.63,1.63,0,0,0,431.41,369.67Z"/><path class="cls-2" d="M475.75,366.44a2,2,0,0,0,.44,1.3,2.35,2.35,0,0,0,1.35.52l-8.1,2.65a2,2,0,0,1-1.28-1.69,17.48,17.48,0,0,1-.29-3.61V350.52a4.09,4.09,0,0,0-.79-2.72,2.66,2.66,0,0,0-2.11-.91,6.69,6.69,0,0,0-3.51,1.2,12.32,12.32,0,0,0-3.39,3.32,11.88,11.88,0,0,0-2,4.61V360a10.5,10.5,0,0,0,1.18,3.05c.56,1,1.26,2.09,2.11,3.33.59.89,1,1.58,1.33,2.09a2.88,2.88,0,0,1,.44,1.3c0,.79-.87,1.18-2.6,1.18H445.81v-.69a3,3,0,0,0,1.65-.54,1.64,1.64,0,0,0,.81-1.42V344.44c0-1.67,0-2.82-.08-3.44a2,2,0,0,0-.44-1.3,2.4,2.4,0,0,0-1.35-.52l8.1-2.65a2.09,2.09,0,0,1,1.28,1.7,17.44,17.44,0,0,1,.29,3.6v11.35a12.46,12.46,0,0,1,3.22-4.6,15,15,0,0,1,4.74-2.94,13.8,13.8,0,0,1,5-1,7.41,7.41,0,0,1,4.78,1.48,5.15,5.15,0,0,1,1.84,4.27V363C475.67,364.71,475.7,365.86,475.75,366.44Zm-15.69,3a2.85,2.85,0,0,0-.42-1.16c-.28-.5-.61-1-1-1.64a27.77,27.77,0,0,1-2.56-4.42v6a1.6,1.6,0,0,0,.81,1.42,2.93,2.93,0,0,0,1.65.54C459.55,370.21,460.06,370,460.06,369.44Z"/><path class="cls-2" d="M490.61,369.67a3,3,0,0,0,1.65.54v.69H479.54v-.69a3,3,0,0,0,1.65-.54,1.64,1.64,0,0,0,.81-1.42v-14c0-1.67,0-2.82-.08-3.44a2,2,0,0,0-.44-1.3,2.4,2.4,0,0,0-1.35-.52l8.1-2.65a2.1,2.1,0,0,1,1.28,1.69,18.21,18.21,0,0,1,.3,3.61v16.6A1.61,1.61,0,0,0,490.61,369.67Zm-1.69-28-3.83,3.87-3.83-3.87,3.83-3.83Z"/><path class="cls-2" d="M494.61,360.49a5.74,5.74,0,0,1,3.09-.73,13,13,0,0,1,5.25,1.17l-4.32,2c-.06-.07-.45-.43-1.15-1.08a3,3,0,0,0-2-1c-.66,0-1,.61-.93,1.82a8.15,8.15,0,0,0,1.81,4.67,7,7,0,0,0,5,2.35,3.64,3.64,0,0,0,.74.05,6.31,6.31,0,0,0,3.73-1.13A4.06,4.06,0,0,0,507.7,366a6.4,6.4,0,0,0,.09-.88,3.47,3.47,0,0,0-.93-2.43A7.72,7.72,0,0,0,504.6,361c-1.19-.58-2.4-1.09-3.63-1.55-1.67-.62-3-1.18-4-1.67a8,8,0,0,1-2.56-1.94,4.32,4.32,0,0,1-1-3,6.8,6.8,0,0,1,.24-1.67,5.37,5.37,0,0,1,3.44-3.66,18.31,18.31,0,0,1,7.07-1.2,21,21,0,0,1,6.29,1.08c2.25.72,3.78,1.75,4.56,3.09l-7.66,1.63a3.24,3.24,0,0,0,.79-2.17,2.55,2.55,0,0,0-.81-1.91,3.51,3.51,0,0,0-2.48-.79,4.45,4.45,0,0,0-3.1,1.11,3.5,3.5,0,0,0-1.17,2.87,2.88,2.88,0,0,0,.91,2.14,7.8,7.8,0,0,0,2.2,1.52c.87.41,2.06.89,3.56,1.45a42.77,42.77,0,0,1,4.45,1.94,9.53,9.53,0,0,1,2.82,2.23,5,5,0,0,1,1.18,3.39,8.9,8.9,0,0,1-.29,2.06c-.46,1.7-1.82,3-4.06,3.78a21.12,21.12,0,0,1-7.34,1.23,17,17,0,0,1-2.26-.1,12,12,0,0,1-8.34-4.32v-3.88A2.52,2.52,0,0,1,494.61,360.49Z"/><path class="cls-2" d="M252.44,405.12a23.57,23.57,0,0,1,5.6.67,8.94,8.94,0,0,1,4.27,2.28l-6.53,2.11a3.14,3.14,0,0,0,.4-1.47c0-1-.82-1.52-2.46-1.52a6.24,6.24,0,0,0-4.27,1.54,9.32,9.32,0,0,0-2.65,4,16.51,16.51,0,0,0,0,10.71,9.33,9.33,0,0,0,2.65,4.05,6.25,6.25,0,0,0,4.27,1.55,7,7,0,0,0,3.56-1,11.91,11.91,0,0,0,3.09-2.52,7.66,7.66,0,0,0,1.65-2.68v4.22q-2.26,2.82-12.72,2.8a12.23,12.23,0,0,1-6.5-1.64,10.72,10.72,0,0,1-4.06-4.33,12.28,12.28,0,0,1-1.37-5.76,13.22,13.22,0,0,1,1.37-5.92,12.23,12.23,0,0,1,4.06-4.71,13.13,13.13,0,0,1,6.5-2.24A27.39,27.39,0,0,1,252.44,405.12Z"/><path class="cls-2" d="M293.22,425.44a2,2,0,0,0,.44,1.3,2.35,2.35,0,0,0,1.35.52l-8.1,2.65a2,2,0,0,1-1.27-1.69,16.82,16.82,0,0,1-.3-3.61V409.44a4.14,4.14,0,0,0-.78-2.72,2.67,2.67,0,0,0-2.12-.91,6.59,6.59,0,0,0-3.51,1.21,12,12,0,0,0-3.38,3.31,11.59,11.59,0,0,0-2,4.61v3.93a10.5,10.5,0,0,0,1.18,3.05c.55,1,1.26,2.09,2.11,3.34.59.88,1,1.58,1.32,2.08a2.76,2.76,0,0,1,.44,1.3c0,.79-.86,1.18-2.6,1.18H263.3v-.69a2.92,2.92,0,0,0,1.64-.54,1.64,1.64,0,0,0,.81-1.42V403.36c0-1.67,0-2.82-.07-3.44a2,2,0,0,0-.45-1.3,2.4,2.4,0,0,0-1.35-.52l8.11-2.65a2.09,2.09,0,0,1,1.27,1.7,18.11,18.11,0,0,1,.3,3.6V412.1a12.48,12.48,0,0,1,3.21-4.59,15,15,0,0,1,4.74-2.95,14,14,0,0,1,5-1A7.43,7.43,0,0,1,291.3,405a5.18,5.18,0,0,1,1.84,4.27V422C293.15,423.64,293.17,424.78,293.22,425.44Zm-15.69,3a2.83,2.83,0,0,0-.41-1.16c-.28-.5-.62-1-1-1.64a27,27,0,0,1-2.55-4.42v6a1.6,1.6,0,0,0,.81,1.42,2.92,2.92,0,0,0,1.64.54c1-.05,1.51-.31,1.51-.83Z"/><path class="cls-2" d="M308.05,428.59a2.92,2.92,0,0,0,1.64.54v.69H297v-.69a2.92,2.92,0,0,0,1.64-.54,1.64,1.64,0,0,0,.81-1.42v-14c0-1.67,0-2.82-.07-3.44a2.1,2.1,0,0,0-.44-1.3,2.56,2.56,0,0,0-1.35-.52l8.1-2.65a2.09,2.09,0,0,1,1.27,1.7,18.11,18.11,0,0,1,.3,3.6v16.6A1.62,1.62,0,0,0,308.05,428.59Zm-1.69-28-3.83,3.88-3.83-3.88,3.83-3.83Z"/><path class="cls-2" d="M325.9,405.12a23.42,23.42,0,0,1,5.59.67,9,9,0,0,1,4.28,2.28l-6.53,2.11a3.13,3.13,0,0,0,.39-1.47c0-1-.82-1.52-2.46-1.52a6.24,6.24,0,0,0-4.27,1.54,9.32,9.32,0,0,0-2.65,4,16.64,16.64,0,0,0,0,10.71,9.33,9.33,0,0,0,2.65,4.05,6.25,6.25,0,0,0,4.27,1.55,7,7,0,0,0,3.56-1,12.12,12.12,0,0,0,3.1-2.52,7.78,7.78,0,0,0,1.64-2.68v4.22q-2.25,2.82-12.72,2.8a12.23,12.23,0,0,1-6.5-1.64,10.7,10.7,0,0,1-4-4.33,12.27,12.27,0,0,1-1.38-5.76,13.23,13.23,0,0,1,1.38-5.92,12.08,12.08,0,0,1,4-4.71,13.13,13.13,0,0,1,6.5-2.24A27.56,27.56,0,0,1,325.9,405.12Z"/><path class="cls-2" d="M359,428.94c.37-.13.56-.35.56-.64a1.31,1.31,0,0,0-.34-.79l-8.5-11a7,7,0,0,1-1.3.81,5,5,0,0,1-1.45.46v9.38a1.6,1.6,0,0,0,.81,1.42,2.93,2.93,0,0,0,1.65.54v.69H337.73v-.69a3,3,0,0,0,1.65-.54,1.64,1.64,0,0,0,.81-1.42v-23.9c0-1.67,0-2.82-.08-3.44a2,2,0,0,0-.44-1.3,2.56,2.56,0,0,0-1.35-.52l8.1-2.65a2.1,2.1,0,0,1,1.28,1.7,19,19,0,0,1,.29,3.61v16a5.12,5.12,0,0,0,2.85-1.22c.52-.5,1.19-1.2,2-2.12a47.18,47.18,0,0,1,4-4,18.94,18.94,0,0,1,4.57-2.85,14.55,14.55,0,0,1,6-1.23,12.71,12.71,0,0,1,1.52.05l-1.67,5.55a22.22,22.22,0,0,0-6.24-1.18,7,7,0,0,0-5.69,2.41l12.42,15.46a4.21,4.21,0,0,0,1.5,1.21,3.51,3.51,0,0,0,1.59.41l.15.69H357.71v-.69A4,4,0,0,0,359,428.94Z"/><path class="cls-2" d="M379.17,417.84a16.45,16.45,0,0,0,.91,5.48,10.14,10.14,0,0,0,2.68,4.27,6,6,0,0,0,8.48-.24c.08-.09.17-.18.25-.28a25,25,0,0,0,2.93-3.78c.63-1.08,1-1.7,1.1-1.86v5.64a10.49,10.49,0,0,1-4.71,2.29,25.8,25.8,0,0,1-5.8.66c-.49,0-1.32,0-2.5-.15a14.56,14.56,0,0,1-6.53-2.36,12,12,0,0,1-5.37-10.07,11.87,11.87,0,0,1,1.35-5.57,11.44,11.44,0,0,1,4-4.4,14.45,14.45,0,0,1,6.53-2.16,20.33,20.33,0,0,1,2.21-.15,12.87,12.87,0,0,1,6,1.33,9.28,9.28,0,0,1,3.81,3.46,8.87,8.87,0,0,1,1.28,4.54H379.51A15.12,15.12,0,0,0,379.17,417.84Zm9.35-9.13a3.38,3.38,0,0,0-3.36-1.82,4.16,4.16,0,0,0-3.36,1.92,12.53,12.53,0,0,0-2,4.51h9.52A8.93,8.93,0,0,0,388.52,408.71Z"/><path class="cls-2" d="M427.71,425.5a2,2,0,0,0,.44,1.3,2.35,2.35,0,0,0,1.35.52L421.4,430a2.07,2.07,0,0,1-1.28-1.7,16.67,16.67,0,0,1-.29-3.6V409.44a4.09,4.09,0,0,0-.79-2.72,2.66,2.66,0,0,0-2.11-.91,6.71,6.71,0,0,0-3.34,1.08,13,13,0,0,0-5.55,7.22v5.65a25.47,25.47,0,0,0,2.85,4.86c.72,1.05,1.25,1.86,1.6,2.45a3.31,3.31,0,0,1,.51,1.52c0,.82-.83,1.23-2.5,1.23H397.78v-.69a2.92,2.92,0,0,0,1.64-.54,1.64,1.64,0,0,0,.81-1.42v-14c0-1.67,0-2.82-.07-3.44a2.1,2.1,0,0,0-.44-1.3,2.56,2.56,0,0,0-1.35-.52l8.1-2.65a2.31,2.31,0,0,1,1.38,2,30.61,30.61,0,0,1,.19,4.49,12.48,12.48,0,0,1,3.24-4.47,15.46,15.46,0,0,1,4.64-2.84,13.49,13.49,0,0,1,4.94-1,7.7,7.7,0,0,1,4.88,1.48,5.17,5.17,0,0,1,1.89,4.32V422C427.61,423.73,427.66,424.88,427.71,425.5Zm-15.25,2.7A2.54,2.54,0,0,0,412,427c-.3-.47-.79-1.19-1.47-2.14a42.65,42.65,0,0,1-2.51-3.73v6.09a1.6,1.6,0,0,0,.81,1.42,3,3,0,0,0,1.65.54C411.81,429.13,412.46,428.82,412.46,428.2Z"/><path class="cls-2" d="M433.72,419.44a5.84,5.84,0,0,1,3.09-.73,13.13,13.13,0,0,1,5.26,1.17l-4.32,2c-.07-.07-.45-.43-1.16-1.08a3,3,0,0,0-2-1c-.65,0-1,.6-.93,1.81a8.23,8.23,0,0,0,1.82,4.67,7,7,0,0,0,5,2.35,3,3,0,0,0,.73.05,6.31,6.31,0,0,0,3.73-1.13,4,4,0,0,0,1.87-2.65,6.4,6.4,0,0,0,.1-.88,3.44,3.44,0,0,0-.94-2.43,8,8,0,0,0-2.25-1.67,33.53,33.53,0,0,0-3.64-1.55,40.72,40.72,0,0,1-4-1.67,8.08,8.08,0,0,1-2.55-1.94,4.24,4.24,0,0,1-1.06-3,6.37,6.37,0,0,1,.25-1.67,5.31,5.31,0,0,1,3.44-3.65,18.13,18.13,0,0,1,7.07-1.21,21,21,0,0,1,6.28,1.08,7.82,7.82,0,0,1,4.57,3.09L446.42,411a3.34,3.34,0,0,0,.78-2.17,2.59,2.59,0,0,0-.81-1.91,3.46,3.46,0,0,0-2.48-.79,4.43,4.43,0,0,0-3.09,1.11,3.52,3.52,0,0,0-1.18,2.87,2.88,2.88,0,0,0,.91,2.14,7.84,7.84,0,0,0,2.21,1.52c.87.41,2,.89,3.56,1.45a43.56,43.56,0,0,1,4.44,1.94,9.72,9.72,0,0,1,2.85,2.25,5.11,5.11,0,0,1,1.17,3.39,8.39,8.39,0,0,1-.29,2.06q-.69,2.55-4.05,3.78a21.12,21.12,0,0,1-7.34,1.23,15.48,15.48,0,0,1-2.26-.1,12,12,0,0,1-8.35-4.32V421.6A2.53,2.53,0,0,1,433.72,419.44Z"/></svg>