<svg id="Layer_1" data-name="Layer 1" xmlns="http://www.w3.org/2000/svg" width="674.55" height="674.55" viewBox="0 0 674.55 674.55"><defs><style>.cls-1{fill:#4d89ae;}.cls-2{fill:#fcd7a2;}</style></defs><rect class="cls-1" x="1.17" y="0.57" width="674.55" height="674.55"/><path class="cls-2" d="M541.51,556.69a1.65,1.65,0,0,0,.29-.39c.09-.13.17-.26.25-.39l.16-.36a10.3,10.3,0,0,0,.64-2.57c.11-.78.19-1.52.22-2.25.1-1.45.14-2.89.25-4.29s.24-2.78.43-4.13a39.71,39.71,0,0,1,2-7.8,37.13,37.13,0,0,1,3.76-7.1l-.17-.16c-.88.7-1.74,1.42-2.58,2.17l.31-.34,1.13-1.24,1.1-1.27,2.19-2.54c1.46-1.69,3-3.36,4.35-5.1l4.29-5.15,4.19-5.24c.71-.87,1.43-1.72,2.12-2.6l2-2.66c1.36-1.77,2.78-3.5,4.11-5.31l4-5.41,1-1.36,1-1.38,1.9-2.77c2.56-3.68,4.84-7.53,7.16-11.37l3.3-5.85,1.62-2.94,1.54-3q.81-1.54,1.59-3.09l1.27-1.87c.44-.65.86-1.3,1.28-1.93,1.67-2.52,3.29-4.8,4.74-6.89l3.83-5.72a43.46,43.46,0,0,0,2.71-4.61,13.71,13.71,0,0,0,1.33-3.57c.37-2-.37-3.46-2.65-4.42s-3.79-.52-5,1.12a13.23,13.23,0,0,0-1.6,3.35c-.49,1.41-1,3.1-1.51,5s-1.13,4.12-1.8,6.55-1.55,5-2.52,7.9c-.25.71-.49,1.44-.78,2.17l-.88,2.22h0c-.52,1-1,1.91-1.59,2.86l-1.6,2.92-1.69,2.89-3.35,5.77c-2.36,3.77-4.59,7.63-7,11.37l-1.76,2.84-.88,1.42-.92,1.39-3.69,5.58c-1.23,1.86-2.55,3.65-3.82,5.49l-2,2.71c-.65.9-1.35,1.77-2,2.66-1.37,1.76-2.74,3.52-4.14,5.25l-4.35,5.08c-1.44,1.71-3,3.32-4.49,5l-2.29,2.44L547.37,527l-1.18,1.19-4.74,4.71c-1.58,1.56-3.23,3.06-4.84,4.6l-2.42,2.3L531.71,542l-2,1.84c-.62.3-1.26.59-1.89.87a31.44,31.44,0,0,1-3.85,1.36c-1.31.38-2.63.7-4,1a31.28,31.28,0,0,1-4.06.59c-1.38.12-2.76.17-4.15.17a38.1,38.1,0,0,1-4.14-.15l-2.07-.18c-.7-.08-1.39-.17-2.09-.28-2.78-.41-5.53-1-8.25-1.53-1.35-.27-2.72-.56-4.09-.78a12.79,12.79,0,0,0-4-.15,3.16,3.16,0,0,0-2.73,2.51,6.88,6.88,0,0,0-.2,2.12,9.21,9.21,0,0,0,.3,2.22,8,8,0,0,0,2.45,4,11,11,0,0,0,3.94,2.17,22.21,22.21,0,0,0,8.31.74,37.43,37.43,0,0,0,4.07-.52c1.32-.26,2.64-.58,3.94-.94s2.6-.77,3.88-1.22,2.51-1,3.76-1.5c2.18-1,4.32-2,6.4-3.16-5,4.12-10.1,8.09-15.28,12l-.2.15q-2.11,1-4.28,2a60.15,60.15,0,0,1-9.38,3.16c-.79.21-1.59.4-2.39.58s-1.63.31-2.45.45c-1.63.27-3.27.49-4.91.65-.82.08-1.64.16-2.46.21s-1.67.07-2.5.08h-5c-.83,0-1.65-.07-2.47-.12l-2.49-.22c-1.65-.16-3.3-.35-4.93-.55l-4.89-.57a23.64,23.64,0,0,0-4.83-.1,6.81,6.81,0,0,0-2.26.64,4.1,4.1,0,0,0-1.75,1.6,6.58,6.58,0,0,0-.77,2.48,9.89,9.89,0,0,0,0,2.77,6.2,6.2,0,0,0,1.09,2.7A6.94,6.94,0,0,0,451.2,581a13.1,13.1,0,0,0,5,1.56,36.41,36.41,0,0,0,9.94-.41,81.24,81.24,0,0,0,9.58-2.38c3.11-1,6.21-2.2,9.23-3.51,2.84-1.24,5.63-2.6,8.37-4q-4.65,3.15-9.35,6.15t-9.61,5.86c-1.84.92-3.7,1.8-5.57,2.66a199.1,199.1,0,0,1-26.23,9.66l-6.71,1.86-6.76,1.61c-2.24.56-4.52,1-6.78,1.48s-4.5,1-6.78,1.37-4.51.9-6.76,1.4a66.68,66.68,0,0,0-6.69,1.66c-1.09.36-2.18.73-3.25,1.18a12.41,12.41,0,0,0-3,1.77,6.21,6.21,0,0,0-2.11,3.07,7.54,7.54,0,0,0,.07,4,10.15,10.15,0,0,0,.71,1.93,7,7,0,0,0,1.11,1.53,5.8,5.8,0,0,0,1.6,1.13,7.07,7.07,0,0,0,1.81.57,12.54,12.54,0,0,0,3.67.12,20.66,20.66,0,0,0,3.57-.61,66.73,66.73,0,0,0,6.88-2.14c2.25-.84,4.45-1.8,6.65-2.75s4.35-2,6.5-3,4.3-2.06,6.4-3.2l6.32-3.31,6.24-3.43q12.4-7,24.45-14.28,2.76-1.69,5.5-3.41,4.89-2.53,9.69-5.3,7.32-4.26,14.37-9a29.63,29.63,0,0,0-4.82,6,13.7,13.7,0,0,0-1,2.08,10,10,0,0,0-.7,2.51,7,7,0,0,0,.22,3.14,6.32,6.32,0,0,0,1.92,2.92,5.34,5.34,0,0,0,.65.5l.64.39a5.34,5.34,0,0,0,1.7.62,2,2,0,0,0,.55,0H499a3.71,3.71,0,0,0,1.1-.39l.46-.31a2.6,2.6,0,0,0,.35-.32c.11-.11.21-.23.31-.34l.22-.33a10.44,10.44,0,0,0,1-2.44c.22-.76.42-1.49.57-2.2.32-1.44.62-2.82,1-4.17s.72-2.65,1.11-4a33.65,33.65,0,0,1,3.29-7.35,36.77,36.77,0,0,1,4.86-6.39h0q7.74-6.06,15-12.63c1.67-1.5,3.28-3.06,4.91-4.59l1.82-1.73.43-.3c.64-.5,1.25-1,1.85-1.54-.55.78-1.07,1.59-1.57,2.43a25.17,25.17,0,0,0-2,3.9,13.53,13.53,0,0,0-.67,2.25,10,10,0,0,0-.26,2.61,7.1,7.1,0,0,0,.72,3.07,6.3,6.3,0,0,0,2.38,2.58c.23.14.48.28.71.39l.7.28a4.84,4.84,0,0,0,1.77.33,1.63,1.63,0,0,0,.54,0l.57-.12a4,4,0,0,0,1-.58A5,5,0,0,0,541.51,556.69Zm-27.56-4c-1.24.48-2.47,1-3.72,1.36s-2.54.76-3.81,1.09a37.67,37.67,0,0,1-7.74,1.27,21.89,21.89,0,0,1-7.6-.73A8.62,8.62,0,0,1,488,554a5.08,5.08,0,0,1-1.6-2.62,6.55,6.55,0,0,1-.21-1.65,5.33,5.33,0,0,1,.1-1.54,1.69,1.69,0,0,1,.48-.9,2.12,2.12,0,0,1,1-.45,11.61,11.61,0,0,1,3.43.12c1.28.19,2.62.47,4,.76,2.7.51,5.48,1,8.31,1.39,1.41.18,2.85.35,4.27.42a40,40,0,0,0,4.24,0,41,41,0,0,0,8.4-1,46.35,46.35,0,0,0,5-1.51A82.19,82.19,0,0,1,514,552.74Zm-29.86,21.75c-1.49.64-3,1.17-4.57,1.72s-3.06,1.06-4.6,1.55a79.82,79.82,0,0,1-9.39,2.17,36.79,36.79,0,0,1-9.43.34,11.27,11.27,0,0,1-4.2-1.32,4.57,4.57,0,0,1-1.36-1.19,3.51,3.51,0,0,1-.6-1.53v-.95a5.45,5.45,0,0,1,.07-1.07,4.75,4.75,0,0,1,.51-1.72,2.54,2.54,0,0,1,1.08-1,5.58,5.58,0,0,1,1.75-.5,21.45,21.45,0,0,1,4.46.07c1.58.14,3.22.39,4.84.53,3.26.33,6.64.67,10,.74h5a46.59,46.59,0,0,0,5-.41c1.67-.21,3.33-.47,5-.79.83-.16,1.66-.33,2.48-.52s1.62-.42,2.43-.66c1.38-.42,2.77-.86,4.14-1.35q-6.19,3.3-12.61,5.94Zm-39.72,26.73c-2.1,1.08-4.2,2.17-6.28,3.29l-6.33,3.22c-2.1,1.11-4.25,2.08-6.39,3.11l-3.22,1.51c-1.07.51-2.17,1-3.25,1.42-2.18.9-4.36,1.85-6.56,2.66a68.09,68.09,0,0,1-6.67,2c-.55.13-1.11.25-1.66.35a15.65,15.65,0,0,1-1.66.2,10.94,10.94,0,0,1-3.13-.11c-2-.38-3-1.43-3.55-3.56s-.18-3.46,1.34-4.71a10.37,10.37,0,0,1,2.62-1.52c.48-.22,1-.41,1.5-.59s1-.38,1.56-.54c2.12-.67,4.32-1.2,6.55-1.67s4.48-1,6.74-1.43c1.12-.24,2.27-.45,3.39-.7l3.39-.76c2.26-.51,4.55-1,6.8-1.55l6.79-1.71,6.72-2c6.24-2,12.42-4.23,18.48-6.79l-.73.4.11.21,1.18-.54q-8.79,5.08-17.74,9.86Zm63-34.82a28.89,28.89,0,0,0-2.21,3.49,32.35,32.35,0,0,0-1.73,3.85,63.69,63.69,0,0,0-2.47,8.22c-.18.7-.37,1.4-.58,2.08a7.83,7.83,0,0,1-.84,1.92,1.5,1.5,0,0,1-1.59.8,4.51,4.51,0,0,1-1.85-1,3.71,3.71,0,0,1-1.19-1.75,4.53,4.53,0,0,1-.16-2.1,7.71,7.71,0,0,1,.55-2,18.88,18.88,0,0,1,.88-1.88,32,32,0,0,1,5-6.48,73.54,73.54,0,0,1,5.83-5.61c1-.79,1.88-1.62,2.83-2.41a33,33,0,0,0-2.46,3Zm31.42-10.82a4.45,4.45,0,0,1-2-.67,3.77,3.77,0,0,1-1.46-1.53,4.74,4.74,0,0,1-.5-2.06,7.83,7.83,0,0,1,.19-2.1,15.64,15.64,0,0,1,.56-2,27.27,27.27,0,0,1,1.73-3.72c.65-1.2,1.35-2.38,2.09-3.51a97.5,97.5,0,0,1,7.23-9.35,24.89,24.89,0,0,0-1.94,3.25,38.56,38.56,0,0,0-1.58,3.83,32.1,32.1,0,0,0-1.11,4.06,82.33,82.33,0,0,0-1.06,8.56c-.07.71-.14,1.43-.25,2.14a8.51,8.51,0,0,1-.51,2,1.49,1.49,0,0,1-1.38,1.15Z"/><path class="cls-2" d="M627.07,488.91a93,93,0,0,0-5.4-17.87c-2-5-4.28-10.26-6.7-15.82-1.28-3.26-2.57-6.52-3.84-9.78-1.5-3.86-3-7.72-4.36-11.61-1.8-5.7-3.26-11.14-4.37-16.27a118.42,118.42,0,0,1-2.7-32.35c.25-4.27.66-8,1.1-11.11.08-.79.21-1.54.31-2.26s.16-1.22.23-1.8a5.94,5.94,0,0,1-1.83,1,6.26,6.26,0,0,1-3.12.7h-.72a8.16,8.16,0,0,1-3.12-.63c-.08.69-.16,1.4-.2,2.15a74.83,74.83,0,0,0,.1,12.07c.7,9.16,3,20.33,7.33,33,1.72,5.07,3.73,10.39,6,16,1.39,3.88,2.86,7.74,4.36,11.58q2,5.07,4,10.12c2,5.6,3.68,10.91,5,15.93a77.29,77.29,0,0,1,2.91,17.54,30.66,30.66,0,0,1-2.29,13.28c-.36.88-.83,1.69-1.24,2.47a14.14,14.14,0,0,1-1.43,2.13c-.51.65-1,1.28-1.5,1.88a21.75,21.75,0,0,1-1.53,1.63c-2,2-4,3.56-5.54,4.87-.75.68-1.45,1.27-2,1.86a9.5,9.5,0,0,0-1.29,1.68,3.18,3.18,0,0,0-.12,3.22,2.92,2.92,0,0,0,2.8,1.64,7,7,0,0,0,2.31-.39,13.62,13.62,0,0,0,2.9-1.28,27.32,27.32,0,0,0,7.14-5.79c.61-.71,1.24-1.47,1.85-2.29a22.36,22.36,0,0,0,1.74-2.7,31.67,31.67,0,0,0,1.55-3.08,31,31,0,0,0,2.37-11.24A43.87,43.87,0,0,0,627.07,488.91Z"/><path class="cls-2" d="M538.39,116.12a4.35,4.35,0,0,0-1-.58,5.78,5.78,0,0,0-.57-.12,1.63,1.63,0,0,0-.54,0,5.29,5.29,0,0,0-1.77.33l-.7.29c-.23.1-.48.25-.71.38a6.36,6.36,0,0,0-2.38,2.58,7.13,7.13,0,0,0-.72,3.07,9.93,9.93,0,0,0,.26,2.61,12.78,12.78,0,0,0,.68,2.26,25.07,25.07,0,0,0,2,3.89c.49.84,1,1.65,1.56,2.44-.6-.53-1.21-1.05-1.85-1.55l-.43-.3-1.82-1.73c-1.63-1.53-3.24-3.09-4.91-4.59q-7.29-6.55-15-12.62h0a36.77,36.77,0,0,1-4.86-6.39,33.57,33.57,0,0,1-3.29-7.34c-.39-1.33-.76-2.63-1.11-4s-.64-2.73-1-4.16c-.16-.72-.35-1.45-.58-2.2a9.86,9.86,0,0,0-1-2.45l-.22-.33c-.1-.11-.2-.23-.31-.34l-.35-.32a4.53,4.53,0,0,0-.46-.3,3.61,3.61,0,0,0-1.1-.39,5.61,5.61,0,0,0-.58,0,2.5,2.5,0,0,0-.55,0,5.43,5.43,0,0,0-1.7.62l-.64.39a6.43,6.43,0,0,0-.64.5,6.26,6.26,0,0,0-1.93,2.92,7,7,0,0,0-.22,3.15,9.9,9.9,0,0,0,.7,2.5,13.26,13.26,0,0,0,1,2.08,25.69,25.69,0,0,0,2.56,3.56,24.51,24.51,0,0,0,2.26,2.41q-7-4.71-14.37-9-4.8-2.76-9.69-5.3L467,84.73q-12-7.33-24.44-14.28L436.28,67,430,63.71c-2.11-1.14-4.26-2.15-6.41-3.2s-4.3-2.09-6.5-3-4.4-1.91-6.65-2.75a69.28,69.28,0,0,0-6.88-2.14A21.66,21.66,0,0,0,400,52a13.26,13.26,0,0,0-3.67.12,7.55,7.55,0,0,0-1.8.57,6.11,6.11,0,0,0-1.61,1.14,6.56,6.56,0,0,0-1.18,1.65,10.4,10.4,0,0,0-.71,1.93,7.65,7.65,0,0,0-.07,4A6.12,6.12,0,0,0,393,64.49a12.09,12.09,0,0,0,3,1.77c1.07.45,2.16.82,3.26,1.18A66.72,66.72,0,0,0,406,69.11c2.24.49,4.49,1,6.75,1.39s4.52.9,6.78,1.38,4.54.91,6.78,1.47L433.06,75l6.71,1.86A202.39,202.39,0,0,1,466,86.48q2.79,1.29,5.57,2.66Q476.41,92,481.17,95c3.14,2,6.26,4.06,9.35,6.15-2.74-1.44-5.53-2.8-8.36-4-3-1.31-6.13-2.46-9.24-3.51a83.21,83.21,0,0,0-9.58-2.37,36.81,36.81,0,0,0-9.94-.42,13.46,13.46,0,0,0-5,1.56,7,7,0,0,0-2.1,1.89,6.08,6.08,0,0,0-1.09,2.7,9.19,9.19,0,0,0,0,2.77,6.58,6.58,0,0,0,.77,2.48,4.1,4.1,0,0,0,1.75,1.6,6.81,6.81,0,0,0,2.26.64,23.64,23.64,0,0,0,4.83-.1l4.89-.57c1.63-.2,3.28-.38,4.93-.55l2.49-.22c.82,0,1.64-.09,2.47-.12,1.65,0,3.3-.07,5,0,.83,0,1.67,0,2.5.08s1.64.13,2.46.21c1.64.16,3.28.38,4.91.65.82.14,1.64.28,2.45.45s1.6.37,2.4.58a61.82,61.82,0,0,1,9.37,3.16q2.16.91,4.28,2l.21.15c5.17,3.88,10.28,7.85,15.27,12-2.08-1.15-4.22-2.21-6.4-3.16-1.24-.53-2.47-1.07-3.76-1.5s-2.57-.85-3.88-1.22-2.62-.68-3.94-.94a37.43,37.43,0,0,0-4.07-.52,22.2,22.2,0,0,0-8.31.75,10.8,10.8,0,0,0-3.94,2.17,7.91,7.91,0,0,0-2.44,4,8.73,8.73,0,0,0-.31,2.21,6.88,6.88,0,0,0,.2,2.12,3.1,3.1,0,0,0,2.73,2.51,12.79,12.79,0,0,0,4-.15c1.37-.22,2.74-.51,4.1-.78,2.72-.56,5.46-1.12,8.24-1.53.7-.1,1.39-.2,2.09-.28s1.38-.13,2.07-.18c1.38-.1,2.76-.15,4.15-.15s2.76,0,4.14.17,2.71.34,4.06.59a36,36,0,0,1,4,1,35.18,35.18,0,0,1,3.85,1.36q1,.42,1.89.87l2,1.84,2.48,2.23,2.42,2.3c1.61,1.54,3.26,3,4.84,4.6l4.74,4.72,1.18,1.18,1.14,1.21,2.29,2.44c1.51,1.64,3,3.25,4.49,5l4.35,5.08c1.4,1.73,2.77,3.49,4.14,5.25.67.89,1.37,1.76,2,2.66l2,2.72c1.27,1.83,2.6,3.62,3.82,5.48l3.69,5.58.92,1.39.88,1.42,1.76,2.84c2.42,3.74,4.65,7.6,7,11.37l3.35,5.77,1.69,2.89,1.6,2.92c.54.95,1.07,1.9,1.59,2.86h0l.89,2.22c.28.73.52,1.46.77,2.18,1,2.85,1.82,5.48,2.53,7.89s1.26,4.62,1.79,6.55,1,3.62,1.51,5a12.91,12.91,0,0,0,1.6,3.35c1.2,1.64,2.72,2.07,5,1.12s3-2.37,2.64-4.42a13.36,13.36,0,0,0-1.33-3.57A43.46,43.46,0,0,0,604,229l-3.83-5.72c-1.45-2.09-3.07-4.37-4.74-6.89l-1.28-1.93-1.27-1.87-1.59-3.09-1.53-3-1.62-2.94-3.31-5.85c-2.32-3.83-4.6-7.69-7.16-11.37l-1.9-2.77-1-1.38-1-1.36-4-5.41c-1.33-1.8-2.75-3.54-4.11-5.31l-2-2.66c-.69-.88-1.41-1.73-2.12-2.6l-4.19-5.23-4.28-5.16c-1.41-1.74-2.9-3.41-4.36-5.1l-2.19-2.54-1.1-1.27-1.13-1.24L544,144c.84.75,1.7,1.47,2.58,2.17l.17-.16a36.54,36.54,0,0,1-3.76-7.1,39.53,39.53,0,0,1-2-7.8c-.19-1.35-.32-2.73-.43-4.13s-.15-2.84-.24-4.29a18,18,0,0,0-.22-2.25,10.89,10.89,0,0,0-.65-2.57l-.16-.36c-.08-.13-.16-.26-.25-.39a2.82,2.82,0,0,0-.29-.39C538.61,116.51,538.51,116.31,538.39,116.12Zm-15.73,10a48.72,48.72,0,0,0-5-1.51,42.56,42.56,0,0,0-8.41-1H505a34.29,34.29,0,0,0-4.27.42c-2.83.37-5.61.89-8.31,1.39-1.36.29-2.7.57-4,.76a11,11,0,0,1-3.43.12,2,2,0,0,1-1-.45,1.66,1.66,0,0,1-.48-.9,5.29,5.29,0,0,1-.1-1.54,6.61,6.61,0,0,1,.21-1.65,5.12,5.12,0,0,1,1.6-2.62,8.77,8.77,0,0,1,3.09-1.68,22.13,22.13,0,0,1,7.6-.73,37.67,37.67,0,0,1,7.74,1.27c1.27.33,2.54.69,3.81,1.09s2.49.88,3.72,1.37A82,82,0,0,1,522.66,126.12ZM494,104.62c-1.37-.49-2.76-.93-4.14-1.35-.81-.24-1.61-.47-2.43-.66s-1.65-.36-2.47-.52c-1.66-.32-3.32-.58-5-.79a49.31,49.31,0,0,0-5-.41c-1.68-.06-3.37-.07-5,0-3.36.07-6.74.41-10,.74-1.62.14-3.26.39-4.84.54a20.79,20.79,0,0,1-4.46.06,5.33,5.33,0,0,1-1.75-.5,2.54,2.54,0,0,1-1.08-1,4.49,4.49,0,0,1-.5-1.72,7.59,7.59,0,0,1-.08-1.07v-.49a4.34,4.34,0,0,1,.65-2,4.74,4.74,0,0,1,1.36-1.2,11.71,11.71,0,0,1,4.2-1.32,37.24,37.24,0,0,1,9.43.34,77.9,77.9,0,0,1,9.39,2.18c1.54.48,3.07,1,4.6,1.54s3.08,1.08,4.57,1.72q6.36,2.64,12.55,5.91ZM459.38,81.75l-1.18-.54-.11.21.73.4C452.76,79.26,446.58,77,440.34,75c-2.24-.7-4.48-1.36-6.72-2l-6.79-1.72c-2.25-.59-4.54-1-6.8-1.55L416.64,69c-1.12-.25-2.27-.46-3.39-.69q-3.39-.7-6.74-1.44c-2.23-.47-4.43-1-6.55-1.67-.53-.16-1-.35-1.56-.54s-1-.37-1.5-.58a10.58,10.58,0,0,1-2.62-1.53c-1.52-1.25-1.88-2.6-1.33-4.71s1.57-3.18,3.54-3.56a11.31,11.31,0,0,1,3.13-.11,10.59,10.59,0,0,1,1.66.2c.56.09,1.11.22,1.66.35,2.25.56,4.48,1.22,6.67,2s4.38,1.76,6.56,2.66c1.08.47,2.18.91,3.25,1.42l3.22,1.51c2.14,1,4.29,2,6.39,3.11l6.33,3.22c2.08,1.12,4.18,2.22,6.28,3.3q9,4.83,17.74,9.81Zm47.7,27.91c-1-.79-1.88-1.61-2.83-2.41a70.2,70.2,0,0,1-5.83-5.61,31.76,31.76,0,0,1-5-6.48,18.88,18.88,0,0,1-.88-1.88,7.71,7.71,0,0,1-.55-2,4.53,4.53,0,0,1,.16-2.1,3.76,3.76,0,0,1,1.19-1.75,4.55,4.55,0,0,1,1.86-1,1.52,1.52,0,0,1,1.58.8,8.42,8.42,0,0,1,.84,1.92c.21.68.4,1.38.58,2.08a65.31,65.31,0,0,0,2.47,8.22,31.65,31.65,0,0,0,1.73,3.85,28.89,28.89,0,0,0,2.21,3.49,35.56,35.56,0,0,0,2.47,2.87Zm30.4,9a8.64,8.64,0,0,1,.51,2c.11.71.18,1.43.25,2.14a82,82,0,0,0,1.06,8.56,31.65,31.65,0,0,0,1.11,4.06,37.6,37.6,0,0,0,1.58,3.83,26.17,26.17,0,0,0,1.94,3.26,97.63,97.63,0,0,1-7.23-9.36c-.74-1.13-1.44-2.31-2.09-3.51a26.73,26.73,0,0,1-1.73-3.72,13.79,13.79,0,0,1-.56-2,7.79,7.79,0,0,1-.19-2.1,4.77,4.77,0,0,1,.5-2.06,3.73,3.73,0,0,1,1.47-1.53,4.45,4.45,0,0,1,2-.67,1.49,1.49,0,0,1,1.38,1.12Z"/><path class="cls-2" d="M627.72,177.72a30.94,30.94,0,0,0-2.37-11.23,32.85,32.85,0,0,0-1.55-3.08,29.53,29.53,0,0,0-1.74-2.7c-.61-.82-1.24-1.58-1.85-2.3a27.9,27.9,0,0,0-7.14-5.79,14.67,14.67,0,0,0-2.9-1.27,7,7,0,0,0-2.31-.39,2.92,2.92,0,0,0-2.8,1.63,3.19,3.19,0,0,0,.12,3.23,9.15,9.15,0,0,0,1.29,1.68c.55.59,1.25,1.17,2,1.86,1.56,1.31,3.49,2.85,5.54,4.87.5.52,1,1.05,1.53,1.63a22.29,22.29,0,0,1,1.5,1.87c.5.68.94,1.39,1.43,2.14s.87,1.63,1.24,2.47A30.66,30.66,0,0,1,622,185.62a77.12,77.12,0,0,1-2.91,17.53c-1.34,5-3.07,10.34-5,15.93q-2,5.07-4,10.13c-1.5,3.84-3,7.69-4.36,11.58-2.23,5.59-4.24,10.91-6,16-4.3,12.65-6.63,23.82-7.33,33a75,75,0,0,0-.1,12.08,21.28,21.28,0,0,0,.24,2.48c.09.79.19,1.54.32,2.26.09.49.18.95.28,1.41a5.87,5.87,0,0,1,1.14-.52,6.14,6.14,0,0,1,3.12-.7h.36a8.16,8.16,0,0,1,3.86,1c-.07-.77-.16-1.59-.29-2.46-.09-.66-.18-1.34-.27-2.07s-.23-1.47-.31-2.26c-.44-3.14-.85-6.84-1.1-11.11a118.38,118.38,0,0,1,2.7-32.34q1.67-7.71,4.37-16.27c1.39-3.89,2.86-7.76,4.36-11.61,1.27-3.26,2.56-6.52,3.84-9.79,2.42-5.56,4.73-10.8,6.7-15.82A92.74,92.74,0,0,0,627,186.2,43.8,43.8,0,0,0,627.72,177.72Z"/><path class="cls-2" d="M138.61,558.44a3.21,3.21,0,0,0,1,.57,3.5,3.5,0,0,0,.56.13,2.44,2.44,0,0,0,.54,0,5.38,5.38,0,0,0,1.77-.33l.7-.29c.23-.1.48-.25.72-.38a6.48,6.48,0,0,0,2.37-2.58,7.4,7.4,0,0,0,.73-3.07,10.91,10.91,0,0,0-.26-2.61,16.31,16.31,0,0,0-.68-2.26,27,27,0,0,0-2-3.89c-.5-.84-1-1.65-1.56-2.44.6.53,1.21,1.05,1.84,1.54l.43.31,1.82,1.73c1.64,1.53,3.25,3.09,4.92,4.59q7.29,6.56,15,12.62h0a37.33,37.33,0,0,1,4.87,6.39,34,34,0,0,1,3.28,7.34c.39,1.33.77,2.63,1.12,4s.63,2.73,1,4.16c.15.72.35,1.45.57,2.2a9.86,9.86,0,0,0,1,2.45l.22.32c.1.12.21.23.32.34a1.56,1.56,0,0,0,.35.33,3.52,3.52,0,0,0,.45.3,3.58,3.58,0,0,0,1.11.39h.58a2.05,2.05,0,0,0,.55,0,5.52,5.52,0,0,0,1.7-.62l.64-.4c.21-.14.43-.32.64-.49a6.44,6.44,0,0,0,1.93-2.93,7.25,7.25,0,0,0,.21-3.14,10.78,10.78,0,0,0-.69-2.5,14.53,14.53,0,0,0-1.06-2.08,27.81,27.81,0,0,0-2.55-3.56,28.75,28.75,0,0,0-2.26-2.42c4.69,3.15,9.49,6.14,14.36,9q4.77,2.76,9.69,5.3,2.75,1.71,5.5,3.41,12,7.35,24.45,14.27l6.24,3.44,6.32,3.31c2.1,1.13,4.26,2.14,6.4,3.19s4.3,2.1,6.5,3,4.4,1.91,6.65,2.75a68.46,68.46,0,0,0,6.88,2.14,20.61,20.61,0,0,0,3.58.61,13.29,13.29,0,0,0,3.67-.12,7.25,7.25,0,0,0,1.8-.57,6.45,6.45,0,0,0,1.61-1.14,7,7,0,0,0,1.18-1.66,9.78,9.78,0,0,0,.7-1.92,7.86,7.86,0,0,0,.08-4,6.26,6.26,0,0,0-2.12-3.06,12.41,12.41,0,0,0-3-1.77c-1.06-.45-2.16-.82-3.25-1.18a67.41,67.41,0,0,0-6.69-1.67c-2.24-.49-4.49-1-6.76-1.4s-4.52-.89-6.78-1.37-4.54-.91-6.78-1.47L244,599.58l-6.71-1.86A198.53,198.53,0,0,1,211,588.07c-1.87-.86-3.72-1.75-5.57-2.66q-4.84-2.86-9.6-5.87t-9.39-6.1c2.74,1.45,5.52,2.81,8.36,4,3,1.31,6.13,2.45,9.23,3.51a80.18,80.18,0,0,0,9.56,2.44,35.91,35.91,0,0,0,9.93.42,13.23,13.23,0,0,0,5-1.57,6.89,6.89,0,0,0,2.11-1.88,6.31,6.31,0,0,0,1.09-2.71,9.81,9.81,0,0,0,0-2.76,7,7,0,0,0-.77-2.48,4.19,4.19,0,0,0-1.76-1.6,6.88,6.88,0,0,0-2.26-.64,22.19,22.19,0,0,0-4.82.1l-4.9.57c-1.63.19-3.27.38-4.93.54l-2.48.23-2.47.12c-1.65.05-3.31.07-5,0-.83,0-1.66,0-2.49-.08l-2.46-.21c-1.64-.16-3.28-.38-4.92-.65-.81-.14-1.63-.28-2.44-.45s-1.6-.38-2.4-.58a60.37,60.37,0,0,1-9.37-3.16c-1.46-.62-2.89-1.28-4.29-2l-.2-.15c-5.18-3.88-10.29-7.85-15.28-12,2.09,1.15,4.22,2.22,6.41,3.17,1.24.53,2.47,1.07,3.75,1.5s2.58.85,3.88,1.21,2.62.69,4,1a36.8,36.8,0,0,0,4.07.52,22,22,0,0,0,8.3-.75,10.84,10.84,0,0,0,4-2.17,8,8,0,0,0,2.44-4,10.33,10.33,0,0,0,.31-2.22,7.87,7.87,0,0,0-.2-2.11,3.13,3.13,0,0,0-2.73-2.51,12.77,12.77,0,0,0-4,.15c-1.37.22-2.74.51-4.09.78-2.72.55-5.47,1.12-8.25,1.53-.69.1-1.39.2-2.08.28l-2.07.18c-1.38.1-2.77.15-4.15.15s-2.77-.06-4.15-.17a39.54,39.54,0,0,1-4-.6,36,36,0,0,1-4-1A30.77,30.77,0,0,1,152,546c-.64-.27-1.27-.56-1.9-.87l-2-1.84-2.49-2.22-2.42-2.3c-1.61-1.54-3.25-3-4.84-4.6l-4.73-4.72-1.18-1.18-1.15-1.21L129,524.63c-1.52-1.63-3.06-3.24-4.49-5l-4.35-5.08c-1.41-1.73-2.77-3.49-4.14-5.25-.68-.89-1.37-1.76-2-2.66L112,504c-1.27-1.83-2.59-3.62-3.82-5.48l-3.69-5.58-.92-1.39-.87-1.43L101,487.25c-2.43-3.73-4.65-7.59-7-11.36l-3.35-5.78-1.68-2.88-1.7-2.79-1.63-2.9h0c-.3-.76-.59-1.5-.88-2.22s-.52-1.47-.77-2.18c-1-2.85-1.83-5.48-2.53-7.9s-1.26-4.61-1.8-6.55-1-3.61-1.5-5a13.44,13.44,0,0,0-1.61-3.35c-1.2-1.64-2.72-2.08-5-1.12s-3,2.37-2.64,4.42a13.34,13.34,0,0,0,1.32,3.57,39.41,39.41,0,0,0,2.72,4.6q1.69,2.55,3.83,5.72c1.44,2.1,3.07,4.38,4.73,6.9.42.63.85,1.27,1.28,1.93L84,462.23q.78,1.54,1.59,3.09l1.54,3,1.62,3,3.3,5.85c2.32,3.83,4.61,7.69,7.16,11.37l1.91,2.77.95,1.38,1,1.36,4,5.41c1.32,1.8,2.74,3.54,4.11,5.3l2,2.66c.69.89,1.41,1.74,2.11,2.61l4.19,5.23,4.29,5.16c1.4,1.74,2.89,3.4,4.35,5.1l2.2,2.54,1.09,1.27,1.17,1.11.31.34c-.85-.74-1.7-1.46-2.59-2.16l-.17.16a38.29,38.29,0,0,1,3.76,7.1,39.44,39.44,0,0,1,2,7.79c.18,1.36.31,2.73.43,4.13s.14,2.84.24,4.29a18.16,18.16,0,0,0,.22,2.26,9.81,9.81,0,0,0,.64,2.56l.17.37c.07.13.16.26.24.39a2.82,2.82,0,0,0,.29.39Zm15.73-10a43,43,0,0,0,5,1.52,41.64,41.64,0,0,0,8.4,1c1.42,0,2.84,0,4.25,0a34.13,34.13,0,0,0,4.26-.42c2.83-.37,5.62-.88,8.31-1.39,1.36-.28,2.71-.56,4-.75a11,11,0,0,1,3.43-.12,2.07,2.07,0,0,1,1,.45,1.75,1.75,0,0,1,.47.9,6.15,6.15,0,0,1,.11,1.54,7.45,7.45,0,0,1-.22,1.64,5.11,5.11,0,0,1-1.6,2.63,8.63,8.63,0,0,1-3.09,1.68,22.1,22.1,0,0,1-7.59.73,37.56,37.56,0,0,1-7.74-1.27c-1.27-.33-2.55-.7-3.81-1.09s-2.49-.88-3.72-1.37a78.52,78.52,0,0,1-11.48-5.68ZM183,570c1.37.49,2.75.93,4.14,1.35.8.24,1.6.46,2.42.66s1.65.36,2.48.52c1.66.31,3.32.58,5,.79a49.07,49.07,0,0,0,5,.41c1.69.06,3.37.07,5,0,3.36-.08,6.73-.42,10-.74,1.62-.14,3.27-.4,4.85-.54a20.68,20.68,0,0,1,4.45-.06,5.72,5.72,0,0,1,1.75.49,2.63,2.63,0,0,1,1.09,1,4.82,4.82,0,0,1,.5,1.71,7.69,7.69,0,0,1,.07,1.07,4.17,4.17,0,0,1,0,.5,2.31,2.31,0,0,1,0,.46,3.47,3.47,0,0,1-.6,1.52,4.51,4.51,0,0,1-1.35,1.19,11.53,11.53,0,0,1-4.2,1.33,36.75,36.75,0,0,1-9.43-.34,77,77,0,0,1-9.39-2.18c-1.54-.48-3.07-1-4.61-1.55s-3.07-1.07-4.56-1.71c-4.25-1.74-8.47-3.71-12.58-5.89Zm34.57,22.86,1.19.54.1-.21-.73-.41c6.06,2.57,12.24,4.82,18.49,6.8,2.23.7,4.47,1.36,6.72,2l6.78,1.72c2.25.59,4.54,1,6.8,1.55l3.39.75c1.13.26,2.27.46,3.4.7,2.26.46,4.5,1,6.73,1.44a67.52,67.52,0,0,1,6.55,1.66c.53.17,1.05.36,1.56.55s1,.37,1.51.58a11.1,11.1,0,0,1,2.62,1.53c1.52,1.25,1.88,2.6,1.33,4.71s-1.57,3.18-3.55,3.56a11.34,11.34,0,0,1-3.13.11c-.54,0-1.1-.11-1.65-.2s-1.11-.22-1.67-.35a66.3,66.3,0,0,1-6.66-2c-2.21-.81-4.38-1.76-6.56-2.66-1.09-.47-2.18-.92-3.26-1.42l-3.21-1.52c-2.14-1-4.29-2-6.4-3.11l-6.35-3.25q-3.12-1.68-6.27-3.3Q226.37,597.81,217.61,592.81Zm-47.69-27.92c1,.8,1.88,1.62,2.83,2.42a71.68,71.68,0,0,1,5.82,5.61,31.76,31.76,0,0,1,5,6.48c.33.61.62,1.24.89,1.88a8.57,8.57,0,0,1,.54,2,5,5,0,0,1-.15,2.1,3.94,3.94,0,0,1-1.2,1.75,4.58,4.58,0,0,1-1.85,1,1.48,1.48,0,0,1-1.58-.81,6.66,6.66,0,0,1-.84-1.91c-.21-.69-.4-1.38-.58-2.08a69.36,69.36,0,0,0-2.47-8.22,39.1,39.1,0,0,0-1.74-3.85,30.1,30.1,0,0,0-2.2-3.49c-.78-1-1.63-2-2.49-2.88Zm-30.4-9a8.07,8.07,0,0,1-.52-2c-.1-.7-.18-1.42-.25-2.14a79.4,79.4,0,0,0-1.06-8.56,35.68,35.68,0,0,0-1.11-4.05,38.56,38.56,0,0,0-1.58-3.83,26.1,26.1,0,0,0-1.93-3.26,100.48,100.48,0,0,1,7.22,9.36c.75,1.13,1.45,2.31,2.09,3.51a25.62,25.62,0,0,1,1.73,3.72,16.94,16.94,0,0,1,.57,2,8.74,8.74,0,0,1,.19,2.1,4.89,4.89,0,0,1-.51,2.06,3.77,3.77,0,0,1-1.46,1.53,4.25,4.25,0,0,1-2,.67,1.47,1.47,0,0,1-1.4-1.13Z"/><path class="cls-2" d="M50.2,488.91A91.59,91.59,0,0,1,55.61,471c2-5,4.28-10.26,6.7-15.82l3.84-9.78c1.5-3.86,3-7.72,4.36-11.61,1.8-5.7,3.26-11.14,4.37-16.27a118.42,118.42,0,0,0,2.7-32.35c-.25-4.27-.66-8-1.1-11.11-.09-.79-.21-1.54-.31-2.26s-.16-1.22-.23-1.8a5.72,5.72,0,0,0,1.83,1,6.24,6.24,0,0,0,3.12.7h.72a8.15,8.15,0,0,0,3.11-.63c.09.69.17,1.4.21,2.15a78.44,78.44,0,0,1-.1,12.07c-.7,9.16-3,20.33-7.33,33-1.72,5.07-3.73,10.39-6,16-1.39,3.88-2.85,7.74-4.35,11.58q-2,5.07-4,10.12c-2,5.6-3.68,10.91-5,15.93a76.74,76.74,0,0,0-2.88,17.48,30.48,30.48,0,0,0,2.34,13.27c.36.88.83,1.69,1.24,2.47a14.14,14.14,0,0,0,1.43,2.13c.51.65,1,1.28,1.49,1.88a19.87,19.87,0,0,0,1.53,1.63c2.06,2,4,3.56,5.55,4.87.75.68,1.45,1.27,2,1.86a11.09,11.09,0,0,1,1.3,1.68,3.22,3.22,0,0,1,.12,3.22,2.93,2.93,0,0,1-2.8,1.64,7,7,0,0,1-2.31-.39,13.19,13.19,0,0,1-2.9-1.28,27.15,27.15,0,0,1-7.14-5.79c-.61-.71-1.24-1.47-1.85-2.29A31.37,31.37,0,0,1,52,508.56a28.5,28.5,0,0,1-1.21-3.47,32.37,32.37,0,0,1-1.16-7.77A42.36,42.36,0,0,1,50.2,488.91Z"/><path class="cls-2" d="M141.84,112.24a1.74,1.74,0,0,0-.29.38c-.09.13-.17.26-.25.4l-.16.36a10,10,0,0,0-.65,2.57c-.1.77-.18,1.52-.22,2.25-.1,1.45-.13,2.89-.24,4.29s-.24,2.77-.43,4.13a39.53,39.53,0,0,1-2,7.8,37.66,37.66,0,0,1-3.76,7.1l.17.16c.88-.7,1.74-1.43,2.58-2.17l-.31.34-1.13,1.24-1.1,1.27-2.19,2.53c-1.46,1.7-3,3.36-4.36,5.11l-4.28,5.15-4.2,5.23c-.7.87-1.42,1.73-2.11,2.61l-2,2.66c-1.37,1.77-2.78,3.5-4.11,5.3l-4,5.42-1,1.35-1,1.39-1.9,2.76c-2.56,3.68-4.84,7.54-7.17,11.37l-3.3,5.86L90.86,202l-1.53,3q-.81,1.53-1.59,3.09L86.47,210l-1.28,1.93c-1.67,2.53-3.29,4.8-4.74,6.9l-3.84,5.71a39.33,39.33,0,0,0-2.71,4.6,13.36,13.36,0,0,0-1.33,3.57c-.37,2.06.37,3.47,2.64,4.42s3.8.52,5-1.12a13.21,13.21,0,0,0,1.61-3.34c.49-1.41,1-3.1,1.51-5l1.79-6.55c.71-2.42,1.56-5,2.53-7.9.25-.71.49-1.44.77-2.17l.89-2.23h0c.52-.95,1-1.9,1.58-2.85L92.5,203l1.69-2.88,3.35-5.78c2.36-3.77,4.59-7.63,7-11.36l1.76-2.84.88-1.42.92-1.4,3.69-5.57c1.22-1.86,2.55-3.66,3.82-5.49l2-2.71c.66-.9,1.36-1.78,2-2.67,1.37-1.75,2.74-3.51,4.14-5.25l4.35-5.08c1.44-1.71,3-3.32,4.49-5l2.28-2.44,1.15-1.22,1.18-1.18,4.74-4.72c1.58-1.56,3.23-3.06,4.84-4.6l2.42-2.29,2.48-2.23,2-1.84q.93-.47,1.89-.87a32.56,32.56,0,0,1,3.85-1.36c1.31-.39,2.63-.71,4-1a39.32,39.32,0,0,1,4.06-.6c1.38-.11,2.76-.17,4.14-.17s2.77,0,4.15.15l2.07.18c.7.08,1.39.18,2.09.28,2.77.41,5.52,1,8.24,1.54,1.36.26,2.73.55,4.1.77a12.48,12.48,0,0,0,4,.16,3.2,3.2,0,0,0,2.75-2.52,7.14,7.14,0,0,0,.2-2.11,9.82,9.82,0,0,0-.31-2.22,8,8,0,0,0-2.44-4,11.28,11.28,0,0,0-3.94-2.17,22.43,22.43,0,0,0-8.31-.75,39.36,39.36,0,0,0-4.07.52,36.67,36.67,0,0,0-3.94,1c-1.3.41-2.6.77-3.88,1.21s-2.52,1-3.76,1.5q-3.27,1.44-6.41,3.17c5-4.13,10.1-8.1,15.28-12l.21-.15c1.41-.7,2.84-1.36,4.28-2a62.54,62.54,0,0,1,9.33-3.18c.8-.2,1.6-.4,2.4-.58s1.63-.31,2.45-.45c1.63-.27,3.27-.48,4.91-.65.82-.08,1.64-.16,2.46-.21s1.66-.06,2.5-.08c1.66,0,3.31,0,5,0,.83,0,1.65.06,2.47.12l2.49.22c1.65.16,3.29.35,4.93.54l4.89.57a22.28,22.28,0,0,0,4.83.1,6.87,6.87,0,0,0,2.26-.63,4.31,4.31,0,0,0,1.75-1.61,7,7,0,0,0,.77-2.48,9.81,9.81,0,0,0,0-2.76,6.36,6.36,0,0,0-1.09-2.71,7.13,7.13,0,0,0-2.1-1.88,13.78,13.78,0,0,0-5-1.57,36.79,36.79,0,0,0-9.94.42,82.7,82.7,0,0,0-9.58,2.37c-3.11,1.06-6.21,2.2-9.24,3.51q-4.26,1.89-8.36,4,4.62-3.12,9.35-6.15t9.61-5.86c1.84-.92,3.7-1.81,5.56-2.67a201.94,201.94,0,0,1,26.23-9.65l6.71-1.86,6.77-1.62c2.24-.56,4.52-1,6.78-1.47s4.5-1,6.78-1.37,4.51-.91,6.75-1.4A67.41,67.41,0,0,0,281.34,63c1.1-.34,2.18-.73,3.25-1.18a12.43,12.43,0,0,0,3-1.76A6.18,6.18,0,0,0,289.71,57a7.84,7.84,0,0,0-.07-4,10.31,10.31,0,0,0-.71-1.92,7,7,0,0,0-1.18-1.66,6.45,6.45,0,0,0-1.61-1.14,8.19,8.19,0,0,0-1.8-.57,14.11,14.11,0,0,0-3.67-.12,22.57,22.57,0,0,0-3.57.61,71.15,71.15,0,0,0-6.88,2.14c-2.25.84-4.46,1.81-6.65,2.75s-4.36,2-6.5,3-4.3,2.06-6.41,3.19l-6.32,3.32L238.1,66c-8.26,4.65-16.41,9.38-24.44,14.27-1.84,1.14-3.67,2.27-5.5,3.42q-4.92,2.53-9.69,5.29-7.32,4.29-14.37,9a28.75,28.75,0,0,0,2.26-2.42A28.06,28.06,0,0,0,188.92,92a14.83,14.83,0,0,0,1-2.09,10.33,10.33,0,0,0,.7-2.5,7.25,7.25,0,0,0-.22-3.14,6.44,6.44,0,0,0-1.93-2.93c-.21-.17-.42-.34-.64-.49l-.64-.4a5.52,5.52,0,0,0-1.7-.62,2.53,2.53,0,0,0-.55,0h-.58a3.52,3.52,0,0,0-1.1.39c-.16.09-.31.2-.46.3a2.73,2.73,0,0,0-.35.33c-.11.11-.21.22-.31.34l-.22.32a9.5,9.5,0,0,0-1,2.45c-.23.76-.42,1.48-.58,2.2-.31,1.43-.61,2.82-1,4.17s-.72,2.65-1.11,4a33.83,33.83,0,0,1-3.29,7.34,37.79,37.79,0,0,1-4.86,6.39h0q-7.74,6-15,12.63c-1.67,1.49-3.28,3-4.91,4.58L148.35,127l-.43.31c-.64.49-1.25,1-1.85,1.54q.83-1.18,1.56-2.43a26.55,26.55,0,0,0,2-3.9,13.68,13.68,0,0,0,.68-2.26,10.38,10.38,0,0,0,.26-2.61,7.43,7.43,0,0,0-.72-3.07,6.64,6.64,0,0,0-2.38-2.58c-.24-.14-.48-.27-.72-.38l-.69-.29a6,6,0,0,0-1.77-.33,3.31,3.31,0,0,0-.55.05l-.56.13a3.44,3.44,0,0,0-1,.58A3.91,3.91,0,0,0,141.84,112.24Zm27.56,4c1.23-.49,2.46-1,3.72-1.37s2.54-.75,3.81-1.09a39,39,0,0,1,7.74-1.27,22.68,22.68,0,0,1,7.6.73,8.91,8.91,0,0,1,3.08,1.68A5.19,5.19,0,0,1,197,117.5a7.11,7.11,0,0,1,.21,1.65,6,6,0,0,1-.1,1.53,1.72,1.72,0,0,1-.48.9,2,2,0,0,1-1,.45,11,11,0,0,1-3.43-.12c-1.28-.19-2.62-.47-4-.75-2.7-.51-5.48-1-8.31-1.39-1.41-.18-2.86-.35-4.27-.42a37.48,37.48,0,0,0-4.24,0,41.74,41.74,0,0,0-8.41,1,45,45,0,0,0-5,1.51A80.94,80.94,0,0,1,169.4,116.19Zm29.86-21.75c1.49-.63,3-1.16,4.57-1.71s3.06-1.06,4.6-1.55A81.42,81.42,0,0,1,217.82,89a37.67,37.67,0,0,1,9.43-.34,12,12,0,0,1,4.2,1.33,4.69,4.69,0,0,1,1.36,1.19,3.51,3.51,0,0,1,.59,1.52,3.78,3.78,0,0,1,.06.47,4,4,0,0,1,0,.49,7.59,7.59,0,0,1-.07,1.07,4.82,4.82,0,0,1-.5,1.71,2.63,2.63,0,0,1-1.09,1,5.09,5.09,0,0,1-1.74.49,20.78,20.78,0,0,1-4.46-.06c-1.58-.14-3.22-.39-4.84-.53-3.26-.33-6.64-.67-10-.75h-5a49.07,49.07,0,0,0-5,.41c-1.67.22-3.33.48-5,.8-.82.15-1.65.33-2.47.51s-1.62.43-2.43.66c-1.38.42-2.77.87-4.14,1.35Q192.84,97.08,199.26,94.44ZM239,67.72q3.15-1.62,6.28-3.3l6.33-3.21c2.1-1.11,4.25-2.08,6.39-3.11l3.22-1.52c1.07-.5,2.17-.94,3.25-1.41,2.18-.91,4.36-1.86,6.56-2.67a66.48,66.48,0,0,1,6.67-2c.55-.14,1.11-.26,1.66-.36s1.11-.15,1.66-.2a11.74,11.74,0,0,1,3.13.11c2,.38,3,1.44,3.54,3.56s.19,3.46-1.33,4.71a10.76,10.76,0,0,1-2.62,1.53c-.49.21-1,.41-1.5.59s-1,.37-1.56.54a64.74,64.74,0,0,1-6.55,1.66c-2.23.49-4.48,1-6.74,1.44-1.13.24-2.27.44-3.39.7l-3.39.76c-2.26.51-4.56.95-6.8,1.54L247,68.8l-6.72,2c-6.24,2-12.43,4.23-18.48,6.8l.73-.4-.11-.21-1.18.53q8.79-5,17.74-9.81Zm-63,34.81A28.13,28.13,0,0,0,178.19,99a33.26,33.26,0,0,0,1.73-3.85A66.86,66.86,0,0,0,182.39,87c.18-.7.37-1.4.58-2.09a7.56,7.56,0,0,1,.84-1.91,1.51,1.51,0,0,1,1.58-.81,4.4,4.4,0,0,1,1.85,1,3.78,3.78,0,0,1,1.2,1.74,4.82,4.82,0,0,1,.16,2.1,8.59,8.59,0,0,1-.55,2c-.26.64-.56,1.26-.88,1.87a31.49,31.49,0,0,1-5,6.48,67,67,0,0,1-5.82,5.61c-1,.8-1.88,1.62-2.83,2.42a33.43,33.43,0,0,0,2.45-2.87Zm-31.42,10.83a4.32,4.32,0,0,1,2,.66,3.86,3.86,0,0,1,1.47,1.53,5.08,5.08,0,0,1,.5,2.06,8.69,8.69,0,0,1-.19,2.1,15.19,15.19,0,0,1-.56,2,26.53,26.53,0,0,1-1.77,3.73c-.65,1.21-1.35,2.38-2.09,3.51a101,101,0,0,1-7.23,9.36,25.45,25.45,0,0,0,1.92-3.27,40,40,0,0,0,1.58-3.83,35.28,35.28,0,0,0,1.11-4.06,84.78,84.78,0,0,0,1.06-8.56c.07-.72.14-1.43.25-2.14a7.74,7.74,0,0,1,.51-2,1.47,1.47,0,0,1,1.43-1.1Z"/><path class="cls-2" d="M49.55,177.72A32.37,32.37,0,0,1,50.71,170a28.5,28.5,0,0,1,1.21-3.47,30.59,30.59,0,0,1,1.55-3.08,25.81,25.81,0,0,1,1.74-2.7c.61-.82,1.24-1.58,1.85-2.3a27.36,27.36,0,0,1,7.14-5.79,14.41,14.41,0,0,1,2.9-1.27,7,7,0,0,1,2.31-.39,2.93,2.93,0,0,1,2.8,1.63,3.24,3.24,0,0,1-.12,3.23,10.18,10.18,0,0,1-1.3,1.68c-.54.59-1.24,1.17-2,1.86-1.56,1.31-3.49,2.85-5.55,4.87-.49.52-1,1.05-1.53,1.63a20.37,20.37,0,0,0-1.49,1.87c-.49.68-.94,1.39-1.43,2.14a25.39,25.39,0,0,0-1.18,2.47,30.36,30.36,0,0,0-2.29,13.28,76,76,0,0,0,2.91,17.53c1.34,5,3.07,10.34,5,15.93q2,5.07,4,10.13c1.5,3.84,3,7.69,4.35,11.58,2.24,5.59,4.25,10.91,6,16,4.3,12.65,6.63,23.82,7.33,33a78.58,78.58,0,0,1,.1,12.08,21.28,21.28,0,0,1-.24,2.48c-.09.79-.19,1.54-.32,2.26-.09.49-.18.95-.28,1.41A5.87,5.87,0,0,0,83,307.5a6.16,6.16,0,0,0-3.12-.7h-.36a8.14,8.14,0,0,0-3.87,1c.08-.77.17-1.59.3-2.46.09-.66.18-1.34.27-2.07s.22-1.47.31-2.26c.44-3.14.85-6.84,1.1-11.11A118.38,118.38,0,0,0,75,257.56q-1.67-7.71-4.37-16.27c-1.39-3.89-2.86-7.76-4.36-11.61l-3.84-9.79c-2.42-5.56-4.73-10.8-6.7-15.82a92,92,0,0,1-5.4-17.87A42.25,42.25,0,0,1,49.55,177.72Z"/><path class="cls-2" d="M111.61,338c-.28.38-.56.73-.84,1.09l-.08.1a45.84,45.84,0,0,0-3.06,4.16,26.32,26.32,0,0,1-2.49,3.17,93,93,0,0,1-7.41,7.58c-1.5,1.44-3.36,3.23-5.85,5.65a18.92,18.92,0,0,1-9.3,5.4,26.77,26.77,0,0,0-2.9,1.57c-.49.29-.88.54-1.23.76a8.17,8.17,0,0,1-2.32,1.17,7.29,7.29,0,0,1-3.38.13c-1,.84-2.12,1.66-3.21,2.45A87.13,87.13,0,0,1,62,376c-.83.47-1.5.82-2.24,1.18-.38.18-1.68.8-2.7,1.17-1.61.58-5.38,1.94-7.52.09h0a4.64,4.64,0,0,1-1.36-2.59,8.23,8.23,0,0,1,.18-3.82,20.87,20.87,0,0,1,1.12-3.71,91.14,91.14,0,0,1,4.27-8.85h0c1.79-3.15,3.71-6.31,5.71-9.41-.11-1.05-.18-2.13-.19-3.19a35.81,35.81,0,0,1,1.28-9.77A28.54,28.54,0,0,1,61.85,333a29.46,29.46,0,0,1,3.3-6,39.79,39.79,0,0,1,8.67-9.5,36.41,36.41,0,0,1,8.57-5,33.89,33.89,0,0,1,12.45-2.58,20.9,20.9,0,0,1,2.5.1,92.64,92.64,0,0,1,10.84-7.93,67.15,67.15,0,0,1,6.86-3.65,36.3,36.3,0,0,1,4.44-1.64,7.31,7.31,0,0,1,2.13-.35,5.52,5.52,0,0,1,3.17.77,4.63,4.63,0,0,1,1.51,1.54,5.2,5.2,0,0,1,.48,3.31,9.32,9.32,0,0,1-.58,1.95c-.37,1.05-.76,2.12-1.17,3.17l-2.41,5.47a44.61,44.61,0,0,1-2.18,4.24,42.68,42.68,0,0,1-3.34,4.86,8.74,8.74,0,0,1,.14,2.6,10.76,10.76,0,0,1-1.24,3.57s-.46,1-2.06,3.8a6.81,6.81,0,0,1-.2,1c-.18.83-.31,1.42-.4,1.75A10.26,10.26,0,0,1,111.61,338Zm-3.68,3.33c.46-.63,1.1-1.48,2.06-2.69l.08-.11a11.08,11.08,0,0,0,2.38-4.21c.16-.59.44-2,.56-2.55l-.09-.07.2-.35c1.59-2.81,2-3.76,2-3.77a9.63,9.63,0,0,0,1.15-3.29,7.27,7.27,0,0,0-.16-2.5l-.06-.22.14-.17a40.75,40.75,0,0,0,3.42-4.92,39.5,39.5,0,0,0,2.14-4.14l2.41-5.47c.4-1,.79-2.09,1.16-3.13a9,9,0,0,0,.53-1.77,4.19,4.19,0,0,0-.37-2.74,3.74,3.74,0,0,0-1.21-1.23,4.56,4.56,0,0,0-2.67-.63,6.31,6.31,0,0,0-1.88.34,32.24,32.24,0,0,0-4.31,1.6,66.58,66.58,0,0,0-6.78,3.6,91.68,91.68,0,0,0-10.88,8l-.14.12h-.19c-.86-.07-1.74-.11-2.61-.11a33.11,33.11,0,0,0-12.11,2.51,35.53,35.53,0,0,0-8.36,4.88,38.9,38.9,0,0,0-8.48,9.3,28.41,28.41,0,0,0-3.21,5.81,28,28,0,0,0-1.23,4,35,35,0,0,0-1.25,9.54,32.23,32.23,0,0,0,.2,3.26v.16l-.09.14c-2,3.12-4,6.31-5.77,9.49a92.74,92.74,0,0,0-4.22,8.76,19.34,19.34,0,0,0-1.07,3.55A7.2,7.2,0,0,0,49,375.7a3.83,3.83,0,0,0,1.08,2.12h0c1.74,1.51,5.29.23,6.63-.26a27.78,27.78,0,0,0,2.61-1.13c.72-.35,1.38-.69,2.19-1.15,3.7-2.1,7.06-4.51,7.43-4.78,1.12-.82,2.24-1.67,3.33-2.55l.16-.13h.21a6.5,6.5,0,0,0,3.16-.07,8,8,0,0,0,2.09-1.07c.35-.22.75-.48,1.25-.78,1-.58,2-1.13,3-1.62h.09a18,18,0,0,0,8.93-5.18c2.49-2.42,4.36-4.22,5.86-5.66a91.55,91.55,0,0,0,7.35-7.52,24.77,24.77,0,0,0,2.41-3.08c.29-.4.58-.83,1.11-1.55Z"/><path class="cls-2" d="M118.38,320c-.47.64-.95,1.28-1.45,1.9l-.32.4-.67-.71a5.65,5.65,0,0,0-1.58-.19,6.91,6.91,0,0,0-3.19,1c-2.78,1.4-4,2.17-4,2.18l-.51.33c-1.55,1-2.78,1.78-4.63,3.21a123.11,123.11,0,0,0-10.86,9.67,110.33,110.33,0,0,0-10.84,12.23c-3.76,5-5.16,7.8-6.1,10.09a37.09,37.09,0,0,0-1.92,6l.21,1.23a1.62,1.62,0,0,0,.42.55l.39.35-.63.51c-.49.39-1.15.93-1.93,1.51-.29.2-.58.42-.88.64a61.17,61.17,0,0,1-7.38,4.88,50.09,50.09,0,0,1-5.6,2.63,11,11,0,0,1-2.74.79c-1.52.23-3.06.47-4.21-.52a3.76,3.76,0,0,1-1.11-1.9,4.56,4.56,0,0,1-.06-2.14c1.09-5.83,6.37-14.37,6.59-14.73.93-1.51,2-3.16,2.94-4.65,0,0,1.44-2.22,2.78-4.18,6.52-9.55,18.76-22.37,18.88-22.5,4.06-4.24,8.32-8.2,16.82-16.08a113.31,113.31,0,0,1,13-10.2c1.22-.79,2.64-1.62,4.24-2.46a43.37,43.37,0,0,1,6.23-2.56,8.91,8.91,0,0,1,2.57-.47,4.47,4.47,0,0,1,1.88.29h.06a4.59,4.59,0,0,1,1.83,2.31c.53,1.41.11,3-.4,4.58a48,48,0,0,1-2.12,5.45,59.4,59.4,0,0,1-3,6.18c-1.09,1.88-1.71,2.85-1.91,3.14S118.67,319.64,118.38,320Zm-1.83.93c.68-.86,1.33-1.74,1.94-2.63.2-.29.92-1.38,1.87-3.08s1.6-3.15,2.91-6.11a48.2,48.2,0,0,0,2.09-5.35c.55-1.75.8-3,.41-4a3.72,3.72,0,0,0-1.43-1.82h0a3.4,3.4,0,0,0-1.48-.21,7.72,7.72,0,0,0-2.29.42,43.45,43.45,0,0,0-6.12,2.51,46.32,46.32,0,0,0-4.16,2.41A112.72,112.72,0,0,0,97.4,313.2c-8.49,7.87-12.79,11.82-16.79,16-.12.13-12.31,12.9-18.79,22.38l-2.76,4.16c-1,1.49-2,3.14-2.93,4.64-.06.09-5.42,8.76-6.48,14.42a3.79,3.79,0,0,0,.05,1.74,2.79,2.79,0,0,0,.83,1.46h0c.83.72,2.11.52,3.46.32a10.94,10.94,0,0,0,2.55-.74A51.26,51.26,0,0,0,62.06,375a62.39,62.39,0,0,0,7.28-4.82l.88-.65c.69-.51,1.27-1,1.75-1.36a2.26,2.26,0,0,1-.31-.49h0l-.26-1.54v-.09a39.08,39.08,0,0,1,2-6.24,44.46,44.46,0,0,1,6.21-10.33A112,112,0,0,1,90.53,337.2a124.18,124.18,0,0,1,11-9.75c1.88-1.45,3.12-2.25,4.69-3.26l.52-.33c.05,0,1.27-.8,4.09-2.23a8,8,0,0,1,3.57-1.1,6.47,6.47,0,0,1,2,.26h.12Z"/><path class="cls-2" d="M65.61,343.25,61,349.5l-.17-3.41,4-6.41Zm-4.26,5,3.78-5.08-.5-2.3-3.39,5.36Z"/><path class="cls-2" d="M72.41,335.2,66,342.84l-.84-3.62L70.64,332Zm-6.15,6.67,5.61-6.72-1.26-2.37-4.92,6.55Z"/><path class="cls-2" d="M83,323.76,73,334.45l-1.94-3,.11-.13c1.07-1.25,2.18-2.5,3.3-3.71,1.7-1.84,3.49-3.65,5.31-5.38l.11-.11Zm-9.91,10,9.18-9.83L80,322.72c-1.77,1.69-3.51,3.45-5.18,5.24-1.07,1.17-2.14,2.37-3.17,3.57Z"/><path class="cls-2" d="M90.19,317l-6.58,6.25L80,322l6.55-5.52Zm-6.69,5.74,5.71-5.43L86.72,317l-5.79,4.89Z"/><path class="cls-2" d="M96,312l-5.29,4.6-4.14-.11,6.09-4Zm-5.43,4.15,4-3.49-1.69.24L88.09,316Z"/><path class="cls-2" d="M110.91,339.34c-2,2.67-4,5.27-6.18,7.75a127.53,127.53,0,0,1-9.18,9.42c-2,1.84-4,3.63-6.11,5.33A18.53,18.53,0,0,1,86,363.92a18.85,18.85,0,0,1-3.48,1.2h-.15a2.45,2.45,0,0,1-1.77-.86h0c-.56-.75-.39-1.77.06-3.15a18.71,18.71,0,0,1,1.91-4.2,58.45,58.45,0,0,1,3.78-5.24c3.47-4.1,5-5.93,5.74-6.81s.7-.84.94-1.09a110.42,110.42,0,0,1,10.75-10.1,36.61,36.61,0,0,1,4.83-3.23,8,8,0,0,1,3.4-.9,2,2,0,0,1,1.54.51,2.37,2.37,0,0,1,.52,1.3,5.23,5.23,0,0,1,0,.56,12.77,12.77,0,0,1-.83,3.5,15.54,15.54,0,0,1-1.7,3.1A10.06,10.06,0,0,0,110.91,339.34ZM82.39,364.23a17.68,17.68,0,0,0,3.23-1.13,17.08,17.08,0,0,0,3.26-2c2.05-1.68,4.09-3.47,6.06-5.29a121.82,121.82,0,0,0,9.11-9.35c2.36-2.71,4.63-5.58,6.73-8.53a15.37,15.37,0,0,0,1.61-2.92,12.29,12.29,0,0,0,.76-3.22,2.41,2.41,0,0,0,0-.38,1.37,1.37,0,0,0-.29-.8c-.15-.16-.41-.23-.88-.23a7.11,7.11,0,0,0-3,.78,34.44,34.44,0,0,0-4.66,3.17,110.81,110.81,0,0,0-10.66,10c-.22.24-.24.25-.91,1.06S90.48,348.1,87,352.2a58.5,58.5,0,0,0-3.72,5.15,18.43,18.43,0,0,0-1.8,4c-.49,1.5-.43,2-.2,2.34h0a1.5,1.5,0,0,0,1.1.54Z"/><path class="cls-2" d="M109,341.2h0c-2.52,3.27-5.2,6.44-8,9.43-5.14,5.53-8.24,7.9-10.37,9.34-.71.48-1.44.95-2.17,1.39h-.07c-.47.19-1.15.38-1.55,0-.72-.73.21-2.39,2.42-5.63.48-.7,1.28-1.82,2.73-3.59,1.06-1.29,1.94-2.28,3.41-3.89,0-.05,4.16-4.57,8.27-8.48A15.32,15.32,0,0,1,105.8,338a6.15,6.15,0,0,1,1-.57,13.22,13.22,0,0,0,1.27-.71,6.38,6.38,0,0,1,1.27-.59c.55-.19,1.23-.43,1.63,0a1,1,0,0,1,.11,1,16.74,16.74,0,0,1-2.14,4ZM88,360.58c.71-.43,1.41-.88,2.1-1.34A59.12,59.12,0,0,0,100.27,350c2.75-3,5.41-6.11,7.91-9.36a15.19,15.19,0,0,0,2-3.75v-.11a2.36,2.36,0,0,0-.62.19,6,6,0,0,0-1.09.5,11.74,11.74,0,0,1-1.34.75,6.29,6.29,0,0,0-.91.52,14.57,14.57,0,0,0-2,1.66c-4.09,3.89-8.19,8.39-8.23,8.43-1.46,1.6-2.33,2.59-3.38,3.86-1.43,1.74-2.21,2.85-2.68,3.53-.64.94-2.56,3.74-2.51,4.46a1.74,1.74,0,0,0,.59-.13Z"/><path class="cls-2" d="M103.43,345.73l-.09.12a50,50,0,0,1-6,6.43,46.24,46.24,0,0,1-4,3.26,8.08,8.08,0,0,1-3.23,1.62,6.93,6.93,0,0,1-1,.16l-.93.08.52-.78c.61-.91,1.26-1.82,1.93-2.71a79.82,79.82,0,0,1,5.71-6.63c1.63-1.75,3.32-3.5,5-5.21l3.45-3.26,1.38-1,1.25-.7-.09.86c0,.3-.08.6-.14.9a8.56,8.56,0,0,1-.83,2.14A45.82,45.82,0,0,1,103.43,345.73ZM90,356.26a7.45,7.45,0,0,0,2.8-1.43c2.81-2.15,3.9-3.18,3.91-3.19a52.31,52.31,0,0,0,5.94-6.33,44.53,44.53,0,0,0,2.9-4.72,7.12,7.12,0,0,0,.7-1.74l-.94.67-3.36,3.19c-1.69,1.7-3.37,3.44-5,5.18a74.86,74.86,0,0,0-5.65,6.56C90.84,355.05,90.4,355.65,90,356.26Z"/><path class="cls-2" d="M63.33,369.11a5.38,5.38,0,0,1-.77.81A4.19,4.19,0,0,1,60.24,371a3,3,0,0,1-2.9-.92h0a2.55,2.55,0,0,1-.59-1.71A3.45,3.45,0,0,1,58,365.92a4.23,4.23,0,0,1,3.1-1.35,3,3,0,0,1,2.23.88,2.82,2.82,0,0,1,.55,2.44A3.07,3.07,0,0,1,63.33,369.11Zm-5.3.44a2.21,2.21,0,0,0,2.11.6,3.28,3.28,0,0,0,1.83-.9,2.73,2.73,0,0,0,1-1.54,2,2,0,0,0-.33-1.67,2.11,2.11,0,0,0-1.58-.57,3.29,3.29,0,0,0-2.45,1.09,2.61,2.61,0,0,0-1,1.85,1.74,1.74,0,0,0,.39,1.14Z"/><path class="cls-2" d="M71.85,354.31a5.38,5.38,0,0,1-.77.81,4.22,4.22,0,0,1-2.33,1.12,3,3,0,0,1-2.9-.91h0a2.68,2.68,0,0,1-.59-1.72,3.51,3.51,0,0,1,1.25-2.49,4.22,4.22,0,0,1,3.1-1.34,3,3,0,0,1,2.24.87,2.83,2.83,0,0,1,.54,2.44A3.19,3.19,0,0,1,71.85,354.31Zm-5.31.44a2.21,2.21,0,0,0,2.11.6,3.28,3.28,0,0,0,1.83-.9,2.79,2.79,0,0,0,1-1.53,2,2,0,0,0-.34-1.68,2.1,2.1,0,0,0-1.58-.57,3.35,3.35,0,0,0-2.45,1.09,2.61,2.61,0,0,0-1,1.85,1.67,1.67,0,0,0,.38,1.14Z"/><path class="cls-2" d="M103.25,320.94l-.15.2a3.59,3.59,0,0,1-1.94,1.44,2.75,2.75,0,0,1-2.47-.39,2.92,2.92,0,0,1-1-2.17,4.17,4.17,0,0,1,1.15-3.18,3.51,3.51,0,0,1,2.4-1.41,2.67,2.67,0,0,1,1.75.48h0a3.09,3.09,0,0,1,1.1,2.84A4.05,4.05,0,0,1,103.25,320.94Zm-4-3.2a3.14,3.14,0,0,0-.68,2.2,2,2,0,0,0,.67,1.54,1.91,1.91,0,0,0,1.69.23,2.78,2.78,0,0,0,1.47-1.12,3.41,3.41,0,0,0,.77-1.89,2.2,2.2,0,0,0-.73-2.06h0a1.72,1.72,0,0,0-1.16-.31,2.59,2.59,0,0,0-1.78,1.1A2.42,2.42,0,0,0,99.25,317.74Z"/><path class="cls-2" d="M118.91,311.88l-.15.2a3.65,3.65,0,0,1-2,1.44,2.79,2.79,0,0,1-2.47-.38,2.93,2.93,0,0,1-1-2.18,4.21,4.21,0,0,1,1.14-3.18,3.59,3.59,0,0,1,2.41-1.41,2.67,2.67,0,0,1,1.75.48h0a3.08,3.08,0,0,1,1.09,2.84A4.11,4.11,0,0,1,118.91,311.88Zm-4-3.19a3.1,3.1,0,0,0-.68,2.19,2,2,0,0,0,.67,1.54,1.91,1.91,0,0,0,1.69.23,2.73,2.73,0,0,0,1.47-1.12,3.35,3.35,0,0,0,.78-1.88,2.22,2.22,0,0,0-.73-2.07h0a1.75,1.75,0,0,0-1.17-.31,2.66,2.66,0,0,0-1.78,1.1Z"/><path class="cls-2" d="M86.94,336.14a4.71,4.71,0,0,1-1.64,1.37,3.59,3.59,0,0,1-2.65.49,3.3,3.3,0,0,1-1.83-1.27,2.68,2.68,0,0,1-.41-.91h0a3.26,3.26,0,0,1,.4-2.28,4.83,4.83,0,0,1,1.92-2.06,3.75,3.75,0,0,1,2.49-.56,3,3,0,0,1,1.8.95,3.23,3.23,0,0,1,.53,2.95A3.71,3.71,0,0,1,86.94,336.14Zm-5.66-.54a1.54,1.54,0,0,0,.29.62,2.28,2.28,0,0,0,1.3.91,2.72,2.72,0,0,0,2-.41,3.35,3.35,0,0,0,1.8-2.11,2.42,2.42,0,0,0-.34-2.15,2.07,2.07,0,0,0-1.27-.66,2.9,2.9,0,0,0-1.9.47,3.79,3.79,0,0,0-1.55,1.67,2.43,2.43,0,0,0-.34,1.66Z"/><path class="cls-2" d="M62.61,369.76a3.76,3.76,0,0,1-1.31,1,3.6,3.6,0,0,1-2.5.23,2.7,2.7,0,0,1-1.68-1.13,2.64,2.64,0,0,1-.33-1.94,3.32,3.32,0,0,1,1.34-2.08l.58.68a2,2,0,0,0-.55,1.5,1.75,1.75,0,0,0,.63,1.15,2.38,2.38,0,0,0,2,.52,2.61,2.61,0,0,0,1.23-.56Z"/><path class="cls-2" d="M119.14,311.63a4.81,4.81,0,0,1-.42.48l-.68-.58a2.7,2.7,0,0,0,.48-1.26,2.46,2.46,0,0,0-.64-1.94,1.86,1.86,0,0,0-1.19-.55,2,2,0,0,0-1.46.65l-.72-.54a3.31,3.31,0,0,1,2-1.47,2.73,2.73,0,0,1,2,.21,2.79,2.79,0,0,1,1.24,1.6,3.64,3.64,0,0,1-.07,2.5A3.91,3.91,0,0,1,119.14,311.63Z"/><path class="cls-2" d="M566.4,334.22c-.09-.33-.22-.92-.39-1.74-.11-.51-.18-.83-.21-1.05-1.6-2.83-2-3.75-2.06-3.79a10.81,10.81,0,0,1-1.24-3.58,8.23,8.23,0,0,1,.11-2.62,43.34,43.34,0,0,1-5.52-9.1l-2.42-5.5c-.4-1-.8-2.12-1.17-3.16a7.75,7.75,0,0,1-.57-2,5,5,0,0,1,.48-3.31,4.39,4.39,0,0,1,1.5-1.53,5.51,5.51,0,0,1,3.17-.78,7.41,7.41,0,0,1,2.13.39,32,32,0,0,1,4.44,1.65,69.23,69.23,0,0,1,6.86,3.64,93.48,93.48,0,0,1,10.84,7.93c.83-.06,1.67-.1,2.5-.09a33.77,33.77,0,0,1,12.46,2.57,37.11,37.11,0,0,1,8.56,5,40.21,40.21,0,0,1,8.67,9.5,27.8,27.8,0,0,1,4.58,10.12,36.58,36.58,0,0,1,1.27,9.76,30.85,30.85,0,0,1-.19,3.19c2,3.1,3.92,6.26,5.72,9.41h0a93.52,93.52,0,0,1,4.27,8.85,22.67,22.67,0,0,1,1.12,3.71,8.5,8.5,0,0,1,.19,3.82,4.85,4.85,0,0,1-1.37,2.59h0c-2.13,1.86-5.91.49-7.52-.09-1-.37-2.32-1-2.7-1.17-.74-.36-1.41-.71-2.24-1.18a85.61,85.61,0,0,1-7.51-4.83c-1.09-.78-2.16-1.61-3.21-2.45a7.16,7.16,0,0,1-3.38-.13,8,8,0,0,1-2.32-1.17c-.35-.22-.74-.47-1.23-.76-1-.57-1.92-1.09-2.9-1.57a17.19,17.19,0,0,1-2.74-.89,20.45,20.45,0,0,1-6.56-4.51c-2.49-2.42-4.35-4.21-5.85-5.65a89.84,89.84,0,0,1-7.41-7.58,25.27,25.27,0,0,1-2.48-3.17,43.64,43.64,0,0,0-3.07-4.16l-.08-.1c-.28-.36-.56-.71-.83-1.09A9.7,9.7,0,0,1,566.4,334.22Zm6.45,8.3a22.49,22.49,0,0,0,2.41,3.09,88.29,88.29,0,0,0,7.35,7.51l5.87,5.66a18.83,18.83,0,0,0,6.26,4.32,16.51,16.51,0,0,0,2.66.86h.09a31.6,31.6,0,0,1,3,1.63c.5.3.9.55,1.25.78a7.77,7.77,0,0,0,2.09,1.06,6.5,6.5,0,0,0,3.16.07h.21l.16.13c1.09.88,2.21,1.74,3.33,2.55.37.27,3.73,2.68,7.43,4.78.82.46,1.47.8,2.19,1.15.37.18,1.64.78,2.61,1.14,1.34.48,4.9,1.76,6.63.26h0a3.92,3.92,0,0,0,1.08-2.13,7.33,7.33,0,0,0-.19-3.42,21,21,0,0,0-1.07-3.55,93.78,93.78,0,0,0-4.21-8.75c-1.82-3.18-3.76-6.38-5.78-9.5l-.09-.14v-.16c.12-1.07.19-2.17.21-3.26a36.09,36.09,0,0,0-1.25-9.53,30.85,30.85,0,0,0-1.24-4,29.4,29.4,0,0,0-3.21-5.81,39.11,39.11,0,0,0-8.48-9.3,35.67,35.67,0,0,0-8.35-4.88,33.21,33.21,0,0,0-12.12-2.51,20.64,20.64,0,0,0-2.61.11h-.19l-.14-.12a92.51,92.51,0,0,0-10.88-8,67.58,67.58,0,0,0-6.77-3.61,37.28,37.28,0,0,0-4.32-1.59,6.38,6.38,0,0,0-1.88-.35,4.68,4.68,0,0,0-2.67.63,3.56,3.56,0,0,0-1.21,1.23,4.13,4.13,0,0,0-.36,2.74,7.34,7.34,0,0,0,.52,1.77c.37,1.05.77,2.1,1.16,3.13l2.41,5.47a37.82,37.82,0,0,0,2.14,4.15,40.59,40.59,0,0,0,3.4,4.92l.14.18v.21a6.81,6.81,0,0,0-.17,2.5,9.7,9.7,0,0,0,1.16,3.3s.45.95,2,3.76l.2.35-.09.07c.12.59.41,2,.56,2.56a10.84,10.84,0,0,0,2.38,4.2l.09.11c.95,1.21,1.59,2.06,2,2.69S572.61,342.16,572.85,342.52Z"/><path class="cls-2" d="M560.48,318.55c-.2-.3-.94-1.41-1.91-3.15s-1.72-3.4-3-6.18a47.85,47.85,0,0,1-2.12-5.44c-.51-1.61-.93-3.18-.4-4.59a4.59,4.59,0,0,1,1.88-2.31H555a4.29,4.29,0,0,1,1.88-.28,8.39,8.39,0,0,1,2.57.47,42.71,42.71,0,0,1,6.23,2.56c1.6.83,3,1.66,4.24,2.45a114.18,114.18,0,0,1,13,10.2c8.5,7.88,12.76,11.84,16.82,16.08.12.13,12.37,12.95,18.88,22.5,1.34,2,2.76,4.16,2.78,4.18,1,1.49,2,3.14,2.94,4.65.22.36,5.5,8.91,6.59,14.73a4.88,4.88,0,0,1-.06,2.15,3.76,3.76,0,0,1-1.11,1.89c-1.15,1-2.69.75-4.21.52a10.82,10.82,0,0,1-2.73-.79,47.69,47.69,0,0,1-5.61-2.62,62.46,62.46,0,0,1-7.38-4.89L609,370c-.79-.58-1.45-1.11-1.94-1.5l-.63-.52.39-.35a1.9,1.9,0,0,0,.43-.54l.21-1.24a39.56,39.56,0,0,0-1.93-6c-.94-2.29-2.34-5.1-6.1-10.09a113,113,0,0,0-10.77-12.26,127.55,127.55,0,0,0-10.87-9.66c-1.49-1.15-3-2.22-4.63-3.22l-.51-.33s-1.24-.78-4-2.18a7.19,7.19,0,0,0-3.18-1,5.63,5.63,0,0,0-1.59.19l-.66.71-.33-.4c-.5-.62-1-1.25-1.45-1.89Zm2.8,2h.12a6.43,6.43,0,0,1,2-.26A7.94,7.94,0,0,1,569,321.4c2.82,1.42,4,2.19,4.09,2.22l.52.33c1.61,1,3.18,2.1,4.69,3.27a124.86,124.86,0,0,1,11,9.74,111,111,0,0,1,10.92,12.32,44.91,44.91,0,0,1,6.21,10.29,39,39,0,0,1,2,6.23v.09l-.26,1.54v.06a4,4,0,0,1-.3.49c.47.38,1,.84,1.75,1.36l.87.64a60.75,60.75,0,0,0,7.28,4.82,46.19,46.19,0,0,0,5.52,2.58,9.82,9.82,0,0,0,2.55.74c1.35.21,2.63.4,3.46-.32h0a3,3,0,0,0,.84-1.46,3.89,3.89,0,0,0,0-1.73c-1.06-5.67-6.42-14.34-6.47-14.43-.93-1.5-2-3.15-2.93-4.63,0,0-1.44-2.21-2.77-4.16-6.47-9.49-18.67-22.26-18.79-22.39-4-4.22-8.3-8.17-16.79-16.05a112.63,112.63,0,0,0-12.84-10.09c-1.19-.78-2.59-1.6-4.16-2.42a44,44,0,0,0-6.12-2.51,7.78,7.78,0,0,0-2.29-.42,3.53,3.53,0,0,0-1.48.21h0a3.74,3.74,0,0,0-1.44,1.82c-.39,1-.14,2.25.41,4a48.82,48.82,0,0,0,2.09,5.34A62.2,62.2,0,0,0,559.4,315c.94,1.71,1.67,2.79,1.87,3.08.6.89,1.25,1.77,1.93,2.63Z"/><path class="cls-2" d="M614.85,339.44l4,6.42-.17,3.4L614,343Zm3.59,6.54-3.39-5.37-.5,2.3,3.78,5.08Z"/><path class="cls-2" d="M609.07,331.66l5.47,7.28-.85,3.62-6.39-7.64Zm5,7.38-4.92-6.55-1.29,2.37,5.61,6.72Z"/><path class="cls-2" d="M599.75,321.85l.12.11c1.81,1.72,3.6,3.53,5.31,5.37,1.12,1.21,2.22,2.46,3.29,3.71l.11.13-1.94,3-10-10.68Zm8.27,9.36c-1-1.21-2.1-2.41-3.17-3.57-1.67-1.8-3.41-3.56-5.18-5.25l-2.27,1.21,9.21,9.84Z"/><path class="cls-2" d="M593.12,316.22l6.55,5.52L596.1,323l-6.58-6.25Zm5.66,5.36L593,316.69l-2.49.37,5.71,5.43Z"/><path class="cls-2" d="M587,312.14l6.1,4-4.1.16-5.3-4.6Zm4.67,3.57-4.83-3.14-1.69-.25,4,3.49Z"/><path class="cls-2" d="M568.2,338.2a15.28,15.28,0,0,1-1.71-3.09,12.38,12.38,0,0,1-.82-3.51,2.53,2.53,0,0,1,0-.55,2.2,2.2,0,0,1,.53-1.31,2,2,0,0,1,1.53-.5,8.11,8.11,0,0,1,3.4.89,37.07,37.07,0,0,1,4.79,3.26,111.51,111.51,0,0,1,10.75,10.1c.24.26.26.29.94,1.1s2.27,2.7,5.74,6.8a62.71,62.71,0,0,1,3.78,5.24,19.64,19.64,0,0,1,1.91,4.2c.45,1.39.62,2.4.06,3.15h0a2.4,2.4,0,0,1-1.77.86h-.15a18.59,18.59,0,0,1-3.48-1.2,17.63,17.63,0,0,1-3.43-2.08c-2.08-1.7-4.14-3.49-6.12-5.33a125.54,125.54,0,0,1-9.18-9.42c-2.15-2.47-4.23-5.08-6.17-7.75C568.61,338.77,568.4,338.49,568.2,338.2Zm30.19,25.24h0c.23-.32.29-.83-.2-2.33a18.92,18.92,0,0,0-1.8-4,60.63,60.63,0,0,0-3.72-5.15l-5.74-6.81c-.67-.8-.69-.82-.91-1.06a112,112,0,0,0-10.66-10,35.74,35.74,0,0,0-4.66-3.17,7.34,7.34,0,0,0-3-.78c-.47,0-.73.07-.88.23a1.37,1.37,0,0,0-.29.8,2.54,2.54,0,0,0,0,.39,12.29,12.29,0,0,0,.76,3.22,14,14,0,0,0,1.61,2.91c2.1,2.95,4.37,5.82,6.73,8.53a125.57,125.57,0,0,0,9.11,9.35c2,1.83,4,3.61,6.06,5.29a16.78,16.78,0,0,0,3.26,2,17.42,17.42,0,0,0,3.23,1.13A1.55,1.55,0,0,0,598.39,363.44Z"/><path class="cls-2" d="M570.75,340.9a16.06,16.06,0,0,1-2.14-4,1,1,0,0,1,.11-1c.4-.43,1.08-.19,1.64,0a8.49,8.49,0,0,1,1.26.59,12.12,12.12,0,0,0,1.27.71,9.9,9.9,0,0,1,1,.57,15.32,15.32,0,0,1,2.17,1.76c4.11,3.91,8.23,8.43,8.27,8.48,1.47,1.61,2.36,2.6,3.41,3.89,1.45,1.77,2.25,2.9,2.73,3.59,2.21,3.24,3.14,4.91,2.43,5.63-.41.41-1.09.22-1.56,0h-.07c-.73-.44-1.46-.91-2.17-1.39-2.13-1.44-5.23-3.81-10.37-9.34-2.77-3-5.45-6.16-8-9.43h0Zm21.49,19.54c0-.73-1.87-3.53-2.51-4.47-.47-.68-1.25-1.79-2.68-3.53-1-1.27-1.92-2.26-3.38-3.86,0,0-4.14-4.54-8.23-8.43a15.06,15.06,0,0,0-2-1.66,5.85,5.85,0,0,0-.91-.51,11.74,11.74,0,0,1-1.34-.75,7.21,7.21,0,0,0-1.09-.51c-.21-.07-.41-.14-.62-.19v.11a15.19,15.19,0,0,0,2,3.75c2.5,3.25,5.16,6.4,7.91,9.36A58.76,58.76,0,0,0,589.6,359c.69.46,1.39.92,2.1,1.34A2,2,0,0,0,592.24,360.44Z"/><path class="cls-2" d="M573.39,340.73a7.77,7.77,0,0,1-.82-2.13,6.91,6.91,0,0,1-.15-.91l-.09-.86,1.26.71,1.38,1,3.44,3.26c1.7,1.71,3.39,3.46,5,5.21a81.76,81.76,0,0,1,5.71,6.63c.67.89,1.32,1.8,1.93,2.72l.52.77-.93-.08a6.72,6.72,0,0,1-1-.16,8.12,8.12,0,0,1-3.23-1.61,46.25,46.25,0,0,1-4-3.26,50.8,50.8,0,0,1-6-6.44l-.09-.11A46.1,46.1,0,0,1,573.39,340.73Zm15,13.43a78.41,78.41,0,0,0-5.65-6.56c-1.62-1.74-3.3-3.48-5-5.17l-3.36-3.2-.94-.67a6.9,6.9,0,0,0,.7,1.74A40.61,40.61,0,0,0,577,345a50.08,50.08,0,0,0,5.94,6.33s1.1,1,3.92,3.19a7,7,0,0,0,2.79,1.43c-.38-.61-.82-1.21-1.27-1.81Z"/><path class="cls-2" d="M615.84,367.6a2.76,2.76,0,0,1,.54-2.44,2.93,2.93,0,0,1,2.23-.87,4.2,4.2,0,0,1,3.1,1.34,3.54,3.54,0,0,1,1.26,2.49,2.73,2.73,0,0,1-.6,1.72h0a3,3,0,0,1-2.9.91,4.13,4.13,0,0,1-2.32-1.12,4.54,4.54,0,0,1-.77-.81A2.75,2.75,0,0,1,615.84,367.6Zm5.84,1.66a1.85,1.85,0,0,0,.39-1.14,2.68,2.68,0,0,0-1-1.85,3.34,3.34,0,0,0-2.44-1.09,2.11,2.11,0,0,0-1.59.57,2,2,0,0,0-.33,1.68,2.74,2.74,0,0,0,1,1.53,3.27,3.27,0,0,0,1.84.9,2.19,2.19,0,0,0,2.1-.6Z"/><path class="cls-2" d="M607.32,352.8a2.76,2.76,0,0,1,.55-2.44,2.93,2.93,0,0,1,2.23-.87,4.24,4.24,0,0,1,3.1,1.34,3.57,3.57,0,0,1,1.25,2.5,2.65,2.65,0,0,1-.59,1.71h0a3,3,0,0,1-2.9.91,4.17,4.17,0,0,1-2.33-1.11,5.9,5.9,0,0,1-.77-.81A3.09,3.09,0,0,1,607.32,352.8Zm5.85,1.67a1.81,1.81,0,0,0,.38-1.15,2.68,2.68,0,0,0-1-1.85,3.35,3.35,0,0,0-2.45-1.08,2.08,2.08,0,0,0-1.58.57,2,2,0,0,0-.34,1.67,2.76,2.76,0,0,0,1,1.54,3.33,3.33,0,0,0,1.83.89,2.2,2.2,0,0,0,2.11-.59Z"/><path class="cls-2" d="M575.61,318.44a3,3,0,0,1,1.1-2.83h0a2.71,2.71,0,0,1,1.75-.49,3.57,3.57,0,0,1,2.41,1.42,4.21,4.21,0,0,1,1.14,3.18,3,3,0,0,1-1,2.17,2.77,2.77,0,0,1-2.46.38,3.57,3.57,0,0,1-2-1.44l-.15-.19A4.06,4.06,0,0,1,575.61,318.44Zm4.58-1.32a2.67,2.67,0,0,0-1.79-1.1,1.82,1.82,0,0,0-1.16.31h0a2.22,2.22,0,0,0-.73,2.07,3.19,3.19,0,0,0,.78,1.88,2.7,2.7,0,0,0,1.46,1.13,2,2,0,0,0,1.69-.23,2.07,2.07,0,0,0,.67-1.55,3.2,3.2,0,0,0-.68-2.19l-.21-.3Z"/><path class="cls-2" d="M560,309.44a3,3,0,0,1,1.1-2.83h0a2.62,2.62,0,0,1,1.74-.48,3.56,3.56,0,0,1,2.41,1.41,4.21,4.21,0,0,1,1.14,3.18,3,3,0,0,1-1,2.17,2.79,2.79,0,0,1-2.47.38,3.57,3.57,0,0,1-2-1.44l-.15-.19A4.14,4.14,0,0,1,560,309.44Zm4.57-1.32a2.68,2.68,0,0,0-1.78-1.1,1.85,1.85,0,0,0-1.17.31h0a2.25,2.25,0,0,0-.73,2.07,3.19,3.19,0,0,0,.78,1.88,2.72,2.72,0,0,0,1.47,1.13,2,2,0,0,0,1.69-.23,2.11,2.11,0,0,0,.67-1.55,3.2,3.2,0,0,0-.68-2.19c-.06-.12-.13-.24-.2-.36Z"/><path class="cls-2" d="M592.16,334.53a3.23,3.23,0,0,1,.53-2.94,2.91,2.91,0,0,1,1.81-1,3.67,3.67,0,0,1,2.48.57,4.72,4.72,0,0,1,1.92,2.06,3.22,3.22,0,0,1,.4,2.27h0a2.68,2.68,0,0,1-.41.91,3.21,3.21,0,0,1-1.83,1.27,3.62,3.62,0,0,1-2.65-.48,4.72,4.72,0,0,1-1.63-1.38A3.39,3.39,0,0,1,592.16,334.53Zm6.27.79a2.45,2.45,0,0,0-.34-1.67,3.91,3.91,0,0,0-1.55-1.67,2.8,2.8,0,0,0-1.9-.46,2.06,2.06,0,0,0-1.27.65,2.39,2.39,0,0,0-.34,2.15,3.26,3.26,0,0,0,1.81,2.11,2.62,2.62,0,0,0,2,.41,2.4,2.4,0,0,0,1.31-.9,2.31,2.31,0,0,0,.28-.62Z"/><path class="cls-2" d="M617.08,369.44a3.7,3.7,0,0,0,1.32,1,3.52,3.52,0,0,0,2.49.23,2.76,2.76,0,0,0,1.68-1.13,2.68,2.68,0,0,0,.33-1.94,3.27,3.27,0,0,0-1.34-2.07l-.58.68a1.93,1.93,0,0,1,.55,1.49,1.86,1.86,0,0,1-.63,1.16,2.38,2.38,0,0,1-2,.51,2.44,2.44,0,0,1-1.22-.56Z"/><path class="cls-2" d="M560.61,311.34a3.72,3.72,0,0,0,.41.48l.68-.58a2.5,2.5,0,0,1-.48-1.26,2.43,2.43,0,0,1,.64-1.94,1.77,1.77,0,0,1,2.51,0,.93.93,0,0,1,.14.14l.72-.54a3.31,3.31,0,0,0-2-1.47,2.69,2.69,0,0,0-2,.21A2.77,2.77,0,0,0,560,308a3.53,3.53,0,0,0,.07,2.5A3.7,3.7,0,0,0,560.61,311.34Z"/><path class="cls-2" d="M322.23,584.67l1.36-.12h.14c3.27-.24,4.35-.41,5.13-.53a24.33,24.33,0,0,1,4-.31,93.61,93.61,0,0,1,10.59.36c2.08.14,4.66.31,8.12.52a20.56,20.56,0,0,1,7.75,1.8,18.87,18.87,0,0,1,2.51,1.43c1,.4,2.06.76,3.11,1.08.55.17,1,.29,1.4.4a8.46,8.46,0,0,1,2.42.92,7.31,7.31,0,0,1,2.38,2.41c1.32.21,2.66.45,4,.72a89.15,89.15,0,0,1,8.63,2.29c.91.3,1.62.56,2.38.86.39.16,1.73.7,2.68,1.21,1.52.79,5.07,2.66,5.14,5.49h0a4.65,4.65,0,0,1-1,2.75,8.3,8.3,0,0,1-3,2.44,20,20,0,0,1-3.49,1.67,94.13,94.13,0,0,1-9.41,2.82h0c-3.54.8-7.17,1.51-10.81,2.12-.7.8-1.45,1.57-2.22,2.3a37.09,37.09,0,0,1-8.08,5.64,30.26,30.26,0,0,1-3.91,1.84,29.32,29.32,0,0,1-6.65,1.6,40.14,40.14,0,0,1-12.85,0,37.12,37.12,0,0,1-9.48-3,33.49,33.49,0,0,1-10.29-7.47c-.56-.61-1.11-1.25-1.62-1.91a90.5,90.5,0,0,1-13.16-2.66,67,67,0,0,1-7.32-2.61,31.59,31.59,0,0,1-4.21-2.17,7.12,7.12,0,0,1-1.72-1.31,5.32,5.32,0,0,1-1.56-2.87,4.31,4.31,0,0,1,.12-2.14,5,5,0,0,1,2.12-2.58,8.64,8.64,0,0,1,1.83-.9c1-.43,2.08-.86,3.13-1.27l5.69-1.91a42.79,42.79,0,0,1,4.6-1.25,43.87,43.87,0,0,1,5.84-.81,8.19,8.19,0,0,1,1.82-1.85,11,11,0,0,1,3.48-1.5s1-.31,4.18-1l.92-.55c.73-.42,1.25-.72,1.56-.88A10,10,0,0,1,322.23,584.67Zm4.94.47c-.78.09-1.84.18-3.38.3h-.13a11,11,0,0,0-4.72,1.07c-.54.29-1.74,1-2.26,1.31v.11l-.39.09c-3.15.72-4.15,1-4.16,1a9.88,9.88,0,0,0-3.22,1.37,7.09,7.09,0,0,0-1.73,1.81l-.12.18h-.22a42.41,42.41,0,0,0-5.94.81,40.93,40.93,0,0,0-4.5,1.22l-5.67,1.9c-1,.41-2.07.83-3.08,1.26a8.85,8.85,0,0,0-1.67.8,4.16,4.16,0,0,0-1.78,2.12,3.58,3.58,0,0,0-.09,1.72,4.49,4.49,0,0,0,1.33,2.4,6.44,6.44,0,0,0,1.53,1.16,34.21,34.21,0,0,0,4.08,2.11,66.12,66.12,0,0,0,7.23,2.58,91.3,91.3,0,0,0,13.22,2.66h.19l.11.15c.53.68,1.09,1.36,1.68,2a32.92,32.92,0,0,0,10,7.26,35.94,35.94,0,0,0,9.24,2.88,39,39,0,0,0,12.58,0,26.53,26.53,0,0,0,10.31-3.28,35.84,35.84,0,0,0,7.88-5.5,29.66,29.66,0,0,0,2.27-2.35l.11-.12H366c3.67-.61,7.34-1.33,10.91-2.13a94.8,94.8,0,0,0,9.31-2.79,21.31,21.31,0,0,0,3.34-1.6,7.24,7.24,0,0,0,2.65-2.17,3.84,3.84,0,0,0,.85-2.23h0c-.06-2.3-3.41-4.06-4.66-4.72-.92-.48-2.22-1-2.6-1.16-.74-.3-1.44-.55-2.33-.84a87.33,87.33,0,0,0-8.54-2.27c-1.36-.28-2.75-.53-4.12-.74h-.21l-.11-.18a6.73,6.73,0,0,0-2.19-2.28,7.56,7.56,0,0,0-2.19-.83c-.4-.11-.86-.23-1.42-.4-1.09-.33-2.18-.71-3.23-1.13h-.08a19.45,19.45,0,0,0-2.43-1.38,19.17,19.17,0,0,0-7.41-1.72c-3.48-.21-6.06-.38-8.14-.52a92,92,0,0,0-10.5-.36A25.54,25.54,0,0,0,329,585a10.69,10.69,0,0,0-1.85.14Z"/><path class="cls-2" d="M304.42,591.74c.78-.09,1.58-.15,2.37-.2h.52l-.08,1a5.21,5.21,0,0,0,.93,1.31,7,7,0,0,0,2.89,1.67c2.91,1.11,4.31,1.49,4.32,1.5l.59.15a54,54,0,0,0,5.5,1.25,122.82,122.82,0,0,0,14.46,1.51,111.43,111.43,0,0,0,16.34-.24,43,43,0,0,0,11.56-2.29,37,37,0,0,0,5.73-2.63l.77-1a2,2,0,0,0,.12-.69v-.52l.81.12c.61.09,1.46.22,2.41.41l1.07.21a65.32,65.32,0,0,1,8.58,2.17,51.79,51.79,0,0,1,5.72,2.37,11.61,11.61,0,0,1,2.43,1.48c1.19,1,2.4,1.95,2.45,3.46a3.91,3.91,0,0,1-.65,2.1,4.7,4.7,0,0,1-1.55,1.49c-5,3.13-14.9,5-15.32,5.06l-5.42,1s-2.61.43-5,.76c-11.36,1.55-29.14,1.15-29.36,1.14-5.86-.14-11.66-.62-23.21-1.58A113.32,113.32,0,0,1,297.12,610c-1.4-.36-3-.86-4.67-1.47a42.87,42.87,0,0,1-6.09-2.88,8.06,8.06,0,0,1-2.08-1.58,4.1,4.1,0,0,1-1-1.58v-.06a4.53,4.53,0,0,1,.44-3c.68-1.33,2.12-2.08,3.65-2.79a47.89,47.89,0,0,1,5.45-2.1,68,68,0,0,1,6.56-2c1.93-.45,3.25-.66,3.61-.71S303.93,591.79,304.42,591.74Zm1.91.73c-1.09.08-2.18.19-3.25.34a27.42,27.42,0,0,0-3.53.7,61.45,61.45,0,0,0-6.48,2,50.9,50.9,0,0,0-5.35,2.06c-1.67.77-2.73,1.41-3.23,2.39a3.64,3.64,0,0,0-.38,2.29h0a3.52,3.52,0,0,0,.85,1.24,7.5,7.5,0,0,0,1.85,1.41,43.81,43.81,0,0,0,6,2.83c1.67.6,3.21,1.09,4.59,1.44a109.62,109.62,0,0,0,16.11,2.68c11.55,1,17.33,1.45,23.18,1.59.17,0,17.82.4,29.19-1.22,2.35-.33,4.92-.75,4.94-.76,1.75-.29,3.67-.63,5.4-1,.11,0,10.12-1.9,15-4.94a3.87,3.87,0,0,0,1.25-1.2,3,3,0,0,0,.52-1.6h0c0-1.1-1-1.91-2.1-2.77a10.11,10.11,0,0,0-2.26-1.39,50.16,50.16,0,0,0-5.63-2.33,61.74,61.74,0,0,0-8.47-2.13l-1.06-.22c-.85-.17-1.58-.28-2.19-.37a2.64,2.64,0,0,1-.15.55v.06l-1,1.23h-.08a38.41,38.41,0,0,1-5.94,2.73,44.46,44.46,0,0,1-11.79,2.35,113.07,113.07,0,0,1-16.46.24,124.86,124.86,0,0,1-14.58-1.52c-2.34-.41-3.77-.79-5.57-1.27l-.59-.16c-.06,0-1.45-.4-4.41-1.52a7.87,7.87,0,0,1-3.2-1.76,6.19,6.19,0,0,1-1.14-1.64l-.06-.11Z"/><path class="cls-2" d="M357.12,615l7.75-.77-2.4,2.42L355,618Zm6.55-.2-6.31.63-1.36,2,6.25-1.11Z"/><path class="cls-2" d="M346.61,615.44l10-.43-2.1,3.07-9.06.86Zm9.07.06-8.75.38-.88,2.55,8.15-.78Z"/><path class="cls-2" d="M331,615.33l14.62.16-.91,3.45h-.16c-1.65,0-3.32.08-5,.06-2.5,0-5-.12-7.55-.3h-.16Zm14,.61-13.38-.15.64,2.49c2.44.17,4.91.27,7.36.29,1.58,0,3.19,0,4.77-.06Z"/><path class="cls-2" d="M321.21,614.58l9,.64,1.48,3.49-8.5-1.11Zm8.74,1.07-7.86-.56,1.41,2.09,7.52,1Z"/><path class="cls-2" d="M313.5,613.7l7,.8,2.65,3.14-7-1.83Zm6.74,1.23-5.27-.61,1.32,1.08,5.57,1.45Z"/><path class="cls-2" d="M323.71,584.25c3.29-.36,6.61-.59,9.89-.66a122.92,122.92,0,0,1,13.15.43c2.69.22,5.4.53,8.06.92a18.41,18.41,0,0,1,7.08,2.9H362v.06a2.44,2.44,0,0,1,.55,1.89h0c-.17.92-1,1.48-2.36,2.08a18.92,18.92,0,0,1-4.39,1.42,63.08,63.08,0,0,1-6.42.74c-5.36.2-7.75.3-8.89.35a11.69,11.69,0,0,1-1.45,0,111.26,111.26,0,0,1-14.7-1.13,35.05,35.05,0,0,1-5.64-1.34,8.1,8.1,0,0,1-3-1.91,2,2,0,0,1-.66-1.48,2.2,2.2,0,0,1,.61-1.26,3.59,3.59,0,0,1,.39-.39,13.28,13.28,0,0,1,3.15-1.75,16.14,16.14,0,0,1,3.44-.83Zm37.61,4.28a17.79,17.79,0,0,0-6.66-2.71c-2.62-.38-5.31-.68-8-.91a126.38,126.38,0,0,0-13.05-.47c-3.59.09-7.24.35-10.83.78a14.87,14.87,0,0,0-3.24.78,12,12,0,0,0-2.89,1.61,1.44,1.44,0,0,0-.28.27,1.38,1.38,0,0,0-.4.75,1.21,1.21,0,0,0,.43.8,6.82,6.82,0,0,0,2.57,1.66,34.41,34.41,0,0,0,5.48,1.31A107.83,107.83,0,0,0,339,593.52h1.4c1.14,0,3.53-.15,8.89-.35a58.22,58.22,0,0,0,6.32-.73,18.56,18.56,0,0,0,4.16-1.35c1.43-.65,1.78-1,1.85-1.43h0a1.54,1.54,0,0,0-.34-1.13Z"/><path class="cls-2" d="M326.4,584.44h0c4.12-.35,8.27-.51,12.34-.47,7.55.06,11.39.76,13.89,1.36q1.26.3,2.49.66h.07c.46.23,1,.6,1,1.17-.05,1-1.91,1.46-5.79,2-.83.12-2.2.29-4.49.41-1.66.09-3,.1-5.17.11-.06,0-6.18,0-11.84-.4a15.07,15.07,0,0,1-2.76-.41,6.74,6.74,0,0,1-1.1-.36c-.29-.11-.62-.24-1.38-.46a6.07,6.07,0,0,1-1.29-.54c-.51-.27-1.15-.62-1.1-1.2s.49-.68.68-.78a16.72,16.72,0,0,1,4.41-1.12Zm28.43,2.4c-.78-.23-1.59-.45-2.4-.64-2.45-.59-6.22-1.27-13.69-1.34-4,0-8.16.12-12.24.47a15.39,15.39,0,0,0-4.13,1l-.09,0a2.77,2.77,0,0,0,.55.33,6.06,6.06,0,0,0,1.11.47,11.38,11.38,0,0,1,1.46.49,6.82,6.82,0,0,0,1,.31,12.66,12.66,0,0,0,2.6.39c5.63.4,11.72.4,11.78.4,2.16,0,3.48,0,5.12-.11,2.25-.11,3.6-.28,4.42-.4,1.12-.15,4.49-.63,5-1.15A1.69,1.69,0,0,0,354.83,586.84Z"/><path class="cls-2" d="M333.48,585.44h.14a52,52,0,0,1,8.82.12,50.64,50.64,0,0,1,5.1.76,8,8,0,0,1,3.36,1.29,7.51,7.51,0,0,1,.83.66l.68.63-.92.14c-1.09.17-2.2.3-3.3.41a80.09,80.09,0,0,1-8.76.25c-2.38,0-4.81-.09-7.22-.2l-4.74-.34-1.65-.36-1.37-.45.7-.52a6.65,6.65,0,0,1,.76-.5,8.56,8.56,0,0,1,2.14-.83A45.29,45.29,0,0,1,333.48,585.44Zm16.84,2.84a7.45,7.45,0,0,0-2.94-1.1c-3.49-.63-5-.74-5-.74a50.34,50.34,0,0,0-8.68-.12,41.66,41.66,0,0,0-5.44,1,7.14,7.14,0,0,0-1.76.65l1.13.24,4.63.33c2.39.11,4.81.18,7.18.2a75.84,75.84,0,0,0,8.66-.25,18,18,0,0,0,2.22-.19Z"/><path class="cls-2" d="M377.77,599.32a5.24,5.24,0,0,1,1.12,0,4.33,4.33,0,0,1,2.39,1,3,3,0,0,1,1.28,2.76h0a2.69,2.69,0,0,1-.86,1.6,3.54,3.54,0,0,1-2.69.75,4.2,4.2,0,0,1-3.08-1.38,2.89,2.89,0,0,1-.86-2.24,2.81,2.81,0,0,1,1.43-2A3,3,0,0,1,377.77,599.32Zm3.9,3.62a2.22,2.22,0,0,0-1-2,3.38,3.38,0,0,0-1.89-.75,2.76,2.76,0,0,0-1.83.28,1.75,1.75,0,0,0-.34,3,3.31,3.31,0,0,0,2.45,1.07,2.61,2.61,0,0,0,2-.51,1.8,1.8,0,0,0,.58-1.06Z"/><path class="cls-2" d="M361.1,603a5.24,5.24,0,0,1,1.12,0,4.16,4.16,0,0,1,2.39,1,3,3,0,0,1,1.28,2.76h0a2.64,2.64,0,0,1-.86,1.59,3.54,3.54,0,0,1-2.69.76,4.12,4.12,0,0,1-3.08-1.39,2.89,2.89,0,0,1-.86-2.24,2.79,2.79,0,0,1,1.43-2A3.16,3.16,0,0,1,361.1,603Zm3.9,3.63a2.19,2.19,0,0,0-1-2,3.31,3.31,0,0,0-1.89-.75,2.76,2.76,0,0,0-1.83.28,2,2,0,0,0-1,1.37,2,2,0,0,0,.65,1.56,3.31,3.31,0,0,0,2.45,1.07,2.61,2.61,0,0,0,2-.52,1.79,1.79,0,0,0,.58-1Z"/><path class="cls-2" d="M315.28,602.3h.25a3.68,3.68,0,0,1,2.38.47,2.81,2.81,0,0,1,1.38,2.08,3,3,0,0,1-.92,2.21,4.15,4.15,0,0,1-3.12,1.3,3.49,3.49,0,0,1-2.67-.82,2.61,2.61,0,0,1-.82-1.62h0a3,3,0,0,1,1.36-2.72A4,4,0,0,1,315.28,602.3Zm.33,5.14a3.21,3.21,0,0,0,2.08-1,2.13,2.13,0,0,0,.69-1.54,2,2,0,0,0-1-1.4,2.82,2.82,0,0,0-1.82-.33,3.38,3.38,0,0,0-1.91.7,2.21,2.21,0,0,0-1,1.93h0a1.78,1.78,0,0,0,.56,1.07,2.63,2.63,0,0,0,2,.58Z"/><path class="cls-2" d="M298,596.84h.25a3.65,3.65,0,0,1,2.37.47,2.81,2.81,0,0,1,1.38,2.08,3,3,0,0,1-.92,2.22,4.24,4.24,0,0,1-3.12,1.3,3.51,3.51,0,0,1-2.66-.83,2.68,2.68,0,0,1-.83-1.62h0a3.05,3.05,0,0,1,1.36-2.72A4.11,4.11,0,0,1,298,596.84Zm.34,5.12a3.16,3.16,0,0,0,2.08-1,2.11,2.11,0,0,0,.69-1.53,2,2,0,0,0-1-1.41,2.83,2.83,0,0,0-1.82-.32,3.26,3.26,0,0,0-1.92.69,2.2,2.2,0,0,0-1,1.93h0a1.71,1.71,0,0,0,.55,1.07,2.63,2.63,0,0,0,2,.58A1.92,1.92,0,0,0,298.38,602Z"/><path class="cls-2" d="M337.51,604.11a4.88,4.88,0,0,1,2.1.33,3.64,3.64,0,0,1,2.15,1.63,3.31,3.31,0,0,1,.29,2.21,2.78,2.78,0,0,1-.39.92h0a3.28,3.28,0,0,1-2,1.24,4.81,4.81,0,0,1-2.81,0,3.66,3.66,0,0,1-2.1-1.46,2.9,2.9,0,0,1-.51-2,3.26,3.26,0,0,1,1.82-2.39A3.82,3.82,0,0,1,337.51,604.11Zm3.41,4.54a2.22,2.22,0,0,0,.27-.63,2.41,2.41,0,0,0-.21-1.58,2.75,2.75,0,0,0-1.65-1.2,3.33,3.33,0,0,0-2.78.09,2.39,2.39,0,0,0-1.36,1.7,2,2,0,0,0,.42,1.41,2.75,2.75,0,0,0,1.63,1.09,3.7,3.7,0,0,0,2.28,0,2.37,2.37,0,0,0,1.45-.87Z"/><path class="cls-2" d="M378.73,599.44a3.88,3.88,0,0,1,1.61.31,3.61,3.61,0,0,1,1.85,1.68,2.8,2.8,0,0,1,.3,2,2.74,2.74,0,0,1-1.21,1.56,3.34,3.34,0,0,1-2.43.41l.11-.89a2,2,0,0,0,1.47-.61,1.83,1.83,0,0,0,.43-1.23,2.44,2.44,0,0,0-.94-1.81,2.78,2.78,0,0,0-1.25-.53Z"/><path class="cls-2" d="M297.7,596.85h.63v.9a2.54,2.54,0,0,0-1.25.49,2.41,2.41,0,0,0-1,1.78,1.76,1.76,0,0,0,1.64,1.89h.22l.08.89a3.22,3.22,0,0,1-2.42-.47,2.53,2.53,0,0,1-.88-3.47l.07-.11a4,4,0,0,1,2.91-1.9Z"/><path class="cls-2" d="M353.68,96.28l-1.36.12h-.13c-3.27.25-4.35.42-5.14.55a25.58,25.58,0,0,1-4,.32,93.7,93.7,0,0,1-10.6-.33l-8.12-.49a20.13,20.13,0,0,1-7.75-1.78,17.27,17.27,0,0,1-2.52-1.41c-1-.4-2.06-.76-3.11-1.08l-1.4-.39a8.05,8.05,0,0,1-2.42-.91,7.31,7.31,0,0,1-2.39-2.4c-1.33-.2-2.66-.44-4-.71a88.44,88.44,0,0,1-8.64-2.26c-.91-.29-1.62-.55-2.39-.85-.39-.16-1.72-.7-2.68-1.2-1.52-.79-5.08-2.65-5.16-5.47h0a4.7,4.7,0,0,1,1-2.76,8.4,8.4,0,0,1,2.94-2.45,22.41,22.41,0,0,1,3.49-1.68,96,96,0,0,1,9.4-2.85h0c3.54-.81,7.17-1.54,10.8-2.16.7-.8,1.44-1.57,2.22-2.3a36.49,36.49,0,0,1,8-5.67,30.45,30.45,0,0,1,3.91-1.86,29.67,29.67,0,0,1,6.64-1.61,39.92,39.92,0,0,1,12.86,0,37.59,37.59,0,0,1,9.48,2.92A33.93,33.93,0,0,1,362.93,65c.56.61,1.11,1.25,1.62,1.9a95.44,95.44,0,0,1,13.18,2.62,68.35,68.35,0,0,1,7.32,2.58,35.69,35.69,0,0,1,4.22,2.16,7.78,7.78,0,0,1,1.72,1.3,5.45,5.45,0,0,1,1.62,2.92,4.56,4.56,0,0,1-.12,2.14,5,5,0,0,1-2.11,2.59,8.81,8.81,0,0,1-1.82.9c-1,.44-2.08.87-3.13,1.28l-5.68,1.94a46,46,0,0,1-4.6,1.26,42.76,42.76,0,0,1-5.84.83,8.15,8.15,0,0,1-1.81,1.85A10.58,10.58,0,0,1,364,92.74s-1,.32-4.18,1.06c-.18.12-.47.29-.91.55-.73.43-1.25.73-1.56.89A10.19,10.19,0,0,1,353.68,96.28Zm-4.93-.46c.77-.09,1.83-.19,3.37-.31h.13A11,11,0,0,0,357,94.42c.55-.29,1.75-1,2.27-1.32V93l.38-.09c3.15-.73,4.15-1,4.16-1A9.73,9.73,0,0,0,367,90.52a7.44,7.44,0,0,0,1.73-1.81l.12-.19h.22a41.75,41.75,0,0,0,10.43-2.06l5.66-1.93c1-.4,2.07-.83,3.09-1.26a8,8,0,0,0,1.66-.82,4,4,0,0,0,1.77-2.12,3.46,3.46,0,0,0,.08-1.72,4.56,4.56,0,0,0-1.33-2.39,6.92,6.92,0,0,0-1.54-1.16A33.5,33.5,0,0,0,384.78,73a66.11,66.11,0,0,0-7.24-2.55,91.59,91.59,0,0,0-13.23-2.62h-.18l-.12-.15c-.53-.69-1.09-1.36-1.68-2a32.78,32.78,0,0,0-10-7.23,36.07,36.07,0,0,0-9.25-2.85,39,39,0,0,0-12.58,0,28.51,28.51,0,0,0-6.45,1.56,30.76,30.76,0,0,0-3.8,1.81,35.68,35.68,0,0,0-7.87,5.53c-.79.75-1.55,1.54-2.26,2.36L310,67h-.16c-3.67.62-7.34,1.35-10.91,2.17a94,94,0,0,0-9.3,2.82,21.29,21.29,0,0,0-3.33,1.61,7.35,7.35,0,0,0-2.71,2.14,3.8,3.8,0,0,0-.83,2.23h0c.06,2.3,3.41,4,4.67,4.71.92.48,2.23,1,2.6,1.15.75.3,1.45.55,2.34.83a85.71,85.71,0,0,0,8.54,2.24c1.36.28,2.75.53,4.13.73h.21l.11.18a6.46,6.46,0,0,0,2.19,2.28,7.43,7.43,0,0,0,2.19.82l1.43.39c1.09.33,2.18.71,3.23,1.12l.08,0a17,17,0,0,0,2.43,1.37,19.18,19.18,0,0,0,7.42,1.69l8.14.49a92.12,92.12,0,0,0,10.51.33,23.22,23.22,0,0,0,3.9-.31c.44,0,1-.12,1.85-.22Z"/><path class="cls-2" d="M371.48,89.14c-.79.09-1.59.16-2.38.21h-.52l.08-1a5.94,5.94,0,0,0-.93-1.3,7,7,0,0,0-2.9-1.66c-2.92-1.1-4.31-1.48-4.33-1.49l-.59-.15c-1.81-.5-3.65-.91-5.5-1.23a123.34,123.34,0,0,0-14.47-1.46,111.26,111.26,0,0,0-16.33.38,43.74,43.74,0,0,0-11.55,2.33,38.54,38.54,0,0,0-5.72,2.65l-.77,1a2,2,0,0,0-.11.68v.53l-.85-.19c-.62-.09-1.46-.22-2.42-.41l-1.06-.2a62,62,0,0,1-8.59-2.14,46.74,46.74,0,0,1-5.72-2.35,10.46,10.46,0,0,1-2.44-1.48c-1.2-1-2.41-1.93-2.46-3.45a3.74,3.74,0,0,1,.64-2.1,4.8,4.8,0,0,1,1.54-1.5c5-3.14,14.89-5,15.31-5.11l5.41-1s2.61-.44,5-.78c11.44-1.66,29.16-1.33,29.34-1.32,5.87.12,11.67.58,23.22,1.5a113.67,113.67,0,0,1,16.28,2.66q2.37.61,4.68,1.45a43.4,43.4,0,0,1,6.1,2.86,8.72,8.72,0,0,1,2.09,1.58,4.54,4.54,0,0,1,1.06,1.57v.06a4.71,4.71,0,0,1-.43,3c-.68,1.34-2.11,2.09-3.65,2.8a46.74,46.74,0,0,1-5.44,2.12,65.87,65.87,0,0,1-6.55,2c-1.93.47-3.25.67-3.61.72S372,89.09,371.48,89.14Zm-1.87-.7c1.09-.08,2.18-.2,3.24-.36.35,0,1.64-.25,3.53-.7a66.67,66.67,0,0,0,6.48-2,48.92,48.92,0,0,0,5.35-2.08c1.66-.77,2.72-1.42,3.22-2.4a3.77,3.77,0,0,0,.37-2.29h0a3.4,3.4,0,0,0-.85-1.23,7.27,7.27,0,0,0-1.86-1.4,43.08,43.08,0,0,0-6-2.81c-1.67-.6-3.22-1.08-4.6-1.43a114.26,114.26,0,0,0-16.12-2.63c-11.55-.92-17.34-1.39-23.18-1.5-.18,0-17.83-.34-29.19,1.31-2.34.34-4.91.77-4.94.77-1.74.3-3.66.65-5.4,1-.1,0-10.11,1.94-15,5a3.78,3.78,0,0,0-1.25,1.2,3,3,0,0,0-.51,1.6h0c0,1.11,1,1.91,2.11,2.77a9.91,9.91,0,0,0,2.27,1.38A48.23,48.23,0,0,0,292.91,85a61.42,61.42,0,0,0,8.48,2.1l1.07.21c.85.17,1.58.28,2.18.37a2.66,2.66,0,0,1,.16-.55V87l1-1.23h.08A39.94,39.94,0,0,1,311.81,83a45.49,45.49,0,0,1,11.78-2.38,113,113,0,0,1,16.46-.3,127.1,127.1,0,0,1,14.56,1.36c2.34.4,3.77.78,5.58,1.25l.59.16a46.42,46.42,0,0,1,4.41,1.5,8,8,0,0,1,3.23,1.88,6.92,6.92,0,0,1,1.15,1.64l.05.11Z"/><path class="cls-2" d="M318.7,66l-7.75.8,2.39-2.43L320.8,63Zm-6.56.22,6.31-.65,1.35-1.92-6.19,1.13Z"/><path class="cls-2" d="M329.2,65.56l-9.94.46L321.35,63l9-.9Zm-9.07,0,8.75-.41.87-2.56-8.15.81Z"/><path class="cls-2" d="M344.82,65.64l-14.62-.11.89-3.45h.17c1.65-.06,3.32-.09,5-.08,2.51,0,5,.1,7.55.27H344Zm-14-.56,13.45.11-.65-2.49c-2.44-.17-4.91-.25-7.36-.26-1.58,0-3.19,0-4.77.07Z"/><path class="cls-2" d="M354.61,66.36l-9.06-.61-1.49-3.49,8.5,1.08Zm-8.75-1,7.86.53L352.3,63.8l-7.52-.95Z"/><path class="cls-2" d="M362.31,67.22l-7-.79-2.66-3.12,7,1.8ZM355.61,66l5.28.59-1.33-1.08L354,64.09Z"/><path class="cls-2" d="M352.2,96.7c-3.28.37-6.6.61-9.88.69A122.73,122.73,0,0,1,329.17,97c-2.69-.22-5.41-.52-8.06-.9A17.79,17.79,0,0,1,317.25,95,18.08,18.08,0,0,1,314,93.24H314l-.05-.06a2.41,2.41,0,0,1-.56-1.89h0c.18-.92,1-1.48,2.36-2.09a19.28,19.28,0,0,1,4.39-1.43A59.93,59.93,0,0,1,326.5,87l8.9-.38c1.05,0,1.09,0,1.44,0a109.81,109.81,0,0,1,14.71,1.08A36.36,36.36,0,0,1,357.19,89a8.37,8.37,0,0,1,3,1.9,2,2,0,0,1,.67,1.47,2.33,2.33,0,0,1-.61,1.27,3.68,3.68,0,0,1-.4.39,12.28,12.28,0,0,1-3.14,1.76,15.08,15.08,0,0,1-3.43.84Zm-37.59-4.16a17,17,0,0,0,3,1.62,18.43,18.43,0,0,0,3.65,1.07c2.62.37,5.32.67,8,.88a128.11,128.11,0,0,0,13,.39c3.6-.1,7.24-.38,10.84-.82a14.52,14.52,0,0,0,3.23-.79,11.58,11.58,0,0,0,2.89-1.62,1.72,1.72,0,0,0,.27-.27,1.48,1.48,0,0,0,.4-.75,1.21,1.21,0,0,0-.43-.8,7.22,7.22,0,0,0-2.57-1.65,35.87,35.87,0,0,0-5.49-1.29,110.92,110.92,0,0,0-14.56-1.07c-.33,0-.35,0-1.4,0l-8.9.38a60.67,60.67,0,0,0-6.31.75A18.18,18.18,0,0,0,316.08,90c-1.44.66-1.78,1-1.85,1.44h0A1.53,1.53,0,0,0,314.61,92.54Z"/><path class="cls-2" d="M349.52,96.52h0c-4.11.36-8.26.54-12.34.51a57,57,0,0,1-13.89-1.31c-.83-.2-1.67-.42-2.49-.66h-.07c-.46-.22-1.06-.59-1-1.17,0-1,1.91-1.46,5.79-2,.83-.12,2.2-.29,4.49-.42,1.66-.09,3-.11,5.17-.12.06,0,6.18,0,11.84.36a15.18,15.18,0,0,1,2.76.4,8.77,8.77,0,0,1,1.1.35,11.16,11.16,0,0,0,1.38.46,7.61,7.61,0,0,1,1.29.53c.52.27,1.16.62,1.11,1.2s-.49.68-.68.78a16.4,16.4,0,0,1-4.4,1.14Zm-28.45-2.31c.79.23,1.6.45,2.41.64a58.79,58.79,0,0,0,13.69,1.28c4,0,8.16-.14,12.24-.5a15.13,15.13,0,0,0,4.13-1.06h.09a6.16,6.16,0,0,0-.55-.33,6.67,6.67,0,0,0-1.11-.46,11.88,11.88,0,0,1-1.46-.48,7.26,7.26,0,0,0-1-.32,15.38,15.38,0,0,0-2.6-.38c-5.63-.38-11.72-.35-11.78-.35-2.16,0-3.48,0-5.12.12-2.25.12-3.6.29-4.41.41-1.13.17-4.49.65-5,1.17a1.45,1.45,0,0,0,.47.26Z"/><path class="cls-2" d="M342.43,95.52h-.14a52,52,0,0,1-8.82-.09c-.06,0-1.55-.11-5.1-.74A8.15,8.15,0,0,1,325,93.41a6.58,6.58,0,0,1-.82-.66l-.69-.63.92-.14c1.09-.17,2.2-.31,3.3-.42a85.27,85.27,0,0,1,8.76-.28c2.38,0,4.81.07,7.22.18l4.74.32,1.65.35,1.37.45-.69.52c-.25.18-.51.35-.77.5a8.29,8.29,0,0,1-2.13.84A45.74,45.74,0,0,1,342.43,95.52Zm-16.82-2.78a7.42,7.42,0,0,0,2.95,1.09c3.49.62,5,.72,5,.72a50.32,50.32,0,0,0,8.68.09,40.19,40.19,0,0,0,5.43-1,7.48,7.48,0,0,0,1.76-.66l-1.13-.24-4.63-.32c-2.39-.1-4.81-.16-7.18-.17a78.22,78.22,0,0,0-8.66.28A19.44,19.44,0,0,0,325.61,92.74Z"/><path class="cls-2" d="M298.09,81.81a5.24,5.24,0,0,1-1.12,0,4.17,4.17,0,0,1-2.39-1,3.05,3.05,0,0,1-1.29-2.76h0a2.64,2.64,0,0,1,.86-1.59,3.55,3.55,0,0,1,2.68-.77,4.25,4.25,0,0,1,3.09,1.38,3,3,0,0,1,.87,2.23,2.81,2.81,0,0,1-1.43,2.05A2.76,2.76,0,0,1,298.09,81.81Zm-3.91-3.61a2.22,2.22,0,0,0,1,2,3.27,3.27,0,0,0,1.89.74,2.77,2.77,0,0,0,1.83-.28,2,2,0,0,0,1-1.38,2.08,2.08,0,0,0-.66-1.55,3.34,3.34,0,0,0-2.45-1.07,2.65,2.65,0,0,0-2,.53,1.74,1.74,0,0,0-.58,1Z"/><path class="cls-2" d="M314.75,78.07a5.24,5.24,0,0,1-1.12,0,4.13,4.13,0,0,1-2.39-1A3,3,0,0,1,310,74.31h0a2.62,2.62,0,0,1,.86-1.59,3.46,3.46,0,0,1,2.68-.77,4.18,4.18,0,0,1,3.09,1.38,3,3,0,0,1,.87,2.23,2.82,2.82,0,0,1-1.43,2A3,3,0,0,1,314.75,78.07Zm-3.91-3.63a2.17,2.17,0,0,0,1,2,3.3,3.3,0,0,0,1.9.74,2.72,2.72,0,0,0,1.83-.29,1.93,1.93,0,0,0,1-1.38,2.11,2.11,0,0,0-.65-1.55,3.41,3.41,0,0,0-2.45-1.06,2.7,2.7,0,0,0-2,.52,1.73,1.73,0,0,0-.58,1.06Z"/><path class="cls-2" d="M360.61,78.62h-.25a3.51,3.51,0,0,1-2.37-.46,2.74,2.74,0,0,1-1.39-2.08,2.89,2.89,0,0,1,.91-2.21,4.18,4.18,0,0,1,3.12-1.31,3.48,3.48,0,0,1,2.66.81,2.68,2.68,0,0,1,.83,1.62h0a3,3,0,0,1-1.34,2.72A4.08,4.08,0,0,1,360.61,78.62Zm-.35-5.12a3.16,3.16,0,0,0-2.08,1A2,2,0,0,0,357.5,76a2,2,0,0,0,1,1.41,2.74,2.74,0,0,0,1.82.32,3.35,3.35,0,0,0,1.91-.71,2.19,2.19,0,0,0,1-1.93h0a1.83,1.83,0,0,0-.56-1.07,2.69,2.69,0,0,0-2-.57Z"/><path class="cls-2" d="M377.83,84h-.24a3.59,3.59,0,0,1-2.38-.46,2.76,2.76,0,0,1-1.39-2.08,3,3,0,0,1,.91-2.22A4.21,4.21,0,0,1,377.85,78a3.6,3.6,0,0,1,2.67.82,2.79,2.79,0,0,1,.83,1.61h0A3.07,3.07,0,0,1,380,83.11,4.08,4.08,0,0,1,377.83,84Zm-.35-5.12a3.16,3.16,0,0,0-2.08,1,2,2,0,0,0-.68,1.53,2,2,0,0,0,1,1.4,2.68,2.68,0,0,0,1.82.32,3.21,3.21,0,0,0,1.92-.7,2.19,2.19,0,0,0,1-1.93h0a1.73,1.73,0,0,0-.56-1.07,2.68,2.68,0,0,0-2-.57Z"/><path class="cls-2" d="M338.34,76.88a4.63,4.63,0,0,1-2.12-.27A3.58,3.58,0,0,1,334.07,75a3.26,3.26,0,0,1-.3-2.21,2.58,2.58,0,0,1,.39-.92h0a3.29,3.29,0,0,1,2-1.24,4.65,4.65,0,0,1,2.81,0,3.64,3.64,0,0,1,2.1,1.44,3,3,0,0,1,.52,2,3.28,3.28,0,0,1-1.81,2.38A3.55,3.55,0,0,1,338.34,76.88Zm-3.43-4.52a1.65,1.65,0,0,0-.26.63,2.31,2.31,0,0,0,.21,1.57,2.71,2.71,0,0,0,1.66,1.2,3.28,3.28,0,0,0,2.77-.1A2.37,2.37,0,0,0,340.65,74a2.18,2.18,0,0,0-.38-1.38,2.89,2.89,0,0,0-1.63-1.08,3.85,3.85,0,0,0-2.28,0,2.4,2.4,0,0,0-1.45.88Z"/><path class="cls-2" d="M297.14,81.73a3.74,3.74,0,0,1-1.62-.3,3.53,3.53,0,0,1-1.85-1.68,2.52,2.52,0,0,1,.89-3.55,3.31,3.31,0,0,1,2.44-.42l-.11.89a1.93,1.93,0,0,0-1.47.61,1.78,1.78,0,0,0-.43,1.23,2.42,2.42,0,0,0,1,1.81,2.57,2.57,0,0,0,1.25.52Z"/><path class="cls-2" d="M378.18,84a3.42,3.42,0,0,1-.64,0v-.9a2.61,2.61,0,0,0,1.25-.49,2.42,2.42,0,0,0,1-1.79,1.9,1.9,0,0,0-.4-1.24,1.94,1.94,0,0,0-1.46-.64l-.09-.89a3.35,3.35,0,0,1,2.43.46,2.76,2.76,0,0,1,1.17,1.59,2.8,2.8,0,0,1-.35,2,3.87,3.87,0,0,1-2.91,1.9Z"/><path class="cls-2" d="M171.43,290a15.83,15.83,0,0,1,4.27.59l-2.65,5.16a7.63,7.63,0,0,0-2.5-1.25,10.51,10.51,0,0,0-3.24-.52,5.14,5.14,0,0,0-3.64,1.13,5,5,0,0,0-1.52,3.93,9.91,9.91,0,0,0,.83,3.83l.74,1.67c.66,1.47,1.14,2.65,1.45,3.53a7.29,7.29,0,0,1,.47,2.26,1.43,1.43,0,0,1-1.21,1.62,1.41,1.41,0,0,1-.41,0H151.3v-.69a2.92,2.92,0,0,0,1.64-.54,1.64,1.64,0,0,0,.81-1.42V280.26a1.66,1.66,0,0,0-.81-1.42,2.92,2.92,0,0,0-1.64-.54v-.69H164v.69a2.93,2.93,0,0,0-1.65.54,1.62,1.62,0,0,0-.81,1.42v16.79a7.24,7.24,0,0,1,2.7-4.66A10.87,10.87,0,0,1,171.43,290Zm-9.82,10.22v9.08a1.62,1.62,0,0,0,.79,1.42,2.76,2.76,0,0,0,1.62.54c.55,0,.83-.32.83-1a16.65,16.65,0,0,0-1.62-5c-.2-.42-.46-1.06-.78-1.91A14.2,14.2,0,0,1,161.61,300.25Zm22.76-21.41a1.62,1.62,0,0,0-.81,1.42v29.07a1.6,1.6,0,0,0,.81,1.42,2.92,2.92,0,0,0,1.64.54V312H173.25v-.69a2.92,2.92,0,0,0,1.64-.54,1.64,1.64,0,0,0,.81-1.42V280.26a1.66,1.66,0,0,0-.81-1.42,2.92,2.92,0,0,0-1.64-.54v-.69H186v.69a2.92,2.92,0,0,0-1.64.54Z"/><path class="cls-2" d="M197.21,300a16.45,16.45,0,0,0,.91,5.48,10.21,10.21,0,0,0,2.67,4.27,5.95,5.95,0,0,0,8.74-.47,24.9,24.9,0,0,0,2.92-3.78l1.11-1.87v5.65a10.41,10.41,0,0,1-4.72,2.28,25.1,25.1,0,0,1-5.79.67c-.49,0-1.33-.05-2.5-.15a14.32,14.32,0,0,1-6.53-2.36A12.22,12.22,0,0,1,190,294a11.45,11.45,0,0,1,4.06-4.4,14.34,14.34,0,0,1,6.53-2.16,20.33,20.33,0,0,1,2.21-.15,12.87,12.87,0,0,1,6,1.33,9.55,9.55,0,0,1,3.81,3.46,8.76,8.76,0,0,1,1.27,4.54h-16.3A14.88,14.88,0,0,0,197.21,300Zm9.35-9.13a3.38,3.38,0,0,0-3.36-1.82,4.12,4.12,0,0,0-3.37,1.92,12.53,12.53,0,0,0-2,4.51h9.52a9,9,0,0,0-.74-4.61Z"/><path class="cls-2" d="M226.54,310.75a3,3,0,0,0,1.65.54V312H215.47v-.69a3,3,0,0,0,1.65-.54,1.64,1.64,0,0,0,.81-1.42V285.71a12.85,12.85,0,0,1,0-1.52v-2.13a8.79,8.79,0,0,0-.32-2.65,1.24,1.24,0,0,0-1.25-.89,8,8,0,0,0-3.64,1.62l-3.29-2.5,1.55-.07c.93-.05,2.09-.08,3.46-.08,3.86,0,6.42.31,7.66.94,2.32,1.22,3.53,3.47,3.63,6.77v24.16A1.63,1.63,0,0,0,226.54,310.75Z"/><path class="cls-2" d="M248,287.38a11,11,0,0,1,6.28,1.77,11.46,11.46,0,0,1,4,4.62,14,14,0,0,1,1.35,6,13.6,13.6,0,0,1-1.35,6,11.12,11.12,0,0,1-4,4.54A11.62,11.62,0,0,1,247.8,312a10.18,10.18,0,0,1-6-1.62,9.22,9.22,0,0,1-3.39-4.42v7.86c0,1.67,0,2.81.08,3.43a2,2,0,0,0,.44,1.3,2.35,2.35,0,0,0,1.35.52l-8.1,2.65A2,2,0,0,1,230.9,320a16.82,16.82,0,0,1-.3-3.61V295.34c0-1.67,0-2.82-.07-3.44a2.1,2.1,0,0,0-.44-1.3,2.56,2.56,0,0,0-1.35-.52l8.1-2.65c.92.33,1.44,1.59,1.57,3.78v3.63a10.77,10.77,0,0,1,2.92-5.11,8.66,8.66,0,0,1,5.28-2.29C246.94,287.44,247.39,287.38,248,287.38ZM251.26,307a12.15,12.15,0,0,0,1.82-6.77,15.59,15.59,0,0,0-.83-5.11,9.92,9.92,0,0,0-2.43-3.93,5.35,5.35,0,0,0-3.76-1.52c-4.26,0-6.82,3.11-7.71,9.33v4.42a11,11,0,0,0,2.85,4.61,6.57,6.57,0,0,0,4.76,1.82,5.91,5.91,0,0,0,5.3-2.85Z"/><path class="cls-2" d="M296.68,307.71a8.69,8.69,0,0,1-3.16,2.38,19.45,19.45,0,0,1-4.18,1.42,16.39,16.39,0,0,1-3.61.47,14.89,14.89,0,0,1-6.63-1.13,5.33,5.33,0,0,1-2.82-2.82,12.18,12.18,0,0,1-.61-4.15V290.44c-.89-.46-1.33-.94-1.33-1.43a1.81,1.81,0,0,1,.49-.91,4.56,4.56,0,0,1,.84-.86v-1.76c0-1.67,0-2.82-.08-3.44a2,2,0,0,0-.44-1.3,2.4,2.4,0,0,0-1.35-.52l8.1-2.65a2.09,2.09,0,0,1,1.28,1.7,17.44,17.44,0,0,1,.29,3.6V290a13.42,13.42,0,0,0,4.4-1.05,2.74,2.74,0,0,0,1.84-2.24l3.83,5.6a15,15,0,0,1-4.27.44,46.82,46.82,0,0,1-5.8-.39v9.67a41.11,41.11,0,0,0,.37,6.56c.25,1.39.89,2.08,1.94,2.08a2.38,2.38,0,0,0,2.19-1.57,8.42,8.42,0,0,0,.76-3.63,13,13,0,0,0-.2-1.87Zm-21-18.46v-1L275,289a2.35,2.35,0,0,0,.63.27Z"/><path class="cls-2" d="M327.05,307.56a2,2,0,0,0,.44,1.3,2.35,2.35,0,0,0,1.35.52l-8.1,2.65a2,2,0,0,1-1.27-1.69,16.82,16.82,0,0,1-.3-3.61V291.6a4.08,4.08,0,0,0-.79-2.72,2.63,2.63,0,0,0-2.11-.91,6.69,6.69,0,0,0-3.51,1.2,12.28,12.28,0,0,0-3.38,3.32,11.59,11.59,0,0,0-2,4.61V301a10.5,10.5,0,0,0,1.18,3.05,38.67,38.67,0,0,0,2.11,3.33c.59.89,1,1.58,1.32,2.09a2.76,2.76,0,0,1,.44,1.3c0,.79-.86,1.18-2.6,1.18H297.12v-.69a3,3,0,0,0,1.65-.54,1.64,1.64,0,0,0,.81-1.42V285.52c0-1.67,0-2.82-.07-3.44a2,2,0,0,0-.45-1.3,2.4,2.4,0,0,0-1.35-.52l8.11-2.65a2.08,2.08,0,0,1,1.27,1.7,18.11,18.11,0,0,1,.3,3.6v11.35a12.52,12.52,0,0,1,3.21-4.6,15.2,15.2,0,0,1,4.74-2.94,13.8,13.8,0,0,1,5-1,7.43,7.43,0,0,1,4.79,1.48,5.18,5.18,0,0,1,1.84,4.27v12.66C327,305.79,327,306.94,327.05,307.56Zm-15.69,2.95a2.83,2.83,0,0,0-.41-1.16c-.28-.5-.62-1.05-1-1.64a27,27,0,0,1-2.55-4.42v6a1.6,1.6,0,0,0,.81,1.42,2.92,2.92,0,0,0,1.64.54C310.86,311.29,311.36,311,311.36,310.51Z"/><path class="cls-2" d="M338.91,300a16.45,16.45,0,0,0,.91,5.48,10.28,10.28,0,0,0,2.67,4.27,6,6,0,0,0,8.74-.52,23.82,23.82,0,0,0,2.92-3.78l1.11-1.87v5.65a10.32,10.32,0,0,1-4.71,2.28,25.18,25.18,0,0,1-5.8.67c-.49,0-1.32-.05-2.5-.15a14.32,14.32,0,0,1-6.53-2.36,12,12,0,0,1-5.4-10.11,11.87,11.87,0,0,1,1.35-5.57,11.42,11.42,0,0,1,4.05-4.4,14.34,14.34,0,0,1,6.53-2.16,20.33,20.33,0,0,1,2.21-.15,12.87,12.87,0,0,1,6,1.33,9.28,9.28,0,0,1,3.81,3.46,8.76,8.76,0,0,1,1.27,4.54h-16.3A14.88,14.88,0,0,0,338.91,300Zm9.35-9.13a3.38,3.38,0,0,0-3.36-1.82,4.16,4.16,0,0,0-3.36,1.92,12.53,12.53,0,0,0-2,4.51h9.52a8.93,8.93,0,0,0-.8-4.61Z"/><path class="cls-2" d="M385,292.29a15,15,0,0,1-5.94-1.32v18.36a1.6,1.6,0,0,0,.81,1.42,3,3,0,0,0,1.65.54V312H368.81v-.69a3,3,0,0,0,1.65-.54,1.64,1.64,0,0,0,.81-1.42V285.44q0-5.19,3.63-7.07c1.24-.63,3.8-.94,7.66-.94,1.37,0,2.53,0,3.46.08l1.55.07-3.29,2.5a8.06,8.06,0,0,0-3.64-1.62,1.22,1.22,0,0,0-1.25.89,8.2,8.2,0,0,0-.32,2.65v8a8.72,8.72,0,0,0,1.62.15,5,5,0,0,0,3.12-.81,3.47,3.47,0,0,0,1.35-1.84l3.14,4.07A7.37,7.37,0,0,1,385,292.29Z"/><path class="cls-2" d="M415.68,307.51a2,2,0,0,0,.44,1.3,2.35,2.35,0,0,0,1.35.52l-8.1,2.65a2.08,2.08,0,0,1-1.25-1.64,14.11,14.11,0,0,1-.32-3.37,9.77,9.77,0,0,1-3.88,3.61,13.25,13.25,0,0,1-4.08,1.4,12.2,12.2,0,0,1-1.91.15A10.7,10.7,0,0,1,393,311a8.1,8.1,0,0,1-3.38-3,7.7,7.7,0,0,1-1.21-4.25,8.5,8.5,0,0,1,.35-2.4,8.1,8.1,0,0,1,3.31-4.52,19,19,0,0,1,6.14-2.9,25.25,25.25,0,0,1,6.8-1,15.51,15.51,0,0,1,2.8.25,28.43,28.43,0,0,0-.18-3.91c-.11-.73-.4-1.1-.85-1.1a3.73,3.73,0,0,0-1.92,1.08,10.64,10.64,0,0,1-7.41,3.39,9.86,9.86,0,0,1-4-.94l3.49-3.19a3.79,3.79,0,0,0,2.45.79,9.61,9.61,0,0,0,2.38-.32c.84-.21,2-.53,3.37-1a33.17,33.17,0,0,1,3.46-1,10.6,10.6,0,0,1,2.57-.34,4.11,4.11,0,0,1,3.88,2.06,3.54,3.54,0,0,1,.47,1.45c0,.54.07,1.13.07,1.79v12.13C415.61,305.75,415.61,306.89,415.68,307.51ZM395,303.19a6.16,6.16,0,0,0,1.89,4.67,6.3,6.3,0,0,0,4.54,1.81,7.33,7.33,0,0,0,3.37-.83,9.54,9.54,0,0,0,3-2.51V293.81h-1.52a13.63,13.63,0,0,0-6.46,1.49,8.58,8.58,0,0,0-4,4.15A9.64,9.64,0,0,0,395,303.19Z"/><path class="cls-2" d="M431.78,289.89a8.15,8.15,0,0,1,4.25-1.23,6.3,6.3,0,0,1,2.5.49v7.61a11.3,11.3,0,0,0-3.31-3,6.92,6.92,0,0,0-3.36-1,3.35,3.35,0,0,0-2.24.74,2.74,2.74,0,0,0-.91,2.11v13.8a1.6,1.6,0,0,0,.81,1.42,3,3,0,0,0,1.65.54v.69H418.45v-.69a3,3,0,0,0,1.65-.54,1.64,1.64,0,0,0,.81-1.42v-14c0-1.67,0-2.82-.08-3.44a2,2,0,0,0-.44-1.3,2.56,2.56,0,0,0-1.35-.52l8.1-2.65a2.21,2.21,0,0,1,1.3,1.82,17.15,17.15,0,0,1,.27,3.78A8.1,8.1,0,0,1,431.78,289.89Z"/><path class="cls-2" d="M489.77,307.66a2,2,0,0,0,.44,1.3,2.35,2.35,0,0,0,1.35.52l-8.1,2.65a2.07,2.07,0,0,1-1.28-1.7,17.38,17.38,0,0,1-.29-3.6V291.6a4.08,4.08,0,0,0-.79-2.72A2.66,2.66,0,0,0,479,288a6.39,6.39,0,0,0-3.12,1,13.32,13.32,0,0,0-5.52,6.58v8.69c0,1.67,0,2.82.07,3.44a2,2,0,0,0,.44,1.3,2.41,2.41,0,0,0,1.36.52l-8.11,2.65a2.06,2.06,0,0,1-1.27-1.7,16.68,16.68,0,0,1-.3-3.6V291.6a4.14,4.14,0,0,0-.78-2.72,2.66,2.66,0,0,0-2.11-.91,6.71,6.71,0,0,0-3.34,1.08,13,13,0,0,0-5.55,7.22v5.65a26,26,0,0,0,2.85,4.86,29.18,29.18,0,0,1,1.59,2.45,3.18,3.18,0,0,1,.52,1.52c0,.82-.84,1.23-2.51,1.23H440.5v-.69a3,3,0,0,0,1.64-.54,1.64,1.64,0,0,0,.81-1.42v-14c0-1.67,0-2.82-.07-3.44a2.1,2.1,0,0,0-.44-1.3,2.56,2.56,0,0,0-1.35-.52l8.1-2.65a2.31,2.31,0,0,1,1.37,2.06,30.4,30.4,0,0,1,.2,4.57,13,13,0,0,1,3.24-4.59,14.52,14.52,0,0,1,4.64-2.92,13.43,13.43,0,0,1,4.93-1,7.54,7.54,0,0,1,4.86,1.53,5.26,5.26,0,0,1,1.92,4.37v2.16a12.72,12.72,0,0,1,3.26-4.3,15.33,15.33,0,0,1,4.55-2.72,13.36,13.36,0,0,1,4.76-.94,7.66,7.66,0,0,1,4.86,1.5,5.13,5.13,0,0,1,1.91,4.3V304.2C489.69,305.89,489.72,307,489.77,307.66Zm-34.59,2.7a2.61,2.61,0,0,0-.47-1.23c-.31-.49-.79-1.18-1.45-2.06a38,38,0,0,1-2.5-3.78v6a1.62,1.62,0,0,0,.81,1.42,2.92,2.92,0,0,0,1.64.54c1.31,0,2-.27,2-.89Z"/><path class="cls-2" d="M502.12,300a16.7,16.7,0,0,0,.9,5.48,10.4,10.4,0,0,0,2.68,4.27,6,6,0,0,0,8.48-.23c.09-.09.17-.19.26-.29a24.9,24.9,0,0,0,2.92-3.78l1.11-1.87v5.65a10.41,10.41,0,0,1-4.72,2.28,25.1,25.1,0,0,1-5.79.67c-.49,0-1.33-.05-2.51-.15a14.56,14.56,0,0,1-6.53-2.36,12,12,0,0,1-5.4-10.11,11.87,11.87,0,0,1,1.35-5.57,11.44,11.44,0,0,1,4-4.4,14.45,14.45,0,0,1,6.53-2.16,20.33,20.33,0,0,1,2.21-.15,12.9,12.9,0,0,1,6,1.33,9.55,9.55,0,0,1,3.81,3.46,8.76,8.76,0,0,1,1.27,4.54h-16.3A14.88,14.88,0,0,0,502.12,300Zm9.35-9.13a3.38,3.38,0,0,0-3.36-1.82,4.12,4.12,0,0,0-3.37,1.92,12.53,12.53,0,0,0-2,4.51h9.53A8.93,8.93,0,0,0,511.47,290.87Z"/><path class="cls-2" d="M534.06,289.89a8.14,8.14,0,0,1,4.24-1.23,6.38,6.38,0,0,1,2.51.49v7.61a11.46,11.46,0,0,0-3.32-3,6.79,6.79,0,0,0-3.36-1,3.32,3.32,0,0,0-2.23.74,2.74,2.74,0,0,0-.91,2.11v13.8a1.6,1.6,0,0,0,.81,1.42,2.92,2.92,0,0,0,1.64.54v.69H520.73v-.69a2.92,2.92,0,0,0,1.64-.54,1.64,1.64,0,0,0,.81-1.42v-14c0-1.67,0-2.82-.07-3.44a2,2,0,0,0-.45-1.3,2.4,2.4,0,0,0-1.35-.52l8.11-2.65a2.26,2.26,0,0,1,1.3,1.82,17.15,17.15,0,0,1,.27,3.78A8,8,0,0,1,534.06,289.89Z"/><path class="cls-2" d="M189.79,348.81a8.15,8.15,0,0,1,4.25-1.23,6.38,6.38,0,0,1,2.51.49v7.61a11.46,11.46,0,0,0-3.32-3,6.79,6.79,0,0,0-3.36-1,3.37,3.37,0,0,0-2.24.74,2.77,2.77,0,0,0-.9,2.11v13.8a1.6,1.6,0,0,0,.81,1.42,2.92,2.92,0,0,0,1.64.54V371H176.46v-.69a3,3,0,0,0,1.65-.54,1.64,1.64,0,0,0,.81-1.42v-14c0-1.67,0-2.82-.07-3.44a2,2,0,0,0-.45-1.3,2.4,2.4,0,0,0-1.35-.52l8.1-2.65a2.24,2.24,0,0,1,1.31,1.82,17.15,17.15,0,0,1,.27,3.78A8.14,8.14,0,0,1,189.79,348.81Z"/><path class="cls-2" d="M208,358.92a16.7,16.7,0,0,0,.9,5.48,10.4,10.4,0,0,0,2.68,4.27,6,6,0,0,0,8.48-.23c.09-.09.17-.19.26-.29a24.9,24.9,0,0,0,2.92-3.78l1.11-1.87v5.65a10.56,10.56,0,0,1-4.73,2.29,25.1,25.1,0,0,1-5.79.67c-.49,0-1.33-.05-2.51-.15a14.56,14.56,0,0,1-6.53-2.36,12,12,0,0,1-5.4-10.11,11.87,11.87,0,0,1,1.35-5.57,11.44,11.44,0,0,1,4-4.4,14.45,14.45,0,0,1,6.53-2.16,20.33,20.33,0,0,1,2.21-.15,12.9,12.9,0,0,1,6,1.33,9.46,9.46,0,0,1,3.8,3.46,8.77,8.77,0,0,1,1.28,4.54h-16.3A15.37,15.37,0,0,0,208,358.92Zm9.35-9.13A3.38,3.38,0,0,0,214,348a4.12,4.12,0,0,0-3.37,1.92,12.53,12.53,0,0,0-2,4.51h9.53A8.93,8.93,0,0,0,217.34,349.79Z"/><path class="cls-2" d="M243.24,346.2a23,23,0,0,1,5.6.67,9.12,9.12,0,0,1,4.27,2.28l-6.5,2.11a3.13,3.13,0,0,0,.39-1.47c0-1-.82-1.52-2.46-1.52a6.24,6.24,0,0,0-4.27,1.54,9.39,9.39,0,0,0-2.65,4.05,16.64,16.64,0,0,0,0,10.71,9.33,9.33,0,0,0,2.65,4.05,6.24,6.24,0,0,0,4.27,1.54,7,7,0,0,0,3.56-1,12.12,12.12,0,0,0,3.1-2.52,7.78,7.78,0,0,0,1.64-2.68v4.22q-2.25,2.82-12.71,2.8a12.26,12.26,0,0,1-6.51-1.64,10.69,10.69,0,0,1-4.05-4.33,12.27,12.27,0,0,1-1.38-5.76,13.23,13.23,0,0,1,1.38-5.92,12.39,12.39,0,0,1,4.05-4.72,13.09,13.09,0,0,1,6.51-2.23A26.9,26.9,0,0,1,243.24,346.2Z"/><path class="cls-2" d="M266.24,349.37a6,6,0,0,1,4.35-1.64,9,9,0,0,1,2.06.24,11.16,11.16,0,0,1,7,3.71,10.21,10.21,0,0,1,2.43,6.7,11.82,11.82,0,0,1-1.67,6,12.92,12.92,0,0,1-4.86,4.68,15,15,0,0,1-7.56,1.82,13.05,13.05,0,0,1-6.85-1.74,12,12,0,0,1-4.47-4.57,12.22,12.22,0,0,1-1.55-6,12.09,12.09,0,0,1,1.3-5.5,11.5,11.5,0,0,1,4-4.42,14.77,14.77,0,0,1,6.55-2.31l4.23.69a7,7,0,0,0-.79,0A6.33,6.33,0,0,0,266,348.6a9.5,9.5,0,0,0-2.65,4.27,17.77,17.77,0,0,0-.86,5.65,19,19,0,0,0,.78,5.5,10.44,10.44,0,0,0,2.24,4.17,4.42,4.42,0,0,0,6.89-.17,11.89,11.89,0,0,0,2.26-4.47,20.13,20.13,0,0,0,.79-5.62,16.23,16.23,0,0,0-1-5.77,5.9,5.9,0,0,0-2.85-3.41,2.52,2.52,0,0,0-.89-.25,1.12,1.12,0,0,0-1.1.74,5.48,5.48,0,0,0-.27,2.6l-4.76,1.87A5.76,5.76,0,0,1,266.24,349.37Z"/><path class="cls-2" d="M310.78,345.44a9.23,9.23,0,0,1,.9,4.35,25.93,25.93,0,0,1-1.86,9,29.92,29.92,0,0,1-4.76,8.44c-1.94,2.34-3.88,3.58-5.85,3.71h-11l.25-.69A3.87,3.87,0,0,0,290,370a.92.92,0,0,0,.66-.91,1.65,1.65,0,0,0-.1-.44L284.19,349a4.15,4.15,0,0,0-.76-1.4,1.84,1.84,0,0,0-1.4-.51l.24-.69H295l-.25.69a3.23,3.23,0,0,0-1.71.51,1.55,1.55,0,0,0-.79,1.5l6,18.9a3.09,3.09,0,0,0,2.31,1.33c1.18,0,2.31-.83,3.41-2.5a22.14,22.14,0,0,0,2.68-6.24,27.24,27.24,0,0,0,1-7.07,10.91,10.91,0,0,0-1.06-5.15,3.45,3.45,0,0,0-3.22-2l4.57-3A3.84,3.84,0,0,1,310.78,345.44Z"/><path class="cls-2" d="M323.27,358.92a16.45,16.45,0,0,0,.91,5.48,10.28,10.28,0,0,0,2.67,4.27,6,6,0,0,0,8.74-.52,25,25,0,0,0,2.93-3.78l1.1-1.87v5.65a10.44,10.44,0,0,1-4.71,2.29,25.18,25.18,0,0,1-5.8.67c-.49,0-1.32-.05-2.5-.15a14.56,14.56,0,0,1-6.53-2.36,12,12,0,0,1-5.4-10.11,11.87,11.87,0,0,1,1.35-5.57,11.42,11.42,0,0,1,4.05-4.4,14.45,14.45,0,0,1,6.53-2.16,20.33,20.33,0,0,1,2.21-.15,12.87,12.87,0,0,1,6,1.33,9.28,9.28,0,0,1,3.81,3.46,8.77,8.77,0,0,1,1.28,4.54h-16.3A15.39,15.39,0,0,0,323.27,358.92Zm9.35-9.13a3.38,3.38,0,0,0-3.36-1.82,4.16,4.16,0,0,0-3.36,1.92,12.53,12.53,0,0,0-2,4.51h9.52a9,9,0,0,0-.81-4.61Z"/><path class="cls-2" d="M355.21,348.81a8.15,8.15,0,0,1,4.25-1.23,6.3,6.3,0,0,1,2.5.49v7.61a11.42,11.42,0,0,0-3.31-3,6.93,6.93,0,0,0-3.37-1,3.32,3.32,0,0,0-2.23.74,2.74,2.74,0,0,0-.91,2.11v13.8a1.6,1.6,0,0,0,.81,1.42,3,3,0,0,0,1.65.54V371H341.88v-.69a2.92,2.92,0,0,0,1.64-.54,1.64,1.64,0,0,0,.81-1.42v-14c0-1.67,0-2.82-.07-3.44a2.1,2.1,0,0,0-.44-1.3,2.56,2.56,0,0,0-1.35-.52l8.1-2.65a2.24,2.24,0,0,1,1.3,1.82,17.15,17.15,0,0,1,.27,3.78A8.1,8.1,0,0,1,355.21,348.81Z"/><path class="cls-2" d="M403.61,366.44a2,2,0,0,0,.44,1.3,2.35,2.35,0,0,0,1.35.52l-8.1,2.65a2.08,2.08,0,0,1-1.25-1.64,14.16,14.16,0,0,1-.32-3.37,9.77,9.77,0,0,1-3.88,3.61,13.46,13.46,0,0,1-4.07,1.4,12.42,12.42,0,0,1-1.92.15,10.66,10.66,0,0,1-4.93-1.11,8.13,8.13,0,0,1-3.39-3,7.88,7.88,0,0,1-1.2-4.25,8.27,8.27,0,0,1,3.66-6.92,19.09,19.09,0,0,1,6.13-2.9,25.65,25.65,0,0,1,6.8-1,15.51,15.51,0,0,1,2.8.25,32,32,0,0,0-.17-3.91c-.12-.73-.4-1.1-.86-1.1a3.74,3.74,0,0,0-1.91,1.08,10.67,10.67,0,0,1-7.42,3.39,9.86,9.86,0,0,1-4-.94l3.48-3.19a3.82,3.82,0,0,0,2.46.79,9.61,9.61,0,0,0,2.38-.32c.83-.2,1.95-.54,3.36-1s2.56-.8,3.46-1a10.69,10.69,0,0,1,2.58-.35,4.14,4.14,0,0,1,3.88,2.07,3.4,3.4,0,0,1,.47,1.45c0,.54.07,1.13.07,1.79V363A28.6,28.6,0,0,0,403.61,366.44Zm-20.69-4.32a6.16,6.16,0,0,0,1.89,4.67,6.3,6.3,0,0,0,4.54,1.81,7.29,7.29,0,0,0,3.36-.83,9.54,9.54,0,0,0,3-2.51V352.73h-1.52a13.63,13.63,0,0,0-6.46,1.49,8.66,8.66,0,0,0-4,4.15,9.5,9.5,0,0,0-.85,3.74Z"/><path class="cls-2" d="M417.07,369.67a3,3,0,0,0,1.65.54v.69H406v-.69a3,3,0,0,0,1.65-.54,1.64,1.64,0,0,0,.81-1.42V341a8.49,8.49,0,0,0-.32-2.65,1.24,1.24,0,0,0-1.25-.89,8,8,0,0,0-3.64,1.62l-3.29-2.5,1.55-.07c.93,0,2.09-.08,3.46-.08,3.86,0,6.42.31,7.66.94,2.32,1.21,3.54,3.47,3.63,6.77v24.16A1.63,1.63,0,0,0,417.07,369.67Z"/><path class="cls-2" d="M431.41,369.67a3,3,0,0,0,1.65.54v.69H420.34v-.69a2.92,2.92,0,0,0,1.64-.54,1.64,1.64,0,0,0,.81-1.42V341a8.2,8.2,0,0,0-.32-2.65,1.24,1.24,0,0,0-1.25-.89,8.08,8.08,0,0,0-3.63,1.62l-3.29-2.5,1.55-.07c.93,0,2.08-.08,3.46-.08,3.86,0,6.41.32,7.66.94q3.48,1.81,3.63,6.77v24.16A1.63,1.63,0,0,0,431.41,369.67Z"/><path class="cls-2" d="M475.75,366.44a2,2,0,0,0,.44,1.3,2.35,2.35,0,0,0,1.35.52l-8.1,2.65a2,2,0,0,1-1.28-1.69,17.48,17.48,0,0,1-.29-3.61V350.52a4.09,4.09,0,0,0-.79-2.72,2.66,2.66,0,0,0-2.11-.91,6.69,6.69,0,0,0-3.51,1.2,12.32,12.32,0,0,0-3.39,3.32,11.88,11.88,0,0,0-2,4.61V360a10.5,10.5,0,0,0,1.18,3.05c.56,1,1.26,2.09,2.11,3.33.59.89,1,1.58,1.33,2.09a2.88,2.88,0,0,1,.44,1.3c0,.79-.87,1.18-2.6,1.18H445.81v-.69a3,3,0,0,0,1.65-.54,1.64,1.64,0,0,0,.81-1.42V344.44c0-1.67,0-2.82-.08-3.44a2,2,0,0,0-.44-1.3,2.4,2.4,0,0,0-1.35-.52l8.1-2.65a2.09,2.09,0,0,1,1.28,1.7,17.44,17.44,0,0,1,.29,3.6v11.35a12.46,12.46,0,0,1,3.22-4.6,15,15,0,0,1,4.74-2.94,13.8,13.8,0,0,1,5-1,7.41,7.41,0,0,1,4.78,1.48,5.15,5.15,0,0,1,1.84,4.27V363C475.67,364.71,475.7,365.86,475.75,366.44Zm-15.69,3a2.85,2.85,0,0,0-.42-1.16c-.28-.5-.61-1-1-1.64a27.77,27.77,0,0,1-2.56-4.42v6a1.6,1.6,0,0,0,.81,1.42,2.93,2.93,0,0,0,1.65.54C459.55,370.21,460.06,370,460.06,369.44Z"/><path class="cls-2" d="M490.61,369.67a3,3,0,0,0,1.65.54v.69H479.54v-.69a3,3,0,0,0,1.65-.54,1.64,1.64,0,0,0,.81-1.42v-14c0-1.67,0-2.82-.08-3.44a2,2,0,0,0-.44-1.3,2.4,2.4,0,0,0-1.35-.52l8.1-2.65a2.1,2.1,0,0,1,1.28,1.69,18.21,18.21,0,0,1,.3,3.61v16.6A1.61,1.61,0,0,0,490.61,369.67Zm-1.69-28-3.83,3.87-3.83-3.87,3.83-3.83Z"/><path class="cls-2" d="M494.61,360.49a5.74,5.74,0,0,1,3.09-.73,13,13,0,0,1,5.25,1.17l-4.32,2c-.06-.07-.45-.43-1.15-1.08a3,3,0,0,0-2-1c-.66,0-1,.61-.93,1.82a8.15,8.15,0,0,0,1.81,4.67,7,7,0,0,0,5,2.35,3.64,3.64,0,0,0,.74.05,6.31,6.31,0,0,0,3.73-1.13A4.06,4.06,0,0,0,507.7,366a6.4,6.4,0,0,0,.09-.88,3.47,3.47,0,0,0-.93-2.43A7.72,7.72,0,0,0,504.6,361c-1.19-.58-2.4-1.09-3.63-1.55-1.67-.62-3-1.18-4-1.67a8,8,0,0,1-2.56-1.94,4.32,4.32,0,0,1-1-3,6.8,6.8,0,0,1,.24-1.67,5.37,5.37,0,0,1,3.44-3.66,18.31,18.31,0,0,1,7.07-1.2,21,21,0,0,1,6.29,1.08c2.25.72,3.78,1.75,4.56,3.09l-7.66,1.63a3.24,3.24,0,0,0,.79-2.17,2.55,2.55,0,0,0-.81-1.91,3.51,3.51,0,0,0-2.48-.79,4.45,4.45,0,0,0-3.1,1.11,3.5,3.5,0,0,0-1.17,2.87,2.88,2.88,0,0,0,.91,2.14,7.8,7.8,0,0,0,2.2,1.52c.87.41,2.06.89,3.56,1.45a42.77,42.77,0,0,1,4.45,1.94,9.53,9.53,0,0,1,2.82,2.23,5,5,0,0,1,1.18,3.39,8.9,8.9,0,0,1-.29,2.06c-.46,1.7-1.82,3-4.06,3.78a21.12,21.12,0,0,1-7.34,1.23,17,17,0,0,1-2.26-.1,12,12,0,0,1-8.34-4.32v-3.88A2.52,2.52,0,0,1,494.61,360.49Z"/><path class="cls-2" d="M252.44,405.12a23.57,23.57,0,0,1,5.6.67,8.94,8.94,0,0,1,4.27,2.28l-6.53,2.11a3.14,3.14,0,0,0,.4-1.47c0-1-.82-1.52-2.46-1.52a6.24,6.24,0,0,0-4.27,1.54,9.32,9.32,0,0,0-2.65,4,16.51,16.51,0,0,0,0,10.71,9.33,9.33,0,0,0,2.65,4.05,6.25,6.25,0,0,0,4.27,1.55,7,7,0,0,0,3.56-1,11.91,11.91,0,0,0,3.09-2.52,7.66,7.66,0,0,0,1.65-2.68v4.22q-2.26,2.82-12.72,2.8a12.23,12.23,0,0,1-6.5-1.64,10.72,10.72,0,0,1-4.06-4.33,12.28,12.28,0,0,1-1.37-5.76,13.22,13.22,0,0,1,1.37-5.92,12.23,12.23,0,0,1,4.06-4.71,13.13,13.13,0,0,1,6.5-2.24A27.39,27.39,0,0,1,252.44,405.12Z"/><path class="cls-2" d="M293.22,425.44a2,2,0,0,0,.44,1.3,2.35,2.35,0,0,0,1.35.52l-8.1,2.65a2,2,0,0,1-1.27-1.69,16.82,16.82,0,0,1-.3-3.61V409.44a4.14,4.14,0,0,0-.78-2.72,2.67,2.67,0,0,0-2.12-.91,6.59,6.59,0,0,0-3.51,1.21,12,12,0,0,0-3.38,3.31,11.59,11.59,0,0,0-2,4.61v3.93a10.5,10.5,0,0,0,1.18,3.05c.55,1,1.26,2.09,2.11,3.34.59.88,1,1.58,1.32,2.08a2.76,2.76,0,0,1,.44,1.3c0,.79-.86,1.18-2.6,1.18H263.3v-.69a2.92,2.92,0,0,0,1.64-.54,1.64,1.64,0,0,0,.81-1.42V403.36c0-1.67,0-2.82-.07-3.44a2,2,0,0,0-.45-1.3,2.4,2.4,0,0,0-1.35-.52l8.11-2.65a2.09,2.09,0,0,1,1.27,1.7,18.11,18.11,0,0,1,.3,3.6V412.1a12.48,12.48,0,0,1,3.21-4.59,15,15,0,0,1,4.74-2.95,14,14,0,0,1,5-1A7.43,7.43,0,0,1,291.3,405a5.18,5.18,0,0,1,1.84,4.27V422C293.15,423.64,293.17,424.78,293.22,425.44Zm-15.69,3a2.83,2.83,0,0,0-.41-1.16c-.28-.5-.62-1-1-1.64a27,27,0,0,1-2.55-4.42v6a1.6,1.6,0,0,0,.81,1.42,2.92,2.92,0,0,0,1.64.54c1-.05,1.51-.31,1.51-.83Z"/><path class="cls-2" d="M308.05,428.59a2.92,2.92,0,0,0,1.64.54v.69H297v-.69a2.92,2.92,0,0,0,1.64-.54,1.64,1.64,0,0,0,.81-1.42v-14c0-1.67,0-2.82-.07-3.44a2.1,2.1,0,0,0-.44-1.3,2.56,2.56,0,0,0-1.35-.52l8.1-2.65a2.09,2.09,0,0,1,1.27,1.7,18.11,18.11,0,0,1,.3,3.6v16.6A1.62,1.62,0,0,0,308.05,428.59Zm-1.69-28-3.83,3.88-3.83-3.88,3.83-3.83Z"/><path class="cls-2" d="M325.9,405.12a23.42,23.42,0,0,1,5.59.67,9,9,0,0,1,4.28,2.28l-6.53,2.11a3.13,3.13,0,0,0,.39-1.47c0-1-.82-1.52-2.46-1.52a6.24,6.24,0,0,0-4.27,1.54,9.32,9.32,0,0,0-2.65,4,16.64,16.64,0,0,0,0,10.71,9.33,9.33,0,0,0,2.65,4.05,6.25,6.25,0,0,0,4.27,1.55,7,7,0,0,0,3.56-1,12.12,12.12,0,0,0,3.1-2.52,7.78,7.78,0,0,0,1.64-2.68v4.22q-2.25,2.82-12.72,2.8a12.23,12.23,0,0,1-6.5-1.64,10.7,10.7,0,0,1-4-4.33,12.27,12.27,0,0,1-1.38-5.76,13.23,13.23,0,0,1,1.38-5.92,12.08,12.08,0,0,1,4-4.71,13.13,13.13,0,0,1,6.5-2.24A27.56,27.56,0,0,1,325.9,405.12Z"/><path class="cls-2" d="M359,428.94c.37-.13.56-.35.56-.64a1.31,1.31,0,0,0-.34-.79l-8.5-11a7,7,0,0,1-1.3.81,5,5,0,0,1-1.45.46v9.38a1.6,1.6,0,0,0,.81,1.42,2.93,2.93,0,0,0,1.65.54v.69H337.73v-.69a3,3,0,0,0,1.65-.54,1.64,1.64,0,0,0,.81-1.42v-23.9c0-1.67,0-2.82-.08-3.44a2,2,0,0,0-.44-1.3,2.56,2.56,0,0,0-1.35-.52l8.1-2.65a2.1,2.1,0,0,1,1.28,1.7,19,19,0,0,1,.29,3.61v16a5.12,5.12,0,0,0,2.85-1.22c.52-.5,1.19-1.2,2-2.12a47.18,47.18,0,0,1,4-4,18.94,18.94,0,0,1,4.57-2.85,14.55,14.55,0,0,1,6-1.23,12.71,12.71,0,0,1,1.52.05l-1.67,5.55a22.22,22.22,0,0,0-6.24-1.18,7,7,0,0,0-5.69,2.41l12.42,15.46a4.21,4.21,0,0,0,1.5,1.21,3.51,3.51,0,0,0,1.59.41l.15.69H357.71v-.69A4,4,0,0,0,359,428.94Z"/><path class="cls-2" d="M379.17,417.84a16.45,16.45,0,0,0,.91,5.48,10.14,10.14,0,0,0,2.68,4.27,6,6,0,0,0,8.48-.24c.08-.09.17-.18.25-.28a25,25,0,0,0,2.93-3.78c.63-1.08,1-1.7,1.1-1.86v5.64a10.49,10.49,0,0,1-4.71,2.29,25.8,25.8,0,0,1-5.8.66c-.49,0-1.32,0-2.5-.15a14.56,14.56,0,0,1-6.53-2.36,12,12,0,0,1-5.37-10.07,11.87,11.87,0,0,1,1.35-5.57,11.44,11.44,0,0,1,4-4.4,14.45,14.45,0,0,1,6.53-2.16,20.33,20.33,0,0,1,2.21-.15,12.87,12.87,0,0,1,6,1.33,9.28,9.28,0,0,1,3.81,3.46,8.87,8.87,0,0,1,1.28,4.54H379.51A15.12,15.12,0,0,0,379.17,417.84Zm9.35-9.13a3.38,3.38,0,0,0-3.36-1.82,4.16,4.16,0,0,0-3.36,1.92,12.53,12.53,0,0,0-2,4.51h9.52A8.93,8.93,0,0,0,388.52,408.71Z"/><path class="cls-2" d="M427.71,425.5a2,2,0,0,0,.44,1.3,2.35,2.35,0,0,0,1.35.52L421.4,430a2.07,2.07,0,0,1-1.28-1.7,16.67,16.67,0,0,1-.29-3.6V409.44a4.09,4.09,0,0,0-.79-2.72,2.66,2.66,0,0,0-2.11-.91,6.71,6.71,0,0,0-3.34,1.08,13,13,0,0,0-5.55,7.22v5.65a25.47,25.47,0,0,0,2.85,4.86c.72,1.05,1.25,1.86,1.6,2.45a3.31,3.31,0,0,1,.51,1.52c0,.82-.83,1.23-2.5,1.23H397.78v-.69a2.92,2.92,0,0,0,1.64-.54,1.64,1.64,0,0,0,.81-1.42v-14c0-1.67,0-2.82-.07-3.44a2.1,2.1,0,0,0-.44-1.3,2.56,2.56,0,0,0-1.35-.52l8.1-2.65a2.31,2.31,0,0,1,1.38,2,30.61,30.61,0,0,1,.19,4.49,12.48,12.48,0,0,1,3.24-4.47,15.46,15.46,0,0,1,4.64-2.84,13.49,13.49,0,0,1,4.94-1,7.7,7.7,0,0,1,4.88,1.48,5.17,5.17,0,0,1,1.89,4.32V422C427.61,423.73,427.66,424.88,427.71,425.5Zm-15.25,2.7A2.54,2.54,0,0,0,412,427c-.3-.47-.79-1.19-1.47-2.14a42.65,42.65,0,0,1-2.51-3.73v6.09a1.6,1.6,0,0,0,.81,1.42,3,3,0,0,0,1.65.54C411.81,429.13,412.46,428.82,412.46,428.2Z"/><path class="cls-2" d="M433.72,419.44a5.84,5.84,0,0,1,3.09-.73,13.13,13.13,0,0,1,5.26,1.17l-4.32,2c-.07-.07-.45-.43-1.16-1.08a3,3,0,0,0-2-1c-.65,0-1,.6-.93,1.81a8.23,8.23,0,0,0,1.82,4.67,7,7,0,0,0,5,2.35,3,3,0,0,0,.73.05,6.31,6.31,0,0,0,3.73-1.13,4,4,0,0,0,1.87-2.65,6.4,6.4,0,0,0,.1-.88,3.44,3.44,0,0,0-.94-2.43,8,8,0,0,0-2.25-1.67,33.53,33.53,0,0,0-3.64-1.55,40.72,40.72,0,0,1-4-1.67,8.08,8.08,0,0,1-2.55-1.94,4.24,4.24,0,0,1-1.06-3,6.37,6.37,0,0,1,.25-1.67,5.31,5.31,0,0,1,3.44-3.65,18.13,18.13,0,0,1,7.07-1.21,21,21,0,0,1,6.28,1.08,7.82,7.82,0,0,1,4.57,3.09L446.42,411a3.34,3.34,0,0,0,.78-2.17,2.59,2.59,0,0,0-.81-1.91,3.46,3.46,0,0,0-2.48-.79,4.43,4.43,0,0,0-3.09,1.11,3.52,3.52,0,0,0-1.18,2.87,2.88,2.88,0,0,0,.91,2.14,7.84,7.84,0,0,0,2.21,1.52c.87.41,2,.89,3.56,1.45a43.56,43.56,0,0,1,4.44,1.94,9.72,9.72,0,0,1,2.85,2.25,5.11,5.11,0,0,1,1.17,3.39,8.39,8.39,0,0,1-.29,2.06q-.69,2.55-4.05,3.78a21.12,21.12,0,0,1-7.34,1.23,15.48,15.48,0,0,1-2.26-.1,12,12,0,0,1-8.35-4.32V421.6A2.53,2.53,0,0,1,433.72,419.44Z"/></svg>