<svg id="Layer_1" data-name="Layer 1" xmlns="http://www.w3.org/2000/svg" width="674.55" height="674.55" viewBox="0 0 674.55 674.55"><defs><style>.cls-1{fill:#4d89ae;}.cls-2{fill:#fcd7a2;}</style></defs><rect class="cls-1" x="1.17" y="0.57" width="674.55" height="674.55"/><path class="cls-2" d="M171.43,290a15.83,15.83,0,0,1,4.27.59l-2.65,5.16a7.63,7.63,0,0,0-2.5-1.25,10.51,10.51,0,0,0-3.24-.52,5.14,5.14,0,0,0-3.64,1.13,5,5,0,0,0-1.52,3.93,9.91,9.91,0,0,0,.83,3.83l.74,1.67c.66,1.47,1.14,2.65,1.45,3.53a7.29,7.29,0,0,1,.47,2.26,1.43,1.43,0,0,1-1.21,1.62,1.41,1.41,0,0,1-.41,0H151.3v-.69a2.92,2.92,0,0,0,1.64-.54,1.64,1.64,0,0,0,.81-1.42V280.26a1.66,1.66,0,0,0-.81-1.42,2.92,2.92,0,0,0-1.64-.54v-.69H164v.69a2.93,2.93,0,0,0-1.65.54,1.62,1.62,0,0,0-.81,1.42v16.79a7.24,7.24,0,0,1,2.7-4.66A10.87,10.87,0,0,1,171.43,290Zm-9.82,10.22v9.08a1.62,1.62,0,0,0,.79,1.42,2.76,2.76,0,0,0,1.62.54c.55,0,.83-.32.83-1a16.65,16.65,0,0,0-1.62-5c-.2-.42-.46-1.06-.78-1.91A14.2,14.2,0,0,1,161.61,300.25Zm22.76-21.41a1.62,1.62,0,0,0-.81,1.42v29.07a1.6,1.6,0,0,0,.81,1.42,2.92,2.92,0,0,0,1.64.54V312H173.25v-.69a2.92,2.92,0,0,0,1.64-.54,1.64,1.64,0,0,0,.81-1.42V280.26a1.66,1.66,0,0,0-.81-1.42,2.92,2.92,0,0,0-1.64-.54v-.69H186v.69a2.92,2.92,0,0,0-1.64.54Z"/><path class="cls-2" d="M197.21,300a16.45,16.45,0,0,0,.91,5.48,10.21,10.21,0,0,0,2.67,4.27,5.95,5.95,0,0,0,8.74-.47,24.9,24.9,0,0,0,2.92-3.78l1.11-1.87v5.65a10.41,10.41,0,0,1-4.72,2.28,25.1,25.1,0,0,1-5.79.67c-.49,0-1.33-.05-2.5-.15a14.32,14.32,0,0,1-6.53-2.36A12.22,12.22,0,0,1,190,294a11.45,11.45,0,0,1,4.06-4.4,14.34,14.34,0,0,1,6.53-2.16,20.33,20.33,0,0,1,2.21-.15,12.87,12.87,0,0,1,6,1.33,9.55,9.55,0,0,1,3.81,3.46,8.76,8.76,0,0,1,1.27,4.54h-16.3A14.88,14.88,0,0,0,197.21,300Zm9.35-9.13a3.38,3.38,0,0,0-3.36-1.82,4.12,4.12,0,0,0-3.37,1.92,12.53,12.53,0,0,0-2,4.51h9.52a9,9,0,0,0-.74-4.61Z"/><path class="cls-2" d="M226.54,310.75a3,3,0,0,0,1.65.54V312H215.47v-.69a3,3,0,0,0,1.65-.54,1.64,1.64,0,0,0,.81-1.42V285.71a12.85,12.85,0,0,1,0-1.52v-2.13a8.79,8.79,0,0,0-.32-2.65,1.24,1.24,0,0,0-1.25-.89,8,8,0,0,0-3.64,1.62l-3.29-2.5,1.55-.07c.93-.05,2.09-.08,3.46-.08,3.86,0,6.42.31,7.66.94,2.32,1.22,3.53,3.47,3.63,6.77v24.16A1.63,1.63,0,0,0,226.54,310.75Z"/><path class="cls-2" d="M248,287.38a11,11,0,0,1,6.28,1.77,11.46,11.46,0,0,1,4,4.62,14,14,0,0,1,1.35,6,13.6,13.6,0,0,1-1.35,6,11.12,11.12,0,0,1-4,4.54A11.62,11.62,0,0,1,247.8,312a10.18,10.18,0,0,1-6-1.62,9.22,9.22,0,0,1-3.39-4.42v7.86c0,1.67,0,2.81.08,3.43a2,2,0,0,0,.44,1.3,2.35,2.35,0,0,0,1.35.52l-8.1,2.65A2,2,0,0,1,230.9,320a16.82,16.82,0,0,1-.3-3.61V295.34c0-1.67,0-2.82-.07-3.44a2.1,2.1,0,0,0-.44-1.3,2.56,2.56,0,0,0-1.35-.52l8.1-2.65c.92.33,1.44,1.59,1.57,3.78v3.63a10.77,10.77,0,0,1,2.92-5.11,8.66,8.66,0,0,1,5.28-2.29C246.94,287.44,247.39,287.38,248,287.38ZM251.26,307a12.15,12.15,0,0,0,1.82-6.77,15.59,15.59,0,0,0-.83-5.11,9.92,9.92,0,0,0-2.43-3.93,5.35,5.35,0,0,0-3.76-1.52c-4.26,0-6.82,3.11-7.71,9.33v4.42a11,11,0,0,0,2.85,4.61,6.57,6.57,0,0,0,4.76,1.82,5.91,5.91,0,0,0,5.3-2.85Z"/><path class="cls-2" d="M296.68,307.71a8.69,8.69,0,0,1-3.16,2.38,19.45,19.45,0,0,1-4.18,1.42,16.39,16.39,0,0,1-3.61.47,14.89,14.89,0,0,1-6.63-1.13,5.33,5.33,0,0,1-2.82-2.82,12.18,12.18,0,0,1-.61-4.15V290.44c-.89-.46-1.33-.94-1.33-1.43a1.81,1.81,0,0,1,.49-.91,4.56,4.56,0,0,1,.84-.86v-1.76c0-1.67,0-2.82-.08-3.44a2,2,0,0,0-.44-1.3,2.4,2.4,0,0,0-1.35-.52l8.1-2.65a2.09,2.09,0,0,1,1.28,1.7,17.44,17.44,0,0,1,.29,3.6V290a13.42,13.42,0,0,0,4.4-1.05,2.74,2.74,0,0,0,1.84-2.24l3.83,5.6a15,15,0,0,1-4.27.44,46.82,46.82,0,0,1-5.8-.39v9.67a41.11,41.11,0,0,0,.37,6.56c.25,1.39.89,2.08,1.94,2.08a2.38,2.38,0,0,0,2.19-1.57,8.42,8.42,0,0,0,.76-3.63,13,13,0,0,0-.2-1.87Zm-21-18.46v-1L275,289a2.35,2.35,0,0,0,.63.27Z"/><path class="cls-2" d="M327.05,307.56a2,2,0,0,0,.44,1.3,2.35,2.35,0,0,0,1.35.52l-8.1,2.65a2,2,0,0,1-1.27-1.69,16.82,16.82,0,0,1-.3-3.61V291.6a4.08,4.08,0,0,0-.79-2.72,2.63,2.63,0,0,0-2.11-.91,6.69,6.69,0,0,0-3.51,1.2,12.28,12.28,0,0,0-3.38,3.32,11.59,11.59,0,0,0-2,4.61V301a10.5,10.5,0,0,0,1.18,3.05,38.67,38.67,0,0,0,2.11,3.33c.59.89,1,1.58,1.32,2.09a2.76,2.76,0,0,1,.44,1.3c0,.79-.86,1.18-2.6,1.18H297.12v-.69a3,3,0,0,0,1.65-.54,1.64,1.64,0,0,0,.81-1.42V285.52c0-1.67,0-2.82-.07-3.44a2,2,0,0,0-.45-1.3,2.4,2.4,0,0,0-1.35-.52l8.11-2.65a2.08,2.08,0,0,1,1.27,1.7,18.11,18.11,0,0,1,.3,3.6v11.35a12.52,12.52,0,0,1,3.21-4.6,15.2,15.2,0,0,1,4.74-2.94,13.8,13.8,0,0,1,5-1,7.43,7.43,0,0,1,4.79,1.48,5.18,5.18,0,0,1,1.84,4.27v12.66C327,305.79,327,306.94,327.05,307.56Zm-15.69,2.95a2.83,2.83,0,0,0-.41-1.16c-.28-.5-.62-1.05-1-1.64a27,27,0,0,1-2.55-4.42v6a1.6,1.6,0,0,0,.81,1.42,2.92,2.92,0,0,0,1.64.54C310.86,311.29,311.36,311,311.36,310.51Z"/><path class="cls-2" d="M338.91,300a16.45,16.45,0,0,0,.91,5.48,10.28,10.28,0,0,0,2.67,4.27,6,6,0,0,0,8.74-.52,23.82,23.82,0,0,0,2.92-3.78l1.11-1.87v5.65a10.32,10.32,0,0,1-4.71,2.28,25.18,25.18,0,0,1-5.8.67c-.49,0-1.32-.05-2.5-.15a14.32,14.32,0,0,1-6.53-2.36,12,12,0,0,1-5.4-10.11,11.87,11.87,0,0,1,1.35-5.57,11.42,11.42,0,0,1,4.05-4.4,14.34,14.34,0,0,1,6.53-2.16,20.33,20.33,0,0,1,2.21-.15,12.87,12.87,0,0,1,6,1.33,9.28,9.28,0,0,1,3.81,3.46,8.76,8.76,0,0,1,1.27,4.54h-16.3A14.88,14.88,0,0,0,338.91,300Zm9.35-9.13a3.38,3.38,0,0,0-3.36-1.82,4.16,4.16,0,0,0-3.36,1.92,12.53,12.53,0,0,0-2,4.51h9.52a8.93,8.93,0,0,0-.8-4.61Z"/><path class="cls-2" d="M385,292.29a15,15,0,0,1-5.94-1.32v18.36a1.6,1.6,0,0,0,.81,1.42,3,3,0,0,0,1.65.54V312H368.81v-.69a3,3,0,0,0,1.65-.54,1.64,1.64,0,0,0,.81-1.42V285.44q0-5.19,3.63-7.07c1.24-.63,3.8-.94,7.66-.94,1.37,0,2.53,0,3.46.08l1.55.07-3.29,2.5a8.06,8.06,0,0,0-3.64-1.62,1.22,1.22,0,0,0-1.25.89,8.2,8.2,0,0,0-.32,2.65v8a8.72,8.72,0,0,0,1.62.15,5,5,0,0,0,3.12-.81,3.47,3.47,0,0,0,1.35-1.84l3.14,4.07A7.37,7.37,0,0,1,385,292.29Z"/><path class="cls-2" d="M415.68,307.51a2,2,0,0,0,.44,1.3,2.35,2.35,0,0,0,1.35.52l-8.1,2.65a2.08,2.08,0,0,1-1.25-1.64,14.11,14.11,0,0,1-.32-3.37,9.77,9.77,0,0,1-3.88,3.61,13.25,13.25,0,0,1-4.08,1.4,12.2,12.2,0,0,1-1.91.15A10.7,10.7,0,0,1,393,311a8.1,8.1,0,0,1-3.38-3,7.7,7.7,0,0,1-1.21-4.25,8.5,8.5,0,0,1,.35-2.4,8.1,8.1,0,0,1,3.31-4.52,19,19,0,0,1,6.14-2.9,25.25,25.25,0,0,1,6.8-1,15.51,15.51,0,0,1,2.8.25,28.43,28.43,0,0,0-.18-3.91c-.11-.73-.4-1.1-.85-1.1a3.73,3.73,0,0,0-1.92,1.08,10.64,10.64,0,0,1-7.41,3.39,9.86,9.86,0,0,1-4-.94l3.49-3.19a3.79,3.79,0,0,0,2.45.79,9.61,9.61,0,0,0,2.38-.32c.84-.21,2-.53,3.37-1a33.17,33.17,0,0,1,3.46-1,10.6,10.6,0,0,1,2.57-.34,4.11,4.11,0,0,1,3.88,2.06,3.54,3.54,0,0,1,.47,1.45c0,.54.07,1.13.07,1.79v12.13C415.61,305.75,415.61,306.89,415.68,307.51ZM395,303.19a6.16,6.16,0,0,0,1.89,4.67,6.3,6.3,0,0,0,4.54,1.81,7.33,7.33,0,0,0,3.37-.83,9.54,9.54,0,0,0,3-2.51V293.81h-1.52a13.63,13.63,0,0,0-6.46,1.49,8.58,8.58,0,0,0-4,4.15A9.64,9.64,0,0,0,395,303.19Z"/><path class="cls-2" d="M431.78,289.89a8.15,8.15,0,0,1,4.25-1.23,6.3,6.3,0,0,1,2.5.49v7.61a11.3,11.3,0,0,0-3.31-3,6.92,6.92,0,0,0-3.36-1,3.35,3.35,0,0,0-2.24.74,2.74,2.74,0,0,0-.91,2.11v13.8a1.6,1.6,0,0,0,.81,1.42,3,3,0,0,0,1.65.54v.69H418.45v-.69a3,3,0,0,0,1.65-.54,1.64,1.64,0,0,0,.81-1.42v-14c0-1.67,0-2.82-.08-3.44a2,2,0,0,0-.44-1.3,2.56,2.56,0,0,0-1.35-.52l8.1-2.65a2.21,2.21,0,0,1,1.3,1.82,17.15,17.15,0,0,1,.27,3.78A8.1,8.1,0,0,1,431.78,289.89Z"/><path class="cls-2" d="M489.77,307.66a2,2,0,0,0,.44,1.3,2.35,2.35,0,0,0,1.35.52l-8.1,2.65a2.07,2.07,0,0,1-1.28-1.7,17.38,17.38,0,0,1-.29-3.6V291.6a4.08,4.08,0,0,0-.79-2.72A2.66,2.66,0,0,0,479,288a6.39,6.39,0,0,0-3.12,1,13.32,13.32,0,0,0-5.52,6.58v8.69c0,1.67,0,2.82.07,3.44a2,2,0,0,0,.44,1.3,2.41,2.41,0,0,0,1.36.52l-8.11,2.65a2.06,2.06,0,0,1-1.27-1.7,16.68,16.68,0,0,1-.3-3.6V291.6a4.14,4.14,0,0,0-.78-2.72,2.66,2.66,0,0,0-2.11-.91,6.71,6.71,0,0,0-3.34,1.08,13,13,0,0,0-5.55,7.22v5.65a26,26,0,0,0,2.85,4.86,29.18,29.18,0,0,1,1.59,2.45,3.18,3.18,0,0,1,.52,1.52c0,.82-.84,1.23-2.51,1.23H440.5v-.69a3,3,0,0,0,1.64-.54,1.64,1.64,0,0,0,.81-1.42v-14c0-1.67,0-2.82-.07-3.44a2.1,2.1,0,0,0-.44-1.3,2.56,2.56,0,0,0-1.35-.52l8.1-2.65a2.31,2.31,0,0,1,1.37,2.06,30.4,30.4,0,0,1,.2,4.57,13,13,0,0,1,3.24-4.59,14.52,14.52,0,0,1,4.64-2.92,13.43,13.43,0,0,1,4.93-1,7.54,7.54,0,0,1,4.86,1.53,5.26,5.26,0,0,1,1.92,4.37v2.16a12.72,12.72,0,0,1,3.26-4.3,15.33,15.33,0,0,1,4.55-2.72,13.36,13.36,0,0,1,4.76-.94,7.66,7.66,0,0,1,4.86,1.5,5.13,5.13,0,0,1,1.91,4.3V304.2C489.69,305.89,489.72,307,489.77,307.66Zm-34.59,2.7a2.61,2.61,0,0,0-.47-1.23c-.31-.49-.79-1.18-1.45-2.06a38,38,0,0,1-2.5-3.78v6a1.62,1.62,0,0,0,.81,1.42,2.92,2.92,0,0,0,1.64.54c1.31,0,2-.27,2-.89Z"/><path class="cls-2" d="M502.12,300a16.7,16.7,0,0,0,.9,5.48,10.4,10.4,0,0,0,2.68,4.27,6,6,0,0,0,8.48-.23c.09-.09.17-.19.26-.29a24.9,24.9,0,0,0,2.92-3.78l1.11-1.87v5.65a10.41,10.41,0,0,1-4.72,2.28,25.1,25.1,0,0,1-5.79.67c-.49,0-1.33-.05-2.51-.15a14.56,14.56,0,0,1-6.53-2.36,12,12,0,0,1-5.4-10.11,11.87,11.87,0,0,1,1.35-5.57,11.44,11.44,0,0,1,4-4.4,14.45,14.45,0,0,1,6.53-2.16,20.33,20.33,0,0,1,2.21-.15,12.9,12.9,0,0,1,6,1.33,9.55,9.55,0,0,1,3.81,3.46,8.76,8.76,0,0,1,1.27,4.54h-16.3A14.88,14.88,0,0,0,502.12,300Zm9.35-9.13a3.38,3.38,0,0,0-3.36-1.82,4.12,4.12,0,0,0-3.37,1.92,12.53,12.53,0,0,0-2,4.51h9.53A8.93,8.93,0,0,0,511.47,290.87Z"/><path class="cls-2" d="M534.06,289.89a8.14,8.14,0,0,1,4.24-1.23,6.38,6.38,0,0,1,2.51.49v7.61a11.46,11.46,0,0,0-3.32-3,6.79,6.79,0,0,0-3.36-1,3.32,3.32,0,0,0-2.23.74,2.74,2.74,0,0,0-.91,2.11v13.8a1.6,1.6,0,0,0,.81,1.42,2.92,2.92,0,0,0,1.64.54v.69H520.73v-.69a2.92,2.92,0,0,0,1.64-.54,1.64,1.64,0,0,0,.81-1.42v-14c0-1.67,0-2.82-.07-3.44a2,2,0,0,0-.45-1.3,2.4,2.4,0,0,0-1.35-.52l8.11-2.65a2.26,2.26,0,0,1,1.3,1.82,17.15,17.15,0,0,1,.27,3.78A8,8,0,0,1,534.06,289.89Z"/><path class="cls-2" d="M189.79,348.81a8.15,8.15,0,0,1,4.25-1.23,6.38,6.38,0,0,1,2.51.49v7.61a11.46,11.46,0,0,0-3.32-3,6.79,6.79,0,0,0-3.36-1,3.37,3.37,0,0,0-2.24.74,2.77,2.77,0,0,0-.9,2.11v13.8a1.6,1.6,0,0,0,.81,1.42,2.92,2.92,0,0,0,1.64.54V371H176.46v-.69a3,3,0,0,0,1.65-.54,1.64,1.64,0,0,0,.81-1.42v-14c0-1.67,0-2.82-.07-3.44a2,2,0,0,0-.45-1.3,2.4,2.4,0,0,0-1.35-.52l8.1-2.65a2.24,2.24,0,0,1,1.31,1.82,17.15,17.15,0,0,1,.27,3.78A8.14,8.14,0,0,1,189.79,348.81Z"/><path class="cls-2" d="M208,358.92a16.7,16.7,0,0,0,.9,5.48,10.4,10.4,0,0,0,2.68,4.27,6,6,0,0,0,8.48-.23c.09-.09.17-.19.26-.29a24.9,24.9,0,0,0,2.92-3.78l1.11-1.87v5.65a10.56,10.56,0,0,1-4.73,2.29,25.1,25.1,0,0,1-5.79.67c-.49,0-1.33-.05-2.51-.15a14.56,14.56,0,0,1-6.53-2.36,12,12,0,0,1-5.4-10.11,11.87,11.87,0,0,1,1.35-5.57,11.44,11.44,0,0,1,4-4.4,14.45,14.45,0,0,1,6.53-2.16,20.33,20.33,0,0,1,2.21-.15,12.9,12.9,0,0,1,6,1.33,9.46,9.46,0,0,1,3.8,3.46,8.77,8.77,0,0,1,1.28,4.54h-16.3A15.37,15.37,0,0,0,208,358.92Zm9.35-9.13A3.38,3.38,0,0,0,214,348a4.12,4.12,0,0,0-3.37,1.92,12.53,12.53,0,0,0-2,4.51h9.53A8.93,8.93,0,0,0,217.34,349.79Z"/><path class="cls-2" d="M243.24,346.2a23,23,0,0,1,5.6.67,9.12,9.12,0,0,1,4.27,2.28l-6.5,2.11a3.13,3.13,0,0,0,.39-1.47c0-1-.82-1.52-2.46-1.52a6.24,6.24,0,0,0-4.27,1.54,9.39,9.39,0,0,0-2.65,4.05,16.64,16.64,0,0,0,0,10.71,9.33,9.33,0,0,0,2.65,4.05,6.24,6.24,0,0,0,4.27,1.54,7,7,0,0,0,3.56-1,12.12,12.12,0,0,0,3.1-2.52,7.78,7.78,0,0,0,1.64-2.68v4.22q-2.25,2.82-12.71,2.8a12.26,12.26,0,0,1-6.51-1.64,10.69,10.69,0,0,1-4.05-4.33,12.27,12.27,0,0,1-1.38-5.76,13.23,13.23,0,0,1,1.38-5.92,12.39,12.39,0,0,1,4.05-4.72,13.09,13.09,0,0,1,6.51-2.23A26.9,26.9,0,0,1,243.24,346.2Z"/><path class="cls-2" d="M266.24,349.37a6,6,0,0,1,4.35-1.64,9,9,0,0,1,2.06.24,11.16,11.16,0,0,1,7,3.71,10.21,10.21,0,0,1,2.43,6.7,11.82,11.82,0,0,1-1.67,6,12.92,12.92,0,0,1-4.86,4.68,15,15,0,0,1-7.56,1.82,13.05,13.05,0,0,1-6.85-1.74,12,12,0,0,1-4.47-4.57,12.22,12.22,0,0,1-1.55-6,12.09,12.09,0,0,1,1.3-5.5,11.5,11.5,0,0,1,4-4.42,14.77,14.77,0,0,1,6.55-2.31l4.23.69a7,7,0,0,0-.79,0A6.33,6.33,0,0,0,266,348.6a9.5,9.5,0,0,0-2.65,4.27,17.77,17.77,0,0,0-.86,5.65,19,19,0,0,0,.78,5.5,10.44,10.44,0,0,0,2.24,4.17,4.42,4.42,0,0,0,6.89-.17,11.89,11.89,0,0,0,2.26-4.47,20.13,20.13,0,0,0,.79-5.62,16.23,16.23,0,0,0-1-5.77,5.9,5.9,0,0,0-2.85-3.41,2.52,2.52,0,0,0-.89-.25,1.12,1.12,0,0,0-1.1.74,5.48,5.48,0,0,0-.27,2.6l-4.76,1.87A5.76,5.76,0,0,1,266.24,349.37Z"/><path class="cls-2" d="M310.78,345.44a9.23,9.23,0,0,1,.9,4.35,25.93,25.93,0,0,1-1.86,9,29.92,29.92,0,0,1-4.76,8.44c-1.94,2.34-3.88,3.58-5.85,3.71h-11l.25-.69A3.87,3.87,0,0,0,290,370a.92.92,0,0,0,.66-.91,1.65,1.65,0,0,0-.1-.44L284.19,349a4.15,4.15,0,0,0-.76-1.4,1.84,1.84,0,0,0-1.4-.51l.24-.69H295l-.25.69a3.23,3.23,0,0,0-1.71.51,1.55,1.55,0,0,0-.79,1.5l6,18.9a3.09,3.09,0,0,0,2.31,1.33c1.18,0,2.31-.83,3.41-2.5a22.14,22.14,0,0,0,2.68-6.24,27.24,27.24,0,0,0,1-7.07,10.91,10.91,0,0,0-1.06-5.15,3.45,3.45,0,0,0-3.22-2l4.57-3A3.84,3.84,0,0,1,310.78,345.44Z"/><path class="cls-2" d="M323.27,358.92a16.45,16.45,0,0,0,.91,5.48,10.28,10.28,0,0,0,2.67,4.27,6,6,0,0,0,8.74-.52,25,25,0,0,0,2.93-3.78l1.1-1.87v5.65a10.44,10.44,0,0,1-4.71,2.29,25.18,25.18,0,0,1-5.8.67c-.49,0-1.32-.05-2.5-.15a14.56,14.56,0,0,1-6.53-2.36,12,12,0,0,1-5.4-10.11,11.87,11.87,0,0,1,1.35-5.57,11.42,11.42,0,0,1,4.05-4.4,14.45,14.45,0,0,1,6.53-2.16,20.33,20.33,0,0,1,2.21-.15,12.87,12.87,0,0,1,6,1.33,9.28,9.28,0,0,1,3.81,3.46,8.77,8.77,0,0,1,1.28,4.54h-16.3A15.39,15.39,0,0,0,323.27,358.92Zm9.35-9.13a3.38,3.38,0,0,0-3.36-1.82,4.16,4.16,0,0,0-3.36,1.92,12.53,12.53,0,0,0-2,4.51h9.52a9,9,0,0,0-.81-4.61Z"/><path class="cls-2" d="M355.21,348.81a8.15,8.15,0,0,1,4.25-1.23,6.3,6.3,0,0,1,2.5.49v7.61a11.42,11.42,0,0,0-3.31-3,6.93,6.93,0,0,0-3.37-1,3.32,3.32,0,0,0-2.23.74,2.74,2.74,0,0,0-.91,2.11v13.8a1.6,1.6,0,0,0,.81,1.42,3,3,0,0,0,1.65.54V371H341.88v-.69a2.92,2.92,0,0,0,1.64-.54,1.64,1.64,0,0,0,.81-1.42v-14c0-1.67,0-2.82-.07-3.44a2.1,2.1,0,0,0-.44-1.3,2.56,2.56,0,0,0-1.35-.52l8.1-2.65a2.24,2.24,0,0,1,1.3,1.82,17.15,17.15,0,0,1,.27,3.78A8.1,8.1,0,0,1,355.21,348.81Z"/><path class="cls-2" d="M403.61,366.44a2,2,0,0,0,.44,1.3,2.35,2.35,0,0,0,1.35.52l-8.1,2.65a2.08,2.08,0,0,1-1.25-1.64,14.16,14.16,0,0,1-.32-3.37,9.77,9.77,0,0,1-3.88,3.61,13.46,13.46,0,0,1-4.07,1.4,12.42,12.42,0,0,1-1.92.15,10.66,10.66,0,0,1-4.93-1.11,8.13,8.13,0,0,1-3.39-3,7.88,7.88,0,0,1-1.2-4.25,8.27,8.27,0,0,1,3.66-6.92,19.09,19.09,0,0,1,6.13-2.9,25.65,25.65,0,0,1,6.8-1,15.51,15.51,0,0,1,2.8.25,32,32,0,0,0-.17-3.91c-.12-.73-.4-1.1-.86-1.1a3.74,3.74,0,0,0-1.91,1.08,10.67,10.67,0,0,1-7.42,3.39,9.86,9.86,0,0,1-4-.94l3.48-3.19a3.82,3.82,0,0,0,2.46.79,9.61,9.61,0,0,0,2.38-.32c.83-.2,1.95-.54,3.36-1s2.56-.8,3.46-1a10.69,10.69,0,0,1,2.58-.35,4.14,4.14,0,0,1,3.88,2.07,3.4,3.4,0,0,1,.47,1.45c0,.54.07,1.13.07,1.79V363A28.6,28.6,0,0,0,403.61,366.44Zm-20.69-4.32a6.16,6.16,0,0,0,1.89,4.67,6.3,6.3,0,0,0,4.54,1.81,7.29,7.29,0,0,0,3.36-.83,9.54,9.54,0,0,0,3-2.51V352.73h-1.52a13.63,13.63,0,0,0-6.46,1.49,8.66,8.66,0,0,0-4,4.15,9.5,9.5,0,0,0-.85,3.74Z"/><path class="cls-2" d="M417.07,369.67a3,3,0,0,0,1.65.54v.69H406v-.69a3,3,0,0,0,1.65-.54,1.64,1.64,0,0,0,.81-1.42V341a8.49,8.49,0,0,0-.32-2.65,1.24,1.24,0,0,0-1.25-.89,8,8,0,0,0-3.64,1.62l-3.29-2.5,1.55-.07c.93,0,2.09-.08,3.46-.08,3.86,0,6.42.31,7.66.94,2.32,1.21,3.54,3.47,3.63,6.77v24.16A1.63,1.63,0,0,0,417.07,369.67Z"/><path class="cls-2" d="M431.41,369.67a3,3,0,0,0,1.65.54v.69H420.34v-.69a2.92,2.92,0,0,0,1.64-.54,1.64,1.64,0,0,0,.81-1.42V341a8.2,8.2,0,0,0-.32-2.65,1.24,1.24,0,0,0-1.25-.89,8.08,8.08,0,0,0-3.63,1.62l-3.29-2.5,1.55-.07c.93,0,2.08-.08,3.46-.08,3.86,0,6.41.32,7.66.94q3.48,1.81,3.63,6.77v24.16A1.63,1.63,0,0,0,431.41,369.67Z"/><path class="cls-2" d="M475.75,366.44a2,2,0,0,0,.44,1.3,2.35,2.35,0,0,0,1.35.52l-8.1,2.65a2,2,0,0,1-1.28-1.69,17.48,17.48,0,0,1-.29-3.61V350.52a4.09,4.09,0,0,0-.79-2.72,2.66,2.66,0,0,0-2.11-.91,6.69,6.69,0,0,0-3.51,1.2,12.32,12.32,0,0,0-3.39,3.32,11.88,11.88,0,0,0-2,4.61V360a10.5,10.5,0,0,0,1.18,3.05c.56,1,1.26,2.09,2.11,3.33.59.89,1,1.58,1.33,2.09a2.88,2.88,0,0,1,.44,1.3c0,.79-.87,1.18-2.6,1.18H445.81v-.69a3,3,0,0,0,1.65-.54,1.64,1.64,0,0,0,.81-1.42V344.44c0-1.67,0-2.82-.08-3.44a2,2,0,0,0-.44-1.3,2.4,2.4,0,0,0-1.35-.52l8.1-2.65a2.09,2.09,0,0,1,1.28,1.7,17.44,17.44,0,0,1,.29,3.6v11.35a12.46,12.46,0,0,1,3.22-4.6,15,15,0,0,1,4.74-2.94,13.8,13.8,0,0,1,5-1,7.41,7.41,0,0,1,4.78,1.48,5.15,5.15,0,0,1,1.84,4.27V363C475.67,364.71,475.7,365.86,475.75,366.44Zm-15.69,3a2.85,2.85,0,0,0-.42-1.16c-.28-.5-.61-1-1-1.64a27.77,27.77,0,0,1-2.56-4.42v6a1.6,1.6,0,0,0,.81,1.42,2.93,2.93,0,0,0,1.65.54C459.55,370.21,460.06,370,460.06,369.44Z"/><path class="cls-2" d="M490.61,369.67a3,3,0,0,0,1.65.54v.69H479.54v-.69a3,3,0,0,0,1.65-.54,1.64,1.64,0,0,0,.81-1.42v-14c0-1.67,0-2.82-.08-3.44a2,2,0,0,0-.44-1.3,2.4,2.4,0,0,0-1.35-.52l8.1-2.65a2.1,2.1,0,0,1,1.28,1.69,18.21,18.21,0,0,1,.3,3.61v16.6A1.61,1.61,0,0,0,490.61,369.67Zm-1.69-28-3.83,3.87-3.83-3.87,3.83-3.83Z"/><path class="cls-2" d="M494.61,360.49a5.74,5.74,0,0,1,3.09-.73,13,13,0,0,1,5.25,1.17l-4.32,2c-.06-.07-.45-.43-1.15-1.08a3,3,0,0,0-2-1c-.66,0-1,.61-.93,1.82a8.15,8.15,0,0,0,1.81,4.67,7,7,0,0,0,5,2.35,3.64,3.64,0,0,0,.74.05,6.31,6.31,0,0,0,3.73-1.13A4.06,4.06,0,0,0,507.7,366a6.4,6.4,0,0,0,.09-.88,3.47,3.47,0,0,0-.93-2.43A7.72,7.72,0,0,0,504.6,361c-1.19-.58-2.4-1.09-3.63-1.55-1.67-.62-3-1.18-4-1.67a8,8,0,0,1-2.56-1.94,4.32,4.32,0,0,1-1-3,6.8,6.8,0,0,1,.24-1.67,5.37,5.37,0,0,1,3.44-3.66,18.31,18.31,0,0,1,7.07-1.2,21,21,0,0,1,6.29,1.08c2.25.72,3.78,1.75,4.56,3.09l-7.66,1.63a3.24,3.24,0,0,0,.79-2.17,2.55,2.55,0,0,0-.81-1.91,3.51,3.51,0,0,0-2.48-.79,4.45,4.45,0,0,0-3.1,1.11,3.5,3.5,0,0,0-1.17,2.87,2.88,2.88,0,0,0,.91,2.14,7.8,7.8,0,0,0,2.2,1.52c.87.41,2.06.89,3.56,1.45a42.77,42.77,0,0,1,4.45,1.94,9.53,9.53,0,0,1,2.82,2.23,5,5,0,0,1,1.18,3.39,8.9,8.9,0,0,1-.29,2.06c-.46,1.7-1.82,3-4.06,3.78a21.12,21.12,0,0,1-7.34,1.23,17,17,0,0,1-2.26-.1,12,12,0,0,1-8.34-4.32v-3.88A2.52,2.52,0,0,1,494.61,360.49Z"/><path class="cls-2" d="M252.44,405.12a23.57,23.57,0,0,1,5.6.67,8.94,8.94,0,0,1,4.27,2.28l-6.53,2.11a3.14,3.14,0,0,0,.4-1.47c0-1-.82-1.52-2.46-1.52a6.24,6.24,0,0,0-4.27,1.54,9.32,9.32,0,0,0-2.65,4,16.51,16.51,0,0,0,0,10.71,9.33,9.33,0,0,0,2.65,4.05,6.25,6.25,0,0,0,4.27,1.55,7,7,0,0,0,3.56-1,11.91,11.91,0,0,0,3.09-2.52,7.66,7.66,0,0,0,1.65-2.68v4.22q-2.26,2.82-12.72,2.8a12.23,12.23,0,0,1-6.5-1.64,10.72,10.72,0,0,1-4.06-4.33,12.28,12.28,0,0,1-1.37-5.76,13.22,13.22,0,0,1,1.37-5.92,12.23,12.23,0,0,1,4.06-4.71,13.13,13.13,0,0,1,6.5-2.24A27.39,27.39,0,0,1,252.44,405.12Z"/><path class="cls-2" d="M293.22,425.44a2,2,0,0,0,.44,1.3,2.35,2.35,0,0,0,1.35.52l-8.1,2.65a2,2,0,0,1-1.27-1.69,16.82,16.82,0,0,1-.3-3.61V409.44a4.14,4.14,0,0,0-.78-2.72,2.67,2.67,0,0,0-2.12-.91,6.59,6.59,0,0,0-3.51,1.21,12,12,0,0,0-3.38,3.31,11.59,11.59,0,0,0-2,4.61v3.93a10.5,10.5,0,0,0,1.18,3.05c.55,1,1.26,2.09,2.11,3.34.59.88,1,1.58,1.32,2.08a2.76,2.76,0,0,1,.44,1.3c0,.79-.86,1.18-2.6,1.18H263.3v-.69a2.92,2.92,0,0,0,1.64-.54,1.64,1.64,0,0,0,.81-1.42V403.36c0-1.67,0-2.82-.07-3.44a2,2,0,0,0-.45-1.3,2.4,2.4,0,0,0-1.35-.52l8.11-2.65a2.09,2.09,0,0,1,1.27,1.7,18.11,18.11,0,0,1,.3,3.6V412.1a12.48,12.48,0,0,1,3.21-4.59,15,15,0,0,1,4.74-2.95,14,14,0,0,1,5-1A7.43,7.43,0,0,1,291.3,405a5.18,5.18,0,0,1,1.84,4.27V422C293.15,423.64,293.17,424.78,293.22,425.44Zm-15.69,3a2.83,2.83,0,0,0-.41-1.16c-.28-.5-.62-1-1-1.64a27,27,0,0,1-2.55-4.42v6a1.6,1.6,0,0,0,.81,1.42,2.92,2.92,0,0,0,1.64.54c1-.05,1.51-.31,1.51-.83Z"/><path class="cls-2" d="M308.05,428.59a2.92,2.92,0,0,0,1.64.54v.69H297v-.69a2.92,2.92,0,0,0,1.64-.54,1.64,1.64,0,0,0,.81-1.42v-14c0-1.67,0-2.82-.07-3.44a2.1,2.1,0,0,0-.44-1.3,2.56,2.56,0,0,0-1.35-.52l8.1-2.65a2.09,2.09,0,0,1,1.27,1.7,18.11,18.11,0,0,1,.3,3.6v16.6A1.62,1.62,0,0,0,308.05,428.59Zm-1.69-28-3.83,3.88-3.83-3.88,3.83-3.83Z"/><path class="cls-2" d="M325.9,405.12a23.42,23.42,0,0,1,5.59.67,9,9,0,0,1,4.28,2.28l-6.53,2.11a3.13,3.13,0,0,0,.39-1.47c0-1-.82-1.52-2.46-1.52a6.24,6.24,0,0,0-4.27,1.54,9.32,9.32,0,0,0-2.65,4,16.64,16.64,0,0,0,0,10.71,9.33,9.33,0,0,0,2.65,4.05,6.25,6.25,0,0,0,4.27,1.55,7,7,0,0,0,3.56-1,12.12,12.12,0,0,0,3.1-2.52,7.78,7.78,0,0,0,1.64-2.68v4.22q-2.25,2.82-12.72,2.8a12.23,12.23,0,0,1-6.5-1.64,10.7,10.7,0,0,1-4-4.33,12.27,12.27,0,0,1-1.38-5.76,13.23,13.23,0,0,1,1.38-5.92,12.08,12.08,0,0,1,4-4.71,13.13,13.13,0,0,1,6.5-2.24A27.56,27.56,0,0,1,325.9,405.12Z"/><path class="cls-2" d="M359,428.94c.37-.13.56-.35.56-.64a1.31,1.31,0,0,0-.34-.79l-8.5-11a7,7,0,0,1-1.3.81,5,5,0,0,1-1.45.46v9.38a1.6,1.6,0,0,0,.81,1.42,2.93,2.93,0,0,0,1.65.54v.69H337.73v-.69a3,3,0,0,0,1.65-.54,1.64,1.64,0,0,0,.81-1.42v-23.9c0-1.67,0-2.82-.08-3.44a2,2,0,0,0-.44-1.3,2.56,2.56,0,0,0-1.35-.52l8.1-2.65a2.1,2.1,0,0,1,1.28,1.7,19,19,0,0,1,.29,3.61v16a5.12,5.12,0,0,0,2.85-1.22c.52-.5,1.19-1.2,2-2.12a47.18,47.18,0,0,1,4-4,18.94,18.94,0,0,1,4.57-2.85,14.55,14.55,0,0,1,6-1.23,12.71,12.71,0,0,1,1.52.05l-1.67,5.55a22.22,22.22,0,0,0-6.24-1.18,7,7,0,0,0-5.69,2.41l12.42,15.46a4.21,4.21,0,0,0,1.5,1.21,3.51,3.51,0,0,0,1.59.41l.15.69H357.71v-.69A4,4,0,0,0,359,428.94Z"/><path class="cls-2" d="M379.17,417.84a16.45,16.45,0,0,0,.91,5.48,10.14,10.14,0,0,0,2.68,4.27,6,6,0,0,0,8.48-.24c.08-.09.17-.18.25-.28a25,25,0,0,0,2.93-3.78c.63-1.08,1-1.7,1.1-1.86v5.64a10.49,10.49,0,0,1-4.71,2.29,25.8,25.8,0,0,1-5.8.66c-.49,0-1.32,0-2.5-.15a14.56,14.56,0,0,1-6.53-2.36,12,12,0,0,1-5.37-10.07,11.87,11.87,0,0,1,1.35-5.57,11.44,11.44,0,0,1,4-4.4,14.45,14.45,0,0,1,6.53-2.16,20.33,20.33,0,0,1,2.21-.15,12.87,12.87,0,0,1,6,1.33,9.28,9.28,0,0,1,3.81,3.46,8.87,8.87,0,0,1,1.28,4.54H379.51A15.12,15.12,0,0,0,379.17,417.84Zm9.35-9.13a3.38,3.38,0,0,0-3.36-1.82,4.16,4.16,0,0,0-3.36,1.92,12.53,12.53,0,0,0-2,4.51h9.52A8.93,8.93,0,0,0,388.52,408.71Z"/><path class="cls-2" d="M427.71,425.5a2,2,0,0,0,.44,1.3,2.35,2.35,0,0,0,1.35.52L421.4,430a2.07,2.07,0,0,1-1.28-1.7,16.67,16.67,0,0,1-.29-3.6V409.44a4.09,4.09,0,0,0-.79-2.72,2.66,2.66,0,0,0-2.11-.91,6.71,6.71,0,0,0-3.34,1.08,13,13,0,0,0-5.55,7.22v5.65a25.47,25.47,0,0,0,2.85,4.86c.72,1.05,1.25,1.86,1.6,2.45a3.31,3.31,0,0,1,.51,1.52c0,.82-.83,1.23-2.5,1.23H397.78v-.69a2.92,2.92,0,0,0,1.64-.54,1.64,1.64,0,0,0,.81-1.42v-14c0-1.67,0-2.82-.07-3.44a2.1,2.1,0,0,0-.44-1.3,2.56,2.56,0,0,0-1.35-.52l8.1-2.65a2.31,2.31,0,0,1,1.38,2,30.61,30.61,0,0,1,.19,4.49,12.48,12.48,0,0,1,3.24-4.47,15.46,15.46,0,0,1,4.64-2.84,13.49,13.49,0,0,1,4.94-1,7.7,7.7,0,0,1,4.88,1.48,5.17,5.17,0,0,1,1.89,4.32V422C427.61,423.73,427.66,424.88,427.71,425.5Zm-15.25,2.7A2.54,2.54,0,0,0,412,427c-.3-.47-.79-1.19-1.47-2.14a42.65,42.65,0,0,1-2.51-3.73v6.09a1.6,1.6,0,0,0,.81,1.42,3,3,0,0,0,1.65.54C411.81,429.13,412.46,428.82,412.46,428.2Z"/><path class="cls-2" d="M433.72,419.44a5.84,5.84,0,0,1,3.09-.73,13.13,13.13,0,0,1,5.26,1.17l-4.32,2c-.07-.07-.45-.43-1.16-1.08a3,3,0,0,0-2-1c-.65,0-1,.6-.93,1.81a8.23,8.23,0,0,0,1.82,4.67,7,7,0,0,0,5,2.35,3,3,0,0,0,.73.05,6.31,6.31,0,0,0,3.73-1.13,4,4,0,0,0,1.87-2.65,6.4,6.4,0,0,0,.1-.88,3.44,3.44,0,0,0-.94-2.43,8,8,0,0,0-2.25-1.67,33.53,33.53,0,0,0-3.64-1.55,40.72,40.72,0,0,1-4-1.67,8.08,8.08,0,0,1-2.55-1.94,4.24,4.24,0,0,1-1.06-3,6.37,6.37,0,0,1,.25-1.67,5.31,5.31,0,0,1,3.44-3.65,18.13,18.13,0,0,1,7.07-1.21,21,21,0,0,1,6.28,1.08,7.82,7.82,0,0,1,4.57,3.09L446.42,411a3.34,3.34,0,0,0,.78-2.17,2.59,2.59,0,0,0-.81-1.91,3.46,3.46,0,0,0-2.48-.79,4.43,4.43,0,0,0-3.09,1.11,3.52,3.52,0,0,0-1.18,2.87,2.88,2.88,0,0,0,.91,2.14,7.84,7.84,0,0,0,2.21,1.52c.87.41,2,.89,3.56,1.45a43.56,43.56,0,0,1,4.44,1.94,9.72,9.72,0,0,1,2.85,2.25,5.11,5.11,0,0,1,1.17,3.39,8.39,8.39,0,0,1-.29,2.06q-.69,2.55-4.05,3.78a21.12,21.12,0,0,1-7.34,1.23,15.48,15.48,0,0,1-2.26-.1,12,12,0,0,1-8.35-4.32V421.6A2.53,2.53,0,0,1,433.72,419.44Z"/></svg>