<svg id="Layer_1" data-name="Layer 1" xmlns="http://www.w3.org/2000/svg" width="67.33" height="61.8" viewBox="0 0 67.33 61.8"><defs><style>.cls-1{fill:#e3dbc6;}</style></defs><path class="cls-1" d="M58.26,26l-3.82-.48a19.17,19.17,0,0,0-1.16-2.8l2.36-3a3,3,0,0,0-.24-4l-3.21-3.21a3,3,0,0,0-4-.26l-3,2.36a19.13,19.13,0,0,0-2.8-1.15l-.49-3.82a3,3,0,0,0-3-2.69H34.25a3,3,0,0,0-3,2.68l-.49,3.83A19,19,0,0,0,28,14.51l-3-2.36a3,3,0,0,0-4,.25l-3.2,3.2a3,3,0,0,0-.26,4l2.36,3a20.34,20.34,0,0,0-1.16,2.8L14.81,26a3.06,3.06,0,0,0-2.69,3v4.55a3.06,3.06,0,0,0,2.68,3l3.82.48a20.34,20.34,0,0,0,1.16,2.8l-2.36,3a3,3,0,0,0,.25,4l3.2,3.21a3,3,0,0,0,4,.25L28,48a18,18,0,0,0,2.79,1.16L31.23,53a3,3,0,0,0,3,2.69h4.56a3,3,0,0,0,3-2.68l.49-3.83A17.62,17.62,0,0,0,45.11,48l3,2.37a3,3,0,0,0,4-.25l3.2-3.21a3,3,0,0,0,.26-4l-2.36-3a18.13,18.13,0,0,0,1.16-2.8l3.82-.48a3.06,3.06,0,0,0,2.68-3V29a3.06,3.06,0,0,0-2.68-3ZM36.53,41.44A10.18,10.18,0,1,1,46.7,31.26,10.19,10.19,0,0,1,36.53,41.44Z"/></svg>