<svg id="Layer_1" data-name="Layer 1" xmlns="http://www.w3.org/2000/svg" width="48.82" height="48.82" viewBox="0 0 48.82 48.82"><defs><style>.cls-1{fill:#4d89ae;}</style></defs><path class="cls-1" d="M46.14,19.11l-3.82-.49a20.21,20.21,0,0,0-1.16-2.79l2.36-3a3,3,0,0,0-.25-4l-3.2-3.2a3,3,0,0,0-4-.26L33,7.66A20.34,20.34,0,0,0,30.2,6.5l-.49-3.81a3,3,0,0,0-3-2.69H22.13a3,3,0,0,0-3,2.68L18.62,6.5a20.21,20.21,0,0,0-2.79,1.16l-3-2.36a3,3,0,0,0-4,.25l-3.2,3.2a3,3,0,0,0-.26,4l2.36,3A20.21,20.21,0,0,0,6.5,18.62l-3.81.49a3,3,0,0,0-2.69,3v4.56a3,3,0,0,0,2.68,3l3.82.49A20.21,20.21,0,0,0,7.66,33L5.3,36a3,3,0,0,0,.25,4l3.2,3.2a3,3,0,0,0,4,.26l3-2.36a20.21,20.21,0,0,0,2.79,1.16l.49,3.81a3,3,0,0,0,3,2.69h4.56a3,3,0,0,0,3-2.68l.49-3.82A20.21,20.21,0,0,0,33,41.16l3,2.36a3,3,0,0,0,4-.25l3.2-3.2a3,3,0,0,0,.26-4l-2.36-3a19.05,19.05,0,0,0,1.16-2.79l3.81-.49a3,3,0,0,0,2.69-3V22.13a3,3,0,0,0-2.68-3ZM24.41,34.58A10.17,10.17,0,1,1,34.58,24.41,10.18,10.18,0,0,1,24.41,34.58Z"/></svg>