<svg id="Layer_1" data-name="Layer 1" xmlns="http://www.w3.org/2000/svg" width="48.82" height="51.97" viewBox="0 0 48.82 51.97"><path d="M46.14,22.26l-3.82-.49A20.21,20.21,0,0,0,41.16,19l2.36-3a3,3,0,0,0-.25-4l-3.2-3.2a3,3,0,0,0-4-.26l-3,2.36a20.34,20.34,0,0,0-2.8-1.16l-.49-3.81a3,3,0,0,0-3-2.69H22.13a3,3,0,0,0-3,2.68l-.49,3.82a20.21,20.21,0,0,0-2.79,1.16l-3-2.36a3,3,0,0,0-4,.25l-3.2,3.2a3,3,0,0,0-.26,4l2.36,3A20.21,20.21,0,0,0,6.5,21.77l-3.81.49a3,3,0,0,0-2.69,3v4.56a3,3,0,0,0,2.68,3l3.82.49a19.71,19.71,0,0,0,1.16,2.79l-2.36,3a3,3,0,0,0,.25,4l3.2,3.21a3,3,0,0,0,4,.25l3-2.36a19.05,19.05,0,0,0,2.79,1.16l.49,3.81a3,3,0,0,0,3,2.69h4.56a3,3,0,0,0,3-2.68l.49-3.82A19.05,19.05,0,0,0,33,44.31l3,2.36a3,3,0,0,0,4-.24l3.2-3.21a3,3,0,0,0,.26-4l-2.36-3a18.61,18.61,0,0,0,1.16-2.79l3.81-.49a3,3,0,0,0,2.69-3V25.28a3,3,0,0,0-2.68-3ZM24.41,37.73A10.17,10.17,0,1,1,34.58,27.56,10.18,10.18,0,0,1,24.41,37.73Z"/></svg>