<svg id="Layer_1" data-name="Layer 1" xmlns="http://www.w3.org/2000/svg" width="70.3" height="62.37" viewBox="0 0 70.3 62.37"><defs><style>.cls-1{fill:#e3dbc6;}</style></defs><path class="cls-1" d="M60.35,7.64A1.78,1.78,0,0,0,59,7.2L26.8,10.77a1.78,1.78,0,0,0-1.59,1.77V44.39a10.35,10.35,0,0,0-5.36-1.47c-4.93,0-8.94,3.2-8.94,7.15s4,7.14,8.94,7.14,8.93-3.2,8.93-7.14v-27L57.37,19.9V40.81A10.24,10.24,0,0,0,52,39.35c-4.93,0-8.94,3.2-8.94,7.14s4,7.15,8.94,7.15,8.93-3.2,8.93-7.15V9A1.81,1.81,0,0,0,60.35,7.64Z"/></svg>