<svg id="Layer_1" data-name="Layer 1" xmlns="http://www.w3.org/2000/svg" width="56.24" height="56.24" viewBox="0 0 56.24 56.24"><path d="M12.85,36.75,3.46,46.14a5.5,5.5,0,0,1-1.93-4.06C1.53,38.7,5,36,9.18,36A8.6,8.6,0,0,1,12.85,36.75Z"/><path d="M12.7,51.55l5.15-5.15C17.54,48.81,15.48,50.8,12.7,51.55Z"/><path d="M32.34,17.26,16.83,19V32.77l-3.06,3.06V10a1.53,1.53,0,0,1,1.36-1.52l27.52-3a1.49,1.49,0,0,1,1.18.38Z"/><path d="M45.41,18.84V42.71c0,3.37-3.43,6.12-7.64,6.12s-7.65-2.75-7.65-6.12,3.43-6.12,7.65-6.12a8.88,8.88,0,0,1,4.58,1.25V21.9Z"/><rect x="-7.68" y="24.16" width="71.61" height="7.93" transform="translate(-11.65 28.12) rotate(-45)"/></svg>