<svg id="Layer_1" data-name="Layer 1" xmlns="http://www.w3.org/2000/svg" width="289.51" height="67.46" viewBox="0 0 289.51 67.46"><defs><style>.cls-1,.cls-2{fill:none;stroke:#000;stroke-miterlimit:10;}.cls-2{stroke-width:2px;}</style></defs><path d="M70.35,15.68a9.71,9.71,0,0,0-6.06,2.09A13.71,13.71,0,0,0,60.74,22a13.66,13.66,0,0,0-3.54-4.27,9.72,9.72,0,0,0-6.07-2.09c-6.2,0-10.89,5.07-10.89,11.81,0,7.27,5.84,12.25,14.69,19.78,1.5,1.28,3.2,2.73,5,4.28a1.24,1.24,0,0,0,.84.32,1.28,1.28,0,0,0,.85-.32c1.76-1.55,3.47-3,5-4.28,8.84-7.53,14.68-12.51,14.68-19.78C81.24,20.75,76.56,15.68,70.35,15.68Z"/><path d="M154.53,15.68a9.67,9.67,0,0,0-6.06,2.09A13.71,13.71,0,0,0,144.92,22a13.71,13.71,0,0,0-3.55-4.27,9.67,9.67,0,0,0-6.06-2.09c-6.21,0-10.89,5.07-10.89,11.81,0,7.27,5.84,12.25,14.68,19.78,1.51,1.28,3.21,2.73,5,4.28a1.26,1.26,0,0,0,1.68,0c1.77-1.55,3.47-3,5-4.28,8.84-7.53,14.68-12.51,14.68-19.78C165.42,20.75,160.74,15.68,154.53,15.68Z"/><path d="M238.34,15.68a9.72,9.72,0,0,0-6.07,2.09A13.66,13.66,0,0,0,228.73,22a13.85,13.85,0,0,0-3.55-4.27,9.71,9.71,0,0,0-6.06-2.09c-6.21,0-10.89,5.07-10.89,11.81,0,7.27,5.84,12.25,14.68,19.78,1.5,1.28,3.2,2.73,5,4.28a1.28,1.28,0,0,0,.85.32,1.24,1.24,0,0,0,.84-.32c1.77-1.55,3.47-3,5-4.28,8.84-7.53,14.69-12.51,14.69-19.78C249.23,20.75,244.54,15.68,238.34,15.68Z"/><rect class="cls-1" x="5.48" y="6.34" width="279.13" height="54.86" rx="13.61" transform="translate(290.09 67.54) rotate(180)"/><rect class="cls-2" x="112.37" y="-109.68" width="64.82" height="286.91" transform="translate(111 178.55) rotate(-90)"/></svg>