<svg id="Layer_1" data-name="Layer 1" xmlns="http://www.w3.org/2000/svg" width="78.46" height="323.28" viewBox="0 0 78.46 323.28"><defs><style>.cls-1,.cls-3{fill:none;stroke:#fff;stroke-miterlimit:10;}.cls-2{fill:#fff;}.cls-3{stroke-width:4px;}</style></defs><rect class="cls-1" x="11.68" y="38.87" width="54.93" height="258.84" rx="13.61"/><path class="cls-2" d="M22.49,20.41c.36-.22.54-.38.54-.46s-.15-.14-.45-.16-.87,0-1.7,0H19v6.62A12.41,12.41,0,0,1,20.74,29a5.3,5.3,0,0,1,.64,2.26,1.57,1.57,0,0,1-.32,1,1.29,1.29,0,0,1-1,.4h-5.4v-.29a1.36,1.36,0,0,0,.7-.23.69.69,0,0,0,.34-.6V23.69A29.64,29.64,0,0,0,13.22,22a13.63,13.63,0,0,1-1.68-1.12,1.42,1.42,0,0,1-.6-.87,1,1,0,0,1,0-.25c0-.75.5-1.36,1.48-1.82A12.05,12.05,0,0,1,17,17.19H18.5a18.18,18.18,0,0,1,4.1.35,2.91,2.91,0,0,1,1.85,1,2.61,2.61,0,0,1,.29,1.37,10.39,10.39,0,0,1-.31,2.36l-.07.41-3-1.33C21.72,21,22.1,20.71,22.49,20.41Zm-8.14-.71H13a6,6,0,0,0-1.12.07c-.23.05-.34.14-.34.26a2.35,2.35,0,0,0,.88,1c.59.45,1.67,1.25,3.27,2.36V19.74C15.36,19.74,14.9,19.73,14.35,19.7Zm6.76,11.52a4.71,4.71,0,0,0-.55-1.93A12.67,12.67,0,0,0,19,26.92v4.64a.69.69,0,0,0,.34.6,1.29,1.29,0,0,0,.68.23,1,1,0,0,0,1.08-.91A.76.76,0,0,0,21.11,31.22Z"/><path class="cls-2" d="M32.74,32.16a1.29,1.29,0,0,0,.69.23v.29H28v-.29a1.36,1.36,0,0,0,.7-.23.69.69,0,0,0,.34-.6V19a.79.79,0,0,0-.19-.55,1,1,0,0,0-.57-.22l3.42-1.13a.91.91,0,0,1,.55.72,7.89,7.89,0,0,1,.12,1.53V31.56A.69.69,0,0,0,32.74,32.16Z"/><path class="cls-2" d="M52,32.16a1.36,1.36,0,0,0,.7.23v.29H47.24v-.29a1.36,1.36,0,0,0,.7-.23.68.68,0,0,0,.35-.6V20.8a4.09,4.09,0,0,1,0-.7A3.61,3.61,0,0,1,47,21.47a9.49,9.49,0,0,0-2.1,2,3.22,3.22,0,0,0,.1,4.4,4,4,0,0,1,.71,3.81,2.54,2.54,0,0,1-.5.93.88.88,0,0,1-.63.35c-.23,0-.46-.17-.66-.52a6.16,6.16,0,0,1-.58-1.87c-.14-.83-.29-1.94-.45-3.35s-.33-2.77-.49-3.77a11.73,11.73,0,0,0-.69-2.68,2.42,2.42,0,0,0-1.2-1.44V31.56a.68.68,0,0,0,.35.6,1.36,1.36,0,0,0,.7.23v.29H36.18v-.29a1.36,1.36,0,0,0,.7-.23.69.69,0,0,0,.34-.6V19.2a.71.71,0,0,0-.34-.57,1.36,1.36,0,0,0-.7-.23v-.33h4.36a2.29,2.29,0,0,1,2.2,1.66,18.24,18.24,0,0,1,1,4.62A9.63,9.63,0,0,1,46.87,21,4,4,0,0,0,48.37,19,1.3,1.3,0,0,1,49,18l3.45,1.13a1,1,0,0,0-.58.22.91.91,0,0,0-.18.55V31.56A.69.69,0,0,0,52,32.16Zm-6.73-1a2.72,2.72,0,0,0,.14-.94,3.15,3.15,0,0,0-.83-2.11c-.15-.16-.29-.33-.42-.5.11,1,.22,1.83.34,2.47a10.59,10.59,0,0,0,.41,1.66,1.13,1.13,0,0,0,.36-.6Z"/><path class="cls-2" d="M65.67,30.22a3.21,3.21,0,0,1,1.63.44l-1.69,1.48a1.59,1.59,0,0,0-.74-.35,2.21,2.21,0,0,0-.68-.05A6.27,6.27,0,0,0,62.9,32c-1,.23-1.86.4-2.61.53a12.2,12.2,0,0,1-2.09.18,2.37,2.37,0,0,1-2-.66,1.51,1.51,0,0,1-.2-.62V19.2a.71.71,0,0,0-.33-.57,1.36,1.36,0,0,0-.7-.23v-.33h4.36a12.2,12.2,0,0,1,2.69.38,9.06,9.06,0,0,0,1.72.27,2.59,2.59,0,0,0,1.72-.65l1.81,1.65a5,5,0,0,1-2.25.5,6.17,6.17,0,0,1-1.86-.28,14.76,14.76,0,0,1-1.9-.76l-.83-.35a2.23,2.23,0,0,0-.63-.15c-.28,0-.45.17-.5.52v6a5.68,5.68,0,0,1,2-1.1,7.88,7.88,0,0,1,2.55-.42,4.92,4.92,0,0,1,2.75.71l-1.4,1.42a3.52,3.52,0,0,0-1.41-.63,8.84,8.84,0,0,0-2-.24,5.77,5.77,0,0,0-2.36.42V30a3.05,3.05,0,0,0,.29,1.6,1.07,1.07,0,0,0,1,.54,2.5,2.5,0,0,0,1.34-.5A6.91,6.91,0,0,1,65.67,30.22Z"/><rect class="cls-3" x="5.7" y="5.49" width="67.06" height="296.84"/></svg>