<svg id="Layer_1" data-name="Layer 1" xmlns="http://www.w3.org/2000/svg" width="199.05" height="45.74" viewBox="0 0 199.05 45.74"><defs><style>.cls-1{fill:#315a6e;stroke-width:0.5px;}.cls-1,.cls-2{stroke:#fcd7a2;stroke-miterlimit:10;}.cls-2{fill:none;}.cls-3{fill:#fcd7a2;}</style></defs><rect class="cls-1" x="3.37" y="3.94" width="192.68" height="37.87" rx="9.72" transform="translate(199.43 45.74) rotate(-180)"/><rect class="cls-2" x="77.16" y="-76.16" width="44.74" height="198.05" transform="translate(76.66 122.4) rotate(-90)"/><path class="cls-3" d="M34.33,14.91c.47-.29.71-.5.71-.6s-.2-.18-.59-.21-1.13,0-2.22,0H29.8v8.65a16.23,16.23,0,0,1,2.25,3.42,7.07,7.07,0,0,1,.83,3,2,2,0,0,1-.42,1.33,1.68,1.68,0,0,1-1.29.53H24.1v-.38a1.62,1.62,0,0,0,.91-.3.92.92,0,0,0,.45-.79V19.19q-1.14-.87-3.24-2.16A19.65,19.65,0,0,1,20,15.57a1.91,1.91,0,0,1-.78-1.13,1.43,1.43,0,0,1,0-.33c0-1,.64-1.77,1.93-2.38a15.7,15.7,0,0,1,5.92-1l2,0a24.25,24.25,0,0,1,5.36.45,3.81,3.81,0,0,1,2.42,1.32,3.45,3.45,0,0,1,.38,1.8,14.14,14.14,0,0,1-.41,3.08l-.08.55-4-1.75A18.89,18.89,0,0,1,34.33,14.91ZM23.69,14l-1.75,0a7.26,7.26,0,0,0-1.46.1c-.3.06-.45.17-.45.34s.39.71,1.15,1.31,2.19,1.62,4.28,3.08V14C25,14,24.42,14,23.69,14ZM32.53,29a6,6,0,0,0-.72-2.52,16.71,16.71,0,0,0-2-3.1v6.06a.93.93,0,0,0,.44.79,1.57,1.57,0,0,0,.9.3A1.34,1.34,0,0,0,32.53,29Z"/><path class="cls-3" d="M52.65,27.65a7.85,7.85,0,0,0,3,.54,11.63,11.63,0,0,0,3-.39,9.82,9.82,0,0,0,2.58-1.08L58.89,30.9a9.81,9.81,0,0,1-2.65.38,6.41,6.41,0,0,1-4.16-1.39A8.52,8.52,0,0,1,49.5,26c-1.91-.28-3-1.07-3.19-2.4a1.31,1.31,0,0,1,0-.33,1.27,1.27,0,0,1,.29-.87.94.94,0,0,1,.75-.33,2.42,2.42,0,0,1,1.58.8,6.54,6.54,0,0,1,1.47,2.45,5.26,5.26,0,0,0,3-1.08,6.08,6.08,0,0,0,1.86-2.46,8.15,8.15,0,0,0,.62-3.15,7.85,7.85,0,0,0-.54-2.92,5.6,5.6,0,0,0-1.65-2.26,4.79,4.79,0,0,0-2.66-1,2.29,2.29,0,0,0-.44,0,4.77,4.77,0,0,0-3,1.14A7.09,7.09,0,0,0,45.3,16.9a8.49,8.49,0,0,0-.44,2.7,15,15,0,0,0,1.45,5.92,10.52,10.52,0,0,1,1,3.87A2,2,0,0,1,47,30.53a1,1,0,0,1-.87.42H39.11v-.38a1.64,1.64,0,0,0,.91-.3.92.92,0,0,0,.45-.79V16.24c0-.92,0-1.56,0-1.91a1.15,1.15,0,0,0-.25-.72,1.33,1.33,0,0,0-.75-.29l4.5-1.47a1.13,1.13,0,0,1,.71.94,9.69,9.69,0,0,1,.17,2v1.8a7.36,7.36,0,0,1,3-4.05,8.7,8.7,0,0,1,4.81-1.41,8.82,8.82,0,0,1,3.76.83,7,7,0,0,1,2.85,2.43,6.61,6.61,0,0,1,1.08,3.78A6.9,6.9,0,0,1,59,22.53a8.35,8.35,0,0,1-3.59,2.68,11.78,11.78,0,0,1-4.66.83A3.78,3.78,0,0,0,52.65,27.65Zm-7.84-4.94v6.77a.92.92,0,0,0,.43.79,1.61,1.61,0,0,0,.9.3.58.58,0,0,0,.54-.36,2.24,2.24,0,0,0,.17-.95,7,7,0,0,0-.24-1.69A10.36,10.36,0,0,0,46,25.79,19.76,19.76,0,0,1,44.81,22.71Zm3,2a3.68,3.68,0,0,0,1.49.57,3.27,3.27,0,0,0-.71-1.55c-.38-.47-.73-.71-1-.71s-.38.21-.38.63A1.27,1.27,0,0,0,47.82,24.7Z"/><path class="cls-3" d="M76.44,18.17a16.16,16.16,0,0,1-2,4.29,5.81,5.81,0,0,1-2.12,2.11v4.91a.92.92,0,0,0,.45.79,1.64,1.64,0,0,0,.91.3V31H66.61v-.38a1.62,1.62,0,0,0,.91-.3.92.92,0,0,0,.45-.79V24.59L61.64,13.3a3.77,3.77,0,0,0-.58-.8,1.15,1.15,0,0,0-.81-.27l.06-.38h7.06l-.05.38a1.53,1.53,0,0,0-.9.29.73.73,0,0,0-.3.83l5,9c.38.68.79,1,1.23,1a1.49,1.49,0,0,0,1.15-.76,7.1,7.1,0,0,0,1-2A11.45,11.45,0,0,0,75,18.15a11.94,11.94,0,0,0,.14-1.63,6.52,6.52,0,0,0-.67-3.06,3.09,3.09,0,0,0-1.93-1.61l3.8-2.1a3.07,3.07,0,0,1,.68,1.16,6.44,6.44,0,0,1,.22,1.87A17.32,17.32,0,0,1,76.44,18.17Z"/><path class="cls-3" d="M105.71,30.35a2.25,2.25,0,0,0,.92.22l0,.38H99.51l.06-.38a1.86,1.86,0,0,0,.73-.14.49.49,0,0,0,.33-.49,2,2,0,0,0,0-.27L95.23,13.54a12.65,12.65,0,0,1-1,2.54,30.71,30.71,0,0,1-2,3.36c-.69,1-1.22,1.77-1.58,2.26q-2.2,3.19-3.23,4.91a7.39,7.39,0,0,0-1.14,2.87,2.2,2.2,0,0,0,.07.92.41.41,0,0,0,.4.3,1,1,0,0,0,.72-.41,3.33,3.33,0,0,0,.67-1.06,3.55,3.55,0,0,0,.27-1.36V27a6.16,6.16,0,0,1,.07-1.06,1.82,1.82,0,0,1,.23-.68A2.38,2.38,0,0,1,90.92,24a4.89,4.89,0,0,1,1.29.18c.45.12,1,.29,1.68.5l1.46.45a3.73,3.73,0,0,0,1,.15,1.33,1.33,0,0,0,.93-.3l2.07,1.94a5.62,5.62,0,0,1-1.64.3,3.58,3.58,0,0,1-1.62-.39,8.27,8.27,0,0,1-1.73-1.27,2.35,2.35,0,0,0-1.07-.63c-.25,0-.41.22-.48.65a20,20,0,0,0-.09,2.32,3.56,3.56,0,0,1-.7,2,4.12,4.12,0,0,1-1.61,1.31,4.61,4.61,0,0,1-2,.45,3.46,3.46,0,0,1-2.31-.79,2.82,2.82,0,0,1-.94-2.3,5.21,5.21,0,0,1,.08-.87A6.4,6.4,0,0,1,86.46,25a35.51,35.51,0,0,1,2.71-3.21l1-1.12c.57-.63,1.08-1.25,1.54-1.85A38.33,38.33,0,0,0,94,15.29a9.19,9.19,0,0,0,1-2.35,1.4,1.4,0,0,0-1.22-.71l0-.38h7.07l-.06.38a1.58,1.58,0,0,0-.9.29.76.76,0,0,0-.3.83l5.46,16.32A1.17,1.17,0,0,0,105.71,30.35Z"/><path class="cls-3" d="M106.8,16.28a8.35,8.35,0,0,1,3.3-3.34,8.61,8.61,0,0,1,4.15-1.09,32.34,32.34,0,0,1,4.54.3,10,10,0,0,1,3.92,1.42l-2.46,1.28a2.89,2.89,0,0,0-1.09-1.66,3.74,3.74,0,0,0-2.38-.69,5.58,5.58,0,0,0-3.24,1.07,7.61,7.61,0,0,0-2.49,3.12,11.78,11.78,0,0,0-1,4.93,9.38,9.38,0,0,0,.85,4.05,7,7,0,0,0,2.29,2.84,5.36,5.36,0,0,0,3.16,1,4.84,4.84,0,0,0,3.21-.9,2.85,2.85,0,0,0,1-2.26,4.08,4.08,0,0,0-.52-2,4.61,4.61,0,0,0-1.39-1.58,3.19,3.19,0,0,0-1.88-.61,2.94,2.94,0,0,0-.93.13,6.09,6.09,0,0,1-1.64.28,1.39,1.39,0,0,1-.83-.21.62.62,0,0,1-.29-.53c0-.4.3-.9.94-1.51a8.49,8.49,0,0,1,2.64-1.6,9.64,9.64,0,0,1,3.65-.68,11.53,11.53,0,0,1,2.3.24L121,20.64a5,5,0,0,0-1.8-.28,10.82,10.82,0,0,0-2.28.25,11.37,11.37,0,0,0-2,.57q-.83.33-.9.6c-.06.17.4.25,1.36.25a15.18,15.18,0,0,0,2.81-.22,9.48,9.48,0,0,1,1.09-.11,3.65,3.65,0,0,1,2.68.94A3.18,3.18,0,0,1,123,25a4.76,4.76,0,0,1-1,2.8,7.36,7.36,0,0,1-3,2.28,11.7,11.7,0,0,1-4.83.9,8.51,8.51,0,0,1-5-1.34,7.6,7.6,0,0,1-2.75-3.39,11.76,11.76,0,0,1-.88-4.38A10.84,10.84,0,0,1,106.8,16.28Z"/><path class="cls-3" d="M144.83,30.35a2.26,2.26,0,0,0,.93.22l0,.38h-7.07l.05-.38a1.91,1.91,0,0,0,.74-.14.49.49,0,0,0,.33-.49,1.35,1.35,0,0,0-.06-.27l-5.34-16.13a12.65,12.65,0,0,1-1.05,2.54,34.28,34.28,0,0,1-2,3.36c-.69,1-1.22,1.77-1.59,2.26q-2.2,3.19-3.23,4.91a7.34,7.34,0,0,0-1.13,2.87,2,2,0,0,0,.07.92.41.41,0,0,0,.39.3,1.08,1.08,0,0,0,.73-.41,3.31,3.31,0,0,0,.66-1.06,3.38,3.38,0,0,0,.28-1.36V27a6.16,6.16,0,0,1,.07-1.06,1.82,1.82,0,0,1,.23-.68A2.38,2.38,0,0,1,130,24a5,5,0,0,1,1.3.18c.45.12,1,.29,1.68.5s1.1.35,1.46.45a3.61,3.61,0,0,0,1,.15,1.33,1.33,0,0,0,.93-.3l2.08,1.94a5.67,5.67,0,0,1-1.64.3,3.59,3.59,0,0,1-1.63-.39,8.82,8.82,0,0,1-1.73-1.27,2.33,2.33,0,0,0-1.06-.63c-.26,0-.42.22-.48.65a20,20,0,0,0-.09,2.32,3.56,3.56,0,0,1-.7,2,4.19,4.19,0,0,1-1.61,1.31,4.68,4.68,0,0,1-2,.45,3.42,3.42,0,0,1-2.3-.79,2.83,2.83,0,0,1-1-2.3,4.36,4.36,0,0,1,.09-.87A6.5,6.5,0,0,1,125.58,25a37.67,37.67,0,0,1,2.72-3.21c.11-.11.45-.48,1-1.12s1.09-1.25,1.54-1.85a34.45,34.45,0,0,0,2.21-3.52,9,9,0,0,0,1-2.35,1.42,1.42,0,0,0-1.23-.71l.06-.38H140l-.05.38a1.53,1.53,0,0,0-.9.29.76.76,0,0,0-.3.83l5.46,16.32A1.12,1.12,0,0,0,144.83,30.35Z"/><path class="cls-3" d="M153,30.27a1.65,1.65,0,0,0,.92.3V31h-7.07v-.38a1.65,1.65,0,0,0,.92-.3.92.92,0,0,0,.45-.79V14.91c0-.93,0-1.57-.05-1.91a1.1,1.1,0,0,0-.24-.73,1.4,1.4,0,0,0-.75-.28l4.5-1.48a1.17,1.17,0,0,1,.71.94,9.86,9.86,0,0,1,.16,2v16A.92.92,0,0,0,153,30.27Z"/><path class="cls-3" d="M155.64,28.59a16.67,16.67,0,0,0,.32-3.43q.09-2.61.09-9.33l0-2.34c0-.24,0-.53,0-.88a3.51,3.51,0,0,1,0-.53.28.28,0,0,1,.14-.23h7.23v.38a1.37,1.37,0,0,0-.73.21.65.65,0,0,0-.34.58.81.81,0,0,0,.06.33q2,3.9,6.11,12c.67,1.34,1.21,2.41,1.62,3.2A9.31,9.31,0,0,0,171,30a1.81,1.81,0,0,0,.58.42c0-1.16,0-2.26-.08-3.3a53.66,53.66,0,0,0-.46-5.46q-.36-2.48-.9-5.1c-.15-.73-.27-1.41-.37-2a10.13,10.13,0,0,1-.15-1.49c0-.67.18-1.07.55-1.2l3.35,1.47a1.1,1.1,0,0,0-.9.89,17.14,17.14,0,0,0-.33,3.42q-.08,2.63-.08,9.34l0,2.37c0,.22,0,.5,0,.85a3.35,3.35,0,0,1,0,.57A.24.24,0,0,1,172,31h-7.18v-.38a1.44,1.44,0,0,0,.82-.25.65.65,0,0,0,.25-.74L157.63,13.3a2.05,2.05,0,0,0-1-.93q0,1.74.09,3.3a50.94,50.94,0,0,0,.46,5.46q.36,2.48.9,5.1c.15.73.27,1.4.37,2a10.13,10.13,0,0,1,.15,1.49c0,.67-.18,1.07-.55,1.2l-3.35-1.47A1.11,1.11,0,0,0,155.64,28.59Z"/></svg>